<?xml version="1.0" encoding="UTF-8"?>
<svg xmlns="http://www.w3.org/2000/svg" width="48" height="36" viewBox="0 0 32 24" role="img" aria-label="Français — drapeau style médieval moderne" shape-rendering="geometricPrecision">
  <title>FR — French Flag (UI medieval enamel badge)</title>
  <desc>French tricolour with a subtle gold enamel rim, gentle highlight and shadow to fit a modern UI with a medieval theme. Clean SVG, scalable, no text.</desc>

  <!-- Drop shadow for separation on dark headers -->
  <defs>
    <filter id="drop" x="-20%" y="-20%" width="140%" height="160%" color-interpolation-filters="sRGB">
      <feOffset dy="0.6" />
      <feGaussianBlur stdDeviation="0.6" />
      <feColorMatrix type="matrix" values="0 0 0 0 0
                                           0 0 0 0 0
                                           0 0 0 0 0
                                           0 0 0 0.25 0"/>
      <feBlend in2="SourceGraphic" mode="normal"/>
    </filter>

    <!-- Subtle inner shadow / vignette for enamel look -->
    <radialGradient id="vig" cx="30%" cy="20%" r="85%">
      <stop offset="0%" stop-color="#ffffff" stop-opacity="0.20"/>
      <stop offset="55%" stop-color="#ffffff" stop-opacity="0.06"/>
      <stop offset="100%" stop-color="#000000" stop-opacity="0.20"/>
    </radialGradient>

    <!-- Gold rim gradient -->
    <linearGradient id="gold" x1="0" y1="0" x2="0" y2="1">
      <stop offset="0%" stop-color="#E6C678"/>
      <stop offset="45%" stop-color="#C9A86C"/>
      <stop offset="55%" stop-color="#9E7F49"/>
      <stop offset="100%" stop-color="#8A6C3E"/>
    </linearGradient>

    <!-- Highlight sheen -->
    <linearGradient id="sheen" x1="0" y1="0" x2="1" y2="1">
      <stop offset="0%" stop-color="#FFFFFF" stop-opacity="0.35"/>
      <stop offset="40%" stop-color="#FFFFFF" stop-opacity="0.10"/>
      <stop offset="100%" stop-color="#FFFFFF" stop-opacity="0"/>
    </linearGradient>

    <!-- Mask to keep vignette and sheen inside the rounded flag -->
    <mask id="clip">
      <rect x="0.5" y="0.5" width="31" height="23" rx="3" ry="3" fill="#fff"/>
    </mask>
  </defs>

  <!-- Gold rim (medieval touch) -->
  <rect x="0.5" y="0.5" width="31" height="23" rx="3" ry="3" fill="url(#gold)" filter="url(#drop)"/>
  <!-- Inner bezel -->
  <rect x="1.3" y="1.3" width="29.4" height="21.4" rx="2.4" ry="2.4" fill="#14151b" opacity="0.35"/>

  <!-- Flag body -->
  <g mask="url(#clip)">
    <!-- Stripes (official colours) -->
    <rect x="1.6" y="1.6" width="28.8" height="20.8" rx="2" ry="2" fill="#0B0E14"/>
    <g transform="translate(1.6,1.6)">
      <rect width="9.6" height="20.8" fill="#0055A4"/>
      <rect x="9.6" width="9.6" height="20.8" fill="#FFFFFF"/>
      <rect x="19.2" width="9.6" height="20.8" fill="#EF4135"/>
    </g>

    <!-- Enamel sheen and vignette -->
    <rect x="1.6" y="1.6" width="28.8" height="20.8" fill="url(#vig)"/>
    <rect x="1.6" y="1.6" width="28.8" height="20.8" fill="url(#sheen)"/>
  </g>

  <!-- Tiny corner notches suggestion (very subtle, medieval hint) -->
  <g opacity="0.35">
    <path d="M3.2,2.2 l2.0,0 l0,0.9 l-1.1,0 a1,1 0 0 1 -0.9,-0.9 z" fill="#2a1f10"/>
    <path d="M28.8,2.2 l-2.0,0 l0,0.9 l1.1,0 a1,1 0 0 0 0.9,-0.9 z" fill="#2a1f10"/>
    <path d="M3.2,21.8 l2.0,0 l0,-0.9 l-1.1,0 a1,1 0 0 0 -0.9,0.9 z" fill="#2a1f10"/>
    <path d="M28.8,21.8 l-2.0,0 l0,-0.9 l1.1,0 a1,1 0 0 1 0.9,0.9 z" fill="#2a1f10"/>
  </g>
</svg>
