<?xml version="1.0" encoding="UTF-8"?>
<svg xmlns="http://www.w3.org/2000/svg" width="48" height="36" viewBox="0 0 32 24" role="img"
     aria-label="English (GB) — flag medieval UI badge" shape-rendering="geometricPrecision">
  <title>GB — Union Flag (UI medieval enamel badge, rim on top)</title>
  <desc>UK flag with enamel look and gold rim drawn above (symmetric approximation of diagonals).</desc>
  
  <defs>
    <!-- Drop shadow behind the whole badge -->
    <filter id="drop" x="-20%" y="-20%" width="140%" height="160%" color-interpolation-filters="sRGB">
      <feOffset dy="0.6" />
      <feGaussianBlur stdDeviation="0.6" />
      <feColorMatrix type="matrix" values="0 0 0 0 0
                                           0 0 0 0 0
                                           0 0 0 0 0
                                           0 0 0 0.25 0"/>
      <feBlend in2="SourceGraphic" mode="normal"/>
    </filter>

    <!-- Vignette for enamel look -->
    <radialGradient id="vig" cx="30%" cy="20%" r="85%">
      <stop offset="0%" stop-color="#ffffff" stop-opacity="0.20"/>
      <stop offset="55%" stop-color="#ffffff" stop-opacity="0.06"/>
      <stop offset="100%" stop-color="#000000" stop-opacity="0.20"/>
    </radialGradient>

    <!-- Gold gradient for the rim -->
    <linearGradient id="gold" x1="0" y1="0" x2="0" y2="1">
      <stop offset="0%" stop-color="#E6C678"/>
      <stop offset="45%" stop-color="#C9A86C"/>
      <stop offset="55%" stop-color="#9E7F49"/>
      <stop offset="100%" stop-color="#8A6C3E"/>
    </linearGradient>

    <!-- Light sheen -->
    <linearGradient id="sheen" x1="0" y1="0" x2="1" y2="1">
      <stop offset="0%" stop-color="#FFFFFF" stop-opacity="0.35"/>
      <stop offset="40%" stop-color="#FFFFFF" stop-opacity="0.10"/>
      <stop offset="100%" stop-color="#FFFFFF" stop-opacity="0"/>
    </linearGradient>

    <!-- Mask keeps artwork inside rounded rectangle -->
    <mask id="clip">
      <rect x="0.5" y="0.5" width="31" height="23" rx="3" ry="3" fill="#fff"/>
    </mask>
  </defs>
    
  <g filter="url(#drop)">
    <!-- Body under the rim -->
    <g mask="url(#clip)">
      <rect x="0.5" y="0.5" width="31" height="23" fill="#012169"/>
      <path d="M 0.5,1.88 L 1.88,0.5 L 31.5,22.12 L 30.12,23.5 Z" fill="#FFFFFF"/><path d="M 0.5,22.12 L 1.88,23.5 L 31.5,1.88 L 30.12,0.5 Z" fill="#FFFFFF"/>
      <rect x="0.5" y="8.1667" width="31" height="7.6667" fill="#FFFFFF"/><rect x="12.1667" y="0.5" width="7.6667" height="23" fill="#FFFFFF"/>
      <path d="M 0.5,1.19 L 1.19,0.5 L 31.5,22.81 L 30.81,23.5 Z" fill="#C8102E"/><path d="M 0.5,22.81 L 1.19,23.5 L 31.5,1.19 L 30.81,0.5 Z" fill="#C8102E"/>
      <rect x="0.5" y="9.7000" width="31" height="4.6000" fill="#C8102E"/><rect x="13.7000" y="0.5" width="4.6000" height="23" fill="#C8102E"/>
      
      <rect x="0.5" y="0.5" width="31" height="23" fill="url(#vig)"/>
      <rect x="0.5" y="0.5" width="31" height="23" fill="url(#sheen)"/>
    
    </g>
    
    <!-- GOLD RIM ON TOP -->
    <rect x="0.5" y="0.5" width="31" height="23" rx="3" ry="3"
          fill="none" stroke="url(#gold)" stroke-width="1.8"
          stroke-linejoin="round" stroke-linecap="round"
          vector-effect="non-scaling-stroke" pointer-events="none"/>
    <!-- Inner light bevel (very subtle) -->
    <rect x="1.2" y="1.2" width="29.6" height="21.6" rx="2.4" ry="2.4"
          fill="none" stroke="#ffffff" opacity="0.15" stroke-width="0.8"
          vector-effect="non-scaling-stroke" pointer-events="none"/>
    
  </g>
</svg>