<?xml version="1.0" encoding="UTF-8"?>
<svg xmlns="http://www.w3.org/2000/svg" width="48" height="36" viewBox="0 0 32 24" role="img"
     aria-label="English (US) — flag medieval UI badge" shape-rendering="geometricPrecision">
  <title>US — Flag (UI medieval enamel badge, rim on top)</title>
  <desc>US flag with enamel look and gold rim drawn above.</desc>
  
  <defs>
    <!-- Drop shadow behind the whole badge -->
    <filter id="drop" x="-20%" y="-20%" width="140%" height="160%" color-interpolation-filters="sRGB">
      <feOffset dy="0.6" />
      <feGaussianBlur stdDeviation="0.6" />
      <feColorMatrix type="matrix" values="0 0 0 0 0
                                           0 0 0 0 0
                                           0 0 0 0 0
                                           0 0 0 0.25 0"/>
      <feBlend in2="SourceGraphic" mode="normal"/>
    </filter>

    <!-- Vignette for enamel look -->
    <radialGradient id="vig" cx="30%" cy="20%" r="85%">
      <stop offset="0%" stop-color="#ffffff" stop-opacity="0.20"/>
      <stop offset="55%" stop-color="#ffffff" stop-opacity="0.06"/>
      <stop offset="100%" stop-color="#000000" stop-opacity="0.20"/>
    </radialGradient>

    <!-- Gold gradient for the rim -->
    <linearGradient id="gold" x1="0" y1="0" x2="0" y2="1">
      <stop offset="0%" stop-color="#E6C678"/>
      <stop offset="45%" stop-color="#C9A86C"/>
      <stop offset="55%" stop-color="#9E7F49"/>
      <stop offset="100%" stop-color="#8A6C3E"/>
    </linearGradient>

    <!-- Light sheen -->
    <linearGradient id="sheen" x1="0" y1="0" x2="1" y2="1">
      <stop offset="0%" stop-color="#FFFFFF" stop-opacity="0.35"/>
      <stop offset="40%" stop-color="#FFFFFF" stop-opacity="0.10"/>
      <stop offset="100%" stop-color="#FFFFFF" stop-opacity="0"/>
    </linearGradient>

    <!-- Mask keeps artwork inside rounded rectangle -->
    <mask id="clip">
      <rect x="0.5" y="0.5" width="31" height="23" rx="3" ry="3" fill="#fff"/>
    </mask>
  </defs>
    
  <g filter="url(#drop)">
    <!-- Body under the rim -->
    <g mask="url(#clip)">
      <rect x="0.5" y="0.5" width="31" height="23" fill="#0b0e14"/>
      <rect x="0.5" y="0.5000" width="31" height="1.7792" fill="#B22234"/><rect x="0.5" y="2.2692" width="31" height="1.7792" fill="#FFFFFF"/><rect x="0.5" y="4.0385" width="31" height="1.7792" fill="#B22234"/><rect x="0.5" y="5.8077" width="31" height="1.7792" fill="#FFFFFF"/><rect x="0.5" y="7.5769" width="31" height="1.7792" fill="#B22234"/><rect x="0.5" y="9.3462" width="31" height="1.7792" fill="#FFFFFF"/><rect x="0.5" y="11.1154" width="31" height="1.7792" fill="#B22234"/><rect x="0.5" y="12.8846" width="31" height="1.7792" fill="#FFFFFF"/><rect x="0.5" y="14.6538" width="31" height="1.7792" fill="#B22234"/><rect x="0.5" y="16.4231" width="31" height="1.7792" fill="#FFFFFF"/><rect x="0.5" y="18.1923" width="31" height="1.7792" fill="#B22234"/><rect x="0.5" y="19.9615" width="31" height="1.7792" fill="#FFFFFF"/><rect x="0.5" y="21.7308" width="31" height="1.7792" fill="#B22234"/>
      <rect x="0.5" y="0.5" width="17.4800" height="12.3846" fill="#3C3B6E"/>
      <g fill="#FFFFFF"><path d="M 1.9567,1.0573 L 2.1096,1.5280 2.6045,1.5280 2.2041,1.8189 2.3570,2.2895 1.9567,1.9987 1.5563,2.2895 1.7092,1.8189 1.3089,1.5280 1.8037,1.5280 Z"/><path d="M 4.8700,1.0573 L 5.0229,1.5280 5.5178,1.5280 5.1175,1.8189 5.2704,2.2895 4.8700,1.9987 4.4696,2.2895 4.6225,1.8189 4.2222,1.5280 4.7171,1.5280 Z"/><path d="M 7.7833,1.0573 L 7.9363,1.5280 8.4311,1.5280 8.0308,1.8189 8.1837,2.2895 7.7833,1.9987 7.3830,2.2895 7.5359,1.8189 7.1355,1.5280 7.6304,1.5280 Z"/><path d="M 10.6967,1.0573 L 10.8496,1.5280 11.3445,1.5280 10.9441,1.8189 11.0970,2.2895 10.6967,1.9987 10.2963,2.2895 10.4492,1.8189 10.0489,1.5280 10.5437,1.5280 Z"/><path d="M 13.6100,1.0573 L 13.7629,1.5280 14.2578,1.5280 13.8575,1.8189 14.0104,2.2895 13.6100,1.9987 13.2096,2.2895 13.3625,1.8189 12.9622,1.5280 13.4571,1.5280 Z"/><path d="M 16.5233,1.0573 L 16.6763,1.5280 17.1711,1.5280 16.7708,1.8189 16.9237,2.2895 16.5233,1.9987 16.1230,2.2895 16.2759,1.8189 15.8755,1.5280 16.3704,1.5280 Z"/><path d="M 3.4133,3.5342 L 3.5663,4.0049 4.0611,4.0049 3.6608,4.2958 3.8137,4.7664 3.4133,4.4756 3.0130,4.7664 3.1659,4.2958 2.7655,4.0049 3.2604,4.0049 Z"/><path d="M 6.3267,3.5342 L 6.4796,4.0049 6.9745,4.0049 6.5741,4.2958 6.7270,4.7664 6.3267,4.4756 5.9263,4.7664 6.0792,4.2958 5.6789,4.0049 6.1737,4.0049 Z"/><path d="M 9.2400,3.5342 L 9.3929,4.0049 9.8878,4.0049 9.4875,4.2958 9.6404,4.7664 9.2400,4.4756 8.8396,4.7664 8.9925,4.2958 8.5922,4.0049 9.0871,4.0049 Z"/><path d="M 12.1533,3.5342 L 12.3063,4.0049 12.8011,4.0049 12.4008,4.2958 12.5537,4.7664 12.1533,4.4756 11.7530,4.7664 11.9059,4.2958 11.5055,4.0049 12.0004,4.0049 Z"/><path d="M 15.0667,3.5342 L 15.2196,4.0049 15.7145,4.0049 15.3141,4.2958 15.4670,4.7664 15.0667,4.4756 14.6663,4.7664 14.8192,4.2958 14.4189,4.0049 14.9137,4.0049 Z"/><path d="M 1.9567,6.0112 L 2.1096,6.4818 2.6045,6.4818 2.2041,6.7727 2.3570,7.2434 1.9567,6.9525 1.5563,7.2434 1.7092,6.7727 1.3089,6.4818 1.8037,6.4818 Z"/><path d="M 4.8700,6.0112 L 5.0229,6.4818 5.5178,6.4818 5.1175,6.7727 5.2704,7.2434 4.8700,6.9525 4.4696,7.2434 4.6225,6.7727 4.2222,6.4818 4.7171,6.4818 Z"/><path d="M 7.7833,6.0112 L 7.9363,6.4818 8.4311,6.4818 8.0308,6.7727 8.1837,7.2434 7.7833,6.9525 7.3830,7.2434 7.5359,6.7727 7.1355,6.4818 7.6304,6.4818 Z"/><path d="M 10.6967,6.0112 L 10.8496,6.4818 11.3445,6.4818 10.9441,6.7727 11.0970,7.2434 10.6967,6.9525 10.2963,7.2434 10.4492,6.7727 10.0489,6.4818 10.5437,6.4818 Z"/><path d="M 13.6100,6.0112 L 13.7629,6.4818 14.2578,6.4818 13.8575,6.7727 14.0104,7.2434 13.6100,6.9525 13.2096,7.2434 13.3625,6.7727 12.9622,6.4818 13.4571,6.4818 Z"/><path d="M 16.5233,6.0112 L 16.6763,6.4818 17.1711,6.4818 16.7708,6.7727 16.9237,7.2434 16.5233,6.9525 16.1230,7.2434 16.2759,6.7727 15.8755,6.4818 16.3704,6.4818 Z"/><path d="M 3.4133,8.4881 L 3.5663,8.9587 4.0611,8.9587 3.6608,9.2496 3.8137,9.7203 3.4133,9.4294 3.0130,9.7203 3.1659,9.2496 2.7655,8.9587 3.2604,8.9587 Z"/><path d="M 6.3267,8.4881 L 6.4796,8.9587 6.9745,8.9587 6.5741,9.2496 6.7270,9.7203 6.3267,9.4294 5.9263,9.7203 6.0792,9.2496 5.6789,8.9587 6.1737,8.9587 Z"/><path d="M 9.2400,8.4881 L 9.3929,8.9587 9.8878,8.9587 9.4875,9.2496 9.6404,9.7203 9.2400,9.4294 8.8396,9.7203 8.9925,9.2496 8.5922,8.9587 9.0871,8.9587 Z"/><path d="M 12.1533,8.4881 L 12.3063,8.9587 12.8011,8.9587 12.4008,9.2496 12.5537,9.7203 12.1533,9.4294 11.7530,9.7203 11.9059,9.2496 11.5055,8.9587 12.0004,8.9587 Z"/><path d="M 15.0667,8.4881 L 15.2196,8.9587 15.7145,8.9587 15.3141,9.2496 15.4670,9.7203 15.0667,9.4294 14.6663,9.7203 14.8192,9.2496 14.4189,8.9587 14.9137,8.9587 Z"/><path d="M 1.9567,10.9650 L 2.1096,11.4356 2.6045,11.4357 2.2041,11.7266 2.3570,12.1972 1.9567,11.9064 1.5563,12.1972 1.7092,11.7266 1.3089,11.4357 1.8037,11.4356 Z"/><path d="M 4.8700,10.9650 L 5.0229,11.4356 5.5178,11.4357 5.1175,11.7266 5.2704,12.1972 4.8700,11.9064 4.4696,12.1972 4.6225,11.7266 4.2222,11.4357 4.7171,11.4356 Z"/><path d="M 7.7833,10.9650 L 7.9363,11.4356 8.4311,11.4357 8.0308,11.7266 8.1837,12.1972 7.7833,11.9064 7.3830,12.1972 7.5359,11.7266 7.1355,11.4357 7.6304,11.4356 Z"/><path d="M 10.6967,10.9650 L 10.8496,11.4356 11.3445,11.4357 10.9441,11.7266 11.0970,12.1972 10.6967,11.9064 10.2963,12.1972 10.4492,11.7266 10.0489,11.4357 10.5437,11.4356 Z"/><path d="M 13.6100,10.9650 L 13.7629,11.4356 14.2578,11.4357 13.8575,11.7266 14.0104,12.1972 13.6100,11.9064 13.2096,12.1972 13.3625,11.7266 12.9622,11.4357 13.4571,11.4356 Z"/><path d="M 16.5233,10.9650 L 16.6763,11.4356 17.1711,11.4357 16.7708,11.7266 16.9237,12.1972 16.5233,11.9064 16.1230,12.1972 16.2759,11.7266 15.8755,11.4357 16.3704,11.4356 Z"/><path d="M 3.4133,13.4419 L 3.5663,13.9126 4.0611,13.9126 3.6608,14.2035 3.8137,14.6741 3.4133,14.3833 3.0130,14.6741 3.1659,14.2035 2.7655,13.9126 3.2604,13.9126 Z"/><path d="M 6.3267,13.4419 L 6.4796,13.9126 6.9745,13.9126 6.5741,14.2035 6.7270,14.6741 6.3267,14.3833 5.9263,14.6741 6.0792,14.2035 5.6789,13.9126 6.1737,13.9126 Z"/><path d="M 9.2400,13.4419 L 9.3929,13.9126 9.8878,13.9126 9.4875,14.2035 9.6404,14.6741 9.2400,14.3833 8.8396,14.6741 8.9925,14.2035 8.5922,13.9126 9.0871,13.9126 Z"/><path d="M 12.1533,13.4419 L 12.3063,13.9126 12.8011,13.9126 12.4008,14.2035 12.5537,14.6741 12.1533,14.3833 11.7530,14.6741 11.9059,14.2035 11.5055,13.9126 12.0004,13.9126 Z"/><path d="M 15.0667,13.4419 L 15.2196,13.9126 15.7145,13.9126 15.3141,14.2035 15.4670,14.6741 15.0667,14.3833 14.6663,14.6741 14.8192,14.2035 14.4189,13.9126 14.9137,13.9126 Z"/><path d="M 1.9567,15.9188 L 2.1096,16.3895 2.6045,16.3895 2.2041,16.6804 2.3570,17.1511 1.9567,16.8602 1.5563,17.1511 1.7092,16.6804 1.3089,16.3895 1.8037,16.3895 Z"/><path d="M 4.8700,15.9188 L 5.0229,16.3895 5.5178,16.3895 5.1175,16.6804 5.2704,17.1511 4.8700,16.8602 4.4696,17.1511 4.6225,16.6804 4.2222,16.3895 4.7171,16.3895 Z"/><path d="M 7.7833,15.9188 L 7.9363,16.3895 8.4311,16.3895 8.0308,16.6804 8.1837,17.1511 7.7833,16.8602 7.3830,17.1511 7.5359,16.6804 7.1355,16.3895 7.6304,16.3895 Z"/><path d="M 10.6967,15.9188 L 10.8496,16.3895 11.3445,16.3895 10.9441,16.6804 11.0970,17.1511 10.6967,16.8602 10.2963,17.1511 10.4492,16.6804 10.0489,16.3895 10.5437,16.3895 Z"/><path d="M 13.6100,15.9188 L 13.7629,16.3895 14.2578,16.3895 13.8575,16.6804 14.0104,17.1511 13.6100,16.8602 13.2096,17.1511 13.3625,16.6804 12.9622,16.3895 13.4571,16.3895 Z"/><path d="M 16.5233,15.9188 L 16.6763,16.3895 17.1711,16.3895 16.7708,16.6804 16.9237,17.1511 16.5233,16.8602 16.1230,17.1511 16.2759,16.6804 15.8755,16.3895 16.3704,16.3895 Z"/><path d="M 3.4133,18.3958 L 3.5663,18.8664 4.0611,18.8664 3.6608,19.1573 3.8137,19.6280 3.4133,19.3371 3.0130,19.6280 3.1659,19.1573 2.7655,18.8664 3.2604,18.8664 Z"/><path d="M 6.3267,18.3958 L 6.4796,18.8664 6.9745,18.8664 6.5741,19.1573 6.7270,19.6280 6.3267,19.3371 5.9263,19.6280 6.0792,19.1573 5.6789,18.8664 6.1737,18.8664 Z"/><path d="M 9.2400,18.3958 L 9.3929,18.8664 9.8878,18.8664 9.4875,19.1573 9.6404,19.6280 9.2400,19.3371 8.8396,19.6280 8.9925,19.1573 8.5922,18.8664 9.0871,18.8664 Z"/><path d="M 12.1533,18.3958 L 12.3063,18.8664 12.8011,18.8664 12.4008,19.1573 12.5537,19.6280 12.1533,19.3371 11.7530,19.6280 11.9059,19.1573 11.5055,18.8664 12.0004,18.8664 Z"/><path d="M 15.0667,18.3958 L 15.2196,18.8664 15.7145,18.8664 15.3141,19.1573 15.4670,19.6280 15.0667,19.3371 14.6663,19.6280 14.8192,19.1573 14.4189,18.8664 14.9137,18.8664 Z"/><path d="M 1.9567,20.8727 L 2.1096,21.3433 2.6045,21.3434 2.2041,21.6343 2.3570,22.1049 1.9567,21.8140 1.5563,22.1049 1.7092,21.6343 1.3089,21.3434 1.8037,21.3433 Z"/><path d="M 4.8700,20.8727 L 5.0229,21.3433 5.5178,21.3434 5.1175,21.6343 5.2704,22.1049 4.8700,21.8140 4.4696,22.1049 4.6225,21.6343 4.2222,21.3434 4.7171,21.3433 Z"/><path d="M 7.7833,20.8727 L 7.9363,21.3433 8.4311,21.3434 8.0308,21.6343 8.1837,22.1049 7.7833,21.8140 7.3830,22.1049 7.5359,21.6343 7.1355,21.3434 7.6304,21.3433 Z"/><path d="M 10.6967,20.8727 L 10.8496,21.3433 11.3445,21.3434 10.9441,21.6343 11.0970,22.1049 10.6967,21.8140 10.2963,22.1049 10.4492,21.6343 10.0489,21.3434 10.5437,21.3433 Z"/><path d="M 13.6100,20.8727 L 13.7629,21.3433 14.2578,21.3434 13.8575,21.6343 14.0104,22.1049 13.6100,21.8140 13.2096,22.1049 13.3625,21.6343 12.9622,21.3434 13.4571,21.3433 Z"/><path d="M 16.5233,20.8727 L 16.6763,21.3433 17.1711,21.3434 16.7708,21.6343 16.9237,22.1049 16.5233,21.8140 16.1230,22.1049 16.2759,21.6343 15.8755,21.3434 16.3704,21.3433 Z"/></g>
      
      <rect x="0.5" y="0.5" width="31" height="23" fill="url(#vig)"/>
      <rect x="0.5" y="0.5" width="31" height="23" fill="url(#sheen)"/>
    
    </g>
    
    <!-- GOLD RIM ON TOP -->
    <rect x="0.5" y="0.5" width="31" height="23" rx="3" ry="3"
          fill="none" stroke="url(#gold)" stroke-width="1.8"
          stroke-linejoin="round" stroke-linecap="round"
          vector-effect="non-scaling-stroke" pointer-events="none"/>
    <!-- Inner light bevel (very subtle) -->
    <rect x="1.2" y="1.2" width="29.6" height="21.6" rx="2.4" ry="2.4"
          fill="none" stroke="#ffffff" opacity="0.15" stroke-width="0.8"
          vector-effect="non-scaling-stroke" pointer-events="none"/>
    
  </g>
</svg>