<?xml version="1.0" standalone="no"?>
<!DOCTYPE svg PUBLIC "-//W3C//DTD SVG 20010904//EN"
 "http://www.w3.org/TR/2001/REC-SVG-20010904/DTD/svg10.dtd">
<svg version="1.0" xmlns="http://www.w3.org/2000/svg"
 width="2028.000000pt" height="2030.000000pt" viewBox="0 0 2028.000000 2030.000000"
 preserveAspectRatio="xMidYMid meet">
<metadata>
Created by potrace 1.16, written by Peter Selinger 2001-2019
</metadata>
<g transform="translate(0.000000,2030.000000) scale(0.100000,-0.100000)"
fill="#000000" stroke="none">
<path d="M0 10150 l0 -10150 10140 0 10140 0 0 10150 0 10150 -10140 0 -10140
0 0 -10150z m11707 9878 c-12 -269 -50 -433 -183 -796 -42 -114 -120 -328
-174 -477 -54 -148 -111 -304 -128 -345 -16 -41 -35 -99 -41 -128 -11 -55 -15
-162 -6 -162 43 0 425 274 669 478 66 55 133 107 148 117 26 15 28 15 28 -2 0
-10 -18 -49 -39 -88 -47 -84 -296 -461 -456 -691 -134 -191 -145 -211 -124
-225 22 -16 261 -3 374 20 98 19 231 34 413 46 76 5 92 4 92 -8 0 -8 -87 -69
-192 -136 -106 -67 -260 -169 -343 -227 -236 -165 -348 -211 -493 -202 -39 2
-68 1 -64 -3 4 -3 50 -35 102 -70 52 -35 142 -109 200 -164 58 -55 129 -118
158 -139 28 -21 52 -44 52 -52 0 -20 -35 -18 -212 11 -227 37 -398 57 -424 51
-20 -5 -23 -14 -29 -81 -5 -49 -4 -80 3 -88 17 -20 179 -102 257 -130 82 -29
259 -69 583 -132 365 -70 536 -135 707 -270 141 -110 252 -278 290 -436 19
-80 19 -237 1 -307 -28 -104 -72 -181 -149 -257 -144 -144 -343 -198 -522
-141 -187 60 -288 180 -302 361 -11 142 38 232 165 298 96 50 145 62 199 47
23 -7 43 -16 43 -20 0 -4 -18 -10 -40 -14 -129 -20 -230 -95 -269 -199 -41
-111 -19 -198 74 -290 132 -132 411 -125 569 14 97 85 150 259 127 415 -34
227 -185 411 -447 542 -107 54 -132 60 -536 142 -383 77 -415 87 -693 218 -93
44 -201 89 -238 101 -105 32 -100 36 -252 -223 -120 -203 -302 -414 -404 -465
-54 -28 -87 -26 -147 9 -129 73 -300 288 -424 532 -29 57 -63 118 -77 136 -39
52 -71 46 -263 -49 -215 -105 -398 -183 -490 -208 -140 -38 -304 -64 -407 -65
l-102 -1 28 -30 c15 -16 112 -120 217 -230 190 -200 234 -250 234 -266 0 -22
-92 -106 -290 -264 -209 -166 -585 -452 -644 -489 l-30 -19 -201 204 c-217
220 -305 320 -305 347 0 9 27 41 60 72 46 43 60 62 60 84 0 43 29 144 57 200
35 69 190 226 289 292 163 109 335 163 754 240 552 100 662 150 764 343 20 38
36 81 36 95 0 24 -3 26 -47 26 -25 0 -112 -16 -192 -35 -248 -59 -521 -85
-521 -49 0 32 24 56 118 118 53 35 135 92 182 126 47 34 121 84 165 111 60 37
73 49 55 49 -51 0 -208 39 -285 69 -104 42 -236 119 -526 307 -130 84 -248
158 -262 163 -44 17 -31 31 28 31 30 0 182 -11 337 -25 279 -25 581 -46 585
-41 2 1 -50 58 -114 127 -153 163 -204 233 -371 512 -224 374 -246 430 -137
342 33 -26 87 -73 120 -105 191 -182 341 -292 550 -401 62 -33 114 -59 118
-59 9 0 -30 130 -95 315 -66 190 -89 277 -78 294 23 38 218 -303 280 -488 36
-106 62 -225 54 -245 -3 -8 -21 -27 -41 -42 l-34 -26 20 -22 c12 -13 56 -42
99 -66 130 -73 200 -128 351 -275 157 -151 199 -185 227 -185 13 0 6 9 -21 26
-60 40 -102 82 -153 154 -94 133 -182 229 -268 292 -145 105 -151 112 -135
140 11 21 9 35 -12 99 -63 186 -226 519 -333 681 -34 51 -49 66 -58 58 -16
-12 -26 -3 -26 24 0 12 -21 66 -46 121 -147 320 -198 464 -238 674 -39 201
-61 501 -36 501 6 0 71 -123 144 -272 145 -295 221 -420 413 -675 149 -198
211 -287 303 -438 84 -139 267 -412 281 -420 17 -11 9 26 -21 102 l-31 76 26
38 c26 37 26 39 19 153 -9 146 1 149 79 29 78 -121 110 -158 130 -150 26 10
75 117 146 318 36 102 70 187 76 188 5 1 37 -81 71 -184 34 -102 81 -225 104
-273 l43 -86 23 30 c13 16 43 64 66 107 24 42 51 91 61 107 18 32 43 48 55 35
4 -4 7 -64 7 -134 0 -105 3 -131 18 -154 l18 -28 33 28 c50 41 108 116 256
328 73 105 195 273 270 375 76 102 163 226 194 275 58 91 166 303 244 475 92
205 107 209 99 28z m-3854 -878 c63 -17 137 -83 168 -152 33 -75 33 -235 0
-321 -23 -58 -120 -177 -145 -177 -8 0 1 27 22 69 29 59 35 83 39 158 5 78 3
91 -16 114 -45 57 -147 76 -233 42 -109 -42 -228 -146 -330 -289 -154 -215
-339 -626 -418 -926 -33 -125 -34 -128 -63 -128 -12 -1 31 -27 97 -60 66 -33
126 -66 135 -74 18 -19 6 -50 -161 -401 -187 -393 -310 -610 -352 -621 -29 -7
-363 123 -536 209 -100 50 -105 53 -104 82 2 38 36 117 175 404 60 123 108
226 106 227 -5 6 -253 -502 -292 -600 l-37 -89 24 -19 c12 -11 73 -43 134 -73
61 -30 116 -60 121 -67 8 -9 -2 -74 -33 -228 -51 -256 -76 -422 -104 -705 -25
-247 -36 -298 -95 -426 -25 -52 -45 -105 -45 -117 0 -16 15 -30 56 -53 30 -17
61 -41 68 -53 8 -11 17 -57 20 -101 4 -44 16 -138 26 -209 11 -71 20 -136 20
-145 0 -9 -31 -50 -68 -92 -183 -207 -180 -208 23 -9 121 118 225 218 230 223
6 6 -18 -9 -52 -33 -35 -24 -68 -40 -76 -37 -8 3 -20 29 -26 57 -19 87 -45
309 -38 317 4 3 91 -35 195 -85 103 -50 199 -94 214 -97 22 -6 34 0 71 37 24
25 67 78 94 119 64 93 90 121 111 117 12 -2 45 -75 107 -238 50 -129 114 -285
143 -347 29 -61 52 -116 52 -122 0 -16 -291 -141 -328 -141 -10 0 -12 10 -8
43 l6 42 -15 -39 c-21 -54 -31 -64 -79 -77 -49 -13 -372 -178 -546 -279 -172
-101 -266 -162 -399 -263 -63 -48 -118 -87 -123 -87 -32 0 26 84 166 240 47
52 93 111 102 130 31 67 239 259 527 488 64 52 117 96 117 99 0 2 -17 -9 -37
-25 -78 -61 -134 -77 -152 -45 -5 10 -11 16 -13 13 -2 -3 -11 -22 -22 -42 -10
-20 -53 -66 -95 -101 -181 -153 -383 -386 -637 -733 -12 -16 -26 -25 -30 -21
-14 14 119 260 209 389 120 171 197 264 366 441 83 87 151 161 151 163 0 15
-79 -54 -190 -166 -154 -154 -304 -339 -427 -527 -82 -126 -113 -163 -113
-135 0 23 215 359 289 452 19 25 27 38 17 30 -10 -8 -58 -67 -106 -131 -173
-232 -240 -378 -240 -526 0 -75 8 -100 25 -73 17 27 57 8 128 -59 39 -38 69
-73 65 -77 -4 -4 -45 6 -90 21 -129 43 -186 44 -293 6 -117 -42 -119 -42 -123
-7 -3 26 -1 28 22 24 20 -4 26 -1 26 13 0 11 5 19 11 19 7 0 8 11 4 29 -9 41
10 47 42 15 l27 -27 17 22 c9 11 31 55 49 97 33 80 39 135 20 189 -10 29 -10
29 -6 -8 7 -53 -15 -44 -32 14 -38 125 -148 536 -188 699 -25 102 -52 206 -60
233 -21 65 -38 61 -30 -6 8 -75 114 -496 181 -722 79 -265 87 -295 82 -313 -8
-33 -89 173 -213 543 -69 204 -84 285 -84 451 0 132 10 184 35 184 26 0 80
-167 175 -543 24 -92 45 -165 47 -163 5 5 -115 477 -148 581 -21 67 -21 76
-10 195 20 203 46 342 69 361 23 18 196 29 469 29 l162 0 14 28 c8 15 18 38
22 50 l7 24 -20 -20 c-11 -11 -41 -24 -65 -27 -78 -12 -649 -1 -673 12 -12 7
-25 27 -28 45 -4 18 -9 273 -13 567 -7 662 -22 684 -34 52 -9 -527 -16 -651
-36 -711 -13 -38 -14 -53 -3 -94 12 -47 12 -50 -11 -68 -34 -27 -364 -188
-487 -237 -57 -23 -113 -41 -125 -39 -38 5 -537 767 -537 819 0 23 36 53 125
105 83 47 324 167 410 204 48 20 30 22 -32 4 -18 -5 -23 -2 -23 12 1 52 260
456 349 544 46 46 73 62 153 93 110 43 170 83 193 126 20 39 19 54 -5 101 -23
45 -26 88 -7 115 13 17 15 17 45 -5 43 -32 97 -39 317 -40 105 -1 198 -4 207
-8 15 -6 12 -19 -31 -112 -26 -58 -66 -142 -89 -186 l-41 -82 -123 -4 c-87 -3
-133 -10 -158 -22 -19 -9 -26 -13 -15 -9 30 11 602 15 668 5 33 -5 54 -5 49 0
-9 9 -86 23 -185 33 -35 4 -60 12 -64 20 -6 18 76 199 129 282 27 43 53 70 78
83 62 31 87 76 100 177 5 36 22 91 43 135 89 182 347 576 542 828 123 158 282
369 300 399 20 34 -23 -9 -133 -132 -220 -246 -539 -640 -674 -830 -27 -37
-52 -67 -57 -67 -5 0 -11 15 -13 33 -2 17 -7 -51 -11 -153 -9 -194 -20 -297
-35 -312 -19 -19 -208 -27 -485 -21 l-288 6 3 543 c3 477 5 545 19 559 36 37
639 46 722 11 43 -18 44 -19 57 -291 6 -121 12 -227 14 -235 2 -8 4 71 5 176
l1 190 88 72 c48 40 107 91 132 113 39 36 40 38 10 18 -19 -13 -73 -52 -119
-86 -47 -35 -91 -62 -99 -61 -8 2 -23 27 -34 56 -16 42 -27 56 -59 72 -21 11
-39 25 -39 30 0 23 213 144 613 349 141 73 257 134 257 137 0 15 -373 -154
-722 -327 -191 -95 -338 -162 -371 -169 -29 -6 -107 -9 -172 -8 l-118 3 84 56
c226 152 1038 568 1462 750 165 71 246 111 363 180 213 126 330 161 514 154
52 -2 117 -9 143 -15z m4943 -2 c38 -7 118 -42 224 -97 249 -128 320 -162 630
-302 820 -372 1596 -837 2405 -1443 768 -574 1453 -1220 1996 -1881 188 -229
462 -599 636 -860 442 -663 732 -1205 907 -1698 210 -590 387 -1313 442 -1802
26 -237 16 -777 -17 -863 -19 -51 -32 -5 -40 147 -20 356 -118 842 -236 1171
-114 316 -323 763 -394 843 l-36 41 -27 -46 c-47 -81 -116 -266 -157 -422 -22
-83 -49 -182 -60 -221 -11 -38 -23 -78 -25 -87 -11 -36 -21 -16 -38 75 -143
754 -314 1356 -534 1882 -123 294 -377 817 -536 1108 -158 286 -436 730 -602
962 -229 319 -261 365 -368 524 -93 140 -134 189 -270 329 -261 266 -473 453
-836 731 -554 425 -1000 705 -1605 1009 -208 105 -580 272 -602 272 -5 0 89
-50 207 -111 368 -189 597 -324 975 -574 322 -212 942 -701 1385 -1090 613
-539 1301 -1530 1726 -2487 122 -275 180 -426 288 -748 253 -760 362 -1241
431 -1910 26 -260 37 -645 32 -1135 -5 -499 -10 -577 -67 -995 -47 -349 -36
-345 25 10 40 233 90 658 105 895 13 208 13 726 0 913 -16 218 -58 609 -81
757 -45 282 -159 802 -234 1060 -14 50 -66 216 -115 371 -90 280 -100 322 -79
308 35 -21 264 -567 347 -824 162 -504 284 -1086 336 -1605 78 -774 28 -1539
-144 -2210 -129 -507 -274 -904 -476 -1307 -246 -490 -537 -852 -733 -908 -27
-7 -31 -6 -31 9 0 10 8 25 17 32 32 27 132 159 187 249 258 416 518 1176 517
1510 0 217 -93 672 -187 922 l-45 117 30 60 c98 194 331 878 319 938 -2 10
-16 -16 -32 -57 -140 -359 -339 -810 -357 -810 -8 0 -37 58 -122 242 -48 104
-100 188 -208 339 -38 53 -69 101 -69 107 0 5 16 52 36 103 73 190 162 604
184 854 13 156 13 480 -1 698 -12 207 -37 383 -85 606 -38 180 -153 638 -178
711 l-16 45 6 -40 c3 -22 16 -85 29 -140 54 -224 142 -764 166 -1010 15 -154
6 -616 -15 -785 -35 -279 -97 -576 -162 -775 -34 -107 -48 -135 -65 -135 -5 0
-37 34 -71 76 -68 82 -151 150 -240 195 -68 34 -66 26 -38 188 68 404 83 856
49 1516 -35 697 -151 1266 -376 1845 -183 470 -341 812 -537 1160 -225 398
-458 734 -739 1062 -156 181 -547 576 -722 728 -240 208 -536 445 -650 519
l-50 33 45 -39 c291 -248 951 -940 1228 -1287 239 -300 454 -620 630 -938 254
-460 394 -763 580 -1258 237 -633 368 -1291 412 -2085 14 -241 14 -1066 0
-1380 -20 -467 -42 -564 -205 -885 -79 -156 -136 -240 -162 -240 -20 0 -13 51
23 165 57 179 115 485 133 700 20 221 24 202 -86 380 l-96 157 17 266 c9 147
18 296 20 332 l4 65 -10 -50 c-5 -27 -28 -141 -49 -252 -41 -208 -59 -275 -75
-280 -6 -2 -46 23 -90 55 -91 66 -211 142 -269 169 -72 33 -74 45 -37 255 53
300 57 347 57 738 0 370 -5 447 -46 750 -42 303 -103 639 -115 628 -2 -2 10
-85 26 -184 58 -359 65 -439 65 -834 0 -240 -4 -401 -13 -470 -42 -341 -131
-743 -168 -757 -8 -3 -56 7 -107 21 -117 33 -172 43 -330 61 -71 7 -134 19
-142 25 -10 9 -4 37 37 153 59 167 103 336 152 577 33 161 43 230 32 219 -3
-2 -41 -126 -86 -274 -82 -275 -168 -506 -222 -605 -17 -30 -83 -133 -147
-230 -64 -96 -181 -277 -260 -401 -227 -357 -424 -629 -457 -629 -21 0 -14 21
51 155 29 61 69 153 88 205 76 203 160 533 173 679 l7 71 -59 58 c-32 32 -73
69 -91 83 l-32 24 44 145 c25 80 44 149 42 154 -2 5 -29 -50 -62 -123 -32 -73
-65 -135 -73 -138 -15 -6 -293 64 -417 105 -61 21 -81 32 -83 47 -1 12 44 96
108 200 102 166 227 395 216 395 -3 0 -33 -46 -68 -102 -122 -200 -376 -518
-412 -518 -11 0 -82 9 -156 20 -236 34 -340 42 -540 42 -218 0 -339 -15 -515
-62 -140 -37 -206 -62 -409 -155 -91 -41 -168 -75 -171 -75 -4 0 -50 26 -103
58 -53 31 -222 120 -376 197 -276 138 -281 141 -284 172 -4 45 29 103 155 269
114 152 201 313 229 424 10 41 18 129 21 235 7 251 -20 356 -123 473 -25 29
-45 54 -43 55 20 14 183 83 254 108 329 115 790 390 1014 603 155 148 324 389
441 631 169 346 252 685 281 1143 26 424 -56 1074 -192 1517 -108 351 -322
769 -485 944 -141 152 -337 220 -434 151 -16 -11 -36 -41 -46 -66 -15 -39 -16
-54 -6 -107 6 -34 27 -92 46 -129 42 -81 30 -88 -36 -20 -132 136 -155 357
-53 507 34 50 73 80 123 95 42 13 292 11 358 -2z m-7740 -1313 c11 -45 -1
-133 -22 -156 -19 -21 -268 -195 -312 -218 -22 -12 -24 -9 -53 55 -17 36 -28
72 -25 79 9 23 366 263 393 265 7 0 15 -11 19 -25z m-483 -177 c35 -49 83
-141 182 -350 90 -190 123 -247 60 -102 -19 43 -35 89 -35 101 0 25 69 86 188
167 52 36 75 47 83 39 7 -7 10 -73 7 -199 -4 -215 -7 -227 -86 -311 l-47 -51
48 -117 c60 -149 62 -171 19 -201 -87 -60 -534 -224 -610 -224 -36 0 -48 5
-72 31 -53 59 -470 893 -470 941 0 40 78 81 380 198 336 131 317 126 353 78z
m3013 -603 c38 -31 138 -106 223 -167 190 -138 261 -195 261 -211 0 -16 -293
-363 -521 -617 -199 -221 -238 -252 -289 -233 -61 23 -550 380 -550 402 0 18
81 128 155 211 42 47 168 191 280 320 111 129 224 255 249 278 40 37 94 70
117 72 3 0 37 -25 75 -55z m-4023 -17 c33 -35 179 -197 325 -360 145 -164 266
-298 269 -298 5 0 -14 22 -121 146 -37 43 -71 85 -73 92 -6 14 93 122 112 122
6 0 46 -73 90 -162 98 -198 121 -228 179 -228 78 0 77 -2 -67 -221 -74 -112
-159 -247 -190 -299 -74 -125 -81 -133 -156 -183 -102 -67 -116 -96 -96 -208
7 -45 3 -56 -75 -225 -158 -344 -364 -872 -434 -1117 -157 -548 -219 -1003
-235 -1727 -11 -522 1 -814 49 -1115 10 -66 22 -145 25 -176 l7 -57 -63 -31
c-79 -38 -170 -114 -231 -195 -65 -87 -76 -95 -94 -71 -55 75 -160 539 -209
925 -59 460 -10 1054 145 1748 28 124 49 226 47 228 -11 12 -138 -474 -191
-734 -82 -398 -110 -680 -103 -1030 10 -480 73 -853 203 -1203 l28 -76 -80
-114 c-119 -170 -168 -253 -229 -389 -61 -136 -85 -180 -97 -180 -16 0 -161
327 -301 679 -44 113 -82 200 -85 193 -14 -44 199 -686 302 -906 l46 -99 -39
-101 c-84 -218 -169 -625 -186 -896 -8 -132 4 -230 56 -430 141 -546 391
-1088 625 -1351 49 -56 50 -72 2 -58 -79 22 -226 148 -357 304 -242 290 -525
858 -710 1427 -220 678 -305 1177 -318 1868 -10 546 24 927 133 1481 101 517
226 952 396 1379 54 135 156 353 181 385 37 48 24 -11 -57 -255 -160 -484
-272 -930 -351 -1400 -90 -534 -127 -1265 -90 -1764 19 -262 57 -612 85 -786
28 -176 72 -402 76 -397 2 2 -11 118 -30 258 -65 478 -76 649 -76 1164 0 602
17 905 76 1330 37 272 59 386 129 670 155 634 354 1240 555 1687 105 232 423
828 456 854 24 19 46 7 150 -78 121 -99 210 -158 239 -158 39 0 270 170 415
307 99 93 140 147 140 182 l-1 26 -13 -30 c-27 -61 -363 -355 -485 -423 l-39
-22 -79 58 c-221 165 -833 707 -833 739 0 28 412 399 494 447 30 16 39 18 58
7 40 -21 287 -227 473 -394 99 -89 231 -209 295 -265 l115 -104 -125 119
c-224 213 -320 309 -320 320 0 6 20 38 45 72 l46 62 112 -116 c95 -97 117
-115 142 -115 22 0 76 29 184 100 261 171 420 299 436 351 4 13 -9 38 -40 78
-25 33 -50 63 -55 66 -6 4 12 -23 40 -60 27 -36 50 -70 50 -76 0 -22 -384
-301 -517 -376 -86 -49 -98 -46 -184 45 -139 145 -573 657 -624 736 -16 24
-16 28 -2 49 16 24 107 106 184 165 128 99 351 252 367 252 10 0 45 -28 79
-62z m384 -20 c21 -23 63 -100 63 -116 0 -4 -36 -41 -81 -82 l-81 -73 -65 66
-66 65 63 59 c74 68 119 103 135 103 6 0 21 -10 32 -22z m2813 -550 c0 -110 0
-112 -41 -194 -39 -78 -40 -83 -25 -110 8 -16 30 -44 49 -61 39 -37 50 -70 72
-203 19 -122 19 -129 -6 -138 -17 -7 -2 -18 88 -67 152 -83 202 -114 213 -136
12 -22 5 -34 -188 -328 -148 -227 -283 -414 -345 -478 l-40 -42 -46 19 c-163
64 -449 215 -515 272 l-39 34 18 34 c68 131 377 627 458 736 69 92 69 92 232
19 l60 -27 -22 24 c-28 30 -41 110 -49 308 -5 118 -4 157 10 210 18 70 94 240
108 240 4 0 8 -50 8 -112z m2672 -15 c8 -10 29 -45 47 -78 70 -133 272 -388
401 -507 201 -186 341 -178 550 31 106 107 229 266 304 393 109 185 114 189
200 163 91 -27 129 -55 143 -105 81 -276 134 -483 125 -492 -6 -6 -29 -1 -68
15 -33 14 -102 43 -154 65 -93 40 -229 83 -300 95 -35 6 -35 6 -10 -8 14 -8
75 -30 136 -50 139 -44 265 -106 315 -156 29 -29 44 -58 68 -131 58 -183 76
-298 47 -298 -8 0 -66 24 -128 54 -177 84 -300 119 -458 130 -75 6 -74 5 160
-73 275 -91 339 -120 379 -168 28 -34 101 -194 101 -220 0 -23 -28 -13 -92 32
-173 124 -258 175 -431 261 -243 120 -278 131 -447 138 -203 8 -505 62 -690
122 -58 19 -114 33 -125 32 -28 -4 -45 -44 -45 -111 0 -42 -4 -59 -15 -63 -8
-4 -54 1 -102 10 -113 21 -215 21 -254 0 -17 -8 -33 -13 -37 -10 -9 10 18 88
60 169 66 128 157 191 385 271 105 36 163 62 163 73 0 3 -26 3 -57 1 -98 -9
-364 -120 -480 -199 -25 -17 -47 -29 -50 -26 -7 8 40 177 104 371 61 186 86
226 166 265 51 26 69 26 89 4z m-3092 -43 c33 -16 64 -39 70 -50 10 -19 21
-94 37 -260 l8 -85 5 152 c4 127 8 155 23 170 34 34 44 2 56 -183 6 -94 14
-192 17 -217 l7 -47 -44 0 c-59 0 -81 -18 -144 -114 -171 -265 -286 -438 -290
-434 -3 2 2 98 11 214 21 303 88 774 120 852 17 41 45 42 124 2z m-3205 -115
c39 -39 33 -69 -29 -131 -42 -42 -62 -54 -85 -54 -33 0 -71 33 -71 61 0 21 95
128 124 139 31 13 35 12 61 -15z m127 -142 c33 -29 24 -59 -45 -151 l-40 -53
-49 48 -48 47 62 63 c65 65 89 75 120 46z m-840 -624 c18 -24 18 -29 5 -60 -8
-19 -72 -106 -142 -194 -265 -331 -565 -755 -795 -1125 -181 -292 -480 -860
-558 -1062 -92 -238 -288 -825 -279 -834 2 -2 27 60 57 138 129 351 387 907
558 1208 282 496 426 722 725 1140 196 274 504 668 528 675 26 8 71 -21 137
-88 l54 -54 -64 -99 c-179 -277 -324 -543 -570 -1049 -407 -836 -557 -1292
-764 -2327 -21 -104 -41 -188 -44 -188 -4 0 -28 78 -54 173 -27 94 -59 210
-73 257 -28 95 -102 276 -134 330 l-22 35 -31 -36 c-88 -103 -298 -562 -422
-924 -105 -305 -197 -776 -211 -1080 -9 -200 -29 -240 -53 -105 -17 97 -25
593 -11 735 34 351 146 893 285 1370 103 357 183 580 301 846 159 355 262 546
524 972 202 327 290 461 467 704 290 399 519 677 552 671 8 -2 24 -15 34 -29z
m7284 -64 c23 -8 144 -41 270 -74 126 -33 276 -76 333 -96 148 -50 158 -47
126 28 -8 20 -15 39 -15 42 0 27 160 -57 284 -150 88 -64 166 -147 197 -206
12 -24 35 -82 50 -129 34 -105 36 -82 7 77 -12 67 -19 126 -15 129 13 13 58
-20 136 -97 95 -95 124 -148 155 -279 27 -113 36 -130 61 -110 44 36 46 -14
30 -672 l-7 -318 31 0 c42 0 91 -22 120 -53 30 -33 45 -157 36 -312 -13 -219
-31 -281 -121 -415 -49 -73 -136 -165 -193 -202 -19 -13 -43 -40 -54 -60 -22
-44 -93 -324 -98 -389 l-4 -44 80 -27 c180 -62 257 -94 398 -164 269 -134 520
-290 612 -379 24 -24 56 -67 72 -96 26 -51 28 -61 28 -178 l0 -125 110 -68
c61 -38 124 -83 142 -100 32 -31 32 -33 35 -135 l3 -105 85 -35 c246 -101 547
-235 778 -345 20 -10 22 -18 22 -102 0 -96 17 -303 50 -602 11 -99 24 -268 30
-375 6 -107 16 -211 22 -232 14 -47 55 -83 111 -97 75 -19 97 -32 104 -58 3
-14 0 -121 -7 -238 -7 -116 -10 -227 -6 -246 8 -45 41 -78 123 -124 35 -19 68
-45 72 -57 5 -13 1 -103 -10 -212 -10 -104 -19 -233 -19 -286 0 -95 0 -95 33
-126 17 -16 60 -49 93 -71 l61 -41 6 -108 c24 -411 30 -685 18 -823 -14 -176
-43 -325 -78 -397 -41 -89 -98 -121 -488 -280 -115 -47 -255 -105 -309 -130
-124 -55 -174 -60 -211 -20 -23 23 -33 27 -84 27 -32 0 -101 -9 -152 -19 -52
-11 -213 -38 -359 -61 -146 -23 -266 -43 -267 -44 -4 -3 17 -333 28 -438 6
-59 8 -112 4 -118 -18 -30 -124 3 -187 59 -45 39 -66 100 -107 306 -89 445
-157 1179 -123 1323 5 23 8 42 5 42 -6 0 -819 -580 -873 -623 l-25 -19 25 6
c45 13 587 285 618 311 50 42 71 31 85 -42 4 -18 16 -133 27 -255 29 -313 61
-524 119 -798 11 -52 18 -96 15 -99 -10 -10 -68 25 -547 329 -574 364 -841
532 -928 584 l-97 57 -7 84 c-7 85 1 187 16 217 12 22 69 38 139 38 126 0 473
80 620 142 133 56 316 151 402 207 75 49 266 210 328 276 29 31 13 23 -96 -48
-343 -222 -574 -333 -894 -430 -139 -42 -333 -84 -430 -93 l-70 -7 0 850 0
850 82 109 c119 159 229 264 403 384 254 175 368 267 417 334 27 37 37 89 20
100 -5 3 -56 -31 -113 -75 -282 -215 -467 -339 -531 -355 -24 -5 -28 -3 -28
15 0 12 7 38 15 58 43 103 -7 50 -132 -140 -116 -176 -166 -237 -194 -237 -14
0 -45 39 -105 131 -101 155 -180 245 -201 228 -7 -7 -32 -9 -57 -7 -70 8 -288
146 -520 329 -75 59 -79 61 -72 34 20 -79 91 -146 406 -385 255 -193 357 -292
433 -420 l57 -96 0 -680 c0 -375 -3 -756 -7 -849 l-6 -168 -66 7 c-80 7 -304
63 -432 107 -331 114 -735 347 -1079 624 -210 169 -215 172 -143 85 87 -105
293 -305 388 -377 197 -148 417 -272 640 -361 195 -78 345 -117 580 -153 71
-11 131 -22 133 -24 2 -2 -1 -67 -8 -145 l-13 -141 -74 -47 c-196 -124 -784
-501 -998 -640 -330 -214 -557 -354 -563 -347 -3 3 -6 69 -6 148 -1 139 8 237
22 237 4 0 19 -17 33 -38 15 -20 46 -59 70 -86 l44 -50 6 30 c4 16 7 54 8 84
2 113 94 876 107 889 2 2 158 -71 346 -164 189 -93 348 -170 353 -172 37 -15
-397 301 -710 517 -82 57 -189 132 -237 167 -49 35 -88 60 -88 57 0 -3 29 -43
64 -89 35 -46 70 -93 77 -106 14 -27 7 -376 -11 -519 -11 -88 -36 -180 -49
-180 -15 0 -118 133 -168 218 -29 48 -56 94 -62 102 -14 22 24 -148 64 -285
19 -66 35 -128 35 -138 0 -28 -26 -19 -43 15 -11 23 -17 28 -21 18 -9 -23 -41
-237 -81 -530 -20 -146 -40 -269 -46 -275 -12 -12 -209 -20 -209 -8 0 4 4 55
10 113 73 790 71 1512 -6 1930 -37 203 -130 515 -145 489 -4 -8 -22 -70 -39
-137 -103 -411 -312 -694 -592 -802 -93 -36 -295 -90 -338 -90 -73 0 -246 73
-373 157 -160 106 -243 213 -377 488 -95 192 -142 313 -181 460 -67 253 -60
420 24 586 l45 88 -14 118 c-8 65 -21 173 -30 240 -19 143 -18 146 60 164 l53
12 6 143 c9 193 -15 507 -59 780 -23 148 -23 197 3 232 47 64 41 103 -33 207
-77 109 -345 356 -574 530 -57 43 -144 116 -194 163 -50 46 -170 143 -266 215
-208 156 -393 332 -556 532 -132 161 -173 232 -155 271 6 13 27 34 47 46 30
18 35 25 30 47 -42 189 -102 665 -88 688 5 7 110 -28 291 -98 157 -60 286
-111 289 -113 2 -3 24 -84 48 -182 55 -221 73 -264 110 -264 21 0 25 4 19 18
-17 44 -94 301 -100 335 l-7 37 36 0 c38 0 258 -83 274 -103 5 -7 31 -93 57
-192 82 -308 142 -474 207 -577 35 -56 54 -62 44 -15 -23 109 -116 681 -111
685 3 3 28 0 56 -6 68 -16 116 -15 175 3 27 8 56 15 65 15 11 0 30 -47 73
-182 l58 -181 -34 -25 c-18 -14 -59 -52 -92 -83 l-58 -58 7 -67 c7 -68 25
-145 44 -197 8 -21 30 -36 93 -66 165 -76 229 -102 239 -96 5 4 50 86 99 183
49 97 109 211 132 252 l44 75 121 -1 c66 -1 132 -4 147 -8 52 -13 46 -88 -29
-329 -78 -254 -88 -308 -63 -362 6 -14 77 -79 157 -145 80 -65 179 -152 219
-193 97 -101 121 -155 133 -300 5 -61 13 -115 18 -120 11 -11 52 5 250 100 75
36 197 92 271 125 185 82 290 136 290 148 0 6 -7 27 -15 47 -45 108 -2 168
203 279 l82 45 0 112 c0 134 5 147 104 248 167 170 613 435 861 510 184 56
170 47 173 107 5 85 -58 385 -92 437 -9 13 -42 42 -74 64 -196 132 -333 435
-331 728 0 54 5 114 12 133 15 43 85 98 136 106 64 10 65 13 52 95 -6 41 -22
137 -36 214 -14 77 -39 232 -55 345 -30 212 -37 239 -88 350 -41 89 -92 245
-92 280 l0 29 88 -45 c86 -44 176 -73 187 -62 4 3 -5 28 -18 55 -46 90 -83
239 -107 425 -15 120 -3 132 65 69 78 -72 291 -158 418 -168 59 -5 69 -4 62 8
-5 8 -30 47 -56 87 -98 149 -99 149 179 73 94 -26 227 -44 268 -36 55 10 59
26 19 83 -51 75 -49 82 21 57z m-1296 -130 c0 -108 -77 -224 -189 -284 -71
-37 -108 -40 -120 -8 -13 33 6 55 73 82 93 38 162 113 180 197 6 28 31 58 47
58 5 0 9 -20 9 -45z m-1386 -153 c64 -156 222 -399 384 -594 136 -164 408
-365 733 -541 92 -49 308 -146 374 -167 56 -17 255 -101 255 -107 0 -3 -20
-28 -44 -56 -94 -111 -130 -234 -130 -442 1 -269 61 -423 272 -703 108 -145
144 -210 140 -255 -3 -31 -10 -36 -284 -172 -154 -77 -324 -166 -376 -198
l-96 -58 -58 24 c-33 14 -125 54 -205 90 -152 69 -287 113 -448 148 -187 40
-598 37 -891 -7 -52 -7 -122 -14 -155 -14 -71 0 -74 2 -220 184 -101 126 -145
192 -145 218 0 13 35 35 133 82 217 104 151 112 532 -64 324 -149 691 -303
750 -315 49 -10 -82 56 -465 230 -483 221 -540 249 -538 257 2 4 62 36 133 71
72 35 195 99 274 141 79 42 154 76 168 76 28 0 159 -53 273 -110 234 -118 710
-291 1005 -366 85 -21 -241 114 -570 236 -320 120 -585 238 -662 296 l-33 25
51 102 c95 189 301 553 378 667 40 58 64 70 69 34 2 -15 12 -24 32 -28 16 -3
73 -33 127 -67 108 -68 387 -224 418 -234 19 -7 19 -6 -1 12 -176 153 -612
478 -814 608 -255 163 -251 159 -335 325 -47 93 -160 374 -195 486 l-23 71 67
101 c37 56 71 102 75 102 5 0 25 -40 45 -88z m-2861 -215 c86 -128 170 -247
185 -266 28 -33 29 -33 68 -21 21 7 134 58 249 115 213 104 301 142 310 133 7
-6 -12 -281 -26 -378 -5 -41 -19 -103 -31 -137 -20 -59 -20 -64 -5 -120 9 -32
17 -76 19 -98 5 -71 -23 -59 -162 71 -121 114 -194 174 -211 174 -13 0 45 -95
106 -175 29 -38 100 -122 156 -185 139 -157 240 -277 320 -387 74 -100 95
-121 79 -77 -31 80 -148 237 -375 499 -160 186 -185 217 -179 226 2 4 82 -73
176 -172 95 -100 181 -185 192 -191 15 -8 22 -7 32 7 11 15 14 15 29 -9 23
-35 147 -324 179 -418 27 -79 33 -128 16 -128 -5 0 -10 8 -10 19 0 30 -129
169 -302 327 -353 321 -486 447 -491 465 -6 22 -17 24 -41 6 -18 -13 -18 -15
-1 -41 10 -15 107 -103 214 -194 362 -307 531 -463 531 -492 0 -16 -14 -6
-115 85 -204 183 -345 273 -743 476 -119 60 -228 119 -242 130 l-25 21 34 -6
c19 -4 79 -26 134 -51 55 -25 103 -43 105 -40 3 3 0 5 -6 5 -7 0 -12 6 -12 13
0 7 -19 17 -42 24 -24 6 -81 26 -127 44 -81 32 -83 33 -97 14 -20 -27 -17 -68
6 -88 22 -19 26 -48 10 -78 -8 -13 -22 -19 -48 -19 -30 0 -5 -13 133 -69 169
-67 493 -210 583 -255 26 -13 65 -31 87 -40 l40 -16 -25 20 c-38 31 -365 190
-538 261 -174 71 -202 91 -202 144 0 19 5 35 11 35 14 0 322 -141 444 -203
116 -60 284 -170 392 -259 95 -77 273 -251 273 -267 0 -20 -17 -12 -72 33
-159 129 -388 247 -829 426 -241 98 -313 132 -347 164 -22 20 -24 20 -36 4
-17 -23 -44 -23 -107 2 -29 12 -59 19 -68 18 -9 -2 22 -16 68 -31 409 -133
1201 -488 1201 -538 0 -16 -30 -4 -195 76 -181 88 -443 201 -700 302 -257 100
-357 143 -378 161 -16 14 -20 14 -39 -5 l-21 -21 39 -11 c39 -10 150 -55 634
-254 432 -177 690 -297 690 -319 0 -17 -40 -2 -262 98 -308 139 -939 392
-1058 424 -27 7 -44 18 -47 31 -6 23 -11 24 -34 3 -20 -18 -69 3 656 -289 308
-124 483 -199 511 -220 61 -44 -41 -9 -420 147 -122 50 -329 132 -462 183
-133 51 -260 103 -283 114 -48 25 -59 21 -127 -41 -23 -21 -45 -35 -48 -29 -7
10 41 199 86 340 68 215 310 855 360 956 24 47 47 75 62 75 6 0 82 -105 169
-233z m3417 134 c0 -9 -15 0 -40 24 -22 21 -40 46 -40 54 0 9 15 0 40 -24 22
-21 40 -46 40 -54z m-2610 -771 c0 -16 -5 -30 -10 -30 -14 0 -24 26 -16 45 10
26 26 16 26 -15z m2220 -99 c0 -4 -64 -36 -142 -71 -326 -143 -745 -347 -978
-474 -85 -47 -158 -86 -162 -86 -24 -1 1 25 65 68 185 125 658 356 1072 523
121 49 145 56 145 40z m-2154 -87 c21 -45 34 -86 32 -102 -4 -24 -8 -19 -37
39 -31 65 -51 139 -37 139 4 0 23 -34 42 -76z m2254 63 c-16 -15 -396 -195
-710 -338 -102 -46 -262 -123 -357 -171 -169 -87 -193 -97 -193 -79 0 14 58
45 365 199 537 270 969 457 895 389z m20 -57 c0 -16 -37 -36 -336 -174 -159
-73 -372 -173 -474 -221 -266 -126 -402 -186 -413 -182 -16 5 75 53 438 229
395 192 746 354 778 357 4 1 7 -3 7 -9z m125 -30 c-9 -15 -173 -96 -480 -238
-267 -123 -533 -248 -780 -367 -200 -96 -445 -205 -458 -205 -37 1 212 130
626 324 133 63 337 160 452 216 262 128 351 170 490 231 104 46 164 62 150 39z
m65 -70 c0 -13 -10 -25 -27 -32 -40 -17 -364 -166 -743 -341 -623 -287 -986
-445 -997 -433 -4 3 -4 8 -2 10 15 14 417 208 759 366 223 104 484 225 580
270 251 118 392 179 413 180 10 0 17 -8 17 -20z m102 -49 c-2 -23 -25 -66
-268 -496 -65 -115 -152 -272 -193 -348 l-76 -138 -120 -56 c-142 -67 -781
-354 -1012 -456 -90 -39 -166 -68 -169 -64 -8 8 10 223 42 479 28 226 28 267
0 204 -25 -56 -114 -139 -189 -176 -50 -24 -85 -33 -157 -40 -109 -10 -179 -1
-258 35 -31 14 -48 18 -38 10 30 -23 117 -53 192 -66 52 -9 79 -9 123 1 72 16
198 74 233 107 39 38 58 26 58 -38 0 -49 -3 -55 -44 -95 -59 -56 -174 -112
-256 -123 -68 -9 -154 -1 -205 19 -16 6 -25 7 -20 2 26 -24 114 -47 180 -47
86 0 146 21 240 86 49 34 72 45 77 36 4 -7 8 -43 8 -82 0 -108 -43 -180 -133
-227 -44 -22 -154 -30 -227 -16 l-35 7 35 -17 c20 -9 62 -16 101 -16 57 -1 76
4 143 38 64 33 79 37 87 25 15 -21 4 -84 -20 -118 -63 -88 -266 -109 -372 -38
-37 24 -79 97 -79 135 0 21 4 24 27 19 l27 -5 -30 26 c-17 15 -43 43 -57 63
-27 36 -81 168 -73 176 2 2 18 -3 35 -11 26 -14 24 -10 -17 31 -38 38 -57 72
-95 163 -26 63 -47 123 -47 133 0 32 38 18 97 -37 71 -66 134 -101 210 -116
123 -26 266 18 346 106 23 26 61 66 83 88 56 56 246 150 664 331 386 166 591
260 840 385 323 162 348 171 342 121z m-3849 -182 c217 -87 460 -190 471 -200
33 -30 -101 16 -434 149 -210 84 -230 93 -230 104 0 18 48 5 193 -53z m-93
-46 c190 -71 851 -337 1118 -450 241 -103 300 -133 261 -133 -12 0 -558 214
-914 358 -115 46 -278 111 -362 143 -178 68 -256 106 -248 120 8 11 17 9 145
-38z m-109 -42 c132 -45 661 -251 974 -381 116 -48 260 -107 322 -131 l112
-44 105 -270 c129 -333 163 -431 153 -442 -12 -11 -208 58 -552 193 -577 228
-632 253 -696 321 -52 54 -452 558 -538 677 -39 54 -68 102 -65 107 11 18 71
8 185 -30z m837 -167 c154 -56 237 -97 206 -102 -37 -6 -344 119 -344 140 0
12 -1 12 138 -38z m1679 -10 c2 -6 -8 -16 -22 -22 -33 -15 -35 -15 -35 1 0 31
48 48 57 21z m-167 -4 c0 -10 -116 -81 -172 -105 -29 -12 -38 -12 -38 -3 0 15
19 28 115 80 72 38 95 45 95 28z m-2398 -82 c30 -35 124 -151 210 -258 190
-238 298 -355 342 -371 l32 -12 12 -276 c14 -320 31 -485 72 -701 l30 -155
-30 -25 c-16 -14 -66 -47 -112 -72 -46 -25 -128 -78 -183 -117 -54 -39 -104
-70 -110 -68 -14 5 -59 186 -92 378 -36 212 -40 171 -17 -182 l17 -276 -98
-162 -98 -161 7 -117 c15 -239 66 -545 128 -753 38 -129 54 -198 46 -205 -25
-25 -101 86 -203 297 -161 333 -173 426 -182 1353 -8 805 6 1051 87 1635 50
352 46 333 69 320 11 -5 43 -38 73 -72z m2438 24 c0 -12 -93 -62 -115 -62 -28
0 -11 23 35 47 44 23 80 30 80 15z m-1147 -90 c101 -48 135 -72 102 -72 -22 0
-214 76 -242 95 -13 9 -23 21 -23 27 0 18 54 1 163 -50z m188 -8 c88 -45 116
-73 62 -59 -41 10 -166 78 -171 93 -6 21 17 14 109 -34z m169 6 c18 -23 30
-44 26 -47 -8 -9 -76 57 -76 74 0 23 18 14 50 -27z m640 27 c0 -19 -21 -37
-42 -37 -25 0 -23 16 4 34 27 19 38 20 38 3z m-805 -109 c21 -9 36 -38 20 -38
-17 0 -75 31 -75 39 0 14 23 14 55 -1z m590 -87 c73 -21 115 -54 115 -92 0
-34 -67 -96 -128 -120 -78 -29 -202 -36 -273 -15 -56 16 -121 60 -158 107
l-20 25 71 39 c39 21 92 46 117 56 63 25 186 25 276 0z m528 -763 c79 -99 197
-291 197 -322 0 -23 -38 -37 -268 -102 -109 -30 -205 -57 -215 -60 -31 -10
-147 259 -147 342 0 34 28 64 61 64 8 0 81 27 160 60 79 33 152 60 161 60 9 0
32 -19 51 -42z m1857 -711 c0 -7 -21 -46 -46 -87 -69 -111 -92 -170 -110 -278
-8 -53 -22 -107 -30 -120 -8 -12 -38 -33 -67 -46 -102 -45 -154 -114 -176
-229 -6 -32 -14 -65 -19 -73 -5 -8 -42 -30 -83 -48 -41 -17 -141 -67 -223
-109 -83 -42 -151 -75 -151 -74 -1 1 -25 45 -53 97 -79 148 -223 340 -255 340
-13 0 -130 97 -135 112 -7 17 47 87 86 112 20 13 80 36 133 50 114 31 460 147
742 250 111 41 236 81 277 91 41 9 80 18 85 20 20 7 25 5 25 -8z m-2749 -1045
c45 -29 108 -94 128 -130 10 -18 3 -25 -70 -67 l-80 -47 -92 35 c-51 19 -121
43 -157 52 -133 33 -161 45 -158 67 2 14 19 27 53 40 221 89 298 99 376 50z
m10432 -167 c47 -24 148 -118 234 -217 319 -365 526 -758 610 -1158 30 -140
34 -294 19 -695 -8 -241 -14 -236 82 -75 107 180 239 516 288 738 11 45 22 82
25 82 14 0 32 -455 26 -670 -8 -297 -38 -494 -107 -702 -118 -354 -306 -559
-802 -872 -354 -224 -442 -288 -469 -338 -10 -18 -8 -19 28 -12 99 18 338 89
455 135 123 49 224 109 420 249 55 39 72 34 38 -13 -86 -117 -275 -297 -458
-435 -272 -205 -481 -291 -942 -387 -356 -74 -531 -135 -688 -237 -56 -37 -61
-43 -45 -52 11 -7 90 -11 208 -11 173 0 196 2 263 24 40 13 76 21 79 17 21
-21 -172 -139 -320 -196 -82 -32 -294 -87 -543 -140 -132 -28 -151 -35 -147
-50 5 -19 -34 -44 -227 -148 -138 -73 -430 -208 -490 -226 -179 -53 -691 -82
-745 -42 -11 8 -19 50 -30 151 -8 77 -11 142 -7 146 38 33 162 52 480 74 117
8 239 21 272 30 104 27 300 107 630 257 91 42 212 92 270 112 133 47 334 146
472 233 116 73 501 369 710 546 269 227 533 516 671 735 120 190 322 623 371
792 25 88 11 66 -222 -362 -300 -548 -510 -788 -1137 -1303 -219 -180 -440
-333 -647 -449 -67 -37 -68 -37 -68 -14 0 32 44 193 68 249 11 25 33 61 50 80
45 52 50 66 82 230 45 226 60 278 169 590 54 156 116 339 137 407 20 67 41
122 44 122 22 0 44 -258 37 -439 -4 -124 -11 -176 -31 -255 -41 -153 -106
-300 -186 -421 -118 -179 -73 -138 95 86 150 199 197 278 256 429 67 170 96
305 149 685 23 162 68 398 124 645 20 85 40 185 45 223 10 74 20 93 45 84 38
-15 95 -188 126 -382 49 -310 34 -519 -65 -860 -19 -65 -33 -120 -32 -122 5
-4 137 251 182 349 118 262 148 419 161 848 10 334 -19 600 -82 754 -49 121
-165 290 -235 342 -73 54 -224 53 -415 -1 -299 -86 -498 -271 -536 -497 -20
-124 32 -261 137 -356 65 -59 131 -88 229 -101 44 -6 82 -13 84 -16 8 -8 -91
-46 -145 -56 -203 -38 -428 134 -555 422 -48 108 -55 169 -47 380 7 180 20
231 90 372 123 245 236 352 498 469 l96 43 177 3 c341 7 491 -52 748 -293 62
-58 115 -104 117 -101 7 7 -66 195 -117 301 -26 55 -71 136 -100 179 -29 44
-54 86 -57 93 -7 18 64 17 100 -2z m-10493 -124 c-21 -40 -310 -269 -472 -375
l-84 -54 -189 39 c-105 22 -202 42 -217 45 -52 12 -55 31 -11 73 68 64 265
132 518 177 299 53 351 65 405 93 30 15 56 27 58 25 2 -1 -1 -12 -8 -23z m476
-65 c104 -107 121 -149 128 -316 4 -74 13 -178 21 -230 42 -263 63 -538 47
-595 -6 -21 -15 -31 -33 -33 -20 -2 -30 7 -55 50 -44 74 -127 265 -179 411
-27 76 -44 111 -44 94 -1 -43 44 -211 113 -424 60 -180 62 -193 46 -205 -10
-7 -65 -49 -121 -94 -57 -44 -109 -83 -115 -87 -16 -9 -91 99 -180 258 -165
297 -166 260 -2 -93 71 -154 78 -175 66 -190 -8 -9 -58 -70 -111 -134 -53 -64
-101 -119 -106 -122 -23 -14 -163 169 -294 384 -21 35 -40 60 -43 57 -15 -15
124 -300 212 -433 19 -28 34 -57 34 -64 0 -7 -20 -39 -44 -71 -24 -32 -52 -82
-62 -111 -21 -65 -53 -138 -60 -138 -3 0 -53 43 -112 97 -133 120 -241 207
-248 201 -3 -3 70 -78 162 -166 l167 -160 -48 -159 c-26 -87 -50 -161 -53
-164 -4 -4 -68 21 -142 55 -287 133 -325 129 -58 -5 148 -74 157 -80 162 -111
3 -18 10 -60 16 -92 14 -83 13 -139 -4 -162 -13 -17 -31 -19 -193 -24 -198 -6
-192 -13 22 -31 77 -6 148 -15 157 -20 10 -5 28 -43 42 -87 41 -130 42 -145
12 -206 -14 -29 -35 -61 -46 -71 -11 -10 -67 -32 -125 -50 l-105 -31 108 4
107 4 67 -103 c173 -270 392 -492 705 -715 230 -165 524 -312 913 -457 297
-111 538 -172 960 -242 197 -32 422 -74 427 -79 1 -1 -4 -78 -12 -172 -8 -93
-15 -177 -15 -188 0 -18 -8 -18 -177 -12 -710 27 -960 55 -1358 156 -358 91
-621 186 -944 341 -563 272 -750 422 -1157 928 -159 198 -322 580 -371 867
-27 162 -25 513 5 684 107 625 413 1180 923 1675 257 249 508 440 774 587 100
56 121 66 140 67 5 1 42 -32 81 -73z m-1106 -464 c0 -28 -96 -142 -315 -373
l-82 -86 -239 -6 c-131 -3 -251 -9 -266 -13 -46 -11 -34 15 38 83 200 189 392
292 689 369 133 34 175 40 175 26z m-444 -579 c-11 -29 -145 -248 -221 -362
-38 -58 -84 -115 -101 -126 -18 -12 -94 -38 -170 -59 -77 -20 -175 -53 -219
-72 -111 -49 -120 -52 -111 -28 17 45 116 191 181 266 126 146 292 264 496
353 113 49 156 57 145 28z m-326 -613 c0 -6 -7 -27 -15 -46 -8 -19 -30 -96
-49 -170 -57 -220 -63 -227 -291 -371 -168 -107 -202 -125 -209 -114 -4 5 8
48 25 95 33 91 102 214 170 303 52 67 186 194 276 261 67 51 93 62 93 42z
m-154 -702 c-8 -176 -24 -305 -39 -333 -6 -13 -35 -41 -62 -62 -28 -22 -104
-88 -170 -146 -66 -59 -123 -107 -127 -107 -17 0 -6 55 38 182 61 175 119 297
194 408 62 90 148 190 165 190 4 0 5 -60 1 -132z m4 -450 c12 -32 100 -448
100 -476 0 -12 -11 -40 -25 -61 -14 -21 -65 -116 -113 -212 -87 -173 -113
-209 -132 -179 -18 29 -25 127 -25 335 0 234 12 300 81 472 54 134 92 174 114
121z m1200 -365 c49 -33 215 -192 233 -222 20 -34 20 -35 -44 -45 -47 -8 -72
-35 -63 -70 5 -22 3 -26 -14 -26 -42 0 -212 252 -212 314 0 32 28 66 53 66 13
0 34 -8 47 -17z m-913 -470 l106 -218 -6 -146 c-7 -158 -23 -293 -38 -321 -5
-10 -16 -18 -24 -18 -33 0 -147 285 -181 453 -8 39 -17 149 -21 244 -5 151 -4
175 11 198 9 14 23 25 32 25 10 0 51 -75 121 -217z m1201 82 c75 -17 221 -92
337 -173 100 -70 98 -84 -10 -95 -116 -12 -125 -15 -125 -37 0 -31 -33 -24
-87 19 -60 48 -263 255 -263 268 0 35 47 41 148 18z m680 -411 c136 -28 327
-124 320 -162 -4 -22 -188 -70 -270 -71 -51 -1 -70 6 -176 59 -121 62 -234
143 -240 172 -2 13 6 18 35 21 63 7 253 -4 331 -19z m-1585 -66 c90 -96 203
-236 229 -285 25 -46 88 -324 88 -388 0 -41 -24 -29 -98 49 -127 137 -244 331
-301 503 -20 60 -28 153 -14 166 18 18 51 3 96 -45z m2364 -234 c90 -15 169
-42 223 -75 33 -20 33 -22 15 -36 -11 -7 -78 -32 -150 -54 -71 -22 -141 -44
-156 -48 -19 -7 -60 4 -174 45 -170 62 -375 153 -375 166 0 5 26 6 58 3 32 -3
101 1 157 9 113 17 270 13 402 -10z m3451 -611 l-3 -628 -160 -7 c-236 -9
-933 -27 -1392 -35 -365 -6 -403 -5 -403 10 0 31 247 197 1240 834 168 108
395 254 505 325 110 70 203 128 207 128 5 0 7 -282 6 -627z m245 600 c40 -20
190 -113 552 -343 1049 -665 1397 -889 1410 -909 3 -5 -21 -13 -52 -17 -98
-12 -1249 9 -1813 34 l-155 7 2 560 c3 517 7 685 19 685 3 0 19 -7 37 -17z
m-5607 -154 c191 -131 274 -212 318 -312 50 -112 93 -297 69 -297 -34 0 -220
187 -301 303 -37 53 -192 345 -192 361 0 14 21 2 106 -55z m2740 -28 c90 -11
136 -28 132 -49 -2 -8 -37 -26 -78 -42 -41 -15 -102 -41 -135 -57 -81 -41
-118 -46 -238 -33 -122 13 -315 46 -353 60 -24 9 -25 13 -13 24 16 16 145 58
234 76 124 26 327 35 451 21z m378 -152 c3 -17 6 -56 6 -85 l0 -54 -38 0 c-77
0 -294 30 -330 46 l-37 17 51 8 c27 5 106 28 175 53 154 55 165 56 173 15z
m-2644 -119 c28 -16 144 -78 257 -137 221 -114 271 -150 308 -222 13 -25 51
-88 84 -140 106 -165 77 -171 -155 -35 -197 115 -286 184 -366 284 -60 75
-197 280 -188 280 5 0 32 -13 60 -30z m892 -355 c79 -25 203 -62 277 -81 154
-40 183 -53 198 -87 6 -13 41 -61 77 -105 36 -45 66 -84 66 -87 0 -29 -301 42
-445 106 -43 19 -141 85 -205 137 -71 59 -160 144 -160 154 0 17 54 6 192 -37z
m748 -179 c113 -28 102 -45 -19 -29 -81 11 -132 29 -139 51 -5 15 10 13 158
-22z m3161 -443 c13 -13 -60 -154 -241 -463 -53 -91 -170 -291 -260 -445 -90
-154 -197 -336 -238 -405 -41 -69 -162 -273 -269 -455 -205 -346 -304 -505
-314 -505 -3 0 -59 141 -124 313 -65 171 -144 380 -176 462 -31 83 -93 251
-139 375 -45 124 -125 342 -178 485 -241 655 -217 582 -186 589 44 11 366 25
844 36 261 7 624 15 805 20 390 9 461 8 476 -7z m734 7 c132 -5 479 -14 770
-20 806 -15 1035 -22 1035 -31 0 -5 -42 -123 -94 -261 -52 -139 -158 -428
-236 -643 -78 -214 -166 -451 -194 -525 -29 -74 -109 -287 -177 -472 -68 -186
-128 -336 -133 -335 -9 3 -211 341 -567 947 -89 151 -221 374 -292 495 -225
379 -477 819 -477 831 0 26 40 27 365 14z m-336 -432 c101 -172 194 -329 206
-348 29 -43 126 -209 235 -400 46 -80 131 -226 190 -325 223 -373 520 -899
513 -906 -5 -4 -614 -11 -1354 -15 -1043 -5 -1348 -4 -1353 5 -5 7 27 70 77
154 47 78 151 257 232 397 81 140 205 352 275 470 70 118 185 314 255 435 122
210 251 425 393 655 67 108 128 190 141 190 4 0 90 -141 190 -312z m2181
-1073 l0 -995 -57 0 c-129 0 -641 53 -654 68 -7 7 183 547 301 857 124 328
238 639 385 1053 22 62 25 -51 25 -983z m-4697 830 c25 -66 102 -275 172 -465
70 -190 156 -419 190 -510 123 -320 276 -762 270 -779 -4 -15 -38 -20 -253
-39 -136 -12 -293 -25 -349 -29 l-101 -6 -8 49 c-4 27 -8 293 -8 591 -1 567 0
585 40 552 40 -33 47 -76 54 -321 3 -131 8 -240 12 -243 18 -19 20 538 2 655
-5 31 -7 33 -19 17 -6 -9 -19 -17 -28 -17 -38 0 -42 34 -45 370 -4 374 -4 374
71 175z m-1643 -484 c0 -16 -7 -46 -16 -67 -10 -25 -18 -88 -23 -191 -4 -84
-11 -156 -15 -160 -8 -8 -29 14 -117 118 -64 75 -93 83 -270 74 -75 -4 -142
-10 -148 -15 -20 -12 -30 -126 -37 -444 l-7 -299 114 5 c124 6 140 11 210 68
86 72 147 98 164 70 3 -6 -10 -76 -30 -158 -20 -81 -41 -183 -48 -227 -10 -70
-15 -80 -34 -83 -16 -2 -35 14 -79 69 l-57 72 -81 -7 c-45 -3 -98 -6 -118 -6
l-38 0 0 -142 c1 -160 16 -537 26 -640 l7 -68 196 0 197 0 75 87 c122 143 141
163 150 163 16 0 10 -69 -17 -183 -14 -62 -31 -155 -38 -207 -12 -92 -13 -95
-37 -93 -206 20 -344 24 -594 19 -159 -3 -314 -8 -342 -12 -31 -3 -53 -2 -53
4 0 5 34 48 76 96 l77 88 -7 161 c-23 575 -36 729 -62 759 -9 10 -36 29 -59
43 -24 13 -45 31 -49 40 -13 34 21 65 92 85 l42 11 0 164 c0 186 8 258 52 472
l31 152 -37 46 c-21 25 -62 66 -91 92 -30 25 -52 49 -50 53 2 4 37 1 77 -7
110 -22 838 -14 888 9 19 9 45 17 58 17 18 1 22 -4 22 -28z m-1203 -3 c-3 -13
-15 -49 -27 -82 -17 -46 -23 -94 -28 -225 l-8 -166 -19 34 c-66 112 -123 188
-155 204 -31 16 -51 18 -178 12 -78 -3 -149 -8 -157 -11 -12 -5 -13 -43 -9
-257 2 -139 7 -303 10 -364 l6 -113 81 0 c45 0 105 -3 133 -6 l51 -6 37 61
c21 33 47 68 59 76 28 20 63 19 71 -1 7 -18 -54 -494 -63 -494 -3 0 -22 23
-41 51 -19 28 -49 64 -67 80 -33 29 -36 29 -152 29 -104 0 -120 -2 -126 -17
-12 -29 -24 -313 -25 -570 0 -230 1 -243 19 -243 10 0 78 -5 151 -11 203 -17
220 -11 344 112 136 136 155 133 117 -19 -11 -43 -25 -126 -32 -185 -8 -72
-17 -114 -28 -125 -15 -16 -39 -17 -281 -11 -146 4 -365 7 -487 8 -123 0 -223
4 -223 8 0 3 32 41 70 84 l70 77 0 456 0 457 -65 60 c-36 34 -65 64 -65 68 0
4 26 20 59 35 l58 28 7 172 c3 94 11 276 17 404 l12 233 -68 70 c-86 88 -81
95 48 80 187 -22 751 -9 820 19 12 5 33 9 46 9 19 1 22 -3 18 -21z m12128 -35
c-15 -126 -55 -317 -68 -331 -20 -20 -32 -10 -68 54 -48 84 -70 97 -156 92
-92 -6 -164 -41 -231 -111 -89 -95 -133 -213 -163 -437 -18 -136 -16 -490 4
-616 48 -305 237 -664 349 -664 24 0 27 4 33 43 3 23 5 219 3 436 l-3 393 -35
27 c-19 14 -53 43 -75 63 -63 58 -53 61 238 69 138 4 263 10 277 13 35 8 95
-7 95 -23 0 -8 -31 -30 -69 -50 -111 -57 -110 -57 -115 -294 -2 -114 5 -354
15 -550 l18 -348 -21 -21 c-35 -34 -106 -35 -183 -3 -87 37 -142 53 -209 61
-214 26 -442 229 -550 492 -88 214 -130 528 -110 832 25 375 205 696 461 818
94 46 149 58 298 67 58 4 134 15 170 25 106 28 103 29 95 -37z m-10272 31 c3
-4 -2 -23 -13 -44 -28 -54 -38 -136 -50 -390 -5 -124 -12 -276 -16 -337 -4
-78 -2 -113 5 -113 6 0 11 5 11 11 0 23 121 263 207 410 107 182 163 290 163
313 0 9 -11 43 -25 76 -14 33 -25 64 -25 70 0 16 430 3 447 -14 3 -3 -7 -16
-23 -28 -97 -75 -135 -122 -200 -251 -37 -72 -95 -176 -129 -232 -75 -122
-136 -240 -160 -314 -31 -95 -21 -133 110 -402 126 -259 183 -399 246 -609 50
-164 79 -231 119 -276 54 -62 36 -86 -80 -104 -36 -5 -98 -11 -138 -12 -88 -2
-106 11 -123 91 -40 193 -119 440 -224 701 -68 169 -113 253 -146 271 -15 8
-20 5 -25 -18 -10 -37 4 -713 16 -809 7 -58 19 -93 46 -141 20 -36 33 -67 30
-70 -11 -11 -490 -15 -506 -4 -12 9 -3 22 53 78 l67 69 -1 344 c0 190 -4 402
-8 471 -6 115 -9 130 -34 166 -15 21 -27 42 -27 47 0 4 12 18 27 32 26 24 28
32 34 142 4 64 8 257 8 429 l1 312 -70 62 c-38 35 -70 67 -70 71 0 9 494 11
503 2z m-3114 -20 c7 -7 -71 -354 -80 -360 -5 -2 -18 15 -30 38 -49 98 -108
133 -224 133 -61 0 -91 -5 -127 -22 -284 -130 -429 -732 -298 -1242 46 -180
173 -429 275 -540 62 -67 103 -87 132 -66 17 13 18 41 21 458 l3 445 -80 56
c-45 31 -81 62 -81 70 0 9 25 15 92 20 119 8 538 8 538 -1 0 -3 -25 -32 -55
-64 -31 -32 -62 -74 -71 -94 -33 -80 -37 -228 -19 -735 22 -623 20 -668 -48
-738 -49 -52 -61 -55 -107 -32 -52 26 -67 59 -96 202 -13 66 -28 137 -34 158
-11 43 -19 46 -144 75 -180 41 -416 216 -529 392 -91 142 -113 204 -158 453
-42 233 -53 267 -101 316 l-40 42 32 23 c45 34 65 78 104 236 69 281 144 430
291 579 78 79 104 97 195 143 92 45 116 53 195 61 83 8 435 3 444 -6z m10431
0 c220 -8 317 -25 405 -68 172 -85 275 -276 275 -510 0 -183 -35 -260 -187
-417 -62 -64 -113 -123 -113 -132 0 -9 32 -89 71 -179 39 -90 118 -304 177
-476 58 -173 114 -324 124 -338 25 -31 59 -31 90 1 46 46 63 145 108 630 l29
320 -38 55 c-59 84 -59 94 -11 126 53 35 62 55 100 205 17 68 54 203 82 299
66 232 88 331 88 413 l0 67 175 0 175 0 0 -58 c0 -78 9 -125 91 -472 38 -162
77 -326 86 -365 17 -71 34 -95 97 -138 18 -13 26 -26 24 -40 -3 -19 -9 -22
-53 -22 l-50 0 3 -40 c4 -54 69 -537 88 -655 35 -215 54 -278 114 -365 l31
-45 -215 0 c-200 0 -266 7 -266 28 0 5 17 30 37 56 30 39 38 57 41 104 7 102
-96 859 -120 873 -15 10 -141 12 -174 3 -14 -4 -25 -19 -33 -44 -10 -36 -71
-569 -86 -760 l-7 -85 41 -78 c23 -43 39 -82 35 -88 -4 -6 -29 -8 -68 -4 -37
4 -137 -2 -255 -14 -107 -12 -249 -24 -315 -27 l-121 -7 -29 114 c-36 142
-195 632 -242 742 -41 98 -77 148 -94 130 -21 -20 -28 -198 -19 -453 11 -302
18 -348 63 -420 19 -30 31 -58 27 -63 -4 -4 -123 -6 -265 -5 l-257 3 68 74 68
75 3 670 c2 369 1 802 -3 961 l-7 290 -73 65 c-40 36 -70 69 -68 73 3 5 48 6
102 3 53 -3 166 -8 251 -12z m3795 5 c86 -16 151 -53 225 -128 115 -116 207
-330 251 -580 27 -149 36 -443 19 -607 -48 -474 -167 -728 -401 -854 -61 -33
-69 -35 -164 -35 -92 0 -104 2 -153 29 -141 79 -286 256 -335 411 -45 144 -51
212 -51 630 -1 442 6 510 65 689 84 254 215 407 379 442 71 16 94 16 165 3z
m918 4 l136 -6 -1 -51 c-1 -60 23 -133 219 -658 102 -271 140 -362 145 -347 4
11 9 220 10 464 l2 444 -37 72 c-20 40 -35 74 -32 77 8 8 465 15 465 7 0 -4
-32 -43 -71 -86 l-70 -78 -10 -749 c-9 -740 -3 -1080 21 -1163 6 -21 28 -52
51 -73 63 -56 51 -60 -175 -64 l-193 -3 -7 143 c-13 250 -48 385 -211 803
-123 315 -176 438 -187 427 -6 -6 -12 -249 -15 -608 l-6 -599 42 -50 c48 -57
75 -104 66 -113 -11 -11 -497 -14 -507 -4 -6 6 19 35 66 78 l76 69 0 965 0
966 -65 64 c-36 35 -65 68 -65 72 0 10 169 10 353 1z m-5715 -13 c236 -27 475
-271 581 -596 38 -117 53 -250 53 -454 -2 -416 -129 -756 -368 -980 -126 -118
-225 -153 -483 -170 -152 -11 -251 -7 -251 10 0 5 22 41 50 82 l50 73 0 943 0
943 -50 61 c-28 33 -49 65 -47 72 2 6 21 14 43 17 64 10 333 10 422 -1z
m-1734 -1426 c17 -10 16 -13 -15 -50 -83 -97 -270 -307 -449 -504 -108 -118
-222 -245 -255 -281 -164 -181 -547 -589 -554 -589 -5 0 -18 8 -29 18 -45 39
-761 808 -1016 1091 -242 268 -269 301 -262 309 15 14 406 19 1471 18 758 -1
1096 -5 1109 -12z m-2846 -30 c57 -23 392 -376 392 -412 0 -11 -14 -13 -72 -7
l-73 6 60 -35 c67 -39 116 -84 256 -236 53 -58 112 -114 130 -124 l34 -20 -27
35 c-89 111 -148 192 -148 202 0 6 23 -11 51 -38 64 -63 359 -397 359 -408 0
-29 -591 355 -714 465 -32 28 -116 122 -187 210 -72 87 -140 165 -152 173 -27
17 -137 32 -137 18 0 -5 28 -27 63 -48 105 -67 256 -229 233 -252 -9 -10 -676
411 -676 427 0 14 25 19 217 39 103 11 202 22 218 25 48 7 133 -3 173 -20z
m3517 -5 c116 -12 216 -24 223 -28 10 -6 -312 -223 -465 -313 -66 -39 -57 3
27 131 33 50 56 91 51 91 -9 0 -108 -69 -171 -119 -85 -68 -305 -258 -330
-285 l-24 -27 67 31 c70 32 111 39 105 18 -7 -23 -607 -417 -739 -486 -85 -44
-76 -15 34 111 201 229 357 368 357 317 0 -7 -72 -108 -144 -199 -9 -12 -8
-12 9 -4 24 13 117 110 240 252 147 168 144 175 -24 57 -23 -16 -44 -26 -48
-23 -10 11 154 199 367 421 l85 88 85 -6 c47 -3 180 -16 295 -27z m-345 -302
c0 -23 -126 -127 -153 -127 -17 0 -1 20 67 79 70 62 86 71 86 48z"/>
<path d="M8655 19828 c13 -63 105 -328 143 -410 87 -188 479 -804 499 -784 7
7 -22 59 -115 206 -299 473 -385 635 -493 934 -32 89 -45 110 -34 54z"/>
<path d="M11570 19738 c-89 -243 -368 -729 -573 -1001 -37 -49 -67 -90 -67
-92 0 -8 58 -22 66 -16 5 3 17 24 28 46 10 22 52 89 94 150 182 266 375 626
445 830 31 92 53 175 45 175 -2 0 -19 -42 -38 -92z"/>
<path d="M10120 18838 c0 -13 -16 -61 -36 -108 -62 -147 -76 -185 -65 -175 5
6 28 47 50 93 23 45 47 82 54 82 18 0 41 -27 111 -127 32 -46 59 -83 62 -83 7
0 -25 60 -58 107 -40 59 -98 183 -98 210 0 13 -4 23 -10 23 -5 0 -10 -10 -10
-22z"/>
<path d="M11248 18687 c-125 -205 -330 -637 -302 -637 3 0 41 74 85 166 43 91
109 217 146 282 61 107 138 270 130 278 -2 2 -28 -38 -59 -89z"/>
<path d="M9760 18547 c0 -43 64 -113 223 -246 69 -57 -45 112 -139 205 -35 35
-68 64 -74 64 -5 0 -10 -11 -10 -23z"/>
<path d="M10437 18508 c-14 -24 -44 -65 -68 -91 l-42 -49 55 36 c31 19 67 38
82 42 28 7 40 34 34 75 -5 40 -33 34 -61 -13z"/>
<path d="M11796 18464 c-66 -73 -216 -207 -415 -369 -246 -202 -336 -304 -366
-420 -14 -56 -20 -125 -11 -125 32 0 392 108 365 110 -24 1 -182 -32 -212 -45
-44 -18 -98 -20 -115 -3 -33 33 -4 127 66 214 41 52 74 82 372 329 183 151
330 291 360 342 11 18 18 33 17 33 -1 -1 -28 -30 -61 -66z"/>
<path d="M10630 18429 c-21 -41 -27 -59 -16 -50 21 18 58 89 54 103 -2 6 -19
-18 -38 -53z"/>
<path d="M8506 18400 c138 -203 402 -524 500 -610 l28 -25 -24 32 c-44 55
-282 353 -382 477 -54 67 -116 141 -139 166 -38 41 -37 38 17 -40z"/>
<path d="M9730 18075 c0 -15 94 -204 125 -250 39 -60 23 -9 -37 110 -48 97
-87 160 -88 140z"/>
<path d="M10487 17968 c-67 -138 -81 -183 -34 -111 34 53 102 211 94 220 -3 2
-30 -47 -60 -109z"/>
<path d="M9000 18036 c0 -2 8 -10 18 -17 15 -13 16 -12 3 4 -13 16 -21 21 -21
13z"/>
<path d="M10944 17959 c-71 -38 -184 -131 -259 -213 -149 -164 -255 -285 -255
-291 0 -10 49 28 155 121 138 121 239 194 346 251 51 26 99 58 107 71 13 20
13 24 -4 43 -33 37 -48 40 -90 18z"/>
<path d="M9215 17755 c44 -100 44 -128 5 -165 l-31 -29 26 -17 c36 -24 48 -8
53 71 4 55 0 73 -22 118 -47 94 -69 110 -31 22z"/>
<path d="M11732 17605 c-433 -106 -617 -168 -667 -225 l-20 -23 20 10 c40 21
334 114 515 163 243 66 477 144 423 139 -5 0 -126 -29 -271 -64z"/>
<path d="M8955 17645 c28 -8 59 -14 70 -14 19 0 19 1 -1 9 -12 5 -43 11 -70
14 l-49 6 50 -15z"/>
<path d="M10710 17572 c-89 -90 -112 -130 -91 -156 9 -11 21 -12 53 -4 57 12
93 41 116 91 25 53 38 142 22 152 -7 4 -47 -29 -100 -83z"/>
<path d="M8420 17615 c52 -20 185 -60 295 -90 323 -87 417 -121 512 -185 l48
-32 -33 35 c-66 68 -249 138 -636 241 -258 69 -310 77 -186 31z"/>
<path d="M9473 17582 c6 -75 27 -115 71 -136 51 -24 126 -20 126 8 0 24 -168
186 -193 186 -6 0 -8 -23 -4 -58z"/>
<path d="M10814 17163 c-45 -60 -104 -182 -104 -216 0 -29 2 -27 23 23 13 30
44 95 69 143 26 48 45 87 44 87 -2 0 -16 -16 -32 -37z"/>
<path d="M10365 17034 c-148 -150 -151 -157 -21 -46 73 62 175 177 165 186 -2
1 -67 -61 -144 -140z"/>
<path d="M10969 17103 c-85 -89 -239 -296 -239 -322 0 -6 16 -11 38 -11 20 0
51 -9 67 -20 17 -11 42 -20 58 -20 35 0 36 28 4 85 -28 50 -59 54 -67 10 -6
-37 -43 -43 -48 -8 -5 34 23 77 101 159 84 90 109 104 179 104 l53 1 -40 34
c-22 19 -45 35 -50 35 -6 0 -31 -21 -56 -47z"/>
<path d="M9795 17101 c41 -44 131 -104 147 -99 13 5 -93 88 -147 115 l-30 15
30 -31z"/>
<path d="M9218 17103 c7 -3 16 -2 19 1 4 3 -2 6 -13 5 -11 0 -14 -3 -6 -6z"/>
<path d="M9497 17035 c20 -41 39 -73 41 -71 4 5 -66 146 -73 146 -3 0 12 -34
32 -75z"/>
<path d="M9060 17055 c-14 -8 -20 -14 -15 -14 6 0 21 6 35 14 14 8 21 14 15
14 -5 0 -21 -6 -35 -14z"/>
<path d="M9252 17038 c3 -7 13 -15 22 -16 12 -3 17 1 14 10 -3 7 -13 15 -22
16 -12 3 -17 -1 -14 -10z"/>
<path d="M11324 16981 c4 -6 22 -18 39 -27 30 -14 31 -14 12 1 -30 25 -59 39
-51 26z"/>
<path d="M9421 16874 c-7 -26 -25 -76 -42 -112 -16 -36 -27 -67 -25 -69 16
-16 136 90 136 119 0 21 -35 94 -49 102 -5 3 -14 -15 -20 -40z"/>
<path d="M10422 16884 c-34 -41 -75 -158 -70 -198 3 -24 7 -19 43 41 31 53 46
69 66 71 22 3 29 -3 43 -35 l17 -38 -5 70 c-8 126 -39 155 -94 89z"/>
<path d="M10020 16900 c8 -5 20 -10 25 -10 6 0 3 5 -5 10 -8 5 -19 10 -25 10
-5 0 -3 -5 5 -10z"/>
<path d="M9752 16873 c-23 -9 -52 -81 -63 -158 -22 -145 16 -281 114 -411 96
-126 241 -254 289 -254 37 0 134 41 198 84 122 81 230 196 282 301 25 50 16
40 -54 -55 -100 -136 -242 -251 -354 -287 -50 -15 -55 -15 -99 1 -79 31 -294
265 -341 371 -12 30 -17 65 -16 138 0 55 3 101 5 104 3 2 40 -19 82 -47 79
-51 120 -68 133 -55 9 9 -26 37 -97 78 -72 42 -98 78 -85 114 16 48 53 42 118
-16 31 -28 58 -51 61 -51 23 0 -40 92 -85 125 -32 24 -60 30 -88 18z"/>
<path d="M10500 16710 c0 -5 -19 -27 -42 -50 -23 -22 -36 -40 -29 -40 18 0 81
65 81 84 0 9 -2 16 -5 16 -3 0 -5 -4 -5 -10z"/>
<path d="M8170 16240 c-25 -17 -92 -48 -150 -71 -224 -86 -321 -162 -463 -359
-25 -36 -57 -78 -69 -94 -13 -18 23 5 92 59 63 48 233 177 378 287 229 175
271 208 260 208 -2 0 -23 -14 -48 -30z"/>
<path d="M8200 16185 c-14 -14 -90 -76 -170 -138 -221 -169 -581 -461 -619
-501 l-34 -35 59 -68 c32 -37 130 -139 216 -226 148 -148 159 -157 180 -146
31 16 192 135 303 224 50 39 165 131 256 203 92 72 173 139 180 149 14 17
-116 -81 -296 -222 -137 -108 -366 -280 -405 -304 -19 -11 -41 -21 -47 -21
-14 0 -18 36 -5 43 4 2 1 2 -7 0 -46 -12 -196 115 -189 160 3 19 9 22 53 23
67 1 71 2 89 20 22 21 20 46 -4 72 -40 43 -130 17 -130 -37 0 -93 -96 -50
-182 83 -41 64 -45 76 -25 76 8 0 38 21 68 48 105 91 275 229 422 342 82 62
184 144 228 182 43 37 85 68 92 68 35 0 390 -353 420 -418 9 -20 5 -28 -29
-65 l-39 -42 47 44 c35 33 45 48 38 60 -35 65 -345 396 -403 432 -40 24 -39
24 -67 -6z m-450 -780 c13 -16 6 -47 -16 -66 -37 -30 -86 35 -52 69 16 16 53
15 68 -3z"/>
<path d="M8212 16048 c-14 -14 -16 -38 -2 -38 9 0 30 31 30 44 0 10 -15 7 -28
-6z"/>
<path d="M8338 15953 c-23 -6 -40 -58 -28 -88 12 -32 50 -41 88 -21 82 42 32
134 -60 109z m66 -46 c14 -39 -12 -65 -51 -51 -36 12 -42 47 -11 68 31 22 51
17 62 -17z"/>
<path d="M7960 15876 c-132 -35 -233 -168 -214 -281 37 -227 340 -303 511
-128 76 79 94 190 46 283 -34 64 -88 104 -168 125 -70 18 -113 18 -175 1z
m193 -33 c117 -32 156 -98 145 -243 -7 -96 -70 -165 -177 -197 -68 -19 -164
-12 -219 16 -87 45 -151 153 -135 233 15 83 82 165 155 191 58 21 158 21 231
0z"/>
<path d="M8144 15779 c-7 -12 12 -29 34 -29 15 0 16 12 0 28 -15 15 -25 15
-34 1z"/>
<path d="M7946 15725 c4 -11 12 -40 19 -65 13 -50 39 -70 91 -70 33 0 47 11
58 47 5 17 1 29 -18 48 -20 20 -35 25 -77 25 -37 0 -56 5 -66 18 -14 16 -14
16 -7 -3z m132 -58 c5 -23 -25 -57 -49 -57 -20 0 -35 39 -25 66 9 22 70 15 74
-9z"/>
<path d="M7860 15543 c0 -23 16 -48 23 -37 5 10 -9 54 -18 54 -3 0 -5 -8 -5
-17z"/>
<path d="M8183 15538 c-25 -32 -26 -40 -4 -29 11 7 21 18 21 26 0 18 -5 19
-17 3z"/>
<path d="M8063 15487 c-6 -23 -10 -43 -8 -45 8 -8 35 32 35 53 0 41 -16 36
-27 -8z"/>
<path d="M8492 15729 c2 -6 8 -10 13 -10 5 0 11 4 13 10 2 6 -4 11 -13 11 -9
0 -15 -5 -13 -11z"/>
<path d="M7570 15546 c0 -9 7 -16 16 -16 17 0 14 22 -4 28 -7 2 -12 -3 -12
-12z"/>
<path d="M7850 15235 c0 -8 7 -15 15 -15 8 0 15 7 15 15 0 8 -7 15 -15 15 -8
0 -15 -7 -15 -15z"/>
<path d="M5272 17933 l-82 -4 39 -52 c21 -29 51 -76 65 -104 15 -29 31 -53 36
-53 16 0 12 10 -40 91 -27 43 -50 83 -50 88 0 6 10 13 23 15 44 9 333 15 407
8 l75 -7 -3 -33 c-1 -21 2 -31 8 -27 5 3 10 14 10 23 0 9 5 24 10 32 16 24 50
-23 50 -69 0 -54 -45 -118 -171 -246 -83 -83 -111 -107 -120 -98 -8 8 -14 77
-19 192 -3 100 -10 184 -13 188 -4 3 -7 0 -8 -8 0 -8 -4 -92 -8 -186 -4 -107
-11 -177 -18 -184 -9 -9 -41 17 -129 102 -133 130 -135 121 -5 -34 50 -59 91
-112 91 -116 0 -12 -64 -21 -157 -21 l-83 0 0 250 c0 148 -4 250 -9 250 -17 0
-20 -32 -26 -330 -8 -368 4 -633 29 -658 15 -15 48 -17 289 -20 293 -4 357 1
357 24 0 8 -9 14 -19 14 -11 0 -23 5 -26 10 -10 17 -25 11 -25 -9 0 -28 -24
-31 -252 -31 -207 0 -258 7 -258 34 0 23 -22 31 -35 12 -12 -15 -13 -15 -19 0
-3 8 -6 108 -6 220 l0 204 89 0 c84 0 151 -13 151 -30 0 -4 -35 -43 -78 -86
-43 -44 -89 -95 -102 -114 -13 -19 29 16 92 78 63 61 120 112 125 112 14 0 23
-59 24 -170 0 -52 4 -120 8 -150 11 -82 19 -33 24 141 2 80 7 151 11 157 5 9
15 8 35 -2 36 -19 196 -188 233 -245 l28 -45 -1 65 c-1 35 -3 56 -6 47 -2 -10
-10 -18 -18 -18 -21 0 -215 213 -215 237 0 17 38 23 143 23 l97 0 0 40 c0 40
0 40 -19 21 -23 -23 -94 -36 -157 -28 -57 6 -71 18 -57 50 10 22 199 228 215
235 5 2 9 -20 9 -50 l2 -53 7 55 c5 30 8 103 9 163 l1 107 -237 -2 c-131 -1
-275 -4 -321 -5z m258 -488 c7 -8 10 -25 6 -39 -11 -46 -71 -45 -82 1 -11 43
48 72 76 38z"/>
<path d="M5666 17775 c-18 -27 -21 -49 -6 -40 15 9 42 65 31 65 -5 0 -16 -11
-25 -25z"/>
<path d="M6802 17693 c-19 -65 -47 -93 -85 -87 -29 4 -28 2 13 -17 74 -35 97
-42 83 -28 -16 16 -17 75 -2 117 6 17 9 37 7 43 -2 7 -9 -6 -16 -28z"/>
<path d="M6515 17665 c63 -18 81 -18 35 0 -19 7 -46 14 -60 14 -14 0 -4 -6 25
-14z"/>
<path d="M6449 17562 c-18 -31 -105 -201 -194 -377 -151 -298 -225 -463 -225
-500 0 -26 226 -129 460 -210 52 -18 98 -30 102 -27 21 21 429 836 451 904 4
12 -3 24 -21 36 -45 31 -56 36 -48 23 8 -13 -44 -89 -98 -140 -27 -26 -36 -31
-36 -18 0 27 58 124 91 151 l29 24 -108 45 c-125 53 -188 78 -294 118 l-77 28
-32 -57z m40 -59 c5 -21 13 -60 17 -88 l7 -50 17 62 c18 64 44 113 60 113 6 0
10 -6 10 -12 1 -21 -73 -248 -80 -248 -11 0 -50 135 -56 198 -8 71 9 87 25 25z
m181 -8 c0 -42 -113 -305 -132 -305 -14 0 -9 25 28 131 57 164 104 243 104
174z m76 -32 c-8 -32 -147 -318 -169 -348 -33 -44 -26 -2 17 104 71 173 124
271 148 271 6 0 8 -11 4 -27z m-317 -21 c12 -23 57 -203 66 -264 6 -39 5 -48
-8 -48 -8 0 -17 -5 -19 -12 -8 -23 -31 6 -69 88 -43 90 -56 138 -41 148 15 9
40 -25 66 -94 34 -88 32 -57 -4 68 -27 95 -30 132 -9 132 4 0 13 -8 18 -18z
m376 -22 c-19 -53 -99 -212 -137 -272 -27 -44 -58 -63 -58 -38 0 14 94 201
142 283 46 77 76 93 53 27z m85 10 c0 -13 -41 -96 -88 -177 -36 -62 -70 -87
-57 -40 11 38 86 191 102 210 18 19 43 23 43 7z m140 -60 c0 -27 -44 -92 -90
-133 -28 -25 -93 -72 -145 -103 -52 -32 -93 -60 -91 -61 2 -2 51 20 109 49
102 50 133 56 111 20 -11 -18 -201 -116 -248 -128 -25 -6 -28 -4 -22 13 6 17
3 20 -19 15 -44 -8 -29 22 31 59 188 117 233 150 289 212 57 65 75 79 75 57z
m-657 -171 c20 -30 37 -59 37 -62 0 -14 -33 -7 -66 14 -39 24 -52 59 -35 96
13 29 12 30 64 -48z m-9 -87 c51 -27 70 -52 42 -52 -21 0 -145 50 -152 61 -3
5 -2 14 2 20 8 14 47 4 108 -29z m-4 -62 c0 -15 -76 -50 -125 -57 -50 -6 -59
6 -21 30 45 30 146 48 146 27z m207 -7 c7 -19 -32 -55 -55 -51 -25 5 -38 34
-23 52 18 21 70 21 78 -1z m297 8 c3 -4 -6 -19 -19 -31 -19 -18 -40 -25 -88
-28 -72 -5 -70 1 16 39 66 30 83 34 91 20z m-479 -51 c-17 -19 -16 -19 19 -13
27 4 36 2 36 -8 1 -25 -144 -300 -177 -338 -30 -33 -32 -34 -33 -13 0 22 74
176 125 260 29 47 23 52 -25 20 -22 -15 -35 -33 -37 -52 -7 -49 -104 -226
-124 -226 -18 0 -8 39 30 111 21 41 42 85 46 99 8 24 8 24 -26 -5 -37 -33
-116 -72 -125 -62 -12 11 10 30 122 104 63 41 114 77 114 79 0 3 -42 -18 -93
-46 -102 -54 -107 -56 -107 -37 1 17 69 64 175 119 87 45 116 48 80 8z m363
-33 c71 -28 83 -53 22 -43 -59 9 -152 48 -158 65 -6 19 62 8 136 -22z m-293
-109 c-36 -84 -112 -232 -137 -263 -27 -35 -39 -31 -26 8 17 52 114 248 149
302 43 65 50 40 14 -47z m72 24 c-7 -37 -92 -235 -123 -289 -28 -49 -50 -57
-39 -15 12 48 56 155 102 245 45 87 71 112 60 59z m221 8 c36 -22 40 -52 9
-58 -18 -4 -77 48 -77 67 0 17 32 13 68 -9z m-93 -104 c26 -92 31 -136 16
-136 -14 0 -39 76 -51 150 -21 135 -7 129 35 -14z m-56 -18 c12 -51 25 -115
27 -143 5 -45 4 -48 -9 -32 -8 9 -23 56 -32 103 -10 46 -22 81 -26 77 -4 -4
-30 -64 -57 -133 -32 -81 -56 -126 -66 -128 -22 -5 -15 22 41 162 52 128 80
186 92 186 4 0 18 -42 30 -92z m106 52 c19 -36 19 -60 2 -60 -16 0 -37 41 -37
70 0 29 17 24 35 -10z m-535 -53 c0 -19 -58 -107 -70 -107 -17 0 -11 31 15 77
25 41 55 58 55 30z m380 -106 c0 -15 3 -55 6 -87 4 -44 2 -64 -9 -79 -12 -15
-18 -17 -28 -8 -9 9 -9 33 1 107 7 53 16 96 21 96 5 0 9 -13 9 -29z"/>
<path d="M5312 17103 c-10 -16 -25 -39 -32 -53 -23 -43 12 -8 38 39 27 47 23
54 -6 14z"/>
<path d="M5658 17104 c6 -11 18 -28 27 -39 15 -19 15 -18 1 12 -9 17 -21 35
-27 39 -8 4 -8 1 -1 -12z"/>
<path d="M5219 16339 c-7 -46 -5 -69 7 -69 8 0 14 9 14 20 0 30 36 35 255 34
167 0 206 -3 234 -17 42 -21 52 -21 45 -2 -8 21 13 19 25 -2 9 -16 10 -16 11
-2 0 9 -8 20 -17 24 -19 7 -573 21 -574 14z"/>
<path d="M5163 16318 c-25 -41 -24 -1020 1 -1045 4 -4 42 -9 84 -10 59 -1 68
0 40 6 -21 4 -47 16 -57 25 -19 17 -19 17 -14 -4 4 -17 2 -21 -8 -18 -8 3 -17
25 -21 54 -9 68 -8 887 1 952 6 39 4 52 -5 52 -7 0 -16 -6 -21 -12z"/>
<path d="M5892 16285 c0 -16 2 -22 5 -12 2 9 2 23 0 30 -3 6 -5 -1 -5 -18z"/>
<path d="M5813 16230 c0 -30 2 -43 4 -27 2 15 2 39 0 55 -2 15 -4 2 -4 -28z"/>
<path d="M5472 16248 c3 -7 12 -14 21 -16 12 -2 15 1 11 12 -7 19 -38 22 -32
4z"/>
<path d="M5295 16179 c-11 -17 1 -21 15 -4 8 9 8 15 2 15 -6 0 -14 -5 -17 -11z"/>
<path d="M5905 15815 c0 -209 1 -296 2 -193 2 103 2 274 0 380 -1 106 -2 22
-2 -187z"/>
<path d="M5480 16160 c-12 -7 -12 -13 -4 -27 14 -23 28 -22 32 1 5 24 -10 37
-28 26z"/>
<path d="M5656 16144 c-20 -19 -5 -54 23 -54 19 0 41 37 34 58 -6 17 -38 15
-57 -4z"/>
<path d="M5292 16109 c2 -6 8 -10 13 -10 5 0 11 4 13 10 2 6 -4 11 -13 11 -9
0 -15 -5 -13 -11z"/>
<path d="M5368 16034 c25 -19 29 -34 8 -34 -8 0 -36 -20 -64 -45 -39 -35 -55
-60 -76 -115 -31 -85 -31 -86 -8 -92 17 -5 18 -14 15 -84 -4 -89 8 -126 45
-129 12 -1 35 -13 50 -28 29 -28 127 -77 153 -77 20 0 49 31 49 53 0 13 6 15
28 11 20 -4 33 0 46 15 20 22 22 20 -28 35 -8 3 -43 -2 -78 -10 -96 -23 -156
1 -172 68 -5 24 3 60 29 121 5 13 2 17 -14 17 -29 0 -50 -37 -63 -111 -15 -86
-26 -55 -27 74 -1 75 2 98 12 95 6 -3 13 -14 15 -26 2 -12 7 -22 12 -22 25 0
28 114 4 128 -15 8 -14 13 10 45 28 37 74 72 83 64 3 -3 -5 -19 -18 -36 -44
-59 -13 -129 124 -283 33 -36 74 -74 92 -84 31 -16 34 -16 71 2 96 47 97 199
1 254 -24 13 -28 13 -54 -6 -30 -22 -39 -74 -15 -82 7 -2 10 2 6 12 -9 24 3
63 22 70 24 9 62 -19 81 -59 15 -31 15 -38 -3 -99 -10 -36 -25 -68 -33 -71
-21 -8 -79 36 -147 112 -128 144 -149 192 -98 232 58 46 135 -44 89 -105 -8
-10 -14 -26 -14 -34 0 -30 49 41 55 81 4 22 14 47 22 56 37 36 -58 93 -166
100 -64 4 -66 3 -44 -13z"/>
<path d="M4340 15779 c-58 -28 -167 -85 -243 -127 -121 -66 -137 -78 -122 -89
25 -18 11 -47 -19 -41 -23 5 -21 -1 26 -76 155 -247 366 -561 428 -634 l19
-23 222 101 c122 55 232 103 245 106 12 3 30 15 40 25 17 19 17 22 -4 65 -59
120 -416 676 -464 721 l-23 22 -105 -50z m168 -86 c92 -100 327 -465 359 -559
9 -27 8 -39 -11 -79 -13 -26 -36 -55 -52 -66 -82 -56 -234 -118 -327 -135 -38
-6 -41 -5 -95 53 -105 109 -361 491 -380 566 -14 54 7 96 65 134 53 34 261
136 298 146 52 14 89 -1 143 -60z m412 -628 c10 -12 10 -19 2 -27 -16 -16 -42
-2 -42 22 0 24 22 26 40 5z"/>
<path d="M4420 15650 c0 -5 5 -10 11 -10 5 0 7 5 4 10 -3 6 -8 10 -11 10 -2 0
-4 -4 -4 -10z"/>
<path d="M4247 15634 c-11 -11 -8 -44 3 -44 15 0 24 30 13 41 -5 5 -12 6 -16
3z"/>
<path d="M4112 15499 c2 -6 8 -10 13 -10 5 0 11 4 13 10 2 6 -4 11 -13 11 -9
0 -15 -5 -13 -11z"/>
<path d="M4333 15495 c-50 -21 -111 -89 -123 -136 -41 -152 117 -305 279 -271
77 16 123 51 155 113 45 91 27 184 -50 247 -70 58 -188 79 -261 47z m206 -53
c148 -75 111 -266 -61 -312 -102 -28 -218 54 -218 154 0 42 45 151 71 172 38
31 131 25 208 -14z"/>
<path d="M4398 15315 c-14 -32 5 -57 41 -53 18 2 27 10 29 26 7 50 -49 72 -70
27z"/>
<path d="M4722 15098 c6 -18 28 -21 28 -4 0 9 -7 16 -16 16 -9 0 -14 -5 -12
-12z"/>
<path d="M4590 15007 c0 -17 20 -37 37 -37 18 0 16 15 -3 34 -19 19 -34 21
-34 3z"/>
<path d="M4410 14950 c0 -5 4 -10 9 -10 6 0 13 5 16 10 3 6 -1 10 -9 10 -9 0
-16 -4 -16 -10z"/>
<path d="M4559 15805 c5 -11 17 -29 26 -40 l16 -20 -10 20 c-5 11 -17 29 -26
40 l-16 20 10 -20z"/>
<path d="M4609 15725 c5 -11 17 -29 26 -40 l16 -20 -10 20 c-5 11 -17 29 -26
40 l-16 20 10 -20z"/>
<path d="M4665 15634 c10 -17 26 -41 37 -55 l20 -24 -17 31 c-10 17 -26 41
-37 55 l-20 24 17 -31z"/>
<path d="M4735 15524 c10 -17 26 -41 37 -55 l20 -24 -17 31 c-10 17 -26 41
-37 55 l-20 24 17 -31z"/>
<path d="M5294 15455 c-9 -23 10 -40 25 -22 9 11 8 17 -4 27 -12 10 -16 9 -21
-5z"/>
<path d="M5667 15453 c-4 -3 -7 -15 -7 -25 0 -19 16 -23 39 -9 12 8 12 12 2
25 -15 17 -24 20 -34 9z"/>
<path d="M5810 15408 c0 -62 -53 -122 -123 -138 -24 -6 -11 -8 51 -9 69 -1 82
1 82 15 0 13 -3 14 -15 4 -8 -7 -22 -10 -30 -6 -24 9 0 50 26 43 17 -5 19 1
19 59 0 35 -2 64 -5 64 -3 0 -5 -15 -5 -32z"/>
<path d="M5480 15345 c0 -8 5 -15 10 -15 6 0 10 7 10 15 0 8 -4 15 -10 15 -5
0 -10 -7 -10 -15z"/>
<path d="M5892 15325 c0 -16 2 -22 5 -12 2 9 2 23 0 30 -3 6 -5 -1 -5 -18z"/>
<path d="M6312 14480 c0 -14 2 -19 5 -12 2 6 2 18 0 25 -3 6 -5 1 -5 -13z"/>
<path d="M6611 14410 c-19 -55 -21 -72 -12 -84 14 -17 22 -12 -154 -111 -218
-123 -408 -257 -495 -351 -29 -31 -17 -25 75 38 211 143 726 435 746 422 7 -4
29 48 29 69 0 6 -10 1 -23 -11 -12 -11 -48 -33 -80 -47 -84 -39 -90 -21 -11
33 17 11 17 11 -3 2 -56 -26 -78 -3 -48 50 16 27 20 60 7 60 -4 0 -18 -31 -31
-70z"/>
<path d="M6302 14415 c0 -16 2 -22 5 -12 2 9 2 23 0 30 -3 6 -5 -1 -5 -18z"/>
<path d="M6519 14403 c-13 -16 -12 -17 4 -4 16 13 21 21 13 21 -2 0 -10 -8
-17 -17z"/>
<path d="M6772 14280 c0 -14 2 -19 5 -12 2 6 2 18 0 25 -3 6 -5 1 -5 -13z"/>
<path d="M6761 14234 c0 -11 3 -14 6 -6 3 7 2 16 -1 19 -3 4 -6 -2 -5 -13z"/>
<path d="M5311 13954 c0 -11 3 -14 6 -6 3 7 2 16 -1 19 -3 4 -6 -2 -5 -13z"/>
<path d="M5351 13794 c0 -11 3 -14 6 -6 3 7 2 16 -1 19 -3 4 -6 -2 -5 -13z"/>
<path d="M5361 13754 c0 -11 3 -14 6 -6 3 7 2 16 -1 19 -3 4 -6 -2 -5 -13z"/>
<path d="M5381 13664 c0 -11 3 -14 6 -6 3 7 2 16 -1 19 -3 4 -6 -2 -5 -13z"/>
<path d="M13602 18220 c50 -69 141 -187 200 -263 170 -219 429 -613 598 -912
91 -161 307 -597 379 -765 131 -307 252 -756 341 -1272 41 -238 50 -380 50
-843 0 -689 -6 -739 -220 -2040 -44 -269 -83 -517 -86 -550 -5 -56 -4 -59 10
-40 24 28 127 300 175 459 85 278 168 648 235 1038 58 335 58 341 63 898 8
830 -12 1019 -163 1610 -119 464 -274 841 -528 1288 -155 271 -462 731 -620
928 -91 114 -336 391 -440 499 l-87 90 93 -125z"/>
<path d="M13481 17729 c-1 -4 21 -98 48 -210 91 -375 113 -525 132 -896 13
-264 7 -566 -16 -738 -64 -487 -274 -1182 -440 -1455 -44 -72 -119 -132 -352
-281 -178 -114 -248 -164 -413 -293 -132 -103 -350 -285 -350 -292 0 -15 301
159 520 301 139 90 275 173 423 260 116 67 168 111 213 181 117 183 370 970
463 1439 47 236 54 332 48 595 -8 336 -48 614 -142 975 -37 140 -133 436 -134
414z"/>
<path d="M13811 17044 c0 -11 3 -14 6 -6 3 7 2 16 -1 19 -3 4 -6 -2 -5 -13z"/>
<path d="M13821 16985 c-2 -29 29 -857 32 -875 2 -8 7 53 12 135 9 169 -8 562
-29 685 -8 41 -14 66 -15 55z"/>
<path d="M14081 16482 c-1 -7 17 -119 39 -250 109 -650 129 -1227 59 -1652
-80 -486 -259 -894 -503 -1147 -101 -106 -189 -173 -351 -268 -284 -166 -471
-253 -875 -405 -295 -111 -563 -220 -557 -227 12 -11 503 150 742 244 181 71
556 254 710 346 307 183 503 383 644 657 99 193 188 501 236 819 54 362 41
967 -30 1388 -38 225 -112 544 -114 495z"/>
<path d="M16879 16414 c12 -16 129 -141 260 -279 254 -266 503 -540 633 -695
148 -176 467 -602 700 -935 329 -470 679 -1088 903 -1595 42 -96 87 -197 100
-225 22 -50 74 -181 139 -350 67 -174 35 -59 -74 266 -146 438 -192 551 -335
834 -225 442 -359 672 -628 1074 -320 477 -609 842 -969 1226 -366 389 -634
645 -732 697 -18 10 -17 8 3 -18z"/>
<path d="M14556 13534 c-132 -382 -182 -454 -421 -606 -152 -98 -667 -357
-1010 -508 -229 -101 -446 -203 -441 -207 8 -8 359 127 516 199 36 17 129 59
206 93 562 252 959 497 1028 634 58 114 194 523 184 552 -2 6 -30 -65 -62
-157z"/>
<path d="M15611 12964 c0 -11 3 -14 6 -6 3 7 2 16 -1 19 -3 4 -6 -2 -5 -13z"/>
<path d="M18592 9180 c0 -14 2 -19 5 -12 2 6 2 18 0 25 -3 6 -5 1 -5 -13z"/>
<path d="M4350 17566 c-258 -95 -408 -156 -420 -171 -7 -9 -10 -27 -7 -43 11
-56 265 -579 373 -769 44 -78 48 -82 76 -76 24 5 30 2 35 -16 7 -26 5 -26 89
0 176 54 464 178 464 200 0 40 -356 819 -375 819 -9 0 18 -61 190 -435 80
-174 135 -305 135 -324 0 -20 -7 -34 -20 -41 -11 -6 -20 -19 -20 -30 0 -25
-58 -58 -180 -105 -115 -44 -261 -87 -269 -80 -3 3 0 14 7 25 10 16 7 22 -20
44 -36 28 -50 26 -25 -2 23 -25 21 -32 -8 -32 -35 0 -59 40 -220 367 -152 307
-175 360 -175 407 0 39 8 47 75 76 28 11 39 18 25 15 -78 -17 -80 -18 -80 -3
0 9 36 32 88 56 104 49 320 132 345 132 38 0 13 -29 -50 -58 -183 -82 -183
-83 -8 -21 61 22 129 39 153 39 l42 0 -17 27 c-15 22 -19 24 -21 9 -3 -11 -11
-16 -25 -14 -31 4 -34 36 -5 47 13 6 16 10 8 10 -8 0 -80 -24 -160 -53z"/>
<path d="M4450 17403 c0 -5 4 -15 10 -23 11 -18 25 -7 17 15 -6 15 -27 21 -27
8z"/>
<path d="M4307 17363 c-12 -11 -8 -23 8 -23 8 0 15 7 15 15 0 16 -12 20 -23 8z"/>
<path d="M4110 17290 c0 -5 7 -10 15 -10 8 0 15 5 15 10 0 6 -7 10 -15 10 -8
0 -15 -4 -15 -10z"/>
<path d="M4361 17260 c-115 -28 -199 -164 -177 -285 29 -152 311 -218 443
-102 94 83 98 244 7 329 -51 46 -195 77 -273 58z m175 -54 c63 -29 96 -73 102
-136 10 -110 -86 -210 -202 -210 -45 0 -126 41 -163 83 -59 67 -56 138 9 212
23 26 56 54 73 61 48 21 123 17 181 -10z"/>
<path d="M4420 17071 c0 -11 -4 -23 -10 -26 -17 -10 -11 -24 16 -41 22 -15 27
-15 35 -3 16 25 10 68 -10 79 -27 14 -31 13 -31 -9z"/>
<path d="M4747 16794 c-8 -8 1 -24 14 -24 5 0 9 7 9 15 0 15 -12 20 -23 9z"/>
<path d="M4545 16720 c-3 -5 3 -10 14 -10 12 0 21 5 21 10 0 6 -6 10 -14 10
-8 0 -18 -4 -21 -10z"/>
<path d="M4410 16659 c0 -5 5 -7 10 -4 6 3 10 8 10 11 0 2 -4 4 -10 4 -5 0
-10 -5 -10 -11z"/>
<path d="M4630 16610 c-8 -5 -10 -10 -5 -10 6 0 17 5 25 10 8 5 11 10 5 10 -5
0 -17 -5 -25 -10z"/>
<path d="M7404 16948 c-73 -76 -237 -256 -405 -448 -107 -122 -209 -250 -209
-263 0 -7 13 4 28 23 15 19 106 125 202 235 96 110 214 245 262 300 48 55 113
128 145 163 l58 63 70 -47 c275 -185 365 -264 365 -323 0 -41 -32 -83 -230
-307 -213 -241 -346 -382 -369 -389 -10 -3 -16 -16 -16 -36 l0 -31 56 59 c30
33 127 142 215 243 87 101 206 234 263 295 144 153 164 180 148 194 -11 8 -13
6 -13 -11 1 -14 -6 -24 -16 -26 -15 -3 -18 4 -18 36 0 40 0 41 -147 149 -222
163 -279 203 -294 203 -8 0 -51 -37 -95 -82z"/>
<path d="M7445 16809 c-4 -11 -4 -23 0 -27 7 -7 25 17 25 36 0 20 -18 14 -25
-9z"/>
<path d="M7635 16780 c-9 -15 4 -30 26 -30 23 0 26 25 3 34 -21 8 -22 8 -29
-4z"/>
<path d="M7487 16620 c-92 -54 -106 -56 -188 -30 -38 13 -72 20 -76 17 -3 -4
6 -24 21 -45 14 -21 26 -50 26 -65 0 -22 -6 -28 -37 -37 -21 -6 -55 -23 -76
-39 l-37 -28 42 -7 c59 -9 108 -26 108 -37 0 -5 -16 -27 -36 -49 -55 -61 -33
-60 24 1 57 61 63 59 109 -18 36 -62 50 -57 62 25 l7 47 77 -2 c51 -2 77 1 77
8 0 7 -16 29 -35 50 -40 45 -45 80 -19 150 26 71 33 99 26 99 -4 0 -38 -18
-75 -40z m23 -44 c0 -18 -21 -78 -33 -93 -12 -16 -42 -1 -58 29 -10 19 -8 25
20 50 33 30 71 37 71 14z m-182 -45 c3 -15 -2 -21 -16 -21 -25 0 -46 25 -39
45 9 21 51 3 55 -24z m87 -46 c42 -41 28 -85 -27 -85 -38 0 -71 34 -62 63 16
53 50 62 89 22z m-107 -46 c3 -19 -37 -39 -78 -39 -37 0 -38 12 -3 40 30 24
76 23 81 -1z m206 -15 c9 -3 16 -15 16 -25 0 -15 -7 -19 -34 -19 -37 0 -51 12
-42 35 6 16 33 19 60 9z m-115 -48 c16 -19 10 -71 -8 -71 -20 0 -55 51 -48 69
8 20 41 21 56 2z"/>
<path d="M7720 16585 c0 -14 5 -25 10 -25 6 0 10 11 10 25 0 14 -4 25 -10 25
-5 0 -10 -11 -10 -25z"/>
<path d="M7027 16316 c-4 -10 -1 -13 9 -9 15 6 19 23 5 23 -5 0 -11 -7 -14
-14z"/>
<path d="M6840 16224 c0 -8 -5 -14 -12 -14 -23 0 216 -174 355 -259 110 -67
69 -31 -80 70 -76 51 -166 121 -200 155 -35 34 -63 56 -63 48z"/>
<path d="M7130 16198 c0 -18 27 -44 37 -34 4 4 -3 16 -15 29 -18 17 -22 18
-22 5z"/>
<path d="M7307 16134 c-4 -4 -7 -21 -7 -38 l0 -30 22 22 c20 20 21 23 7 37 -8
9 -18 12 -22 9z"/>
<path d="M7062 16109 c2 -6 8 -10 13 -10 5 0 11 4 13 10 2 6 -4 11 -13 11 -9
0 -15 -5 -13 -11z"/>
<path d="M3365 16954 c-137 -95 -299 -222 -343 -267 l-33 -34 87 -104 c267
-319 567 -642 572 -615 4 18 11 20 31 7 8 -5 12 -18 8 -30 -3 -12 -2 -21 3
-21 12 0 480 326 480 334 0 2 -11 1 -25 -2 -29 -5 -32 9 -9 33 15 14 13 19
-22 63 -85 104 -464 533 -549 620 l-90 93 -110 -77z m196 -31 c66 -68 326
-363 461 -524 68 -79 91 -135 76 -182 -10 -32 -31 -51 -155 -138 -203 -142
-233 -152 -314 -101 -88 56 -544 567 -580 650 -23 52 -23 53 -5 46 9 -4 20 5
30 24 8 16 51 58 96 93 94 75 290 209 306 209 6 0 44 -35 85 -77z"/>
<path d="M3302 16754 c6 -53 68 -58 76 -7 3 17 -1 20 -21 16 -14 -3 -28 0 -31
6 -13 20 -27 11 -24 -15z"/>
<path d="M3454 16626 c-84 -57 -117 -130 -95 -211 25 -92 116 -157 220 -157
70 0 123 24 174 81 60 67 62 142 4 228 -40 60 -86 83 -179 90 -71 4 -75 3
-124 -31z m194 -15 c62 -32 102 -93 102 -156 0 -57 -39 -117 -90 -137 -43 -18
-112 -26 -146 -17 -43 12 -110 87 -124 138 -20 74 19 152 90 180 42 17 127 13
168 -8z"/>
<path d="M3534 16478 c-7 -11 29 -48 46 -48 12 0 23 38 15 50 -8 14 -52 13
-61 -2z"/>
<path d="M3785 16206 c-23 -16 -14 -42 19 -57 35 -16 56 -5 56 30 0 40 -38 54
-75 27z"/>
<path d="M2691 16014 c-77 -69 -141 -128 -141 -132 0 -3 13 6 28 21 15 15 32
27 36 27 5 0 37 27 73 60 35 33 70 60 78 60 7 0 27 12 44 26 22 18 38 24 54
20 12 -3 83 -60 158 -125 158 -138 502 -460 508 -474 2 -6 -6 -7 -20 -3 -13 3
-85 11 -159 17 -74 7 -139 15 -144 20 -14 12 11 37 47 45 l32 8 -40 6 c-53 7
-52 28 4 59 51 28 41 40 -14 17 -21 -9 -41 -16 -46 -16 -16 0 -10 31 12 58 26
33 9 41 -30 13 -58 -41 -89 -19 -56 39 16 29 19 50 6 50 -4 0 -18 -22 -29 -50
-32 -76 -64 -64 -88 33 l-12 52 -1 -47 c-1 -70 -15 -98 -47 -98 -15 0 -36 8
-47 18 -19 16 -20 16 -8 -5 18 -35 13 -62 -14 -75 -52 -24 -384 29 -427 69
-42 37 -4 89 59 80 21 -3 47 -8 58 -12 11 -4 5 3 -14 14 -30 20 -33 26 -27 54
6 30 3 29 -66 -40 l-72 -72 70 -64 c38 -35 141 -127 229 -204 88 -77 198 -175
245 -218 87 -79 275 -225 289 -225 25 0 349 259 429 342 l33 35 -168 155
c-156 144 -458 414 -600 536 -33 28 -65 52 -71 52 -5 0 -73 -57 -151 -126z
m410 -347 c19 -12 43 -40 53 -61 17 -36 18 -43 5 -79 -45 -129 -228 -106 -255
31 -6 29 -2 37 36 73 68 64 106 73 161 36z m-428 -32 c158 -24 209 -35 204
-48 -5 -15 -140 -56 -188 -56 -37 -1 -88 27 -141 77 -51 48 -37 51 125 27z
m214 -121 c7 -19 -21 -44 -50 -44 -10 0 -32 -9 -48 -20 -31 -23 -49 -19 -83
19 -38 42 -11 57 107 60 54 1 69 -2 74 -15z m621 -39 c136 -32 183 -84 110
-121 -18 -9 -61 -46 -95 -82 l-63 -65 -62 54 -63 54 48 -55 c26 -30 46 -59 44
-65 -2 -5 -32 -34 -67 -63 -64 -55 -77 -59 -135 -38 -18 7 -18 6 3 -12 49 -44
16 -56 -44 -16 -77 52 -387 319 -397 342 -13 29 -1 38 63 47 84 11 127 -26
113 -97 -4 -22 -3 -29 5 -24 7 4 12 18 12 31 0 37 26 55 79 55 61 0 86 -19
151 -115 73 -108 80 -102 10 7 -54 83 -73 128 -53 128 9 0 72 -48 117 -89 35
-32 34 -30 -12 27 -48 58 -63 97 -44 117 10 11 206 -3 280 -20z"/>
<path d="M3016 15584 c-20 -19 -20 -35 -2 -59 13 -18 15 -18 40 -2 41 27 32
77 -14 77 -5 0 -16 -7 -24 -16z"/>
<path d="M3310 15430 c8 -5 20 -10 25 -10 6 0 3 5 -5 10 -8 5 -19 10 -25 10
-5 0 -3 -5 5 -10z"/>
<path d="M2887 15423 c-4 -3 -7 -11 -7 -17 0 -6 5 -5 12 2 6 6 9 14 7 17 -3 3
-9 2 -12 -2z"/>
<path d="M3360 15410 c8 -5 20 -10 25 -10 6 0 3 5 -5 10 -8 5 -19 10 -25 10
-5 0 -3 -5 5 -10z"/>
<path d="M3060 15352 c0 -5 7 -15 15 -22 8 -7 15 -8 15 -2 0 5 -7 15 -15 22
-8 7 -15 8 -15 2z"/>
<path d="M2665 15878 c15 -18 35 -37 44 -42 9 -5 -2 10 -24 33 -47 49 -57 54
-20 9z"/>
<path d="M2810 15680 c8 -5 22 -9 30 -9 10 0 8 3 -5 9 -27 12 -43 12 -25 0z"/>
<path d="M6477 15798 c-71 -95 -418 -655 -444 -715 -19 -46 -11 -55 110 -121
90 -50 338 -166 341 -160 14 30 27 44 45 46 31 5 25 -28 -8 -44 l-23 -12 22
-7 c12 -4 26 -3 30 2 9 9 432 645 473 710 l27 43 -47 30 c-27 16 -150 82 -275
145 l-227 115 -24 -32z m251 -105 c91 -49 181 -103 200 -120 32 -31 34 -36 30
-83 -8 -82 -159 -312 -187 -285 -6 6 -15 48 -20 94 -7 67 -15 92 -38 124 -79
114 -263 118 -370 10 -42 -44 -83 -57 -83 -26 0 21 138 246 182 296 21 25 43
39 62 41 16 2 33 11 38 20 5 9 12 16 15 16 3 0 80 -39 171 -87z m-132 -224 c9
-15 -47 -93 -70 -97 -10 -2 -29 6 -42 19 l-24 22 0 -30 c0 -38 -20 -48 -69
-32 -41 13 -62 34 -54 55 6 15 69 51 113 65 39 11 138 10 146 -2z m85 -40 c32
-34 44 -82 35 -134 -6 -29 -11 -35 -32 -35 -53 0 -82 38 -52 68 8 8 2 10 -25
5 -35 -5 -37 -4 -37 23 0 35 44 104 66 104 9 0 29 -14 45 -31z m-407 -85 c3
-9 6 -30 6 -47 0 -58 21 -107 63 -151 51 -53 106 -71 190 -62 63 6 104 24 157
67 35 29 70 38 70 18 0 -26 -130 -226 -180 -276 -18 -18 -42 -33 -54 -33 -12
0 -31 -7 -43 -15 -18 -13 -27 -13 -74 1 -29 9 -65 29 -81 45 -16 16 -39 29
-51 29 -36 0 -140 64 -165 101 -29 42 -25 94 14 171 68 134 130 198 148 152z
m111 -8 c28 -12 35 -20 35 -43 0 -16 -4 -33 -10 -39 -6 -6 2 -9 23 -9 39 0 46
-22 21 -76 -13 -30 -23 -39 -41 -39 -39 0 -61 18 -87 68 -37 73 -41 107 -17
131 25 25 31 25 76 7z m149 -2 c21 -8 21 -63 0 -71 -23 -8 -64 14 -64 35 0 34
29 50 64 36z m144 -94 c38 -23 39 -29 12 -63 -33 -42 -57 -44 -97 -5 l-36 33
19 -33 c14 -24 16 -37 8 -49 -13 -21 -60 -34 -91 -27 -50 13 -35 69 35 131 44
39 99 44 150 13z"/>
<path d="M6510 15645 c7 -8 16 -15 21 -15 5 0 9 7 9 15 0 9 -9 15 -21 15 -18
0 -19 -2 -9 -15z"/>
<path d="M6690 15620 c-24 -24 -25 -39 -5 -46 21 -9 45 14 45 42 0 29 -13 31
-40 4z"/>
<path d="M6836 15512 c-8 -13 3 -42 15 -42 11 0 11 21 0 39 -5 8 -11 9 -15 3z"/>
<path d="M6180 15074 c0 -17 22 -14 28 4 2 7 -3 12 -12 12 -9 0 -16 -7 -16
-16z"/>
<path d="M6345 15021 c-3 -6 -12 -28 -20 -51 -10 -30 -11 -39 -2 -34 32 18 47
40 47 66 0 27 -13 37 -25 19z"/>
<path d="M10901 16396 c2 -2 24 -15 49 -30 l45 -27 -35 31 c-19 16 -41 30 -49
30 -8 0 -12 -2 -10 -4z"/>
<path d="M9700 15180 c-58 -4 -121 -8 -140 -10 -27 -1 -5 -10 90 -36 293 -82
471 -154 560 -228 55 -47 127 -136 170 -211 18 -31 34 -54 36 -52 10 10 -41
172 -80 252 -58 119 -129 190 -244 248 -82 41 -89 42 -186 43 -56 1 -148 -2
-206 -6z"/>
<path d="M10549 15112 c5 -10 27 -39 47 -63 54 -65 112 -153 140 -212 20 -45
24 -67 24 -159 0 -149 16 -145 36 8 14 116 -39 246 -147 355 -71 72 -119 106
-100 71z"/>
<path d="M8920 15078 c0 -28 120 -254 169 -318 56 -75 183 -200 202 -200 7 0
-19 33 -58 73 -93 96 -218 285 -200 303 5 6 314 -124 410 -172 37 -19 67 -30
67 -25 0 14 -172 161 -250 212 -67 44 -246 123 -309 135 -23 5 -31 3 -31 -8z"/>
<path d="M9480 15054 c-19 -8 -75 -18 -125 -21 -101 -6 -140 -18 -85 -26 157
-23 205 -33 322 -68 279 -84 374 -133 517 -265 l65 -59 -44 65 c-94 140 -273
273 -474 351 -97 37 -134 42 -176 23z"/>
<path d="M10460 15017 c0 -3 30 -67 67 -141 66 -134 66 -136 71 -235 3 -63 8
-98 15 -94 6 3 7 45 4 107 -6 118 -28 191 -88 283 -37 57 -69 94 -69 80z"/>
<path d="M8830 14605 c0 -8 134 -93 164 -105 39 -14 41 5 4 34 -55 41 -168 89
-168 71z"/>
<path d="M10635 14275 c-122 -20 -246 -56 -393 -115 -67 -28 -129 -50 -138
-50 -8 0 -48 16 -88 35 -144 68 -386 117 -591 119 l-120 1 -17 -37 c-21 -44
-31 -47 -52 -16 -9 12 -19 18 -23 14 -5 -4 -9 -116 -11 -249 l-3 -242 -30 -17
c-33 -19 -57 -67 -39 -78 6 -4 111 -10 233 -13 283 -9 376 -20 512 -60 98 -28
123 -32 230 -31 103 0 132 4 201 27 127 42 170 47 472 56 155 5 285 11 288 13
2 3 -12 47 -32 98 -33 88 -36 103 -44 257 -9 180 -26 236 -82 277 -36 26 -152
30 -273 11z"/>
<path d="M9221 13480 c-18 -4 -45 -17 -60 -28 -25 -19 -26 -24 -25 -108 1 -99
28 -212 70 -297 59 -117 113 -142 309 -142 122 0 134 2 187 28 103 50 169 178
168 325 -1 166 -50 207 -263 222 -158 11 -339 11 -386 0z"/>
<path d="M10595 13480 c-153 -16 -247 -51 -272 -100 -18 -36 -16 -95 7 -184
34 -135 92 -215 192 -268 34 -17 64 -23 143 -26 114 -4 181 14 247 68 71 58
118 191 133 375 9 106 -3 122 -95 135 -74 11 -252 11 -355 0z"/>
<path d="M11280 13404 c-29 -25 -70 -91 -70 -114 0 -5 10 -10 23 -10 81 -1 72
-84 -34 -297 -76 -153 -82 -186 -38 -191 55 -6 133 126 181 306 29 109 31 281
4 311 -24 27 -28 26 -66 -5z"/>
<path d="M8797 13403 c-13 -12 -7 -97 12 -188 24 -115 72 -239 121 -312 40
-60 100 -124 100 -107 0 5 -32 74 -71 154 -157 320 -177 414 -72 334 l33 -25
0 30 c0 46 -18 76 -60 100 -40 22 -53 25 -63 14z"/>
<path d="M10041 13286 c-6 -7 -25 -51 -42 -97 -74 -203 -193 -348 -319 -386
-40 -12 -94 -17 -195 -17 l-140 -1 -87 42 c-49 23 -88 39 -88 35 0 -4 18 -75
40 -157 111 -411 180 -544 399 -768 179 -184 309 -252 481 -252 167 0 322 83
505 269 125 127 222 257 272 365 67 147 262 705 250 718 -3 2 -18 -15 -35 -39
-93 -136 -248 -217 -414 -218 -228 0 -378 127 -474 405 -15 44 -34 88 -42 98
-19 21 -94 23 -111 3z m-767 -498 c16 -23 22 -68 9 -68 -17 0 -53 46 -53 67 0
29 24 30 44 1z m598 -133 c22 -19 41 -25 77 -25 39 0 56 -6 86 -30 24 -19 45
-28 54 -24 111 47 186 61 186 34 0 -19 -208 -110 -252 -110 -37 0 -151 48
-170 72 -15 17 -30 108 -18 108 4 0 20 -11 37 -25z m471 -375 c42 -5 86 -14
97 -20 29 -16 13 -33 -23 -26 -17 4 -173 11 -346 16 -346 11 -424 26 -221 44
68 6 405 -4 493 -14z m-180 -156 c27 -8 15 -27 -24 -37 -52 -14 -187 -3 -206
16 -14 14 -14 17 -2 21 40 14 183 14 232 0z"/>
<path d="M10725 11896 c-106 -109 -115 -116 -243 -181 -178 -90 -280 -153
-350 -213 -86 -74 -133 -95 -230 -100 -92 -5 -159 6 -311 49 -57 17 -105 28
-107 26 -3 -2 -9 -40 -14 -83 -5 -44 -14 -102 -21 -129 -18 -78 -81 -205 -127
-258 -23 -27 -42 -57 -42 -69 0 -37 63 -139 133 -214 109 -117 264 -224 324
-224 16 0 27 8 33 25 5 14 13 25 17 24 5 0 22 -21 38 -47 41 -65 75 -74 238
-70 153 4 137 -8 243 184 37 68 71 124 77 124 5 0 7 -6 4 -14 -45 -118 -59
-224 -32 -246 19 -16 71 -2 160 42 207 104 366 249 438 398 42 86 41 122 -17
440 -53 293 -76 464 -76 555 0 63 -6 95 -19 95 -3 -1 -55 -52 -116 -114z
m-959 -1261 c13 -36 14 -48 5 -58 -10 -9 -17 -7 -32 12 -26 32 -25 91 2 91 4
0 15 -20 25 -45z"/>
<path d="M4560 11989 c0 -6 27 -51 59 -99 33 -48 94 -148 136 -221 139 -242
174 -295 224 -342 52 -49 137 -107 155 -107 6 0 -9 13 -34 29 -99 62 -155 153
-235 381 -57 163 -115 279 -161 319 -46 41 -144 67 -144 40z"/>
<path d="M4922 11943 c9 -83 133 -392 192 -478 41 -58 312 -332 321 -323 4 3
-1 30 -9 59 -24 80 -21 86 27 45 23 -20 61 -46 84 -57 51 -24 77 -55 98 -118
27 -82 80 -115 119 -75 44 43 26 126 -45 210 -50 59 -57 74 -39 74 14 0 87
-37 122 -62 15 -10 44 -25 65 -34 l38 -14 -34 29 c-18 16 -61 43 -96 60 -54
27 -74 31 -141 31 -99 0 -118 11 -240 135 -109 111 -195 223 -253 330 -83 153
-152 235 -197 235 -14 0 -16 -8 -12 -47z"/>
<path d="M4330 11930 c28 -53 232 -276 304 -333 36 -28 31 -19 -44 83 -175
241 -202 270 -247 270 -20 0 -22 -3 -13 -20z"/>
<path d="M11043 11923 c15 -16 91 -71 170 -123 163 -109 186 -136 219 -255 20
-70 22 -104 22 -273 0 -116 3 -186 9 -177 44 79 87 280 87 406 0 69 3 89 14
89 16 0 119 -109 147 -155 27 -43 24 -125 -7 -231 -51 -178 -196 -430 -578
-1004 -324 -487 -612 -967 -592 -987 12 -13 532 429 956 812 80 72 235 208
345 301 243 205 350 306 427 402 70 89 80 117 47 140 -52 38 -185 112 -196
110 -6 -2 -61 -77 -121 -168 -59 -91 -137 -201 -172 -245 -68 -85 -789 -812
-853 -860 -86 -64 -60 16 55 170 81 109 424 529 633 775 268 316 405 528 405
623 0 39 -46 121 -94 169 -103 103 -362 276 -551 368 -122 59 -340 140 -378
140 -20 0 -20 -1 6 -27z"/>
<path d="M9020 11876 c-313 -133 -562 -284 -758 -461 -101 -91 -104 -137 -24
-299 58 -117 125 -202 476 -610 133 -153 290 -338 349 -410 116 -140 284 -382
273 -393 -22 -23 -161 101 -552 492 -328 328 -394 404 -573 664 -78 113 -86
122 -110 116 -62 -15 -159 -78 -187 -121 -16 -23 -15 -26 12 -67 67 -102 313
-327 924 -844 228 -193 510 -437 625 -543 116 -105 218 -196 228 -201 23 -13
1 27 -127 226 -103 162 -278 451 -391 645 -43 74 -144 236 -225 360 -178 273
-252 395 -323 533 -114 222 -145 325 -126 421 10 45 20 60 91 129 44 42 83 77
87 77 4 0 7 -64 7 -142 -1 -138 0 -147 33 -241 18 -54 35 -96 37 -94 2 1 -4
52 -12 112 -18 122 -14 220 12 336 15 71 19 77 88 145 43 43 108 92 166 127
178 105 178 118 0 43z"/>
<path d="M6333 11788 c-52 -57 -154 -251 -223 -423 -40 -101 -81 -275 -87
-375 l-6 -86 34 -39 c34 -39 105 -95 120 -95 4 0 -3 24 -16 53 -36 76 -34 134
7 175 17 18 36 31 41 29 6 -2 16 -19 23 -39 18 -54 177 -372 228 -458 24 -41
75 -110 112 -154 103 -117 103 -118 119 -266 18 -167 28 -200 62 -200 15 0 41
11 60 26 31 24 33 28 33 90 0 50 -10 94 -40 184 -38 114 -39 124 -37 232 2
103 0 118 -24 168 -53 114 -179 235 -379 365 -130 85 -134 90 -126 165 10 91
78 347 134 505 27 77 47 146 45 153 -8 20 -58 14 -80 -10z"/>
<path d="M5320 11071 c0 -23 258 -213 370 -272 124 -66 111 -53 -122 113 -207
148 -248 174 -248 159z"/>
<path d="M11045 10788 c-44 -71 -145 -176 -226 -235 -161 -119 -332 -192 -502
-217 -122 -19 -376 -21 -480 -5 -185 29 -438 151 -600 292 -32 27 -60 48 -62
45 -13 -12 80 -143 155 -218 125 -125 267 -199 465 -242 117 -25 360 -35 480
-19 369 49 655 223 765 465 27 60 58 182 48 191 -3 3 -22 -23 -43 -57z"/>
<path d="M7600 10501 c-267 -108 -344 -142 -493 -218 l-128 -66 45 -17 c72
-28 113 -58 132 -98 20 -42 32 -152 34 -297 0 -104 27 -250 54 -303 8 -16 36
-54 61 -83 68 -79 164 -244 292 -504 126 -256 124 -257 58 45 -96 430 -215
892 -265 1022 -17 43 -30 87 -30 99 0 21 1 21 19 5 29 -27 555 -800 769 -1133
35 -54 61 -89 57 -78 -4 11 -32 88 -62 170 -31 83 -100 278 -154 435 -121 352
-204 581 -225 621 -8 17 -14 40 -12 52 2 17 20 2 94 -83 101 -116 183 -196
444 -435 191 -176 216 -196 185 -150 -64 98 -130 207 -154 255 -35 69 -75 179
-69 186 3 2 59 -47 125 -109 286 -270 463 -423 463 -399 0 14 -112 183 -184
277 -88 116 -236 291 -366 435 -298 328 -425 450 -469 450 -14 0 -114 -36
-221 -79z"/>
<path d="M12361 10520 c-79 -66 -658 -672 -792 -830 -86 -100 -169 -233 -155
-247 8 -9 79 40 211 147 169 136 385 300 396 300 5 0 9 -4 9 -8 0 -13 -92
-144 -173 -245 -88 -111 -116 -149 -147 -202 -18 -30 12 -6 116 95 76 75 193
181 259 236 66 56 180 156 254 223 81 74 138 118 143 113 10 -10 -18 -84 -81
-209 -45 -91 -102 -239 -206 -539 -42 -119 -98 -277 -126 -351 -27 -75 -48
-138 -46 -140 2 -2 51 69 108 157 57 89 184 281 282 428 98 147 231 347 295
444 65 97 120 177 125 177 14 2 6 -34 -37 -168 -68 -208 -333 -1227 -323
-1238 2 -1 70 118 152 265 290 521 386 682 405 682 16 0 12 -37 -25 -300 -60
-415 -103 -617 -175 -822 -22 -62 -38 -114 -36 -116 6 -5 57 72 116 178 75
132 150 250 161 250 17 0 9 -34 -24 -110 -46 -104 -105 -196 -207 -325 -88
-111 -195 -265 -185 -265 35 0 425 240 639 394 116 84 144 74 107 -37 -24 -72
-149 -331 -211 -437 -34 -59 -114 -161 -250 -322 l-31 -37 33 13 c18 8 134 58
258 111 189 82 322 135 337 135 16 0 -10 -44 -78 -131 -45 -57 -101 -133 -124
-169 -55 -86 -149 -170 -278 -250 -58 -36 -104 -67 -102 -69 2 -2 65 2 139 9
196 19 389 9 491 -24 87 -28 155 -68 155 -92 0 -24 -43 -33 -211 -44 -171 -11
-239 -22 -271 -44 -18 -13 -15 -15 39 -26 246 -49 374 -108 439 -201 46 -66
81 -227 53 -244 -6 -4 -34 8 -62 26 -343 216 -491 267 -812 275 l-160 4 238
-49 c130 -27 258 -56 285 -66 146 -54 344 -188 502 -342 l107 -103 7 207 c3
115 9 249 12 298 l5 90 -56 63 c-48 53 -54 63 -38 68 73 23 77 33 71 165 -5
114 -23 142 -103 165 -89 27 -126 288 -76 528 12 55 21 114 21 133 0 39 -14
47 -120 64 -37 7 -73 14 -78 18 -8 4 -8 105 -3 316 5 171 7 312 5 314 -2 2
-43 -1 -90 -7 -48 -7 -89 -10 -91 -9 -1 2 -7 48 -13 103 -6 54 -29 248 -50
429 -55 463 -90 795 -90 859 l0 54 -57 27 c-269 128 -675 305 -702 305 -11 0
-47 -22 -80 -50z"/>
<path d="M6135 10268 c16 -128 58 -245 109 -305 20 -23 46 -38 93 -53 63 -19
143 -27 143 -13 0 17 -144 241 -204 317 -36 45 -112 106 -133 106 -12 0 -14
-10 -8 -52z"/>
<path d="M10485 10040 c-13 -6 -15 -9 -5 -9 8 0 22 4 30 9 18 12 2 12 -25 0z"/>
<path d="M6986 9893 c-4 -12 -34 -47 -67 -77 -86 -80 -122 -89 -381 -90 l-207
-1 -99 51 -98 51 3 -56 c9 -143 26 -287 39 -332 16 -54 49 -85 126 -119 60
-26 171 -39 164 -19 -7 19 -27 321 -22 326 7 8 300 53 342 53 77 0 96 -29 144
-219 11 -46 26 -93 31 -103 10 -19 11 -19 35 3 13 12 31 41 40 65 15 40 15 54
-6 238 -12 108 -25 209 -29 224 -7 26 -8 26 -15 5z"/>
<path d="M8930 9615 c-11 -13 -16 -217 -25 -1003 -12 -1042 -10 -986 -56
-1098 -7 -17 -10 -38 -6 -47 7 -19 70 -29 157 -25 52 2 64 6 61 18 -10 43 -21
414 -31 1115 -6 429 -15 831 -18 894 -7 112 -7 114 -38 137 -28 22 -33 23 -44
9z"/>
<path d="M11272 9588 c-46 -50 -45 -33 -53 -1053 -5 -629 -11 -989 -18 -1024
-6 -29 -11 -58 -11 -63 0 -6 32 -9 80 -6 105 4 119 16 102 90 -10 38 -15 281
-22 878 -11 995 -14 1137 -28 1173 -14 33 -22 34 -50 5z"/>
<path d="M7233 9373 c3 -23 13 -52 22 -65 17 -23 17 -22 11 27 -3 27 -13 56
-22 65 -15 14 -16 11 -11 -27z"/>
<path d="M7031 9244 c-26 -33 -26 -37 -1 -110 34 -97 120 -453 120 -492 0 -20
-5 -54 -9 -76 l-9 -38 27 26 c53 51 66 36 105 -122 34 -134 54 -263 67 -422 6
-74 12 -136 14 -138 2 -2 11 21 21 50 15 42 19 80 18 188 -1 174 -23 272 -154
710 -96 319 -141 440 -166 448 -7 1 -21 -9 -33 -24z"/>
<path d="M6197 8932 c-4 -151 -9 -277 -12 -280 -3 -3 -26 4 -50 16 -25 12 -48
22 -50 22 -9 0 -5 -116 10 -250 8 -74 15 -186 15 -249 l0 -113 -37 7 c-82 17
-78 22 -77 -90 1 -74 9 -126 28 -199 80 -297 251 -648 381 -782 66 -68 159
-132 277 -190 l76 -38 124 34 c67 18 130 36 138 41 8 4 -31 8 -90 7 -159 -2
-243 30 -356 134 -89 82 -266 320 -250 336 4 3 37 -9 74 -27 68 -34 203 -84
209 -78 2 2 -24 26 -58 52 -91 71 -228 211 -282 286 -69 97 -136 249 -109 249
5 0 35 -31 66 -69 167 -204 443 -347 631 -326 75 8 87 25 18 25 -118 1 -258
51 -333 120 -31 29 -39 45 -45 85 -13 95 -122 508 -160 608 -9 21 17 24 34 3
23 -28 248 -152 258 -143 5 6 -77 102 -211 246 -53 57 -95 106 -92 108 2 2 52
-30 112 -72 l109 -76 4 48 c1 26 -5 202 -15 391 -15 288 -20 345 -33 352 -9 4
-65 22 -126 39 -60 17 -124 35 -141 40 l-31 9 -6 -276z"/>
<path d="M12397 7504 c-25 -81 -147 -593 -147 -620 0 -23 36 0 113 75 96 93
109 116 118 224 5 67 12 97 28 118 12 15 21 30 21 33 0 2 -15 26 -33 53 -18
27 -39 76 -46 108 -21 96 -26 97 -54 9z"/>
<path d="M12770 6774 c0 -17 45 -62 151 -152 58 -49 130 -117 159 -151 80 -92
95 -79 33 29 -50 84 -151 191 -223 235 -58 35 -120 55 -120 39z"/>
<path d="M12460 6727 c-76 -27 -66 -22 -286 -144 l-171 -94 -8 -164 c-3 -90
-4 -172 -1 -183 6 -18 8 -18 59 -1 28 10 140 43 246 74 382 110 565 177 600
219 17 21 -27 85 -133 191 -124 123 -189 145 -306 102z"/>
<path d="M4511 14413 c-10 -24 -8 -40 14 -106 14 -43 25 -84 25 -92 0 -17 30
-35 59 -35 19 0 19 2 7 38 -8 21 -26 63 -42 93 -15 30 -32 71 -39 93 l-11 39
-13 -30z"/>
<path d="M4271 14322 c-14 -27 -15 -24 19 -67 17 -21 30 -46 30 -56 0 -11 6
-19 14 -19 16 0 46 -26 46 -41 0 -5 -8 -9 -17 -10 -28 -1 38 -28 70 -29 27 0
27 0 12 30 -8 16 -29 45 -45 64 -30 34 -38 56 -20 56 21 0 9 21 -17 31 -16 6
-40 22 -55 36 -26 25 -26 25 -37 5z"/>
<path d="M4325 14330 c3 -5 11 -10 16 -10 6 0 7 5 4 10 -3 6 -11 10 -16 10 -6
0 -7 -4 -4 -10z"/>
<path d="M7315 13820 c-172 -85 -446 -211 -855 -392 -313 -139 -383 -177 -414
-226 -35 -55 -72 -85 -96 -79 -17 4 -20 0 -20 -26 0 -18 -16 -140 -35 -272
-41 -282 -41 -287 -18 -278 11 4 12 8 5 11 -31 10 7 62 45 62 28 0 46 -23 31
-38 -13 -13 79 25 340 140 100 45 181 82 179 84 -2 2 -70 -25 -153 -60 -200
-85 -296 -116 -358 -116 -80 0 -81 2 -67 117 16 129 48 289 66 324 8 15 32 48
52 73 21 24 47 57 57 72 24 33 207 123 611 297 160 69 342 150 406 181 121 58
159 68 159 40 0 -9 14 -21 30 -27 21 -8 30 -18 30 -33 0 -30 -39 -114 -133
-289 -112 -209 -154 -273 -191 -291 -17 -9 -47 -32 -67 -50 -19 -19 -96 -66
-170 -104 -74 -38 -131 -70 -127 -70 3 0 76 33 160 74 115 55 160 81 177 105
23 32 46 40 53 19 5 -15 66 87 143 242 80 160 198 378 263 485 30 50 56 93 59
98 6 10 18 15 -162 -73z m100 10 c9 -14 -22 -68 -48 -84 -32 -20 -60 -27 -76
-17 -22 14 -3 47 47 80 50 32 67 37 77 21z"/>
<path d="M6655 13386 c-189 -59 -457 -260 -521 -391 -47 -97 -12 -141 111
-138 38 1 81 6 94 11 25 9 25 9 -8 20 -20 7 -30 16 -26 23 4 6 -7 4 -23 -5
-32 -16 -78 -21 -106 -10 -21 8 -20 47 2 67 40 36 220 92 239 74 3 -4 -4 -21
-16 -38 l-23 -31 38 26 c51 34 64 33 64 -5 0 -22 -10 -41 -35 -66 -28 -28 -30
-33 -12 -27 41 13 102 43 90 43 -18 1 -16 43 3 90 17 42 38 56 70 45 16 -6 17
-5 7 7 -18 18 -16 50 3 78 14 19 23 22 50 18 24 -4 65 5 136 29 56 19 106 34
110 34 21 0 3 -35 -49 -92 -46 -51 -41 -48 25 18 l82 81 0 77 0 76 -60 0 c-46
0 -58 -3 -54 -14 3 -8 -21 -33 -65 -66 -39 -28 -71 -54 -71 -57 0 -5 4 -3 99
59 40 26 79 48 85 48 21 0 36 -23 36 -56 0 -28 -6 -35 -43 -53 -65 -31 -207
-66 -239 -58 -25 7 -28 12 -28 53 0 73 32 120 93 134 26 7 28 8 7 8 -14 1 -43
-5 -65 -12z m-65 -76 c0 -11 -7 -36 -14 -55 -14 -32 -18 -35 -58 -34 -24 0
-63 4 -88 7 l-45 8 70 38 c39 22 77 43 85 47 28 15 50 10 50 -11z m-88 -121
c42 -11 60 -29 28 -29 -25 0 -78 -26 -161 -80 -60 -38 -155 -80 -184 -80 -62
0 82 163 173 196 37 14 72 12 144 -7z m8 -72 c0 -33 -72 -74 -110 -62 -31 10
-24 23 28 49 53 28 82 32 82 13z"/>
<path d="M6766 13075 c-11 -8 -35 -15 -53 -15 -22 0 -33 -5 -33 -14 0 -8 -17
-29 -37 -47 l-38 -32 50 28 c59 33 135 84 135 90 0 7 -3 6 -24 -10z"/>
<path d="M5690 12919 c-69 -55 -98 -63 -245 -67 -145 -4 -191 -15 -112 -27
122 -18 402 57 386 103 -3 7 -14 3 -29 -9z"/>
<path d="M6378 12883 c7 -3 16 -2 19 1 4 3 -2 6 -13 5 -11 0 -14 -3 -6 -6z"/>
<path d="M6530 12835 c-25 -13 -40 -24 -35 -24 6 0 30 11 55 24 25 13 41 24
35 24 -5 0 -30 -11 -55 -24z"/>
<path d="M5270 12800 c8 -5 22 -9 30 -9 10 0 8 3 -5 9 -27 12 -43 12 -25 0z"/>
<path d="M5423 12443 c9 -2 23 -2 30 0 6 3 -1 5 -18 5 -16 0 -22 -2 -12 -5z"/>
<path d="M5483 12433 c9 -2 23 -2 30 0 6 3 -1 5 -18 5 -16 0 -22 -2 -12 -5z"/>
<path d="M5558 12403 c7 -3 16 -2 19 1 4 3 -2 6 -13 5 -11 0 -14 -3 -6 -6z"/>
<path d="M5508 12393 c6 -2 18 -2 25 0 6 3 1 5 -13 5 -14 0 -19 -2 -12 -5z"/>
<path d="M3510 13685 c14 -8 30 -14 35 -14 6 0 -1 6 -15 14 -14 8 -29 14 -35
14 -5 0 1 -6 15 -14z"/>
<path d="M3546 13608 c10 -16 220 -286 375 -480 64 -80 121 -153 126 -161 8
-14 45 -37 59 -37 4 0 -5 12 -20 27 -15 14 -25 31 -23 37 2 6 -10 20 -27 31
-37 25 -356 424 -356 446 0 5 9 9 21 9 12 0 36 7 55 16 33 16 37 15 171 -30
137 -47 547 -212 698 -280 43 -20 94 -48 111 -61 21 -16 46 -25 70 -25 23 0
34 4 29 9 -21 20 -469 204 -860 353 -448 171 -443 169 -429 146z m166 -75 c10
-13 9 -18 -7 -29 -10 -8 -28 -11 -39 -8 -32 9 -70 50 -63 68 5 14 11 14 51 0
25 -9 50 -22 58 -31z"/>
<path d="M4164 13193 c-39 -42 -51 -97 -32 -149 17 -49 11 -59 -30 -49 -24 5
-23 3 11 -20 40 -28 46 -42 20 -47 -19 -3 8 -15 376 -159 139 -55 255 -98 257
-96 3 2 -88 42 -201 87 -113 46 -213 89 -223 96 -15 11 -11 12 28 11 55 -2
138 35 150 68 5 12 22 28 39 35 17 7 31 15 31 19 0 9 -107 70 -136 77 -14 4
-45 30 -70 60 -78 91 -171 120 -220 67z m39 -58 c24 -51 20 -105 -8 -105 -16
0 -25 32 -25 93 0 56 10 60 33 12z m110 7 c18 -16 23 -52 7 -52 -6 0 -26 7
-45 14 -38 16 -45 39 -18 55 19 10 27 7 56 -17z m34 -143 c92 -69 95 -105 7
-95 -68 8 -99 22 -113 53 -12 27 -15 76 -4 87 13 13 57 -5 110 -45z m67 1 c48
-54 36 -73 -15 -24 -37 36 -50 64 -30 64 5 0 25 -18 45 -40z m94 -18 c3 -27 0
-33 -14 -30 -23 4 -39 31 -31 52 12 30 42 14 45 -22z m-255 -59 c54 -35 78
-63 55 -63 -6 0 -39 14 -74 31 -45 22 -64 37 -64 50 0 28 21 23 83 -18z"/>
<path d="M4878 13075 c6 -11 49 -112 97 -224 92 -221 92 -221 23 -221 -20 0
-39 -4 -43 -9 -6 -10 41 -51 59 -51 6 0 1 8 -12 18 -26 20 -20 32 17 32 40 0
74 -28 68 -56 -2 -14 2 -25 11 -29 33 -13 27 10 -47 166 -59 126 -131 305
-131 327 0 10 -12 29 -26 43 -22 20 -25 21 -16 4z"/>
<path d="M4824 13055 c21 -16 32 -13 21 4 -3 6 -14 11 -23 11 -15 -1 -15 -2 2
-15z"/>
<path d="M4790 12660 c8 -5 20 -10 25 -10 6 0 3 5 -5 10 -8 5 -19 10 -25 10
-5 0 -3 -5 5 -10z"/>
<path d="M3632 11990 c0 -14 2 -19 5 -12 2 6 2 18 0 25 -3 6 -5 1 -5 -13z"/>
<path d="M16623 8333 c-53 -67 -105 -154 -199 -333 -116 -222 -187 -342 -231
-391 -20 -22 -33 -43 -29 -46 11 -12 152 143 211 232 83 124 296 557 282 571
-2 3 -18 -12 -34 -33z"/>
<path d="M9420 5432 c-50 -28 -44 -44 19 -58 67 -15 78 -26 65 -61 -12 -36
-102 -83 -157 -83 -22 0 -83 14 -136 31 -106 35 -181 41 -272 20 l-56 -12 -5
-104 c-8 -168 -1 -183 63 -150 36 19 49 50 49 113 0 53 21 92 50 92 11 0 55
-16 99 -35 58 -26 93 -35 133 -35 109 0 252 62 319 138 48 55 52 96 14 132
-36 33 -135 40 -185 12z"/>
<path d="M10632 5500 c-42 -10 -98 -63 -113 -107 -17 -53 -13 -119 9 -155 52
-84 117 -118 241 -126 l85 -5 60 -62 c69 -70 126 -95 213 -95 70 0 109 17 155
68 43 47 62 108 53 163 -15 89 -114 184 -205 196 -23 3 -74 0 -113 -8 -67 -12
-71 -12 -81 7 -6 10 -29 38 -51 60 -60 62 -158 87 -253 64z m131 -94 c50 -20
97 -80 97 -121 0 -96 -121 -111 -210 -26 -57 54 -52 102 13 141 38 23 57 25
100 6z m344 -127 c60 -16 123 -74 123 -116 0 -83 -118 -141 -200 -98 -34 18
-75 69 -84 106 -13 58 33 118 92 119 13 0 44 -5 69 -11z"/>
<path d="M8777 4218 c-50 -13 -126 -83 -162 -150 -24 -43 -30 -65 -30 -119 0
-55 4 -72 28 -107 15 -23 46 -56 69 -72 37 -27 49 -30 115 -30 92 0 94 -10 17
-90 -68 -71 -99 -86 -147 -71 -47 16 -68 42 -78 98 -10 54 -45 93 -83 93 -28
0 -36 -17 -36 -73 0 -127 87 -210 220 -210 114 0 219 87 296 248 122 253 89
427 -90 480 -56 17 -66 17 -119 3z m117 -118 c34 -13 66 -66 66 -110 -1 -114
-108 -193 -198 -146 -69 35 -88 97 -52 171 38 78 113 112 184 85z"/>
<path d="M11383 4325 c-29 -13 -53 -28 -53 -32 0 -4 -20 -127 -44 -273 -61
-364 -61 -368 -37 -407 12 -18 28 -33 37 -33 9 0 78 27 154 60 76 33 149 60
163 60 30 0 53 -28 68 -82 8 -33 14 -38 40 -38 37 0 89 26 89 44 0 7 -12 39
-26 70 l-26 56 31 35 c27 31 29 39 20 62 -17 46 -29 54 -66 47 -26 -5 -37 -2
-49 12 -8 11 -55 101 -104 202 -87 177 -124 242 -138 242 -4 0 -31 -11 -59
-25z m74 -241 c13 -21 43 -86 69 -144 l46 -104 -24 -20 c-29 -24 -161 -86
-184 -86 -15 0 -16 8 -10 69 6 71 42 296 51 319 8 22 28 8 52 -34z"/>
<path d="M9893 3716 c58 -55 110 -73 257 -87 120 -12 150 -21 150 -47 0 -38
86 -92 109 -69 22 22 11 46 -29 67 -22 11 -55 34 -74 50 -50 44 -92 58 -209
69 -92 9 -132 19 -232 55 -11 4 2 -13 28 -38z"/>
<path d="M10015 3740 c3 -5 13 -10 21 -10 8 0 12 5 9 10 -3 6 -13 10 -21 10
-8 0 -12 -4 -9 -10z"/>
<path d="M9880 3615 l-25 -16 27 5 c14 3 33 9 42 12 27 10 18 -14 -11 -32
-123 -75 -223 -161 -202 -175 9 -5 -4 -42 -44 -126 -69 -147 -73 -159 -53
-178 8 -9 18 -32 21 -53 33 -219 73 -315 176 -424 l60 -63 -51 65 c-85 109
-95 137 -93 270 2 143 25 301 59 402 24 72 44 107 44 76 0 -7 -12 -64 -26
-127 -14 -62 -24 -125 -22 -139 l3 -26 39 37 c29 27 36 41 30 54 -4 10 -8 62
-10 115 -3 140 -15 151 -65 58 -17 -33 -38 -60 -45 -60 -18 0 -18 4 2 43 37
71 203 254 244 269 23 8 6 19 -37 24 -24 3 -47 -1 -63 -11z m-154 -386 c-8
-47 -22 -79 -36 -79 -15 0 -12 46 4 85 21 50 40 46 32 -6z m-36 -174 c0 -45
-13 -67 -24 -39 -13 35 -2 99 15 88 5 -3 9 -25 9 -49z"/>
<path d="M10046 3580 c-126 -38 -183 -181 -121 -306 16 -32 64 -88 138 -159
62 -61 138 -142 169 -180 82 -102 137 -152 187 -170 41 -14 49 -14 92 0 87 29
180 157 194 265 l5 45 -13 -50 c-32 -117 -76 -173 -145 -182 -63 -8 -120 25
-205 121 -39 44 -129 140 -198 211 -70 72 -132 140 -138 152 -14 27 -14 77 0
125 11 43 68 88 110 88 40 0 103 -52 123 -99 23 -59 20 -81 -19 -155 -19 -36
-30 -68 -25 -71 15 -9 87 63 111 111 72 149 -91 306 -265 254z"/>
<path d="M10433 3321 c-52 -24 -83 -71 -83 -128 0 -107 133 -152 181 -61 l12
23 -25 -22 c-80 -74 -176 41 -99 118 36 36 96 40 146 9 48 -30 67 -65 73 -135
5 -72 -8 -123 -49 -179 -31 -42 -32 -50 -5 -40 40 15 95 163 96 255 0 68 -90
160 -170 173 -24 4 -49 0 -77 -13z"/>
<path d="M9872 3085 c-84 -77 -96 -107 -90 -219 8 -150 74 -250 196 -297 88
-34 389 -41 328 -7 -10 6 -47 8 -82 6 -73 -5 -84 6 -21 22 23 7 79 31 124 56
46 24 85 44 88 44 3 0 5 -7 5 -16 0 -13 6 -15 28 -9 15 3 34 13 42 21 12 12
10 14 -17 14 -18 0 -63 12 -101 26 l-69 25 -59 -29 c-75 -38 -113 -44 -174
-31 -172 37 -239 211 -140 361 63 96 30 115 -58 33z"/>
<path d="M10355 2610 c-8 -13 25 -13 45 0 12 8 9 10 -12 10 -15 0 -30 -4 -33
-10z"/>
<path d="M12367 3437 c-81 -124 -124 -412 -72 -483 12 -17 14 -17 37 -2 13 9
40 44 59 79 l34 64 3 -64 c4 -82 -29 -156 -81 -184 -54 -29 -78 -91 -50 -126
24 -29 47 -20 77 33 62 107 92 303 80 526 -3 74 -10 145 -15 158 -11 30 -52
29 -72 -1z m48 -107 c14 -16 17 -30 11 -72 -8 -74 -23 -122 -45 -149 -15 -19
-21 -21 -34 -11 -24 20 -29 75 -13 152 21 100 43 122 81 80z"/>
<path d="M12132 3073 c-29 -57 -72 -172 -72 -192 0 -5 12 -5 30 2 16 6 32 8
36 5 3 -4 10 -96 15 -205 4 -109 8 -202 9 -207 0 -6 5 -5 11 1 19 19 29 195
23 413 -4 118 -10 221 -14 229 -6 10 -17 -3 -38 -46z"/>
<path d="M7948 3168 c-8 -15 -13 -83 -16 -193 -3 -145 -1 -185 18 -275 24
-119 71 -224 113 -254 45 -33 52 -14 52 137 0 157 -23 248 -80 319 -56 70 -61
83 -44 131 8 24 20 42 29 42 8 0 27 -31 47 -79 18 -44 37 -84 43 -90 16 -16
12 42 -6 105 -32 108 -80 179 -120 179 -14 0 -28 -9 -36 -22z m94 -375 c16
-36 22 -69 22 -130 1 -89 -11 -117 -39 -93 -33 27 -60 200 -39 254 11 30 35
16 56 -31z"/>
<path d="M14231 3258 c-5 -13 -11 -187 -15 -388 -4 -201 -8 -381 -9 -400 -3
-59 25 -50 111 34 142 138 178 234 169 451 -6 143 -23 199 -78 254 -37 37
-109 71 -151 71 -10 0 -22 -10 -27 -22z"/>
<path d="M15445 2948 c-15 -66 -62 -393 -58 -400 2 -5 41 -8 85 -8 l81 0 -6
68 c-7 72 -72 351 -86 365 -5 5 -12 -6 -16 -25z"/>
<path d="M17779 3222 c-94 -98 -128 -230 -149 -582 -24 -406 25 -861 111
-1035 38 -77 94 -145 119 -145 31 0 86 56 110 111 117 274 135 1165 29 1499
-38 119 -102 210 -147 210 -9 0 -41 -26 -73 -58z"/>
<path d="M13053 3278 c-10 -15 -5 -1291 5 -1595 4 -117 11 -215 15 -219 22
-22 136 134 221 304 90 179 115 267 127 440 11 155 5 463 -12 572 -36 241
-209 510 -327 510 -12 0 -24 -6 -29 -12z"/>
<path d="M9708 1786 c-45 -24 -99 -47 -118 -51 -40 -8 -62 -23 -54 -36 3 -5
46 -9 95 -9 l90 0 -3 -180 -3 -180 78 0 77 0 0 250 0 250 -39 0 c-27 0 -65
-14 -123 -44z"/>
<path d="M10198 1804 c-17 -5 -28 -29 -52 -113 -39 -134 -19 -153 129 -126
118 21 158 16 202 -27 42 -41 43 -75 3 -113 -26 -25 -40 -30 -95 -33 -57 -4
-70 -1 -103 21 -44 30 -91 41 -132 32 -58 -13 -27 -65 61 -104 166 -73 449 9
449 130 0 46 -39 108 -85 134 -45 26 -132 45 -209 45 -75 0 -96 8 -96 36 0 34
24 40 180 47 74 3 143 8 152 12 19 7 34 42 23 53 -8 8 -402 13 -427 6z"/>
</g>
</svg>
