<?xml version="1.0" encoding="UTF-8"?>
<svg xmlns="http://www.w3.org/2000/svg" viewBox="0 0 1024 1024" width="1024" height="768" role="img" aria-label="Geek & Dragon — vectorized logo">
  <title>Geek & Dragon — Logo Vectorisé</title>
  <desc>Autotrace vector (monochrome) generated via marching squares; suitable for header and print. Edit fill/stroke to style.</desc>
  <g fill="#ffffff" stroke="#000000" stroke-width="0" fill-rule="evenodd">
    <path d="M 300.50 271.00 L 305.00 271.50 L 312.00 276.50 L 318.00 279.50 L 320.00 279.50 L 328.00 283.50 L 330.00 285.50 L 345.00 292.50 L 347.00 294.50 L 352.00 296.50 L 359.00 301.50 L 366.00 303.50 L 375.50 312.00 L 376.50 317.00 L 377.50 318.00 L 376.50 319.00 L 377.50 320.00 L 377.50 324.00 L 380.50 332.00 L 381.50 346.00 L 383.50 350.00 L 383.50 353.00 L 385.50 356.00 L 385.50 359.00 L 386.50 360.00 L 386.50 363.00 L 387.50 364.00 L 387.50 367.00 L 389.50 372.00 L 390.50 383.00 L 389.50 384.00 L 389.50 386.00 L 385.50 390.00 L 386.50 392.00 L 385.50 395.00 L 382.00 394.50 L 377.50 399.00 L 377.50 400.00 L 371.50 407.00 L 369.50 411.00 L 369.50 413.00 L 367.00 414.50 L 359.00 423.50 L 357.00 423.50 L 353.00 425.50 L 350.00 425.50 L 349.00 426.50 L 346.00 426.50 L 323.00 439.50 L 310.00 443.50 L 305.00 446.50 L 303.00 446.50 L 293.00 450.50 L 288.50 446.00 L 285.50 440.00 L 279.00 433.50 L 277.00 432.50 L 270.00 432.50 L 269.00 433.50 L 267.00 433.50 L 256.00 427.50 L 252.00 426.50 L 245.00 419.50 L 242.00 418.50 L 239.50 416.00 L 235.50 409.00 L 227.50 401.00 L 227.50 400.00 L 225.50 399.00 L 225.50 397.00 L 217.50 388.00 L 215.50 384.00 L 215.50 377.00 L 217.50 372.00 L 217.50 368.00 L 218.50 367.00 L 218.50 365.00 L 221.50 358.00 L 221.50 355.00 L 223.50 351.00 L 223.50 348.00 L 226.50 340.00 L 226.50 337.00 L 228.50 333.00 L 228.50 330.00 L 229.50 329.00 L 229.50 327.00 L 232.50 320.00 L 233.50 313.00 L 235.50 309.00 L 237.00 307.50 L 242.00 305.50 L 247.00 301.50 L 250.00 300.50 L 252.00 298.50 L 262.00 293.50 L 271.00 287.50 L 275.00 283.50 L 276.00 284.50 L 282.00 281.50 L 293.00 273.50 L 297.00 271.50 L 300.00 271.50 Z"/>
    <path d="M 306.50 282.00 L 310.00 281.50 L 321.00 289.50 L 326.50 292.00 L 323.00 294.50 L 321.00 294.50 L 318.50 296.00 L 318.50 297.00 L 320.00 297.50 L 322.50 301.00 L 324.00 304.50 L 330.00 304.50 L 333.50 301.00 L 333.50 298.00 L 331.50 296.00 L 333.00 295.50 L 359.50 310.00 L 355.00 310.50 L 354.00 309.50 L 348.00 309.50 L 347.00 308.50 L 337.00 307.50 L 336.00 306.50 L 329.00 306.50 L 328.00 305.50 L 309.00 305.50 L 308.50 301.00 L 307.50 300.00 L 307.50 286.00 L 306.50 285.00 L 306.50 283.00 Z"/>
    <path d="M 508.50 286.00 L 512.00 285.50 L 513.00 286.50 L 516.00 286.50 L 523.00 290.50 L 526.50 294.00 L 531.50 303.00 L 531.50 305.00 L 533.50 309.00 L 533.00 313.50 L 528.50 305.00 L 523.00 299.50 L 517.00 295.50 L 513.00 294.50 L 510.00 292.50 L 503.00 291.50 L 502.00 290.50 L 492.00 288.50 L 489.50 287.00 L 508.00 286.50 Z"/>
    <path d="M 538.50 289.00 L 540.00 288.50 L 543.00 291.50 L 544.00 291.50 L 550.50 300.00 L 550.50 302.00 L 551.50 303.00 L 551.50 313.00 L 550.00 316.50 L 549.50 305.00 L 545.50 298.00 L 538.50 290.00 Z"/>
    <path d="M 461.50 290.00 L 462.00 289.50 L 465.00 291.50 L 470.00 292.50 L 480.00 297.50 L 491.50 308.00 L 490.00 308.50 L 485.00 305.50 L 483.00 305.50 L 476.00 301.50 L 474.00 301.50 L 468.00 298.50 L 467.50 299.00 L 469.50 303.00 L 473.50 309.00 L 480.00 315.50 L 481.50 316.00 L 479.00 316.50 L 476.00 313.50 L 475.00 313.50 L 468.50 306.00 L 463.50 297.00 L 463.50 295.00 L 461.50 291.00 Z"/>
    <path d="M 488.50 292.00 L 493.00 291.50 L 494.00 292.50 L 496.00 292.50 L 510.00 299.50 L 517.50 306.00 L 521.50 313.00 L 521.00 313.50 L 511.00 304.50 L 507.00 303.50 L 502.00 300.50 L 500.00 300.50 L 493.00 297.50 L 486.00 296.50 L 485.00 295.50 L 478.00 295.50 L 476.50 294.00 L 487.00 293.50 L 488.00 292.50 Z"/>
    <path d="M 534.50 294.00 L 535.00 293.50 L 541.50 301.00 L 541.50 303.00 L 543.50 307.00 L 543.50 316.00 L 542.00 319.50 L 541.50 308.00 L 539.50 303.00 L 537.50 301.00 L 535.50 296.00 L 533.50 295.00 L 534.00 294.50 Z"/>
    <path d="M 324.50 295.00 L 325.00 294.50 L 329.00 296.50 L 331.50 300.00 L 327.00 302.50 L 322.50 297.00 L 322.50 296.00 L 324.00 295.50 Z"/>
    <path d="M 270.50 297.00 L 271.00 296.50 L 271.00 297.50 Z"/>
    <path d="M 280.50 312.00 L 291.00 311.50 L 291.50 313.00 L 286.50 320.00 L 281.50 331.00 L 276.50 338.00 L 269.50 353.00 L 267.50 355.00 L 264.50 362.00 L 262.50 364.00 L 262.50 366.00 L 261.00 367.50 L 258.50 364.00 L 258.50 362.00 L 251.50 343.00 L 251.50 340.00 L 243.50 319.00 L 243.50 316.00 L 253.00 315.50 L 254.00 314.50 L 263.00 314.50 L 264.00 313.50 L 270.00 313.50 L 271.00 312.50 L 280.00 312.50 Z"/>
    <path d="M 306.50 312.00 L 309.00 311.50 L 316.50 321.00 L 317.50 324.00 L 322.50 331.00 L 325.50 338.00 L 327.50 340.00 L 329.50 345.00 L 331.50 347.00 L 334.50 354.00 L 336.50 356.00 L 343.50 373.00 L 342.00 374.50 L 266.00 374.50 L 265.50 372.00 L 266.50 371.00 L 266.50 369.00 L 279.50 343.00 L 281.50 341.00 L 289.50 325.00 L 291.50 323.00 L 291.50 321.00 L 295.50 313.00 L 306.00 312.50 Z"/>
    <path d="M 318.50 313.00 L 323.00 312.50 L 324.00 313.50 L 355.00 314.50 L 356.00 315.50 L 363.00 315.50 L 365.50 317.00 L 362.50 328.00 L 359.50 334.00 L 359.50 336.00 L 347.50 356.00 L 346.00 364.50 L 340.50 353.00 L 335.50 346.00 L 334.50 342.00 L 332.50 340.00 L 328.50 331.00 L 326.50 329.00 L 323.50 322.00 L 321.50 320.00 L 318.50 314.00 Z"/>
    <path d="M 237.50 321.00 L 238.00 320.50 L 239.50 322.00 L 242.50 329.00 L 242.50 332.00 L 245.50 339.00 L 245.50 342.00 L 247.50 345.00 L 247.50 348.00 L 248.50 349.00 L 248.50 351.00 L 252.50 361.00 L 252.50 364.00 L 254.50 368.00 L 254.50 373.00 L 251.00 373.50 L 250.00 374.50 L 246.00 374.50 L 245.00 375.50 L 239.00 375.50 L 234.00 377.50 L 224.00 378.50 L 225.50 366.00 L 227.50 362.00 L 227.50 357.00 L 228.50 356.00 L 229.50 349.00 L 231.50 345.00 L 232.50 338.00 L 235.50 331.00 L 235.50 328.00 L 237.50 325.00 L 237.50 322.00 Z"/>
    <path d="M 368.50 324.00 L 369.50 324.00 L 369.50 326.00 L 372.50 333.00 L 372.50 336.00 L 375.50 343.00 L 376.50 352.00 L 379.50 360.00 L 379.50 365.00 L 381.50 369.00 L 381.50 374.00 L 382.50 375.00 L 382.50 378.00 L 381.00 379.50 L 380.00 378.50 L 374.00 378.50 L 369.00 376.50 L 365.00 376.50 L 364.00 375.50 L 357.00 374.50 L 351.50 372.00 L 351.50 367.00 L 352.50 366.00 L 353.50 361.00 L 363.50 342.00 L 363.50 340.00 L 365.50 336.00 L 365.50 333.00 L 366.50 332.00 L 366.50 329.00 L 368.50 325.00 Z"/>
    <path d="M 341.50 327.00 L 348.00 326.50 L 350.50 329.00 L 350.50 333.00 L 349.50 335.00 L 347.50 338.00 L 345.00 339.50 L 344.00 339.50 L 343.50 338.00 L 346.50 334.00 L 345.00 333.50 L 343.00 334.50 L 340.50 333.00 L 339.50 330.00 L 341.00 327.50 Z"/>
    <path d="M 260.50 328.00 L 264.00 328.50 L 265.00 327.50 L 269.00 327.50 L 270.50 329.00 L 270.50 332.00 L 263.00 341.50 L 262.00 341.50 L 261.50 340.00 L 264.50 337.00 L 264.50 336.00 L 261.00 333.50 L 258.50 330.00 L 260.00 328.50 Z"/>
    <path d="M 342.50 328.00 L 345.00 327.50 L 347.50 331.00 L 345.00 332.50 L 341.50 330.00 L 342.00 328.50 Z"/>
    <path d="M 543.50 329.00 L 555.00 328.50 L 559.50 332.00 L 560.50 339.00 L 561.50 340.00 L 560.50 351.00 L 563.50 356.00 L 563.50 358.00 L 564.50 359.00 L 564.00 361.50 L 560.00 361.50 L 559.00 360.50 L 541.00 360.50 L 540.00 361.50 L 531.00 362.50 L 524.00 365.50 L 512.00 365.50 L 509.00 363.50 L 502.00 362.50 L 501.00 361.50 L 494.00 361.50 L 493.00 360.50 L 470.50 360.00 L 471.50 357.00 L 475.50 354.00 L 475.50 348.00 L 474.50 347.00 L 474.50 334.00 L 476.00 331.50 L 478.00 332.50 L 480.00 329.50 L 493.00 329.50 L 494.00 330.50 L 500.00 330.50 L 501.00 331.50 L 511.00 333.50 L 517.00 337.50 L 519.00 337.50 L 532.00 331.50 L 535.00 331.50 L 539.00 329.50 L 543.00 329.50 Z"/>
    <path d="M 260.50 330.00 L 268.00 329.50 L 268.50 332.00 L 265.00 334.50 L 261.00 330.50 Z"/>
    <path d="M 290.50 335.00 L 295.00 334.50 L 299.00 336.50 L 302.50 340.00 L 302.50 345.00 L 301.50 347.00 L 292.50 357.00 L 293.00 358.50 L 300.00 358.50 L 301.00 357.50 L 301.00 362.50 L 282.50 362.00 L 282.50 360.00 L 294.50 349.00 L 296.50 345.00 L 296.50 340.00 L 294.00 337.50 L 292.00 337.50 L 289.50 340.00 L 288.00 344.50 L 285.00 344.50 L 283.50 343.00 L 285.50 338.00 L 288.00 335.50 L 290.00 335.50 Z"/>
    <path d="M 310.50 336.00 L 319.00 335.50 L 322.50 339.00 L 324.50 343.00 L 325.50 353.00 L 322.50 360.00 L 318.00 363.50 L 313.00 362.50 L 310.00 360.50 L 306.50 357.00 L 306.50 355.00 L 305.50 354.00 L 305.50 351.00 L 304.50 350.00 L 305.50 342.00 L 310.00 336.50 Z"/>
    <path d="M 313.50 339.00 L 317.00 338.50 L 318.50 340.00 L 319.50 342.00 L 319.50 347.00 L 320.50 348.00 L 319.50 349.00 L 319.50 355.00 L 316.00 359.50 L 315.00 359.50 L 310.50 355.00 L 310.50 352.00 L 309.50 351.00 L 309.50 345.00 L 311.50 340.00 L 313.00 339.50 Z"/>
    <path d="M 239.50 348.00 L 240.50 348.00 L 240.50 354.00 L 244.50 358.00 L 244.50 366.00 L 240.00 368.50 L 235.50 363.00 L 235.50 356.00 L 238.50 352.00 L 239.00 348.50 Z"/>
    <path d="M 238.50 355.00 L 239.00 354.50 L 242.50 358.00 L 242.50 362.00 L 240.00 366.50 L 236.50 361.00 L 238.00 355.50 Z"/>
    <path d="M 475.50 367.00 L 499.00 366.50 L 504.00 368.50 L 507.50 372.00 L 507.50 383.00 L 504.50 390.00 L 501.00 393.50 L 496.00 395.50 L 484.00 395.50 L 479.00 393.50 L 474.50 388.00 L 474.50 386.00 L 472.50 382.00 L 472.50 378.00 L 471.50 377.00 L 471.50 370.00 L 475.00 367.50 Z"/>
    <path d="M 539.50 367.00 L 560.00 366.50 L 563.50 369.00 L 562.50 383.00 L 559.50 390.00 L 556.00 393.50 L 551.00 395.50 L 540.00 395.50 L 536.00 393.50 L 531.50 389.00 L 528.50 382.00 L 527.50 373.00 L 528.50 371.00 L 532.00 368.50 L 539.00 367.50 Z"/>
    <path d="M 574.50 370.00 L 577.00 369.50 L 578.50 372.00 L 578.50 382.00 L 577.50 383.00 L 577.50 387.00 L 573.50 397.00 L 570.00 400.50 L 567.00 400.50 L 566.50 397.00 L 569.50 391.00 L 571.50 389.00 L 574.50 381.00 L 574.50 379.00 L 573.00 377.50 L 570.50 377.00 L 571.50 373.00 L 574.00 370.50 Z"/>
    <path d="M 455.50 371.00 L 459.00 370.50 L 462.50 374.00 L 462.50 376.00 L 463.50 377.00 L 462.00 378.50 L 459.00 375.50 L 457.50 376.00 L 457.50 378.00 L 458.50 379.00 L 459.50 384.00 L 464.50 394.00 L 466.50 396.00 L 468.50 400.00 L 468.00 400.50 L 467.00 400.50 L 462.50 396.00 L 458.50 389.00 L 458.50 387.00 L 456.50 383.00 L 456.50 380.00 L 455.50 379.00 L 455.50 372.00 Z"/>
    <path d="M 514.50 376.00 L 521.00 375.50 L 526.50 391.00 L 533.00 397.50 L 540.00 400.50 L 550.00 400.50 L 551.00 399.50 L 556.00 398.50 L 558.00 397.50 L 563.50 392.00 L 565.50 388.00 L 567.00 386.50 L 567.50 387.00 L 565.50 395.00 L 563.50 398.00 L 563.50 400.00 L 561.50 404.00 L 561.50 407.00 L 560.50 408.00 L 557.50 419.00 L 549.50 432.00 L 545.50 436.00 L 545.50 437.00 L 532.00 449.50 L 528.00 450.50 L 525.00 452.50 L 520.00 452.50 L 519.00 453.50 L 510.00 452.50 L 502.00 448.50 L 488.50 435.00 L 481.50 424.00 L 481.50 422.00 L 479.50 419.00 L 479.50 417.00 L 476.50 410.00 L 475.50 402.00 L 473.50 398.00 L 474.00 395.50 L 478.00 398.50 L 483.00 400.50 L 495.00 400.50 L 502.00 397.50 L 509.50 390.00 L 512.50 384.00 L 514.50 377.00 Z"/>
    <path d="M 263.50 379.00 L 340.50 380.00 L 336.50 384.00 L 332.50 391.00 L 329.50 394.00 L 323.50 403.00 L 322.50 406.00 L 320.50 408.00 L 319.50 411.00 L 316.50 414.00 L 315.50 417.00 L 312.50 420.00 L 304.00 433.50 L 301.50 432.00 L 295.50 422.00 L 291.50 418.00 L 285.50 409.00 L 284.50 406.00 L 280.50 400.00 L 276.50 396.00 L 271.50 388.00 L 270.00 387.50 L 269.50 386.00 L 268.00 385.50 L 263.50 380.00 Z"/>
    <path d="M 257.50 380.00 L 258.00 379.50 L 269.50 392.00 L 285.50 416.00 L 286.50 419.00 L 289.50 422.00 L 293.50 429.00 L 298.50 435.00 L 298.00 435.50 L 292.00 434.50 L 290.00 432.50 L 284.00 429.50 L 279.00 428.50 L 265.00 421.50 L 258.00 420.50 L 257.00 419.50 L 253.00 419.50 L 248.00 417.50 L 245.50 415.00 L 242.50 408.00 L 240.50 406.00 L 235.50 397.00 L 227.50 388.00 L 225.50 384.00 L 227.00 383.50 L 229.00 384.50 L 230.00 383.50 L 237.00 383.50 L 242.00 381.50 L 257.00 380.50 Z"/>
    <path d="M 346.50 380.00 L 351.00 379.50 L 352.00 380.50 L 363.00 381.50 L 364.00 382.50 L 375.00 384.50 L 377.00 385.50 L 377.50 387.00 L 371.50 393.00 L 366.50 402.00 L 362.50 407.00 L 360.50 412.00 L 356.00 417.50 L 347.00 419.50 L 339.00 423.50 L 336.00 423.50 L 320.00 431.50 L 314.00 435.50 L 309.00 436.50 L 308.50 436.00 L 310.50 432.00 L 327.50 408.00 L 334.50 395.00 L 346.00 380.50 Z"/>
    <path d="M 302.50 391.00 L 303.00 390.50 L 304.00 391.50 L 305.00 390.50 L 306.00 391.50 L 310.00 391.50 L 310.50 394.00 L 304.50 404.00 L 304.50 408.00 L 301.00 410.50 L 300.50 406.00 L 301.50 405.00 L 301.50 403.00 L 306.50 395.00 L 305.00 393.50 L 304.00 394.50 L 297.00 393.50 L 296.50 392.00 L 302.00 391.50 Z"/>
    <path d="M 346.50 391.00 L 352.00 390.50 L 354.50 393.00 L 354.50 396.00 L 349.50 402.00 L 349.50 408.00 L 345.00 412.50 L 342.00 412.50 L 337.50 409.00 L 337.50 403.00 L 339.00 401.50 L 343.50 400.00 L 342.50 393.00 L 346.00 391.50 Z"/>
    <path d="M 259.50 393.00 L 261.00 392.50 L 263.50 395.00 L 265.50 400.00 L 265.50 407.00 L 266.50 408.00 L 266.00 413.50 L 263.50 413.00 L 262.50 399.00 L 261.00 397.50 L 259.50 401.00 L 258.00 402.50 L 257.50 402.00 L 257.50 397.00 L 259.50 394.00 Z"/>
    <path d="M 347.50 394.00 L 350.00 393.50 L 351.50 395.00 L 351.50 397.00 L 348.00 399.50 L 345.50 398.00 L 345.50 396.00 L 347.00 394.50 Z"/>
    <path d="M 476.50 400.00 L 478.00 399.50 L 479.50 401.00 L 479.00 403.50 L 477.00 400.50 Z"/>
    <path d="M 342.50 402.00 L 345.00 401.50 L 347.50 404.00 L 347.50 406.00 L 344.00 409.50 L 340.50 407.00 L 340.50 403.00 L 342.00 402.50 Z"/>
    <path d="M 505.50 407.00 L 506.00 406.50 L 509.00 408.50 L 513.00 407.50 L 516.00 411.50 L 519.00 409.50 L 522.00 409.50 L 526.00 407.50 L 526.50 409.00 L 524.00 410.50 L 521.00 410.50 L 515.00 414.50 L 509.00 411.50 L 507.00 411.50 L 505.50 410.00 L 505.50 408.00 Z"/>
    <path d="M 504.50 424.00 L 525.00 423.50 L 526.00 424.50 L 533.00 424.50 L 535.50 426.00 L 529.00 426.50 L 528.00 425.50 L 499.50 425.00 L 504.00 424.50 Z"/>
    <path d="M 509.50 432.00 L 520.50 432.00 L 520.00 433.50 L 511.00 433.50 L 510.00 432.50 Z"/>
    <path d="M 255.50 438.00 L 261.00 437.50 L 265.50 442.00 L 269.50 450.00 L 274.50 466.00 L 277.50 469.00 L 277.50 470.00 L 283.50 475.00 L 283.00 475.50 L 279.00 473.50 L 272.50 467.00 L 263.50 450.00 L 255.50 439.00 Z"/>
    <path d="M 272.50 438.00 L 275.00 437.50 L 279.50 442.00 L 287.50 457.00 L 294.00 463.50 L 295.00 463.50 L 302.00 471.50 L 306.00 470.50 L 307.50 473.00 L 311.50 476.00 L 313.50 480.00 L 313.50 484.00 L 311.00 486.50 L 308.00 486.50 L 305.50 483.00 L 304.50 478.00 L 302.00 476.50 L 300.00 476.50 L 297.00 473.50 L 297.00 480.50 L 282.50 465.00 L 272.50 443.00 L 272.50 439.00 Z"/>
    <path d="M 243.50 440.00 L 248.00 439.50 L 249.50 441.00 L 257.50 453.00 L 260.50 456.00 L 260.00 457.50 L 251.50 450.00 L 251.50 449.00 L 244.00 440.50 Z"/>
    <path d="M 561.50 440.00 L 564.00 439.50 L 565.00 440.50 L 568.00 440.50 L 574.00 443.50 L 576.00 443.50 L 597.00 455.50 L 609.50 466.00 L 611.50 470.00 L 611.50 475.00 L 606.50 485.00 L 603.50 488.00 L 603.50 489.00 L 587.50 507.00 L 580.50 517.00 L 573.50 524.00 L 573.50 525.00 L 561.50 539.00 L 557.50 546.00 L 558.00 547.50 L 594.50 512.00 L 594.50 511.00 L 603.50 501.00 L 613.00 485.50 L 615.00 485.50 L 620.00 489.50 L 622.00 489.50 L 624.50 493.00 L 621.50 499.00 L 613.00 507.50 L 607.00 511.50 L 565.00 549.50 L 559.00 553.50 L 553.00 559.50 L 552.00 559.50 L 546.00 565.50 L 545.00 565.50 L 539.00 571.50 L 538.00 571.50 L 537.50 570.00 L 541.50 562.00 L 543.50 560.00 L 550.50 547.00 L 558.50 536.00 L 562.50 528.00 L 565.50 525.00 L 569.50 518.00 L 576.50 509.00 L 578.50 504.00 L 585.50 494.00 L 587.50 489.00 L 591.50 483.00 L 591.50 481.00 L 593.50 478.00 L 593.50 476.00 L 595.50 472.00 L 595.50 466.00 L 594.50 464.00 L 588.00 457.50 L 587.50 468.00 L 586.50 469.00 L 585.50 476.00 L 582.00 483.50 L 581.50 478.00 L 582.50 477.00 L 582.50 464.00 L 581.50 463.00 L 581.50 459.00 L 579.50 456.00 L 579.50 454.00 L 575.00 449.50 L 565.00 444.50 L 561.50 441.00 Z"/>
    <path d="M 340.50 446.00 L 342.00 445.50 L 343.50 447.00 L 343.50 450.00 L 337.50 465.00 L 334.50 482.00 L 349.00 491.50 L 357.50 500.00 L 359.50 504.00 L 359.50 506.00 L 360.50 507.00 L 359.50 518.00 L 361.50 520.00 L 361.50 522.00 L 363.50 526.00 L 363.50 529.00 L 364.50 530.00 L 364.50 534.00 L 360.00 537.50 L 356.50 537.00 L 356.50 533.00 L 355.50 532.00 L 355.50 522.00 L 354.50 521.00 L 354.50 519.00 L 347.50 513.00 L 343.50 507.00 L 339.50 499.00 L 339.50 497.00 L 333.50 487.00 L 333.50 484.00 L 333.00 483.50 L 329.50 487.00 L 329.50 491.00 L 332.50 496.00 L 332.00 496.50 L 328.00 494.50 L 323.50 489.00 L 323.50 485.00 L 324.50 484.00 L 324.50 480.00 L 325.50 479.00 L 325.50 475.00 L 327.50 471.00 L 327.50 468.00 L 336.50 450.00 L 340.00 446.50 Z"/>
    <path d="M 290.50 481.00 L 291.00 480.50 L 296.00 483.50 L 300.00 487.50 L 310.00 493.50 L 313.50 497.00 L 312.00 497.50 L 302.00 490.50 L 299.00 489.50 L 290.50 482.00 Z"/>
    <path d="M 564.50 492.00 L 565.50 492.00 L 564.50 500.00 L 559.00 509.50 L 558.00 509.50 L 550.00 516.50 L 540.00 521.50 L 530.00 523.50 L 529.00 524.50 L 507.00 524.50 L 506.00 523.50 L 502.00 523.50 L 501.00 522.50 L 496.00 521.50 L 485.00 515.50 L 475.50 506.00 L 475.50 504.00 L 473.50 501.00 L 474.00 499.50 L 479.00 504.50 L 486.00 509.50 L 491.00 511.50 L 493.00 513.50 L 495.00 513.50 L 499.00 515.50 L 502.00 515.50 L 507.00 517.50 L 527.00 517.50 L 528.00 516.50 L 532.00 516.50 L 533.00 515.50 L 538.00 514.50 L 551.00 507.50 L 555.00 503.50 L 556.00 503.50 L 557.00 501.50 L 558.50 501.00 L 558.50 500.00 L 562.50 496.00 L 564.00 492.50 Z"/>
    <path d="M 531.50 496.00 L 532.00 495.50 L 532.00 496.50 Z"/>
    <path d="M 530.50 498.00 L 531.00 497.50 L 531.00 498.50 Z"/>
    <path d="M 529.50 500.00 L 530.50 500.00 L 530.50 501.00 L 529.50 501.00 Z"/>
    <path d="M 329.50 517.00 L 332.00 517.50 L 339.50 525.00 L 346.50 537.00 L 346.00 538.50 L 339.00 537.50 L 335.00 535.50 L 332.50 533.00 L 329.50 518.00 Z"/>
    <path d="M 647.50 530.00 L 648.00 529.50 L 648.00 530.50 Z"/>
    <path d="M 370.50 536.00 L 371.50 536.00 L 371.50 544.00 L 372.50 545.00 L 372.50 550.00 L 373.50 551.00 L 373.50 560.00 L 370.00 564.50 L 368.50 564.00 L 366.50 554.00 L 364.50 549.00 L 363.00 547.50 L 361.00 547.50 L 360.00 548.50 L 355.00 548.50 L 354.00 549.50 L 347.00 549.50 L 344.50 551.00 L 344.50 553.00 L 345.50 554.00 L 345.00 566.50 L 340.00 566.50 L 339.00 565.50 L 337.00 565.50 L 330.50 560.00 L 330.50 548.00 L 329.50 547.00 L 330.00 540.50 L 340.00 545.50 L 359.00 545.50 L 366.00 542.50 L 370.50 537.00 Z"/>
    <path d="M 462.50 550.00 L 463.00 549.50 L 466.00 551.50 L 467.50 554.00 L 467.50 648.00 L 469.50 651.00 L 469.00 654.50 L 460.00 654.50 L 457.50 653.00 L 457.50 651.00 L 460.50 647.00 L 460.50 645.00 L 461.50 644.00 L 461.50 624.00 L 460.50 623.00 L 460.50 577.00 L 461.50 576.00 L 462.00 550.50 Z"/>
    <path d="M 574.50 551.00 L 576.50 551.00 L 576.50 555.00 L 577.50 556.00 L 577.50 611.00 L 578.50 612.00 L 578.50 623.00 L 577.50 624.00 L 577.50 646.00 L 579.50 650.00 L 579.50 653.00 L 577.00 654.50 L 570.00 654.50 L 569.50 651.00 L 570.50 650.00 L 570.50 643.00 L 571.50 642.00 L 570.50 556.00 L 574.00 551.50 Z"/>
    <path d="M 472.50 564.00 L 473.00 563.50 L 473.50 565.00 L 482.00 572.50 L 495.00 581.50 L 501.00 584.50 L 504.00 584.50 L 505.00 582.50 L 510.50 588.00 L 513.50 594.00 L 519.00 601.50 L 523.50 597.00 L 524.50 594.00 L 535.00 579.50 L 535.00 586.50 L 546.00 580.50 L 563.00 566.50 L 565.00 565.50 L 566.50 566.00 L 566.50 570.00 L 558.00 578.50 L 538.00 591.50 L 529.50 600.00 L 522.50 610.00 L 522.50 657.00 L 517.00 657.50 L 516.00 663.50 L 515.50 652.00 L 516.50 651.00 L 516.50 638.00 L 515.50 637.00 L 515.50 609.00 L 512.50 605.00 L 511.50 602.00 L 506.00 595.50 L 484.00 579.50 L 474.50 571.00 L 472.50 565.00 Z"/>
    <path d="M 373.50 567.00 L 375.50 567.00 L 375.50 569.00 L 377.50 572.00 L 377.50 574.00 L 379.50 578.00 L 379.50 581.00 L 380.50 582.00 L 380.50 585.00 L 381.50 586.00 L 381.50 589.00 L 383.50 592.00 L 383.50 594.00 L 386.50 601.00 L 388.50 612.00 L 389.50 613.00 L 389.50 620.00 L 390.50 621.00 L 390.50 624.00 L 389.50 625.00 L 389.50 630.00 L 387.00 635.50 L 386.50 621.00 L 385.50 620.00 L 384.50 611.00 L 383.50 610.00 L 383.50 607.00 L 382.50 606.00 L 381.50 601.00 L 380.00 599.50 L 379.50 601.00 L 376.00 604.50 L 375.50 604.00 L 377.50 601.00 L 378.50 596.00 L 374.50 585.00 L 372.50 574.00 L 370.50 571.00 L 373.00 567.50 Z"/>
    <path d="M 658.50 590.00 L 659.00 589.50 L 659.50 591.00 L 657.50 594.00 L 657.50 596.00 L 650.00 607.50 L 649.50 606.00 L 658.00 590.50 Z"/>
    <path d="M 643.50 685.00 L 646.00 684.50 L 652.00 687.50 L 656.00 691.50 L 657.00 691.50 L 661.50 698.00 L 663.50 702.00 L 663.50 704.00 L 663.00 704.50 L 655.00 695.50 L 654.00 695.50 L 643.50 686.00 Z"/>
    <path d="M 630.50 687.00 L 637.00 686.50 L 638.00 687.50 L 640.00 687.50 L 648.50 696.00 L 652.50 702.00 L 645.00 706.50 L 639.00 707.50 L 635.00 709.50 L 632.00 709.50 L 628.00 711.50 L 625.00 711.50 L 621.00 713.50 L 618.00 713.50 L 614.00 715.50 L 611.00 715.50 L 608.00 717.50 L 607.50 700.00 L 619.00 692.50 L 630.00 687.50 Z"/>
    <path d="M 515.50 713.00 L 518.00 712.50 L 526.00 716.50 L 531.00 720.50 L 534.00 721.50 L 536.00 723.50 L 539.00 724.50 L 541.00 726.50 L 544.00 727.50 L 546.00 729.50 L 549.00 730.50 L 551.00 732.50 L 569.00 742.50 L 574.00 746.50 L 577.00 747.50 L 579.00 749.50 L 597.00 759.50 L 600.00 762.50 L 603.00 763.50 L 605.00 765.50 L 608.00 766.50 L 610.00 768.50 L 613.00 769.50 L 615.00 771.50 L 618.00 772.50 L 620.00 774.50 L 623.00 775.50 L 637.50 785.00 L 637.50 837.00 L 636.50 838.00 L 636.50 840.00 L 637.50 841.00 L 637.50 930.00 L 636.50 931.00 L 636.50 933.00 L 517.00 1001.50 L 515.00 999.50 L 508.00 996.50 L 502.00 991.50 L 489.00 984.50 L 484.00 980.50 L 466.00 970.50 L 461.00 966.50 L 456.00 964.50 L 451.00 960.50 L 448.00 959.50 L 446.00 957.50 L 428.00 947.50 L 423.00 943.50 L 420.00 942.50 L 403.00 931.50 L 401.00 931.50 L 396.50 929.00 L 396.50 790.00 L 395.50 789.00 L 396.00 782.50 L 422.00 769.50 L 424.00 767.50 L 437.00 760.50 L 440.00 757.50 L 443.00 756.50 L 455.00 748.50 L 460.00 746.50 L 462.00 744.50 L 465.00 743.50 L 467.00 741.50 L 470.00 740.50 L 472.00 738.50 L 475.00 737.50 L 477.00 735.50 L 480.00 734.50 L 482.00 732.50 L 485.00 731.50 L 487.00 729.50 L 490.00 728.50 L 492.00 726.50 L 495.00 725.50 L 512.00 714.50 L 515.00 713.50 Z"/>
    <path d="M 512.50 728.00 L 514.50 728.00 L 514.50 769.00 L 512.00 771.50 L 502.00 773.50 L 501.00 774.50 L 497.00 774.50 L 496.00 775.50 L 493.00 775.50 L 488.00 777.50 L 479.00 778.50 L 478.00 779.50 L 475.00 779.50 L 474.00 780.50 L 471.00 780.50 L 470.00 781.50 L 467.00 781.50 L 462.00 783.50 L 458.00 783.50 L 453.00 785.50 L 449.00 785.50 L 444.00 787.50 L 435.00 788.50 L 434.00 789.50 L 429.00 789.50 L 428.00 790.50 L 414.00 790.50 L 412.50 789.00 L 430.00 777.50 L 433.00 776.50 L 444.00 768.50 L 456.00 762.50 L 464.00 756.50 L 471.00 753.50 L 492.00 739.50 L 512.00 728.50 Z"/>
    <path d="M 520.50 728.00 L 521.00 727.50 L 527.00 731.50 L 534.00 734.50 L 536.00 736.50 L 539.00 737.50 L 541.00 739.50 L 546.00 741.50 L 561.00 751.50 L 564.00 752.50 L 569.00 756.50 L 572.00 757.50 L 584.00 765.50 L 599.00 773.50 L 614.00 783.50 L 617.00 786.50 L 621.00 788.50 L 622.50 791.00 L 612.00 791.50 L 611.00 790.50 L 607.00 790.50 L 606.00 789.50 L 592.00 787.50 L 591.00 786.50 L 584.00 785.50 L 580.00 783.50 L 577.00 783.50 L 576.00 782.50 L 573.00 782.50 L 572.00 781.50 L 569.00 781.50 L 568.00 780.50 L 565.00 780.50 L 564.00 779.50 L 561.00 779.50 L 556.00 777.50 L 552.00 777.50 L 547.00 775.50 L 543.00 775.50 L 542.00 774.50 L 531.00 772.50 L 523.00 769.50 L 521.50 768.00 L 520.50 729.00 Z"/>
    <path d="M 551.50 752.00 L 554.00 752.50 L 557.50 757.00 L 557.50 759.00 L 559.50 762.00 L 559.50 765.00 L 558.50 766.00 L 565.00 769.50 L 566.50 771.00 L 566.00 771.50 L 555.00 771.50 L 551.50 768.00 L 554.50 767.00 L 553.50 760.00 L 552.00 757.50 L 546.50 756.00 L 548.00 753.50 L 551.00 752.50 Z"/>
    <path d="M 477.50 754.00 L 487.00 753.50 L 489.50 755.00 L 489.50 758.00 L 477.00 766.50 L 465.00 767.50 L 464.00 768.50 L 462.50 768.00 L 466.00 765.50 L 474.00 763.50 L 480.00 760.50 L 482.50 758.00 L 477.00 757.50 L 471.00 760.50 L 469.50 760.00 L 469.50 758.00 L 472.00 755.50 L 477.00 754.50 Z"/>
    <path d="M 560.50 760.00 L 564.00 759.50 L 568.00 761.50 L 570.00 760.50 L 570.50 761.00 L 569.00 762.50 L 567.00 762.50 L 566.50 764.00 L 576.00 771.50 L 578.00 771.50 L 578.50 769.00 L 571.50 765.00 L 572.00 763.50 L 576.00 763.50 L 581.50 769.00 L 581.50 774.00 L 576.00 774.50 L 575.00 772.50 L 572.00 772.50 L 569.00 770.50 L 560.50 761.00 Z"/>
    <path d="M 460.50 770.00 L 464.00 769.50 L 465.00 770.50 L 475.00 770.50 L 476.00 769.50 L 480.00 769.50 L 480.50 772.00 L 478.00 773.50 L 461.00 774.50 L 460.00 775.50 L 458.00 775.50 L 456.50 774.00 L 460.00 770.50 Z"/>
    <path d="M 528.50 779.00 L 531.00 778.50 L 532.00 779.50 L 536.00 779.50 L 537.00 780.50 L 542.00 780.50 L 543.00 781.50 L 546.00 781.50 L 551.00 783.50 L 555.00 783.50 L 556.00 784.50 L 565.00 785.50 L 570.00 787.50 L 574.00 787.50 L 575.00 788.50 L 581.00 789.50 L 589.00 792.50 L 593.00 792.50 L 594.00 793.50 L 597.00 793.50 L 602.00 795.50 L 606.00 795.50 L 607.00 796.50 L 611.00 796.50 L 612.00 797.50 L 616.50 798.00 L 616.50 800.00 L 610.50 811.00 L 610.50 813.00 L 607.50 818.00 L 607.50 820.00 L 604.50 825.00 L 604.50 827.00 L 599.50 836.00 L 599.50 838.00 L 594.50 848.00 L 594.50 850.00 L 587.50 863.00 L 587.50 865.00 L 585.50 868.00 L 582.50 878.00 L 579.00 882.50 L 575.50 879.00 L 571.50 871.00 L 568.50 860.00 L 565.50 854.00 L 563.50 852.00 L 536.50 797.00 L 534.50 795.00 L 530.50 787.00 L 528.50 780.00 Z"/>
    <path d="M 517.50 780.00 L 518.00 779.50 L 521.50 784.00 L 524.50 791.00 L 530.50 800.00 L 563.50 866.00 L 567.50 879.00 L 572.50 889.00 L 571.50 895.00 L 569.00 898.50 L 551.00 898.50 L 550.00 899.50 L 476.00 899.50 L 475.00 898.50 L 466.00 898.50 L 464.00 897.50 L 461.50 894.00 L 461.50 889.00 L 462.50 888.00 L 462.50 886.00 L 465.50 882.00 L 467.50 878.00 L 467.50 876.00 L 470.50 872.00 L 476.50 860.00 L 476.50 858.00 L 496.50 818.00 L 498.50 816.00 L 510.50 791.00 L 512.50 789.00 L 517.00 780.50 Z"/>
    <path d="M 500.50 781.00 L 508.00 780.50 L 508.50 782.00 L 503.50 792.00 L 501.50 794.00 L 501.50 796.00 L 496.50 806.00 L 494.50 808.00 L 482.50 833.00 L 480.50 835.00 L 470.50 855.00 L 470.50 857.00 L 467.50 862.00 L 467.50 864.00 L 463.50 870.00 L 463.50 872.00 L 460.50 878.00 L 457.00 880.50 L 453.50 877.00 L 450.50 872.00 L 450.50 870.00 L 446.50 862.00 L 445.50 857.00 L 432.50 831.00 L 430.50 824.00 L 419.50 803.00 L 418.50 798.00 L 430.00 796.50 L 431.00 795.50 L 434.00 795.50 L 435.00 794.50 L 438.00 794.50 L 439.00 793.50 L 442.00 793.50 L 447.00 791.50 L 451.00 791.50 L 456.00 789.50 L 460.00 789.50 L 465.00 787.50 L 469.00 787.50 L 470.00 786.50 L 474.00 786.50 L 475.00 785.50 L 479.00 785.50 L 480.00 784.50 L 484.00 784.50 L 485.00 783.50 L 489.00 783.50 L 490.00 782.50 L 494.00 782.50 L 495.00 781.50 L 500.00 781.50 Z"/>
    <path d="M 409.50 799.00 L 410.00 798.50 L 412.50 801.00 L 418.50 813.00 L 418.50 815.00 L 422.50 822.00 L 422.50 824.00 L 426.50 831.00 L 426.50 833.00 L 435.50 850.00 L 435.50 852.00 L 439.50 859.00 L 439.50 861.00 L 442.50 866.00 L 442.50 868.00 L 450.50 884.00 L 450.50 886.00 L 452.50 890.00 L 452.50 895.00 L 453.50 896.00 L 453.50 898.00 L 452.00 899.50 L 449.00 899.50 L 443.00 902.50 L 441.00 902.50 L 430.00 908.50 L 428.00 908.50 L 421.00 912.50 L 419.00 912.50 L 410.00 917.50 L 409.50 800.00 Z"/>
    <path d="M 623.50 801.00 L 624.50 801.00 L 625.00 917.50 L 580.50 897.00 L 582.50 889.00 L 584.50 887.00 L 588.50 879.00 L 588.50 877.00 L 590.50 874.00 L 592.50 867.00 L 601.50 850.00 L 601.50 848.00 L 604.50 843.00 L 605.50 838.00 L 613.50 821.00 L 613.50 819.00 L 623.00 801.50 Z"/>
    <path d="M 517.50 819.00 L 520.00 818.50 L 521.00 819.50 L 525.00 819.50 L 527.00 820.50 L 530.50 824.00 L 531.50 833.00 L 530.50 834.00 L 530.50 836.00 L 525.00 841.50 L 524.00 841.50 L 523.50 840.00 L 525.50 837.00 L 524.50 830.00 L 521.00 825.50 L 517.00 825.50 L 516.00 824.50 L 510.50 829.00 L 510.50 836.00 L 511.50 838.00 L 528.50 856.00 L 536.00 866.50 L 537.50 865.00 L 539.50 853.00 L 540.50 851.00 L 542.00 850.50 L 543.50 852.00 L 543.50 862.00 L 540.50 868.00 L 539.50 874.00 L 543.00 874.50 L 547.00 872.50 L 547.50 874.00 L 541.50 879.00 L 542.50 881.00 L 542.00 882.50 L 537.00 879.50 L 534.00 879.50 L 527.00 886.50 L 522.00 889.50 L 519.00 889.50 L 518.00 890.50 L 508.00 890.50 L 501.00 887.50 L 494.50 882.00 L 491.50 876.00 L 490.50 866.00 L 495.50 856.00 L 500.00 851.50 L 506.50 849.00 L 501.50 840.00 L 501.50 831.00 L 503.50 827.00 L 511.00 820.50 L 517.00 819.50 Z"/>
    <path d="M 421.50 848.00 L 427.00 847.50 L 429.50 849.00 L 429.50 854.00 L 428.50 855.00 L 428.50 857.00 L 425.50 861.00 L 425.50 863.00 L 428.50 865.00 L 432.50 873.00 L 432.50 878.00 L 431.50 879.00 L 431.50 881.00 L 427.00 885.50 L 423.00 885.50 L 421.00 884.50 L 419.50 883.00 L 416.50 876.00 L 417.50 866.00 L 419.00 863.50 L 423.50 861.00 L 425.50 857.00 L 424.50 852.00 L 422.00 850.50 L 420.50 849.00 L 421.00 848.50 Z"/>
    <path d="M 507.50 853.00 L 509.00 852.50 L 509.50 854.00 L 511.00 854.50 L 528.50 872.00 L 529.50 877.00 L 527.00 879.50 L 522.00 881.50 L 514.00 881.50 L 506.50 875.00 L 503.50 867.00 L 503.50 860.00 L 507.00 853.50 Z"/>
    <path d="M 611.50 862.00 L 615.00 861.50 L 618.50 866.00 L 618.50 868.00 L 619.50 869.00 L 619.50 875.00 L 616.50 880.00 L 611.00 884.50 L 606.50 881.00 L 604.50 877.00 L 604.50 867.00 L 607.00 864.50 L 611.00 862.50 Z"/>
    <path d="M 423.50 866.00 L 425.00 865.50 L 426.50 867.00 L 426.50 869.00 L 428.50 872.00 L 428.50 878.00 L 426.00 880.50 L 422.50 879.00 L 420.50 874.00 L 420.50 870.00 L 422.00 869.50 L 423.50 867.00 Z"/>
    <path d="M 609.50 866.00 L 614.00 865.50 L 616.50 870.00 L 616.50 873.00 L 614.50 877.00 L 612.00 879.50 L 611.00 879.50 L 607.50 875.00 L 607.50 868.00 L 609.00 866.50 Z"/>
    <path d="M 574.50 904.00 L 576.00 903.50 L 577.00 904.50 L 580.00 904.50 L 591.00 909.50 L 593.00 909.50 L 598.00 912.50 L 600.00 912.50 L 603.00 914.50 L 610.00 916.50 L 615.00 919.50 L 622.00 921.50 L 624.00 922.50 L 625.50 925.00 L 616.00 929.50 L 614.00 931.50 L 611.00 932.50 L 609.00 934.50 L 606.00 935.50 L 589.00 946.50 L 584.00 948.50 L 567.00 959.50 L 562.00 961.50 L 560.00 963.50 L 557.00 964.50 L 540.00 975.50 L 523.00 983.50 L 521.00 983.50 L 520.50 982.00 L 523.50 976.00 L 531.50 964.00 L 534.50 961.00 L 539.50 952.00 L 542.50 949.00 L 543.50 946.00 L 546.50 943.00 L 550.50 936.00 L 553.50 933.00 L 560.50 922.00 L 574.00 904.50 Z"/>
    <path d="M 454.50 905.00 L 459.00 904.50 L 462.50 908.00 L 471.50 922.00 L 478.50 930.00 L 488.50 945.00 L 489.50 948.00 L 492.50 951.00 L 494.50 955.00 L 497.50 958.00 L 509.50 976.00 L 512.50 979.00 L 513.50 981.00 L 513.00 983.50 L 503.00 979.50 L 501.00 977.50 L 496.00 975.50 L 487.00 969.50 L 478.00 965.50 L 476.00 963.50 L 473.00 962.50 L 470.00 959.50 L 467.00 958.50 L 460.00 953.50 L 453.00 950.50 L 446.00 945.50 L 441.00 943.50 L 439.00 941.50 L 431.00 937.50 L 410.50 924.00 L 412.00 921.50 L 414.00 921.50 L 419.00 918.50 L 424.00 917.50 L 427.00 915.50 L 429.00 915.50 L 432.00 913.50 L 434.00 913.50 L 437.00 911.50 L 442.00 910.50 L 447.00 907.50 L 454.00 905.50 Z"/>
    <path d="M 475.50 906.00 L 564.00 905.50 L 564.50 907.00 L 561.50 910.00 L 553.50 922.00 L 552.50 925.00 L 523.50 967.00 L 519.50 975.00 L 517.00 976.50 L 512.50 972.00 L 506.50 963.00 L 505.50 960.00 L 498.50 951.00 L 469.50 907.00 L 475.00 906.50 Z"/>
  </g>
</svg>
