<?xml version="1.0" standalone="no"?>
<!DOCTYPE svg PUBLIC "-//W3C//DTD SVG 20010904//EN"
 "http://www.w3.org/TR/2001/REC-SVG-20010904/DTD/svg10.dtd">
<svg version="1.0" xmlns="http://www.w3.org/2000/svg"
 width="1024.000000pt" height="1024.000000pt" viewBox="0 0 1024.000000 1024.000000"
 preserveAspectRatio="xMidYMid meet">
<metadata>
Created by potrace 1.16, written by Peter Selinger 2001-2019
</metadata>
<g transform="translate(0.000000,1024.000000) scale(0.100000,-0.100000)"
fill="#000000" stroke="none">
<path d="M4465 9630 c10 -140 44 -270 105 -397 27 -58 50 -113 50 -122 0 -12
2 -13 8 -3 12 17 135 -205 174 -313 25 -68 29 -88 18 -95 -9 -5 3 -18 41 -42
60 -39 110 -90 154 -160 16 -25 45 -56 65 -67 29 -17 31 -21 13 -21 -15 0 -49
28 -103 84 -48 49 -104 97 -138 115 -31 17 -66 38 -77 46 -20 16 -20 16 3 33
21 17 22 21 13 64 -16 70 -44 136 -100 234 -57 99 -68 87 -25 -31 45 -127 64
-188 60 -193 -8 -7 -157 77 -206 117 -25 20 -78 66 -119 104 -41 37 -78 67
-82 67 -11 0 120 -226 179 -310 25 -36 71 -90 102 -121 l56 -57 -86 5 c-47 2
-152 11 -234 19 -82 8 -151 12 -154 9 -3 -3 0 -5 6 -5 6 0 55 -30 108 -66 196
-134 277 -174 378 -189 l49 -8 -38 -20 c-22 -11 -68 -42 -104 -69 -36 -28 -75
-55 -86 -60 -12 -5 -27 -19 -34 -30 -13 -21 -12 -21 70 -14 46 3 118 15 159
26 87 23 130 25 130 8 -1 -28 -39 -95 -68 -120 -44 -37 -134 -64 -303 -93
-250 -42 -355 -84 -452 -183 -51 -52 -59 -65 -77 -137 -46 -174 14 -308 158
-352 118 -36 277 30 298 125 3 15 8 33 10 41 16 51 -59 151 -114 151 l-27 -1
30 -13 c90 -40 116 -146 54 -212 -38 -41 -154 -70 -218 -55 -64 14 -108 49
-138 109 -23 47 -25 61 -21 132 4 64 10 87 31 119 78 117 191 173 441 216 170
29 221 46 365 120 128 66 125 67 173 -29 72 -143 163 -250 230 -272 48 -15
163 104 243 249 42 76 55 93 77 95 17 2 71 -19 150 -58 126 -62 146 -67 440
-124 212 -40 358 -180 358 -340 -1 -133 -82 -216 -210 -216 -64 0 -109 18
-142 58 -38 45 -43 82 -20 136 21 46 57 72 117 86 l30 7 -27 8 c-21 5 -41 1
-75 -16 -62 -31 -85 -66 -90 -131 -4 -46 0 -59 25 -99 43 -67 120 -104 201
-96 133 12 228 108 239 242 6 76 -15 152 -59 219 -35 52 -129 128 -194 156
-50 21 -190 55 -315 75 -133 22 -165 32 -248 72 -71 35 -74 37 -68 66 3 16 6
36 6 45 0 12 11 14 68 8 37 -4 104 -14 150 -22 46 -8 88 -14 94 -12 6 2 -8 16
-30 31 -22 14 -55 44 -72 66 -18 22 -68 61 -111 87 -43 26 -77 50 -74 52 2 2
14 -3 27 -12 49 -35 148 -14 239 50 99 69 244 166 279 186 l35 19 -98 -6 c-54
-3 -126 -12 -160 -20 -69 -16 -173 -20 -181 -6 -6 9 0 19 151 236 91 132 160
245 148 245 -3 0 -43 -31 -88 -68 -130 -108 -290 -222 -311 -222 -9 0 -7 62 4
95 5 17 29 84 53 150 130 352 159 435 172 491 18 77 31 234 19 234 -5 0 -27
-42 -48 -93 -52 -124 -100 -205 -204 -344 -49 -65 -116 -159 -150 -209 -33
-51 -73 -101 -88 -113 l-28 -22 -12 23 c-9 15 -11 43 -7 82 7 69 -5 70 -39 3
-11 -23 -29 -52 -38 -65 l-18 -22 -20 32 c-11 18 -35 78 -52 132 l-32 99 -34
-96 c-36 -107 -63 -159 -79 -154 -5 2 -23 24 -40 49 -59 90 -56 89 -49 18 5
-53 3 -69 -10 -79 -13 -11 -13 -16 -2 -34 18 -28 29 -77 18 -77 -8 0 -53 68
-174 260 -22 36 -73 108 -113 161 -103 136 -142 198 -201 327 -29 63 -56 117
-59 120 -4 4 -4 -40 0 -98z m130 -260 c21 -41 78 -136 126 -211 82 -125 105
-170 79 -154 -19 12 -182 269 -226 355 -42 84 -84 213 -84 255 1 11 16 -23 34
-75 18 -52 50 -129 71 -170z m1310 193 c-18 -101 -116 -294 -243 -480 -23 -34
-42 -67 -42 -72 0 -13 -20 -14 -38 -2 -10 6 -9 11 4 22 21 17 115 158 181 269
56 97 93 172 119 248 22 61 29 67 19 15z m-695 -465 c0 -12 19 -50 41 -85 23
-35 39 -66 36 -69 -3 -4 -24 21 -45 54 -22 34 -43 58 -46 54 -4 -3 -16 -27
-28 -52 -11 -25 -22 -40 -25 -33 -2 6 7 34 21 62 14 28 26 59 26 71 0 11 5 20
10 20 6 0 10 -10 10 -22z m543 -49 c-9 -24 -32 -70 -50 -101 -19 -32 -52 -97
-74 -144 -21 -48 -42 -84 -45 -81 -10 10 64 178 123 277 32 54 59 96 61 95 2
-1 -5 -22 -15 -46z m-621 -178 c31 -46 19 -43 -42 10 -59 51 -77 79 -65 99 7
11 72 -56 107 -109z m248 73 c0 -13 -6 -24 -13 -24 -7 0 -30 -12 -52 -26 l-40
-27 31 34 c18 19 37 44 43 57 14 27 31 20 31 -14z m632 -6 c-22 -36 -110 -115
-247 -223 -89 -70 -135 -128 -135 -172 0 -25 26 -31 58 -14 9 5 40 12 67 16
73 11 45 -9 -40 -28 -38 -9 -78 -19 -87 -22 -29 -12 -22 52 12 111 22 39 63
79 175 169 80 64 160 134 177 156 38 47 47 50 20 7z m-1514 -103 c35 -52 179
-232 192 -240 6 -3 10 -12 10 -18 0 -20 -158 154 -223 246 -92 131 -94 135
-49 92 23 -21 55 -57 70 -80z m955 80 c-9 -19 -21 -35 -26 -35 -5 0 -7 3 -5 8
24 48 32 62 39 62 5 0 1 -16 -8 -35z m-843 -151 c0 -3 -13 4 -30 16 -16 12
-30 24 -30 26 0 3 14 -4 30 -16 17 -12 30 -24 30 -26z m446 -87 c19 -38 33
-74 31 -80 -2 -7 -25 31 -52 83 -26 52 -40 88 -30 80 9 -7 32 -45 51 -83z
m335 32 c-22 -56 -50 -103 -57 -96 -6 5 63 147 71 147 3 0 -4 -23 -14 -51z
m-710 4 c13 -16 12 -17 -3 -4 -10 7 -18 15 -18 17 0 8 8 3 21 -13z m947 -25
c23 -23 12 -37 -50 -67 -35 -16 -94 -58 -133 -93 -38 -35 -86 -75 -105 -88
-31 -21 -30 -17 16 31 27 30 67 75 88 102 35 44 138 125 162 126 5 1 15 -4 22
-11z m-837 -118 c10 -25 4 -90 -9 -90 -4 0 -14 5 -22 10 -13 9 -13 12 3 21 20
12 22 35 4 69 -7 14 -16 34 -20 45 -10 29 31 -22 44 -55z m1319 -19 c-21 -12
-153 -53 -280 -87 -58 -15 -125 -36 -149 -46 -24 -10 -47 -16 -50 -12 -20 19
108 65 334 119 150 36 168 39 145 26z m-1618 -42 c209 -56 308 -98 308 -131 0
-6 -8 -4 -17 4 -36 32 -104 58 -234 92 -128 32 -249 74 -220 75 7 1 81 -17
163 -40z m184 31 c43 -17 24 -19 -36 -5 -44 11 -49 13 -23 14 17 1 44 -4 59
-9z m851 -31 c-6 -47 -29 -75 -69 -84 -21 -5 -29 -3 -34 10 -5 11 8 31 42 66
26 27 52 49 57 49 5 0 7 -19 4 -41z m-579 -14 c39 -37 44 -47 32 -55 -17 -12
-60 -4 -76 13 -17 17 -28 87 -14 87 6 0 32 -20 58 -45z m59 -121 c-3 -3 -12
-4 -19 -1 -8 3 -5 6 6 6 11 1 17 -2 13 -5z m547 -36 c-4 -7 -19 -31 -33 -53
-13 -22 -30 -58 -37 -80 -11 -36 -13 -37 -13 -12 -1 31 19 75 56 125 23 31 42
45 27 20z m-773 -25 c13 -16 12 -17 -3 -4 -10 7 -18 15 -18 17 0 8 8 3 21 -13z
m602 0 c-3 -10 -35 -46 -70 -80 -57 -56 -70 -63 -105 -63 -35 0 -98 23 -98 36
0 2 13 -2 30 -11 16 -8 46 -15 67 -15 34 1 45 8 108 75 39 41 71 75 72 75 1 0
0 -8 -4 -17z m-471 -71 c32 -71 15 -57 -20 16 -18 37 -25 58 -16 47 9 -11 25
-39 36 -63z m740 48 l22 -20 -34 0 c-28 0 -43 -9 -82 -51 -48 -51 -57 -72 -38
-84 6 -3 10 3 10 14 0 29 24 26 38 -4 7 -14 12 -30 12 -35 0 -13 -37 -13 -45
0 -3 6 -17 10 -31 10 -13 0 -24 3 -24 6 0 19 127 181 143 183 4 1 17 -8 29
-19z m-574 -21 c45 -33 49 -39 29 -39 -16 0 -97 69 -81 70 5 0 29 -14 52 -31z
m-305 11 c-23 -5 -51 -14 -62 -19 -11 -6 -23 -11 -28 -11 -26 2 68 39 97 38
35 0 35 0 -7 -8z m32 -30 c3 -5 -1 -10 -9 -10 -9 0 -16 5 -16 10 0 6 4 10 9
10 6 0 13 -4 16 -10z m1000 -45 l30 -25 -37 21 c-21 11 -38 23 -38 25 0 10 17
2 45 -21z m-905 -62 c0 -14 -12 -29 -34 -42 -48 -30 -51 -27 -22 26 16 28 24
54 21 67 -6 19 -4 18 14 -4 11 -14 21 -35 21 -47z m486 10 c8 -54 -9 -96 -41
-101 -16 -3 -14 1 9 20 22 19 27 29 21 47 -9 30 -26 22 -52 -25 -17 -30 -23
-34 -23 -18 0 29 20 86 38 107 26 29 40 20 48 -30z m242 40 c-10 -2 -26 -2
-35 0 -10 3 -2 5 17 5 19 0 27 -2 18 -5z m-556 -33 c23 -17 44 -60 31 -60 -3
0 -16 11 -29 25 -25 28 -49 32 -57 12 -8 -20 3 -32 51 -56 42 -21 55 -41 27
-41 -8 0 -31 12 -52 26 l-38 26 -3 -46 c-4 -60 21 -106 101 -185 62 -60 67
-64 102 -58 53 9 140 79 186 150 47 73 55 81 38 42 -48 -110 -170 -215 -251
-215 -35 0 -133 102 -169 176 -29 58 -31 70 -25 126 6 60 26 98 51 98 7 0 24
-9 37 -20z"/>
<path d="M3965 9256 c-27 -7 -133 -53 -235 -103 -102 -50 -242 -118 -312 -151
-235 -112 -506 -269 -768 -445 -117 -79 -384 -286 -500 -387 -58 -51 -150
-131 -205 -178 -162 -139 -258 -237 -414 -420 -163 -193 -299 -371 -365 -477
-24 -38 -79 -126 -124 -195 -88 -138 -216 -378 -287 -540 -156 -354 -289
-1025 -260 -1315 9 -89 22 -75 24 25 2 74 52 320 94 455 58 187 182 459 230
504 31 28 43 22 69 -38 16 -37 76 -293 79 -335 1 -25 17 35 33 124 48 272 134
597 207 781 81 207 331 690 467 904 75 118 93 145 192 285 120 168 120 169 84
143 -69 -51 -299 -288 -392 -404 -415 -520 -719 -1042 -881 -1510 -44 -125
-37 -82 15 97 68 235 136 387 314 699 186 327 428 659 657 902 73 78 250 233
323 283 30 21 96 73 146 116 478 412 919 697 1338 865 54 22 100 38 103 36 2
-3 -65 -39 -149 -80 -280 -140 -553 -316 -841 -544 -496 -394 -743 -697 -1033
-1270 -115 -227 -116 -229 -253 -668 -67 -216 -132 -576 -157 -865 -18 -223
-12 -522 17 -770 20 -174 22 -207 14 -198 -11 10 -56 344 -65 481 -33 484 36
993 205 1502 57 172 59 219 4 98 -87 -191 -183 -490 -220 -683 -11 -58 -28
-143 -39 -190 -35 -159 -40 -185 -49 -265 -49 -414 1 -811 168 -1323 65 -199
146 -366 255 -527 70 -103 166 -209 209 -232 l30 -15 -21 33 c-138 221 -225
422 -293 675 -23 88 -30 131 -26 177 5 81 52 302 84 399 l25 77 -35 89 c-60
146 -145 427 -134 438 2 2 11 -22 21 -54 34 -108 171 -411 181 -400 2 2 17 37
34 79 18 43 56 113 85 158 l54 81 -19 51 c-28 72 -76 296 -90 414 -14 119 -7
344 16 500 22 158 108 505 121 492 3 -3 -11 -80 -30 -172 -52 -242 -66 -368
-66 -588 0 -216 10 -290 66 -491 35 -125 54 -171 54 -133 0 42 158 173 181
150 5 -5 27 -72 49 -149 22 -76 47 -157 57 -179 28 -63 99 -178 128 -205 26
-24 25 -23 -9 50 -35 74 -76 255 -92 406 -6 59 -5 65 26 109 18 26 45 62 61
80 l29 33 -20 152 c-12 84 -19 155 -17 157 3 2 13 -29 22 -69 10 -40 28 -101
39 -134 l22 -61 34 29 c19 16 59 43 88 59 28 17 52 33 52 35 0 3 -9 15 -20 27
-40 42 -66 187 -39 214 9 9 7 35 -6 105 -10 51 -22 97 -27 102 -4 6 -8 26 -8
46 0 27 -10 47 -41 85 -74 90 -78 109 -50 230 10 47 109 389 152 526 l30 96
107 63 c209 123 292 181 298 209 31 150 167 516 246 660 127 232 247 407 439
637 104 125 159 180 209 209 8 5 -18 -27 -57 -70 -86 -95 -263 -328 -320 -423
-22 -37 -58 -96 -80 -132 -132 -215 -238 -464 -302 -704 -41 -152 -41 -152 14
-115 80 54 90 54 211 -7 60 -30 112 -54 116 -54 4 0 8 35 8 78 0 142 63 498
99 559 15 26 13 4 -8 -89 -32 -138 -44 -255 -45 -422 l-1 -158 115 -60 c63
-33 134 -73 158 -89 23 -16 42 -25 42 -21 0 4 -13 53 -29 108 -16 56 -42 159
-58 230 -26 119 -28 145 -27 329 1 220 11 304 55 475 33 126 79 273 84 268 2
-2 -7 -48 -21 -103 -110 -453 -103 -841 22 -1240 22 -69 32 -87 78 -130 47
-44 54 -56 60 -100 13 -90 14 -91 104 -146 118 -72 203 -133 314 -226 51 -43
104 -86 118 -96 14 -10 -11 1 -55 24 -91 48 -230 138 -358 235 l-88 65 5 -60
c3 -33 21 -113 40 -179 61 -211 67 -280 25 -318 -10 -9 -19 -20 -19 -24 0 -4
39 -25 88 -45 83 -36 147 -61 361 -143 52 -20 91 -37 85 -39 -8 -3 -446 144
-533 179 -33 13 -34 12 -68 -27 -39 -44 -93 -124 -93 -138 0 -4 64 -40 143
-78 161 -79 150 -80 -39 -4 l-131 52 -39 -43 c-34 -39 -49 -46 -119 -65 -44
-11 -87 -27 -95 -35 -13 -14 -1 -14 110 -8 69 5 190 8 270 8 169 0 213 -9 374
-82 l109 -49 141 72 c78 40 152 75 165 78 22 5 23 9 16 54 -4 32 -16 58 -35
78 -42 45 -107 150 -131 214 -17 45 -22 80 -23 176 -1 132 5 151 58 197 l31
26 -100 46 c-239 109 -354 181 -463 288 -170 167 -278 378 -322 625 -55 318
-31 608 82 953 110 337 243 519 380 520 69 0 93 -51 63 -135 -8 -21 -13 -41
-11 -43 8 -8 67 76 78 110 24 79 -25 164 -107 187 -49 13 -76 13 -140 -3z
m-635 -523 c-88 -74 -530 -521 -596 -603 -305 -377 -564 -895 -679 -1360 -85
-340 -103 -491 -112 -890 -5 -235 -3 -308 11 -417 10 -73 14 -138 10 -144 -9
-16 -56 88 -77 173 -35 139 -49 554 -27 793 53 572 270 1143 625 1640 149 209
357 429 604 636 115 97 278 220 291 219 3 -1 -20 -22 -50 -47z m124 -718 c-5
-137 -10 -192 -17 -179 -15 26 4 396 20 381 2 -3 1 -93 -3 -202z m536 -1261
c0 -2 -13 2 -30 11 -16 9 -30 18 -30 21 0 2 14 -2 30 -11 17 -9 30 -18 30 -21z"/>
<path d="M6284 9246 c-90 -41 -101 -201 -19 -276 l28 -25 -18 34 c-9 18 -17
53 -18 78 -2 36 3 48 22 64 65 53 183 -11 275 -150 136 -204 224 -494 257
-851 17 -179 -3 -422 -46 -572 -50 -174 -158 -366 -276 -493 -97 -104 -352
-259 -509 -310 -30 -10 -68 -24 -83 -32 l-28 -14 30 -34 c39 -45 55 -118 49
-236 -3 -80 -9 -104 -36 -162 -17 -37 -58 -101 -92 -141 -33 -40 -62 -86 -66
-102 -6 -29 -5 -30 113 -83 65 -29 145 -71 179 -92 33 -22 64 -39 68 -39 4 0
50 20 101 45 180 88 358 111 613 81 l144 -18 36 43 c68 79 123 154 154 207 16
29 32 51 35 49 7 -7 -38 -90 -105 -197 -52 -81 -58 -96 -44 -102 27 -11 227
-65 230 -63 2 2 19 38 37 81 41 93 45 85 11 -21 l-24 -76 39 -31 c21 -17 41
-38 44 -47 15 -49 -61 -335 -122 -454 -19 -38 -32 -71 -30 -73 7 -7 105 122
160 210 89 142 165 259 207 319 53 72 101 191 157 382 33 113 42 137 38 95
-11 -103 -69 -333 -109 -431 -6 -14 5 -17 71 -22 70 -6 149 -23 194 -41 13 -6
20 12 42 102 68 278 75 564 22 872 -16 92 -18 106 -10 98 11 -11 47 -216 66
-378 25 -213 21 -454 -11 -615 -11 -55 -20 -105 -20 -111 0 -5 21 -20 48 -33
26 -13 70 -40 98 -62 28 -21 53 -39 56 -39 7 0 32 112 48 218 7 40 14 71 16
69 3 -2 0 -76 -7 -164 l-11 -159 47 -77 48 -77 -6 -93 c-6 -101 -38 -267 -68
-354 -38 -113 6 -70 76 72 75 153 82 195 90 560 19 813 -84 1312 -396 1925
-196 385 -373 622 -744 996 -104 105 -203 201 -219 213 -16 12 -27 23 -25 26
8 7 267 -199 391 -312 383 -349 633 -712 853 -1240 160 -384 222 -692 232
-1149 6 -268 -2 -402 -31 -571 -9 -53 -9 -73 -1 -73 25 0 106 -62 130 -100 14
-22 30 -40 35 -40 13 0 46 112 75 255 38 182 51 386 37 547 -10 115 -56 387
-92 542 -19 84 -4 61 23 -36 83 -297 117 -505 117 -717 0 -238 -32 -455 -90
-600 l-21 -54 26 -36 c59 -80 95 -141 125 -214 18 -42 36 -75 39 -72 8 4 102
223 156 360 31 78 35 84 30 45 -8 -61 -101 -342 -137 -414 l-29 -58 21 -50
c36 -84 81 -294 86 -408 5 -95 3 -116 -25 -222 -66 -252 -192 -526 -290 -632
-33 -36 -34 -38 -11 -31 57 17 163 123 237 237 95 146 188 345 251 538 132
402 165 603 166 1005 0 198 -3 268 -22 400 -34 240 -94 500 -161 695 -55 164
-149 386 -158 376 -2 -2 17 -66 42 -142 62 -187 97 -315 139 -524 38 -184 48
-266 68 -548 13 -198 2 -465 -31 -712 -20 -147 -51 -304 -58 -296 -2 2 5 66
16 143 36 247 43 375 38 673 -4 265 -11 348 -47 600 -31 215 -96 456 -212 785
-177 500 -536 1069 -872 1383 -104 97 -396 337 -546 448 -206 154 -450 302
-685 416 -120 58 -90 53 55 -10 366 -157 710 -368 1070 -656 166 -133 361
-323 398 -390 16 -28 58 -89 93 -136 237 -319 424 -638 592 -1010 152 -337
206 -516 305 -1010 l8 -45 17 55 c9 30 24 84 32 120 17 69 73 200 86 200 36 0
180 -314 243 -531 37 -130 76 -354 76 -441 0 -43 4 -78 9 -78 14 0 24 178 18
314 -14 329 -162 884 -322 1211 -35 72 -101 193 -147 270 -394 660 -792 1101
-1435 1587 -367 278 -742 503 -1109 668 -98 44 -201 92 -229 106 -176 95 -182
97 -268 101 -56 2 -92 -1 -113 -11z m764 -640 c76 -94 199 -275 291 -429 166
-276 286 -625 333 -967 17 -129 17 -615 0 -735 -28 -187 -53 -315 -92 -474
-40 -162 -111 -364 -132 -377 -14 -9 -15 -22 61 431 33 198 66 412 72 475 16
157 16 564 1 670 -44 298 -122 584 -215 783 -115 246 -294 536 -453 739 -68
86 -124 160 -124 165 0 12 175 -178 258 -281z m-223 -108 c83 -264 120 -544
97 -744 -24 -205 -148 -632 -226 -779 -29 -53 -41 -65 -112 -106 -43 -26 -131
-81 -194 -122 -119 -77 -268 -162 -274 -156 -4 4 172 149 258 212 28 21 89 61
136 89 47 28 98 63 114 77 80 72 218 498 247 762 14 127 6 418 -15 544 -8 50
-29 144 -46 210 -34 134 -32 125 -25 125 2 0 20 -51 40 -112z m122 -220 c-3
-8 -6 -5 -6 6 -1 11 2 17 5 13 3 -3 4 -12 1 -19z m31 -303 c0 -71 -3 -152 -8
-180 -5 -36 -8 -7 -9 110 0 88 -3 205 -6 260 l-4 100 14 -80 c7 -44 13 -138
13 -210z m136 -122 c38 -183 50 -303 50 -493 -1 -188 -11 -278 -50 -434 -50
-199 -116 -319 -236 -432 -114 -108 -418 -256 -725 -354 -73 -23 -137 -40
-144 -38 -10 3 122 57 356 144 142 52 348 157 432 220 152 114 239 256 297
490 64 252 62 569 -4 929 -33 184 -17 161 24 -32z m1335 83 c66 -49 349 -340
462 -476 225 -271 450 -612 598 -908 71 -141 89 -187 171 -428 62 -180 75
-258 17 -99 -126 343 -339 744 -558 1052 -231 323 -374 497 -593 723 -134 138
-163 170 -151 170 4 0 28 -15 54 -34z m-1113 -1273 c-9 -51 -65 -220 -87 -264
-19 -38 -108 -109 -209 -166 -154 -88 -632 -295 -646 -280 -2 2 74 38 169 81
471 215 606 292 664 381 18 27 50 102 70 167 21 65 40 118 42 118 2 0 0 -17
-3 -37z m471 -355 c-3 -8 -6 -5 -6 6 -1 11 2 17 5 13 3 -3 4 -12 1 -19z"/>
<path d="M4813 7961 c-27 -17 -36 -34 -66 -128 -19 -59 -37 -120 -41 -135 l-6
-28 36 25 c45 30 185 85 219 85 44 0 27 -15 -42 -38 -116 -37 -167 -73 -197
-136 -30 -64 -34 -85 -11 -66 15 12 77 10 148 -6 26 -6 27 -5 27 35 0 48 17
60 58 42 60 -28 282 -70 354 -68 70 2 79 -1 196 -55 79 -36 147 -76 192 -113
39 -31 70 -50 70 -43 0 7 -11 37 -25 66 -21 46 -31 56 -79 77 -30 13 -94 35
-142 49 -48 14 -90 29 -93 32 -3 4 23 4 59 1 64 -6 136 -29 212 -68 22 -11 43
-19 48 -17 9 4 -25 139 -46 179 -17 33 -82 69 -169 94 -68 20 -101 41 -45 30
54 -11 119 -34 183 -64 31 -15 57 -23 57 -17 0 6 -16 65 -35 131 -19 66 -35
120 -35 121 0 1 -18 9 -39 19 -50 22 -65 16 -92 -37 -30 -59 -71 -118 -129
-184 -130 -149 -207 -154 -332 -21 -68 72 -138 166 -164 220 -20 42 -27 44
-71 18z m793 -32 c19 -22 19 -22 -1 -11 -11 6 -27 16 -35 22 -13 8 -13 10 1
10 9 0 24 -10 35 -21z"/>
<path d="M4990 7482 c13 -18 20 -35 16 -39 -15 -16 -125 -5 -190 17 -36 13
-69 20 -73 17 -4 -4 8 -28 25 -52 18 -25 32 -48 32 -52 0 -3 -24 -2 -52 1 -61
8 -159 49 -184 77 -9 11 -20 19 -24 19 -15 0 18 -185 41 -232 11 -21 19 -42
19 -47 0 -12 -73 12 -107 34 -12 8 -24 15 -27 15 -9 0 26 -104 51 -154 14 -27
26 -68 28 -90 1 -23 14 -111 29 -196 14 -85 26 -161 26 -167 0 -7 -11 -13 -25
-13 -14 0 -37 -11 -50 -25 -22 -21 -25 -33 -25 -93 0 -142 77 -299 171 -347
23 -13 30 -27 48 -106 12 -50 21 -105 21 -123 0 -31 -2 -33 -52 -45 -122 -27
-357 -162 -448 -256 -43 -44 -45 -48 -45 -107 l0 -61 -63 -35 c-72 -39 -92
-68 -74 -107 7 -14 12 -30 12 -34 0 -4 -44 -27 -97 -51 -54 -23 -139 -62 -189
-86 -50 -24 -96 -44 -102 -44 -8 0 -12 20 -12 55 0 93 -35 140 -188 257 -57
44 -62 51 -62 85 0 21 16 83 35 138 41 116 43 147 13 175 -59 54 -116 10 -196
-153 -29 -59 -56 -107 -60 -107 -4 0 -20 7 -37 16 -16 9 -60 28 -96 43 -91 38
-143 83 -185 163 -20 37 -54 84 -77 104 -39 36 -41 36 -101 29 -34 -4 -70 -7
-81 -6 -68 5 -195 -3 -223 -14 -48 -21 -42 -50 24 -131 120 -147 188 -215 272
-272 48 -33 105 -79 127 -102 22 -23 60 -56 85 -73 77 -53 231 -189 271 -240
49 -61 57 -91 34 -117 -16 -18 -17 -27 -7 -92 23 -146 33 -275 30 -367 l-3
-95 -33 -8 c-23 -6 -32 -14 -28 -23 3 -8 11 -61 17 -118 l12 -105 -26 -51
c-55 -104 -28 -271 79 -490 66 -135 132 -209 233 -259 90 -45 115 -47 210 -22
185 50 294 177 348 402 10 43 20 78 24 78 3 0 15 -30 27 -67 77 -242 91 -575
46 -1079 l-6 -71 49 1 50 1 23 170 c12 94 26 190 29 215 l7 45 7 -32 c3 -18
11 -33 16 -33 6 0 4 18 -5 42 -16 46 -44 162 -44 181 0 7 16 -17 35 -53 20
-36 46 -76 60 -89 l24 -25 11 29 c6 16 14 89 17 162 6 123 5 135 -13 156 -11
12 -33 40 -49 62 l-29 39 64 -47 c36 -26 112 -80 170 -120 173 -120 298 -212
294 -216 -2 -2 -80 34 -173 80 l-170 84 -10 -65 c-18 -118 -41 -326 -41 -369
0 -22 -4 -41 -8 -41 -4 0 -22 18 -39 41 l-32 41 -6 -34 c-3 -18 -5 -63 -3 -99
l3 -67 386 231 386 231 6 90 c3 50 4 92 3 93 -1 1 -24 5 -51 8 -300 38 -579
191 -775 425 -29 35 -37 49 -23 41 12 -6 25 -16 28 -21 10 -15 192 -152 277
-208 129 -84 370 -179 494 -195 l42 -5 7 294 c4 161 4 345 0 408 -7 110 -8
116 -45 172 -30 47 -71 84 -194 177 -153 117 -176 140 -191 186 -6 20 5 14 61
-32 84 -67 190 -136 222 -144 14 -3 27 -1 32 7 8 13 55 -41 109 -128 40 -64
41 -64 124 66 32 50 63 92 68 92 11 0 11 -3 -1 -35 -9 -24 -8 -26 10 -20 41
13 108 57 199 130 52 41 98 75 102 75 5 0 9 -11 9 -24 0 -31 -54 -80 -195
-178 -114 -78 -146 -108 -208 -192 l-37 -49 0 -405 0 -404 48 6 c187 27 407
113 572 223 l125 85 -50 -52 c-150 -154 -379 -263 -600 -285 -114 -12 -105 -2
-105 -114 l0 -99 376 -227 c206 -125 377 -225 379 -223 3 2 -6 48 -20 101 -24
97 -48 258 -61 417 -3 47 -8 88 -10 92 -2 3 -37 -12 -77 -34 -76 -42 -268
-130 -273 -125 -2 1 76 59 173 127 97 69 196 140 220 158 24 17 45 32 47 32 3
0 1 -14 -4 -31 -16 -56 18 -432 56 -614 33 -157 51 -185 120 -185 19 0 24 4
20 18 -2 9 -7 70 -11 134 l-7 117 34 5 c18 3 92 15 163 27 199 33 207 34 217
15 12 -21 40 -20 86 3 20 10 95 42 166 71 191 76 205 84 227 136 27 60 42 206
35 334 -3 58 -7 145 -9 194 l-2 90 -35 23 c-64 42 -63 39 -57 127 4 45 9 109
13 143 l7 62 -33 18 c-69 37 -71 43 -63 151 11 168 14 154 -37 167 -57 14 -70
38 -70 130 0 39 -9 147 -20 240 -11 94 -20 198 -20 232 l0 63 -58 29 c-52 26
-103 48 -312 137 l-55 23 3 50 c4 48 2 51 -36 78 -22 15 -55 36 -72 46 -32 17
-33 19 -27 70 6 61 -8 100 -49 138 -87 80 -321 207 -451 246 -35 10 -65 23
-67 29 -2 6 7 57 22 114 24 96 28 104 63 125 47 30 107 113 125 172 8 26 14
89 14 145 0 85 -3 101 -20 118 -11 11 -31 20 -44 20 l-24 0 6 242 c5 220 4
242 -11 230 -19 -16 -22 -11 -37 62 -10 51 -20 68 -67 118 -31 32 -59 55 -63
53 -4 -3 -1 -31 6 -62 8 -32 13 -71 13 -88 0 -21 -5 -13 -15 29 -17 69 -42
113 -89 154 -39 35 -155 105 -162 98 -3 -2 1 -14 7 -26 17 -32 5 -36 -48 -16
-26 10 -74 25 -107 34 -130 33 -191 50 -209 57 -17 7 -16 5 4 -23z m155 -113
c70 -20 121 -63 155 -132 17 -34 33 -80 36 -102 l6 -40 -27 45 c-69 116 -122
145 -413 222 -4 1 38 5 93 8 55 3 102 7 105 8 3 1 23 -3 45 -9z m302 -61 c69
-70 91 -159 59 -233 -11 -27 -12 -23 -8 37 4 59 1 73 -23 113 -14 25 -40 61
-56 79 -54 62 -31 64 28 4z m-667 -38 c19 -11 62 -44 95 -75 33 -31 51 -51 40
-46 -29 15 -227 101 -232 101 -13 0 59 -108 94 -141 24 -21 37 -39 29 -39 -27
0 -113 98 -149 172 -20 41 -37 79 -37 86 0 11 91 -22 160 -58z m243 10 c81
-38 132 -79 174 -137 44 -62 42 -73 -4 -22 -20 22 -55 51 -78 64 -57 34 -248
95 -295 95 -21 0 -42 5 -45 10 -4 6 14 10 47 10 29 0 60 5 68 10 21 14 57 6
133 -30z m329 16 c9 8 59 -61 74 -103 16 -45 18 -112 4 -133 -7 -11 -10 1 -10
41 0 43 -8 70 -34 122 -18 37 -35 64 -38 62 -3 -3 -13 5 -24 17 -19 23 -19 23
2 5 11 -9 23 -14 26 -11z m-712 -217 c39 -20 52 -39 28 -39 -12 0 -88 49 -88
56 0 9 22 3 60 -17z m931 -142 c29 -22 39 -55 39 -130 0 -53 6 -87 20 -118 11
-24 20 -48 20 -54 0 -6 -54 -10 -143 -10 -122 0 -151 -3 -210 -24 -76 -26
-144 -25 -237 4 -35 10 -108 18 -202 22 l-146 6 10 23 c6 13 17 24 25 24 12 0
13 19 8 108 -4 69 -2 112 4 122 10 13 12 13 21 0 8 -12 11 -11 17 9 6 24 7 24
102 18 100 -7 209 -33 259 -62 28 -17 31 -16 78 5 122 57 297 86 335 57z
m-546 -381 c42 -18 55 -42 55 -103 0 -66 -34 -132 -80 -156 -49 -25 -168 -20
-207 9 -33 25 -61 95 -70 174 -5 52 -3 59 18 74 31 21 233 23 284 2z m600 1
c16 -12 17 -23 11 -83 -13 -136 -66 -194 -177 -194 -95 0 -158 65 -174 180 -8
58 7 78 71 95 67 18 244 19 269 2z m159 -33 c28 -73 -39 -294 -89 -294 -29 0
-27 30 8 92 19 35 38 78 42 96 6 29 4 34 -14 39 -27 7 -27 23 0 57 23 29 44
34 53 10z m-1172 -11 c10 -9 18 -27 18 -41 0 -24 -1 -24 -18 -9 -10 10 -22 17
-26 17 -16 0 8 -69 55 -157 48 -91 52 -115 12 -70 -51 57 -93 165 -93 239 0
43 19 51 52 21z m630 -113 c46 -128 129 -183 248 -167 62 8 112 38 150 89 19
26 35 46 37 45 9 -9 -113 -349 -140 -391 -126 -197 -279 -298 -406 -266 -69
17 -120 51 -195 131 -81 86 -134 187 -171 332 -14 53 -25 99 -25 102 0 2 21
-7 46 -20 51 -27 129 -33 195 -15 65 18 130 99 160 198 11 40 15 43 43 40 28
-3 33 -9 58 -78z m308 -597 c0 -38 14 -135 30 -218 17 -82 30 -166 30 -186 0
-45 -41 -111 -104 -166 -53 -47 -157 -103 -191 -103 -18 0 -21 5 -19 33 2 18
8 45 14 61 20 55 4 35 -30 -34 -34 -71 -42 -78 -95 -80 -78 -5 -97 0 -126 31
-22 24 -29 27 -29 14 0 -61 -193 84 -229 173 -13 31 -12 35 12 60 37 38 66
109 70 172 2 30 8 55 13 54 5 -1 32 -8 59 -17 128 -39 186 -31 247 31 22 23
65 50 105 67 96 41 135 67 184 124 23 28 46 51 51 51 4 0 8 -30 8 -67z m-2913
35 c29 -32 55 -88 88 -187 23 -69 36 -93 72 -128 56 -53 42 -57 -18 -4 -28 24
-64 74 -97 136 -30 54 -69 119 -88 145 -19 26 -34 50 -34 54 0 16 59 4 77 -16z
m148 -9 c14 -18 40 -59 57 -92 18 -37 61 -92 107 -139 71 -72 78 -77 111 -73
27 3 49 -3 90 -27 30 -17 49 -33 42 -36 -7 -2 -34 10 -60 27 -54 35 -67 33
-29 -5 48 -47 44 -119 -6 -112 -14 2 -25 17 -34 45 -9 27 -22 44 -36 49 -12 3
-32 15 -44 26 l-22 21 10 -38 c6 -20 9 -38 7 -40 -2 -1 -38 37 -82 84 -67 74
-84 101 -122 190 -46 107 -54 151 -30 151 8 0 26 -14 41 -31z m-264 -36 c20
-27 51 -70 69 -98 l34 -49 -30 21 c-17 12 -58 56 -93 97 -57 69 -60 76 -39 76
17 0 35 -14 59 -47z m3191 21 c108 -38 225 -106 341 -197 41 -32 67 -74 67
-107 0 -31 -53 -128 -102 -187 -24 -28 -78 -93 -121 -145 -245 -292 -271 -324
-306 -380 -13 -22 -18 -38 -11 -38 6 0 103 91 215 203 167 167 215 220 271
307 37 58 68 106 70 108 3 5 104 -49 110 -59 11 -18 -46 -98 -103 -146 -75
-64 -329 -285 -424 -370 -145 -129 -331 -284 -336 -280 -12 13 167 309 318
527 84 121 192 302 225 376 14 32 28 79 31 104 5 44 3 50 -32 89 -21 22 -40
41 -44 41 -4 0 -5 -16 -3 -36 5 -43 -13 -130 -38 -188 l-18 -41 5 95 c6 108
-11 193 -48 226 -11 10 -50 37 -87 59 -61 37 -88 65 -63 65 5 0 43 -12 83 -26z
m-972 1 c0 -8 -7 -15 -15 -15 -20 0 -113 -60 -142 -91 -41 -46 -49 -183 -18
-296 3 -10 -7 7 -22 37 -22 45 -27 69 -27 131 l-1 77 -38 -30 c-64 -51 -63
-103 7 -243 25 -49 96 -169 159 -265 63 -96 133 -211 156 -254 23 -44 80 -136
127 -206 46 -69 84 -133 84 -140 0 -8 -28 13 -62 46 -74 71 -201 183 -353 309
-301 250 -455 396 -455 429 0 25 91 83 111 70 5 -3 34 -43 63 -87 29 -45 82
-113 117 -152 100 -108 341 -340 369 -355 l24 -13 -18 29 c-45 70 -109 154
-164 216 -62 69 -233 270 -291 341 -45 57 -81 130 -81 166 0 34 51 83 170 164
55 38 275 146 298 147 1 0 2 -7 2 -15z m-1300 -59 c0 -7 -12 -41 -26 -77 -24
-61 -63 -215 -64 -251 0 -10 25 -31 60 -53 86 -52 165 -128 185 -177 11 -29
14 -56 10 -87 -5 -35 -1 -57 15 -94 12 -26 22 -66 23 -89 2 -36 -2 -44 -25
-57 -39 -22 -48 -8 -55 84 -6 75 -7 78 -52 124 -32 31 -66 85 -109 171 -34 69
-62 131 -62 139 0 11 -5 10 -20 -4 -24 -22 -25 -46 -5 -85 9 -17 13 -30 9 -30
-13 0 -64 42 -74 61 -30 55 65 339 143 426 19 22 47 21 47 -1z m-729 -183 c13
-16 12 -17 -3 -4 -17 13 -22 21 -14 21 2 0 10 -8 17 -17z m294 -207 c23 -17
63 -46 89 -64 78 -54 45 -47 -45 9 -87 55 -139 96 -139 112 0 10 28 -7 95 -57z
m2651 -86 c-26 -165 -229 -290 -470 -290 -154 0 -273 40 -361 121 -40 37 -85
103 -85 124 0 4 22 -13 50 -37 61 -53 154 -102 235 -123 76 -19 224 -19 300 0
120 32 243 113 297 196 17 27 33 49 36 49 2 0 2 -18 -2 -40z m-1503 -122 c153
-139 437 -484 437 -531 0 -12 -72 49 -188 158 l-93 88 19 -50 c10 -27 40 -83
67 -123 l47 -74 -92 84 c-151 138 -217 203 -250 244 -32 42 -38 41 -16 -2 7
-15 43 -115 79 -222 36 -107 84 -241 106 -297 22 -57 38 -103 36 -103 -2 0
-18 26 -35 58 -18 31 -71 113 -118 182 -47 69 -123 181 -170 250 -105 156
-109 160 -79 80 32 -84 163 -627 154 -636 -1 -2 -22 41 -46 94 -53 120 -124
243 -163 282 -34 34 -48 99 -48 226 0 88 -12 110 -74 134 l-30 11 80 41 c81
42 310 138 330 138 6 0 27 -15 47 -32z m2260 -22 c67 -29 150 -66 183 -82 l62
-28 4 -65 c3 -36 17 -165 31 -286 15 -121 30 -246 33 -279 l6 -58 45 6 45 6
-4 -152 -3 -153 43 -6 c61 -8 65 -16 47 -84 -18 -71 -19 -191 -2 -225 7 -14
26 -31 42 -39 41 -19 45 -27 45 -92 0 -50 -3 -57 -22 -62 l-22 -6 26 -28 26
-28 -5 -147 -6 -147 -61 62 c-34 34 -98 84 -143 110 -68 41 -97 51 -184 68
-195 37 -194 36 -105 38 152 2 260 -29 377 -109 32 -22 61 -40 64 -40 12 0 3
64 -14 98 -25 48 -97 89 -189 106 -65 12 -66 13 -42 26 15 9 66 16 127 18 109
5 122 14 59 45 -61 29 -145 38 -247 27 -52 -5 -98 -10 -104 -10 -5 0 15 14 45
32 80 45 128 85 145 122 8 17 36 55 61 84 26 29 44 55 41 58 -3 3 -61 -19
-129 -49 -68 -30 -134 -58 -148 -62 -23 -7 -24 -7 -10 11 8 10 36 44 63 74 54
62 151 244 163 305 l7 40 -34 -26 c-116 -86 -265 -180 -315 -199 -23 -9 -21
-5 16 48 22 31 59 82 82 112 42 57 94 158 85 166 -2 3 -33 -45 -67 -106 -61
-110 -88 -139 -57 -61 27 66 56 192 78 337 32 218 33 220 21 209 -15 -15 -111
-180 -193 -333 -39 -73 -73 -132 -74 -130 -6 7 135 547 159 612 26 68 29 100
5 54 -7 -12 -69 -106 -139 -208 -70 -102 -153 -229 -186 -282 -32 -53 -60 -95
-62 -94 -1 2 14 45 34 97 20 52 58 158 85 237 27 79 65 175 85 214 19 38 33
72 31 74 -2 2 -24 -15 -48 -38 -25 -24 -89 -81 -144 -128 -55 -47 -122 -107
-149 -135 l-50 -50 24 40 c13 22 33 51 45 65 41 48 108 141 104 144 -2 2 -71
-50 -153 -116 -152 -123 -165 -127 -110 -32 21 35 437 484 450 484 2 0 59 -24
127 -54z m-3037 -129 c45 -50 99 -150 85 -155 -18 -6 -92 19 -111 38 -20 20
-34 64 -46 139 -7 41 -6 43 14 32 11 -6 37 -30 58 -54z m1550 -65 c-5 -4 -86
36 -86 43 0 3 20 -5 45 -17 24 -12 43 -23 41 -26z m522 7 c-21 -12 -109 -39
-123 -38 -11 1 113 46 130 47 6 1 2 -3 -7 -9z m-365 -46 c-7 -2 -19 -2 -25 0
-7 3 -2 5 12 5 14 0 19 -2 13 -5z m210 0 c-7 -2 -21 -2 -30 0 -10 3 -4 5 12 5
17 0 24 -2 18 -5z m-1558 -194 c6 -54 5 -70 -10 -92 -9 -15 -21 -27 -25 -27
-4 0 -15 31 -25 69 -25 104 -23 103 -130 86 -49 -8 -91 -14 -92 -15 -1 0 0
-36 4 -80 l6 -80 -27 0 c-39 0 -92 25 -109 52 -9 13 -17 62 -21 116 l-6 92 50
-25 c43 -22 62 -25 147 -25 115 0 173 21 201 70 l17 30 6 -53 c4 -28 10 -82
14 -118z m935 3 c3 -2 7 -223 10 -490 3 -268 10 -497 14 -509 8 -22 6 -23 -40
-23 -72 0 -84 11 -59 52 19 31 20 55 21 498 0 256 5 473 9 483 6 14 10 15 24
5 9 -7 18 -14 21 -16z m1104 -34 c3 -29 6 -244 6 -477 0 -309 3 -434 12 -458
15 -41 3 -53 -56 -53 l-38 0 8 33 c5 17 9 242 9 498 0 445 1 468 19 488 11 12
22 21 26 21 4 0 10 -24 14 -52z m-1931 -75 c3 -16 3 -30 1 -33 -7 -7 -24 23
-24 43 0 27 17 20 23 -10z m-59 -120 c15 -49 40 -128 56 -178 63 -195 78 -323
47 -396 l-15 -34 -1 75 c-1 70 -25 198 -50 263 l-11 29 -20 -24 c-22 -26 -25
-21 -9 19 8 21 7 40 -5 78 -57 195 -63 224 -47 240 8 8 18 15 22 15 4 0 19
-39 33 -87z m-288 -179 c6 -104 10 -191 8 -192 -1 -2 -24 11 -51 29 l-48 33
72 -79 c40 -43 71 -80 69 -83 -6 -5 -107 46 -128 65 -23 20 -23 25 11 -85 33
-103 53 -193 49 -212 -2 -7 19 -27 46 -44 38 -24 62 -31 115 -34 46 -3 60 -7
46 -13 -38 -15 -100 -9 -158 15 -80 33 -130 70 -179 130 -29 37 -38 44 -33 26
23 -79 97 -169 205 -252 l35 -27 -55 16 c-30 9 -68 25 -84 36 -18 13 -26 15
-21 6 105 -169 184 -226 300 -214 73 7 58 -6 -33 -29 l-63 -17 -64 32 c-38 18
-84 52 -111 81 -82 88 -194 361 -194 475 0 44 0 45 30 38 l30 -7 0 54 c0 29
-5 93 -11 141 -6 49 -8 91 -4 95 3 3 15 1 25 -6 11 -7 22 -12 25 -12 3 0 5 60
5 134 l0 134 78 -23 77 -22 11 -189z m2809 -581 c3 -21 15 -47 26 -59 18 -19
18 -22 4 -34 -10 -8 -15 -30 -15 -61 0 -44 -4 -53 -48 -99 -49 -51 -77 -64
-69 -32 3 9 22 88 43 174 21 86 41 155 45 153 4 -3 10 -22 14 -42z m193 -353
c53 -28 76 -50 111 -105 48 -76 36 -84 -26 -19 -32 33 -75 73 -95 88 -21 16
-38 35 -38 42 0 18 4 18 48 -6z m-88 -22 c19 -13 54 -47 78 -77 l44 -54 -29
-18 c-15 -10 -91 -36 -168 -59 -77 -22 -166 -49 -197 -59 l-58 -18 0 88 0 88
53 29 c196 112 219 119 277 80z"/>
<path d="M4780 6219 c7 -11 14 -18 17 -15 8 8 -5 36 -17 36 -7 0 -7 -6 0 -21z"/>
<path d="M5062 6155 c2 -22 12 -31 48 -45 37 -15 48 -16 65 -6 11 7 37 18 58
25 20 7 37 16 37 21 0 10 -69 -7 -86 -21 -7 -6 -18 -2 -29 11 -12 13 -25 18
-40 14 -14 -3 -29 1 -39 12 -17 16 -17 16 -14 -11z"/>
<path d="M5025 5991 c-36 -10 -47 -9 178 -14 110 -2 152 0 140 7 -22 12 -277
18 -318 7z"/>
<path d="M5105 5910 c3 -5 31 -10 61 -10 30 0 54 5 54 10 0 6 -27 10 -61 10
-37 0 -58 -4 -54 -10z"/>
<path d="M4991 5264 c0 -11 3 -14 6 -6 3 7 2 16 -1 19 -3 4 -6 -2 -5 -13z"/>
<path d="M5010 5213 c0 -12 5 -25 10 -28 13 -8 13 15 0 35 -8 12 -10 11 -10
-7z"/>
<path d="M2864 7359 c-60 -39 -145 -89 -189 -111 -44 -22 -93 -50 -110 -63
-16 -12 -43 -30 -60 -39 l-30 -17 40 4 c109 12 364 48 396 57 30 8 40 18 54
53 20 49 33 187 18 187 -5 0 -59 -32 -119 -71z m-4 -59 c0 -10 -84 -50 -106
-50 -17 0 -18 -27 -1 -33 6 -2 31 7 55 21 24 13 46 21 50 17 9 -8 -42 -50 -81
-66 -24 -10 -30 -9 -47 11 -23 26 -25 45 -8 57 9 6 103 42 136 52 1 1 2 -3 2
-9z"/>
<path d="M3075 7334 c2 -48 7 -102 11 -120 l6 -34 87 0 c47 0 129 -7 181 -15
183 -30 232 -36 236 -33 4 4 -259 148 -270 148 -3 0 -1 -9 6 -19 9 -15 8 -24
-5 -45 -26 -38 -69 -35 -98 7 -13 17 -28 35 -33 39 -13 8 -10 10 33 31 18 9
39 14 45 11 14 -6 -8 9 -100 69 -103 66 -105 66 -99 -39z"/>
<path d="M3241 7281 c-11 -7 -9 -15 10 -40 12 -17 24 -31 25 -31 1 0 14 6 29
14 l26 14 -34 26 c-38 29 -37 29 -56 17z"/>
<path d="M2710 7105 c-52 -7 -135 -17 -183 -21 l-89 -7 5 -26 c3 -14 19 -64
36 -111 17 -47 49 -144 72 -217 22 -72 46 -139 53 -149 11 -15 21 -2 76 102
34 65 84 157 110 204 71 128 125 224 128 233 5 11 -100 7 -208 -8z m-2 -167
c4 -19 -52 -104 -74 -112 -19 -7 -18 3 3 26 16 17 15 20 -15 51 -39 40 -31 52
35 52 37 0 48 -4 51 -17z"/>
<path d="M2632 6913 c23 -22 29 -24 42 -13 30 24 19 40 -26 40 l-43 0 27 -27z"/>
<path d="M3015 7113 l-50 -4 -61 -117 c-188 -361 -244 -473 -244 -487 0 -13
47 -15 384 -15 265 0 387 3 392 11 9 16 -46 131 -163 339 -121 215 -166 281
-191 278 -9 -1 -40 -3 -67 -5z m-24 -246 c53 -35 52 -74 -3 -134 -80 -89 -80
-86 -20 -82 48 4 52 2 52 -18 0 -22 -3 -23 -95 -23 -115 0 -119 8 -39 77 60
52 84 88 84 126 0 55 -57 60 -77 7 -10 -28 -36 -40 -47 -22 -2 4 2 22 9 40 23
54 81 66 136 29z m230 -17 c10 -14 24 -46 31 -72 14 -57 0 -117 -38 -155 -29
-29 -60 -26 -110 12 -61 46 -67 164 -12 222 31 33 103 30 129 -7z"/>
<path d="M3127 6835 c-37 -37 -32 -138 9 -176 l24 -23 21 21 c17 17 22 34 22
85 0 34 -5 73 -12 86 -14 25 -43 29 -64 7z"/>
<path d="M3190 7102 c0 -6 14 -35 31 -64 18 -29 63 -111 102 -183 137 -253
146 -270 147 -265 11 85 12 88 82 205 52 86 116 261 101 276 -5 5 -78 13 -163
19 -85 5 -188 13 -227 16 -50 5 -73 3 -73 -4z m301 -142 c27 -15 24 -53 -7
-89 -33 -40 -49 -40 -29 0 16 29 15 30 -2 25 -33 -10 -58 24 -41 57 10 19 49
23 79 7z"/>
<path d="M3420 6946 c0 -20 25 -37 44 -30 19 7 20 16 4 32 -16 16 -48 15 -48
-2z"/>
<path d="M2337 6863 c-73 -263 -103 -413 -83 -413 6 0 74 11 150 25 77 14 141
25 143 25 12 0 -6 76 -66 266 -60 194 -85 264 -94 264 -2 0 -24 -75 -50 -167z
m94 -188 c13 -13 19 -31 19 -60 0 -35 -4 -44 -25 -53 -21 -10 -27 -8 -45 15
-26 33 -25 70 3 135 l22 52 3 -36 c2 -20 12 -44 23 -53z"/>
<path d="M2380 6664 c-9 -23 -8 -36 4 -62 19 -39 33 -35 42 14 5 29 2 40 -14
57 l-21 21 -11 -30z"/>
<path d="M3682 6969 c-6 -19 -18 -61 -27 -93 -9 -33 -35 -94 -57 -135 -45 -85
-78 -173 -78 -206 0 -15 9 -26 28 -34 39 -16 264 -61 274 -55 4 3 8 12 8 21 0
42 -111 486 -130 522 -5 10 -11 4 -18 -20z m10 -236 c19 -17 24 -43 9 -43 -5
0 -11 9 -14 21 -5 18 -8 19 -26 7 -28 -17 -26 -24 9 -36 41 -15 59 -55 39 -90
-32 -58 -80 -31 -87 49 -3 46 0 58 20 81 28 32 27 32 50 11z"/>
<path d="M3645 6650 c-7 -21 5 -49 29 -70 14 -11 16 -8 16 27 0 54 -32 85 -45
43z"/>
<path d="M2640 6441 c0 -6 26 -40 58 -74 57 -62 88 -104 185 -249 105 -155
150 -218 156 -218 6 0 38 48 254 375 44 66 89 130 100 143 l20 22 -265 0
c-146 0 -320 3 -386 7 -91 4 -122 3 -122 -6z m470 -133 c0 -7 -14 -35 -30 -63
-16 -27 -30 -59 -30 -70 0 -12 -5 -26 -12 -33 -38 -38 -37 19 1 92 17 31 28
57 25 57 -18 5 -28 7 -59 8 -67 2 -36 21 35 21 49 0 70 -4 70 -12z"/>
<path d="M2485 6424 c-44 -7 -112 -16 -152 -20 -84 -8 -84 -6 -3 -106 26 -32
69 -98 96 -145 51 -92 67 -104 154 -118 47 -8 212 -74 316 -126 97 -50 103
-38 31 63 -34 48 -102 149 -150 223 -90 137 -179 246 -201 244 -6 -1 -47 -7
-91 -15z m157 -155 c9 -18 19 -64 23 -101 5 -56 4 -68 -8 -68 -14 0 -27 57
-27 121 0 37 -18 46 -29 16 -16 -41 -29 -40 -21 1 16 82 33 90 62 31z"/>
<path d="M3431 6390 c-21 -27 -56 -76 -78 -110 -21 -33 -80 -122 -130 -197
-113 -168 -138 -213 -121 -213 7 0 72 29 143 64 115 58 205 94 300 123 24 7
44 32 105 130 41 67 88 136 105 153 24 25 27 33 15 40 -20 13 -247 60 -287 60
-7 0 -30 -22 -52 -50z m100 -70 c26 -15 24 -46 -6 -76 -16 -16 -25 -36 -25
-56 0 -35 -33 -78 -60 -78 -8 0 -26 7 -38 16 -30 21 -31 79 -1 94 11 7 24 8
27 4 4 -4 1 -9 -5 -11 -18 -6 -16 -48 2 -63 13 -10 19 -10 35 5 25 23 25 40 1
57 -11 8 -22 30 -26 50 -6 30 -3 38 16 52 27 18 52 20 80 6z"/>
<path d="M3472 6288 c-19 -19 -15 -48 7 -48 24 0 45 25 37 45 -7 18 -27 20
-44 3z"/>
<path d="M2295 6173 c4 -10 16 -56 28 -103 11 -47 21 -86 23 -88 1 -2 24 3 50
11 l49 15 -33 18 c-21 13 -46 44 -73 92 -36 66 -61 97 -44 55z"/>
<path d="M4115 5735 c-27 -7 -75 -23 -105 -35 -81 -32 -330 -117 -365 -124
-53 -12 -84 -27 -100 -53 -16 -23 -15 -25 12 -46 73 -56 114 -103 147 -167
l37 -69 98 49 c54 28 103 50 108 50 6 0 13 19 17 43 10 58 30 85 80 107 43 18
43 18 49 80 4 49 13 73 42 117 20 30 35 56 33 58 -2 1 -25 -3 -53 -10z"/>
<path d="M2725 5235 c-33 -14 -61 -25 -62 -25 -2 0 -3 -4 -3 -10 0 -5 8 -10
18 -10 9 0 54 -13 99 -29 45 -15 85 -25 90 -20 4 4 21 15 37 23 l29 15 -40 40
c-49 49 -80 52 -168 16z"/>
<path d="M7804 5121 c18 -27 47 -82 64 -122 52 -128 52 -131 -15 -66 -119 116
-196 150 -338 151 -95 1 -104 -1 -177 -36 -106 -50 -159 -103 -210 -206 -39
-78 -43 -91 -46 -182 -6 -141 25 -226 114 -312 66 -63 138 -82 204 -54 l32 13
-52 7 c-41 6 -60 15 -96 48 -142 131 -51 337 181 408 90 27 171 30 206 7 37
-25 103 -123 122 -182 30 -91 39 -194 34 -360 -6 -210 -22 -279 -102 -444 -36
-73 -68 -132 -70 -129 -2 2 4 32 15 66 39 126 53 221 46 322 -8 136 -52 290
-77 275 -5 -4 -9 -18 -9 -33 0 -15 -16 -91 -35 -168 -19 -77 -41 -198 -50
-269 -27 -227 -66 -346 -147 -455 -23 -30 -60 -79 -81 -107 -22 -29 -43 -53
-48 -53 -4 0 8 24 28 53 101 149 131 292 105 492 l-7 50 -41 -125 c-23 -69
-56 -164 -73 -211 -17 -47 -38 -131 -47 -185 -13 -82 -20 -103 -41 -120 -16
-14 -31 -44 -43 -90 -10 -38 -17 -70 -16 -72 5 -4 162 95 226 142 81 60 213
170 309 256 147 132 260 287 383 525 43 83 78 142 78 133 0 -54 -120 -318
-206 -449 -27 -41 -96 -123 -154 -183 -92 -94 -152 -146 -404 -340 -77 -60
-224 -141 -287 -159 -30 -9 -100 -37 -155 -63 -54 -25 -144 -64 -199 -87 -95
-38 -107 -40 -240 -47 -77 -4 -155 -13 -174 -20 l-34 -13 6 -62 c2 -35 8 -69
12 -75 13 -21 284 -4 359 22 64 22 322 153 332 169 3 5 -3 9 -13 10 -10 0 43
13 118 28 75 16 165 38 201 50 63 21 184 89 174 98 -2 3 -14 0 -25 -7 -30 -16
-137 -23 -200 -13 l-54 8 40 28 c63 44 179 83 325 111 273 52 399 118 591 309
49 49 87 91 84 93 -3 3 -34 -16 -69 -41 -78 -58 -103 -71 -192 -102 -60 -20
-185 -53 -203 -53 -2 0 7 15 22 32 15 18 80 63 144 101 304 179 406 295 467
532 32 127 38 212 29 411 l-8 159 -24 -90 c-13 -49 -37 -121 -53 -159 -35 -82
-101 -196 -114 -196 -5 0 -6 48 0 118 16 226 1 331 -77 519 -68 161 -290 443
-351 443 l-27 0 33 -49z m478 -1043 c-75 -162 -110 -224 -160 -279 -30 -33
-57 -57 -60 -54 -3 2 1 13 10 22 27 33 106 167 131 224 24 55 97 162 105 155
2 -3 -10 -33 -26 -68z"/>
<path d="M2812 5103 c-12 -9 -80 -24 -154 -35 -136 -20 -259 -61 -292 -97 -15
-17 -11 -19 94 -41 l110 -22 43 27 c64 43 190 140 211 164 22 25 19 26 -12 4z"/>
<path d="M2915 5054 c-189 -117 -355 -265 -490 -439 -227 -292 -327 -643 -271
-955 15 -82 68 -219 123 -318 32 -58 174 -224 254 -298 137 -127 459 -285 729
-358 216 -58 335 -76 565 -86 121 -4 220 -8 221 -7 1 1 4 41 8 89 l7 86 -53
11 c-29 6 -125 22 -213 37 -325 52 -684 201 -890 368 -125 101 -194 175 -265
285 l-36 55 -59 -1 -60 -2 50 15 c28 8 56 17 62 19 7 3 21 18 32 35 18 30 18
34 2 88 l-17 57 -100 11 c-110 12 -108 14 16 17 l85 2 0 55 c0 30 -4 63 -8 73
-4 10 -48 38 -99 62 -51 24 -85 44 -74 44 10 1 56 -17 103 -39 47 -22 87 -40
88 -40 1 0 12 34 25 76 l22 77 -88 83 c-111 104 -94 111 21 9 l85 -75 15 36
c8 20 15 40 15 44 0 5 12 22 26 40 24 28 25 32 11 48 -8 9 -36 56 -62 104 -58
110 -57 152 2 53 23 -39 57 -88 77 -110 l35 -40 26 30 c14 17 38 46 54 66 l30
35 -50 108 c-57 122 -63 179 -7 65 20 -41 52 -95 71 -122 l34 -47 39 29 c21
17 49 38 61 48 l21 18 -44 130 c-24 72 -43 148 -43 170 0 38 1 36 20 -27 22
-77 91 -232 108 -243 7 -4 15 -4 19 0 11 11 3 161 -13 255 -8 47 -15 116 -15
153 0 64 -2 71 -41 122 -23 30 -49 55 -58 55 -9 -1 -56 -26 -106 -56z"/>
<path d="M2440 4839 c-106 -27 -193 -71 -272 -135 -64 -53 -87 -83 -52 -70 9
3 64 6 122 6 l107 0 68 73 c93 98 132 147 115 146 -7 0 -47 -9 -88 -20z"/>
<path d="M2225 4551 c-104 -50 -181 -114 -245 -206 -28 -41 -48 -75 -45 -75 3
0 24 9 45 20 22 11 70 27 107 36 38 8 77 21 88 28 11 8 42 51 69 97 27 46 57
96 68 112 25 37 11 35 -87 -12z"/>
<path d="M2120 4263 c-110 -85 -181 -180 -215 -291 -6 -21 -2 -20 52 16 32 22
77 50 100 63 24 13 47 35 53 49 11 28 59 194 57 196 -1 1 -22 -14 -47 -33z"/>
<path d="M2057 3978 c-54 -67 -95 -141 -127 -236 -16 -47 -28 -88 -25 -90 2
-2 32 22 67 55 35 32 76 67 89 79 24 19 26 30 32 125 4 56 5 105 3 107 -2 1
-20 -16 -39 -40z"/>
<path d="M2062 3717 c-43 -92 -57 -158 -55 -267 0 -58 6 -118 11 -135 9 -29
11 -28 61 77 28 58 56 108 62 110 7 2 4 30 -10 88 -11 47 -23 102 -27 123 -9
52 -19 53 -42 4z"/>
<path d="M2631 3566 c-8 -10 -9 -21 -1 -42 13 -34 80 -124 93 -124 4 0 5 5 2
10 -10 17 15 40 44 40 24 0 21 5 -40 65 -70 69 -80 73 -98 51z"/>
<path d="M2163 3438 c-13 -21 -6 -154 12 -231 10 -40 31 -101 47 -137 25 -56
31 -62 40 -47 5 10 12 63 15 118 l6 98 -49 106 c-26 58 -51 105 -55 105 -4 0
-11 -6 -16 -12z"/>
<path d="M2740 3384 c0 -14 58 -78 103 -115 42 -33 52 -37 59 -24 6 10 24 15
53 15 25 0 45 4 45 10 0 13 -79 66 -142 95 -48 22 -118 34 -118 19z"/>
<path d="M2957 3193 c-6 -10 65 -60 136 -94 43 -21 50 -22 104 -10 32 7 64 15
71 17 27 8 4 28 -64 58 -53 23 -89 30 -155 34 -48 2 -89 0 -92 -5z"/>
<path d="M2330 3159 c0 -50 35 -134 89 -212 51 -73 97 -124 105 -116 3 2 -2
31 -9 64 -7 33 -16 76 -19 96 -4 24 -27 60 -72 112 -77 89 -94 99 -94 56z"/>
<path d="M3305 3051 c-22 -5 -56 -7 -75 -4 -30 4 -27 1 25 -23 33 -14 91 -38
130 -51 l70 -25 75 23 c41 12 79 26 83 30 5 4 -17 17 -50 29 -64 25 -189 35
-258 21z"/>
<path d="M2587 2908 c34 -68 63 -109 116 -162 41 -41 72 -66 74 -59 3 7 -7 49
-22 93 -28 84 -50 109 -166 188 l-47 31 45 -91z"/>
<path d="M3655 2938 c-44 -11 -84 -24 -88 -28 -9 -8 82 -27 181 -37 52 -5 69
-3 100 14 20 11 55 26 77 34 l40 13 -40 12 c-59 18 -179 15 -270 -8z"/>
<path d="M5020 2892 c-63 -38 -153 -93 -200 -122 -93 -58 -188 -115 -263 -158
-27 -15 -109 -65 -183 -112 -74 -47 -159 -100 -189 -118 -31 -18 -53 -38 -50
-43 12 -19 145 -8 305 26 280 58 682 154 696 166 11 9 14 56 14 220 0 115 -3
209 -7 209 -5 0 -60 -31 -123 -68z m-136 -198 c30 -11 16 -39 -37 -75 -59 -41
-77 -48 -153 -58 -43 -6 -51 -5 -43 5 6 7 25 16 42 20 38 8 123 49 132 64 9
15 -40 12 -82 -5 -42 -18 -49 -15 -34 14 17 32 127 53 175 35z m-282 -135
c-23 -22 -47 -37 -53 -34 -14 9 18 43 56 60 44 20 44 18 -3 -26z m208 -36 c0
-7 -10 -15 -22 -18 -40 -9 -203 -23 -211 -18 -5 3 1 15 12 27 18 19 31 21 120
21 74 0 101 -3 101 -12z"/>
<path d="M5213 2819 c4 -79 7 -172 7 -207 l0 -63 37 -15 c20 -9 121 -35 223
-59 102 -24 237 -57 300 -74 243 -65 450 -98 450 -72 0 17 -238 172 -500 326
-30 18 -129 77 -220 132 -91 55 -196 116 -234 138 l-69 38 6 -144z m364 -159
c13 -25 21 -55 19 -68 -2 -17 4 -26 31 -38 53 -26 49 -34 -15 -34 -46 0 -63 4
-77 20 -17 18 -17 20 -1 20 14 0 16 6 10 38 -10 55 -22 72 -49 72 -29 0 -33
14 -7 29 35 21 64 8 89 -39z m98 -35 c20 -9 24 -14 13 -14 -10 -1 -18 -5 -18
-10 0 -12 94 -81 109 -81 25 0 9 31 -24 47 -41 19 -45 33 -11 33 30 0 76 -52
76 -86 0 -20 -5 -24 -30 -24 -16 0 -30 4 -30 9 0 5 -11 12 -25 15 -23 6 -125
102 -125 119 0 11 32 8 65 -8z"/>
<path d="M3990 2875 c-36 -13 -74 -25 -85 -25 l-20 -1 20 -8 c11 -5 53 -11 93
-15 l72 -7 0 40 c0 23 -3 41 -7 40 -5 0 -37 -11 -73 -24z"/>
<path d="M2820 2794 c69 -110 143 -175 278 -243 51 -26 63 -21 39 17 -10 15
-32 51 -49 80 -29 50 -38 57 -131 103 -55 27 -115 58 -134 70 l-34 21 31 -48z"/>
<path d="M3150 2680 c0 -5 32 -36 72 -70 61 -51 87 -65 165 -90 51 -17 105
-30 119 -30 l26 0 -36 42 c-20 23 -36 47 -36 54 0 7 -30 19 -71 29 -39 8 -109
29 -155 45 -46 16 -84 25 -84 20z"/>
<path d="M3527 2579 c6 -6 36 -13 65 -15 53 -3 53 -3 13 6 -90 22 -91 22 -78
9z"/>
<path d="M5295 2420 c6 -28 249 -516 355 -715 20 -38 45 -95 55 -125 22 -68
59 -142 78 -158 12 -11 18 -7 35 20 11 18 25 51 32 73 7 22 31 78 53 125 21
47 56 126 77 175 63 150 148 341 169 384 12 22 21 44 21 49 0 5 -30 14 -67 21
-38 7 -129 27 -203 46 -130 34 -494 116 -573 129 l-39 7 7 -31z"/>
<path d="M5145 2378 c-83 -139 -525 -1029 -525 -1056 0 -47 21 -65 86 -73 75
-9 678 -11 857 -2 l136 6 17 36 c16 34 16 38 0 81 -10 25 -31 81 -48 125 -50
136 -436 895 -478 938 -4 5 -25 -20 -45 -55z m135 -357 c50 -36 50 -128 0
-176 -34 -32 -46 -29 -30 7 13 28 -1 98 -23 115 -51 41 -117 8 -117 -57 0 -32
9 -49 49 -97 26 -32 58 -67 71 -78 13 -11 49 -53 81 -94 56 -69 59 -72 67 -50
5 13 12 44 16 69 8 53 20 75 35 66 18 -12 12 -97 -11 -163 -12 -34 -19 -65
-15 -69 4 -4 23 -3 42 3 43 14 44 9 5 -24 -22 -18 -29 -31 -25 -44 7 -23 -3
-24 -29 -4 -30 23 -44 19 -98 -30 -57 -51 -109 -69 -185 -63 -132 11 -232 146
-193 262 17 51 74 121 112 136 18 8 35 15 36 16 2 1 -8 22 -22 47 -45 77 -31
159 36 211 62 47 145 54 198 17z"/>
<path d="M5065 1684 c-42 -64 -26 -165 35 -226 32 -32 44 -38 81 -38 57 0 113
28 117 58 3 18 -19 47 -99 128 -57 57 -106 104 -110 104 -4 0 -14 -12 -24 -26z"/>
<path d="M4895 2405 c-122 -23 -352 -73 -550 -119 -60 -14 -120 -26 -132 -26
-13 0 -23 -6 -23 -14 0 -8 29 -75 64 -148 91 -188 208 -450 241 -537 33 -87
75 -142 96 -124 8 6 35 56 61 110 130 272 177 368 297 597 72 137 133 257 136
267 6 16 1 19 -32 18 -21 0 -92 -11 -158 -24z"/>
<path d="M4098 1656 l2 -594 153 70 c83 39 181 81 217 94 l65 24 -3 40 c-1 23
-11 62 -21 88 -37 94 -124 290 -190 432 -38 80 -92 197 -120 260 -55 123 -86
180 -98 180 -5 0 -7 -267 -5 -594z m180 98 c15 -5 22 -14 22 -32 0 -13 -10
-45 -22 -70 -17 -34 -20 -46 -10 -50 17 -5 62 -96 62 -124 0 -28 -34 -86 -55
-94 -33 -13 -66 6 -85 49 -32 68 -20 153 24 176 48 26 60 91 21 117 -40 26
-14 43 43 28z"/>
<path d="M4233 1560 c-3 -11 -9 -20 -14 -20 -23 0 3 -95 28 -104 40 -16 56 44
29 109 -17 39 -35 45 -43 15z"/>
<path d="M6218 2190 c-36 -61 -88 -173 -153 -335 -30 -74 -70 -166 -90 -205
-19 -38 -48 -103 -64 -143 -16 -41 -43 -101 -60 -133 -56 -109 -59 -102 76
-163 65 -30 165 -76 222 -103 57 -26 105 -47 105 -46 1 2 -1 266 -4 588 l-5
585 -27 -45z m-88 -480 c0 -24 -5 -40 -12 -40 -15 0 -48 30 -48 45 0 17 22 35
42 35 14 0 18 -8 18 -40z m44 -117 c10 -14 21 -44 23 -67 4 -34 0 -48 -27 -84
-25 -35 -36 -43 -58 -40 -35 4 -62 56 -62 120 0 43 3 49 37 73 47 31 63 31 87
-2z"/>
<path d="M6110 1582 c-8 -3 -18 -10 -22 -16 -15 -21 -8 -84 11 -107 17 -21 21
-22 36 -9 53 44 33 152 -25 132z"/>
<path d="M2710 1818 c-36 -14 -304 -21 -377 -10 -35 5 -63 6 -63 3 0 -3 14
-19 31 -37 l30 -31 -7 -198 c-6 -167 -9 -198 -23 -202 -9 -3 -23 -7 -31 -9
-10 -4 -6 -13 18 -35 l32 -30 0 -219 0 -220 -34 -37 -34 -38 222 0 c121 0 228
-2 236 -5 12 -4 16 8 21 60 3 36 11 82 18 103 7 21 10 41 7 44 -3 4 -25 -14
-49 -39 -61 -66 -75 -71 -173 -63 l-84 7 0 162 c0 88 3 178 6 199 l7 38 66 -3
c64 -3 67 -4 91 -41 l24 -38 12 73 c23 142 24 168 4 168 -10 0 -28 -16 -40
-35 -21 -35 -23 -35 -91 -35 l-69 0 0 179 0 178 71 6 c39 3 81 2 94 -3 13 -5
38 -33 54 -62 l31 -53 0 83 c0 56 5 93 16 113 18 37 17 40 -16 27z"/>
<path d="M3270 1819 c-31 -13 -336 -17 -405 -6 l-50 8 43 -39 c23 -22 42 -46
42 -53 0 -8 -9 -52 -20 -99 -12 -52 -20 -122 -20 -180 l0 -96 -32 -9 c-42 -13
-42 -34 -2 -54 37 -19 38 -29 50 -302 l7 -156 -37 -40 c-20 -22 -36 -43 -36
-45 0 -3 23 -1 52 4 59 11 384 6 411 -6 14 -7 17 -3 17 26 0 19 9 70 20 113
11 43 17 81 14 84 -3 3 -16 -7 -27 -22 -12 -16 -36 -44 -53 -63 l-32 -34 -95
0 -94 0 -7 92 c-3 50 -6 142 -6 205 l0 113 29 0 c16 0 42 3 58 6 26 5 32 1 56
-35 30 -45 47 -46 47 -3 0 15 9 61 20 102 11 41 20 78 20 83 0 18 -36 4 -71
-28 -36 -32 -45 -35 -99 -35 l-60 0 0 128 c0 70 3 150 6 178 l6 51 69 5 c99 7
117 2 152 -48 17 -24 34 -44 38 -44 5 0 8 30 7 68 0 37 5 80 11 95 19 49 16
54 -29 36z"/>
<path d="M8460 1814 c-19 -7 -66 -13 -103 -13 -127 -1 -225 -72 -292 -212 -44
-93 -59 -185 -52 -329 8 -178 52 -306 136 -402 47 -52 129 -98 178 -98 18 0
57 -11 87 -24 47 -21 59 -23 81 -13 25 11 26 15 21 67 -3 30 -8 145 -12 256
-7 224 -5 236 52 260 60 25 42 38 -43 29 -43 -4 -111 -7 -152 -6 -83 3 -90 -8
-29 -47 l35 -24 -2 -204 c-2 -113 -6 -208 -9 -211 -17 -17 -63 16 -94 67 -68
115 -102 250 -102 408 1 233 59 368 169 393 58 13 85 3 104 -37 19 -39 35 -44
41 -11 11 50 27 159 24 161 -2 1 -19 -3 -38 -10z"/>
<path d="M3416 1784 l34 -32 0 -206 c0 -174 -2 -208 -15 -212 -8 -4 -15 -12
-15 -19 0 -7 7 -18 15 -25 13 -10 15 -50 15 -239 l0 -227 -30 -29 c-16 -16
-30 -31 -30 -34 0 -3 54 -5 121 -3 l120 3 -22 37 c-20 34 -22 53 -25 250 -3
116 -1 212 3 212 30 -1 55 -48 123 -235 28 -77 56 -172 63 -210 l11 -70 85 9
c47 5 88 11 90 13 3 2 -8 16 -23 32 -18 19 -37 60 -56 123 -38 127 -82 236
-136 335 -27 50 -44 94 -44 115 0 38 31 108 84 191 21 32 50 86 65 120 19 42
41 72 67 92 l39 30 -105 6 c-58 3 -106 5 -107 4 -1 0 4 -14 12 -29 8 -16 15
-36 15 -45 0 -9 -30 -66 -66 -126 -36 -61 -77 -137 -91 -170 -14 -33 -27 -62
-30 -65 -3 -3 -2 83 2 190 5 141 11 201 21 217 8 12 14 24 14 25 0 2 -54 3
-119 3 l-119 0 34 -31z"/>
<path d="M1884 1796 c-135 -43 -230 -167 -273 -356 -16 -69 -28 -99 -43 -112
l-22 -16 22 -19 c18 -14 26 -40 41 -128 23 -135 39 -178 90 -253 52 -76 169
-158 241 -168 27 -4 54 -12 60 -19 5 -6 16 -47 23 -91 12 -68 17 -81 40 -94
25 -14 28 -13 52 11 32 32 34 56 21 361 -11 278 -5 334 37 379 l32 34 -147 0
c-82 1 -148 -3 -148 -7 0 -4 18 -20 40 -34 l40 -27 0 -213 c0 -139 -4 -215
-11 -219 -26 -17 -59 8 -107 79 -93 138 -133 313 -112 487 30 243 139 367 279
318 19 -7 38 -24 48 -43 l16 -31 14 60 c8 33 16 71 19 85 l5 25 -108 2 c-67 1
-123 -3 -149 -11z"/>
<path d="M6380 1801 c0 -3 15 -17 33 -32 l32 -27 3 -418 c2 -231 0 -439 -3
-463 -5 -32 -16 -53 -37 -73 -17 -16 -29 -30 -27 -32 2 -2 59 0 127 5 148 9
189 26 261 105 58 63 105 157 132 263 23 92 25 258 4 350 -30 127 -112 244
-205 295 -49 27 -59 29 -186 30 -74 0 -134 -1 -134 -3z m291 -122 c44 -47 72
-105 88 -177 14 -68 14 -309 0 -370 -26 -111 -141 -303 -166 -278 -9 9 -17
841 -9 863 9 23 47 6 87 -38z"/>
<path d="M6964 1776 l36 -34 3 -333 c1 -184 1 -390 0 -458 l-3 -125 -32 -33
-32 -33 122 0 c67 0 122 2 122 5 0 3 -9 18 -19 33 -16 22 -20 52 -25 177 -7
168 -1 246 19 239 25 -10 102 -221 157 -431 l11 -42 81 5 c45 3 114 10 154 15
41 5 84 6 98 3 29 -8 30 -1 3 42 l-20 34 22 207 c12 115 27 211 33 215 16 11
94 10 101 -1 6 -11 55 -374 55 -413 0 -16 -9 -37 -20 -48 -11 -11 -20 -25 -20
-30 0 -6 44 -10 111 -10 115 0 117 1 82 41 -18 21 -38 120 -62 314 -12 88 -21
163 -21 168 0 4 11 5 25 1 34 -8 35 23 1 36 -20 7 -27 21 -41 87 -10 43 -30
129 -46 191 -16 62 -29 133 -29 158 l0 44 -80 0 -80 0 0 -38 c0 -20 -16 -91
-35 -157 -20 -66 -43 -151 -51 -188 -13 -54 -21 -71 -40 -79 -29 -14 -30 -21
-3 -57 l21 -28 -17 -189 c-19 -217 -28 -259 -56 -275 -38 -20 -45 -7 -104 186
-20 66 -54 158 -76 204 -21 46 -39 88 -39 93 0 6 23 30 50 55 74 66 95 111 94
203 0 127 -55 217 -155 253 -28 10 -95 17 -188 21 l-144 5 37 -33z m246 -71
c57 -30 82 -124 60 -228 -9 -46 -21 -67 -62 -112 -58 -64 -84 -72 -74 -24 3
17 6 110 6 205 0 169 1 174 20 174 12 0 34 -7 50 -15z m549 -222 c29 -127 29
-123 -25 -123 -44 0 -45 1 -40 28 2 15 10 67 17 115 6 49 15 85 20 80 4 -4 17
-50 28 -100z"/>
<path d="M8785 1792 c-55 -27 -89 -66 -124 -144 -42 -92 -53 -173 -52 -393 0
-266 23 -341 131 -439 134 -119 286 -44 355 176 91 288 28 674 -127 784 -49
35 -129 41 -183 16z m110 -88 c52 -52 77 -179 78 -394 1 -233 -23 -390 -66
-437 -35 -39 -56 -29 -96 47 -43 80 -66 311 -52 515 10 150 28 218 66 259 28
30 47 33 70 10z"/>
<path d="M9200 1775 l33 -34 -2 -458 -1 -458 -35 -31 c-19 -17 -35 -33 -35
-35 0 -2 54 -4 120 -4 66 0 120 4 120 9 0 4 -11 21 -25 38 l-25 30 0 299 c0
180 4 298 9 295 12 -8 120 -281 156 -396 18 -56 29 -117 32 -177 l6 -93 93 0
c52 0 94 4 94 9 0 5 -10 15 -22 23 -32 21 -35 81 -30 547 l5 394 34 38 34 38
-110 -2 -110 -1 20 -32 c18 -30 19 -48 17 -270 -3 -235 -3 -238 -20 -194 -9
25 -51 135 -93 245 -49 129 -75 209 -71 225 l4 25 -115 2 -115 1 32 -33z"/>
<path d="M5723 1163 c-111 -143 -459 -648 -497 -722 -10 -18 -15 -35 -12 -38
15 -15 131 45 471 247 285 169 362 214 467 274 59 34 106 65 104 71 -2 9 -428
188 -477 200 -22 5 -31 0 -56 -32z m118 -193 c28 -16 23 -54 -12 -95 -23 -25
-37 -34 -50 -30 -19 6 -129 -42 -129 -56 0 -3 23 -2 52 2 62 10 71 4 38 -21
-41 -32 -148 -40 -157 -13 -6 16 92 79 143 92 54 14 94 46 94 76 0 34 -38 44
-61 16 -19 -23 -40 -26 -70 -11 -34 19 -23 39 24 43 85 7 109 7 128 -3z"/>
<path d="M4475 1156 c-44 -18 -147 -59 -229 -91 l-149 -58 26 -22 c15 -11 122
-77 237 -146 116 -68 249 -148 298 -178 48 -30 125 -75 172 -101 47 -26 134
-75 194 -108 60 -34 113 -59 118 -56 12 8 -11 46 -101 169 -44 61 -119 169
-167 240 -48 72 -108 157 -133 191 -25 34 -67 91 -93 128 -56 78 -60 79 -173
32z m203 -182 c30 -21 28 -39 -2 -19 -24 16 -70 12 -82 -7 -10 -16 34 -54 75
-67 57 -17 91 -47 91 -81 0 -58 -51 -75 -132 -43 -53 20 -78 41 -78 64 0 22
22 37 28 20 8 -25 44 -54 51 -42 5 8 13 5 26 -9 10 -11 29 -20 42 -20 32 0 30
34 -4 65 -32 28 -51 31 -59 11 -8 -21 -29 -10 -69 39 -38 48 -38 62 3 88 34
21 81 22 110 1z"/>
<path d="M4703 1165 c3 -7 70 -109 148 -226 78 -118 171 -257 205 -309 70
-108 112 -160 125 -160 6 0 18 14 27 32 9 17 113 175 230 351 116 175 212 321
212 323 0 3 -214 4 -476 4 -382 -2 -474 -4 -471 -15z"/>
</g>
</svg>
