<?xml version="1.0" standalone="no"?>
<!DOCTYPE svg PUBLIC "-//W3C//DTD SVG 20010904//EN"
 "http://www.w3.org/TR/2001/REC-SVG-20010904/DTD/svg10.dtd">
<svg version="1.0" xmlns="http://www.w3.org/2000/svg"
 width="963.000000pt" height="964.000000pt" viewBox="0 0 963.000000 964.000000"
 preserveAspectRatio="xMidYMid meet">
<metadata>
Created by potrace 1.16, written by Peter Selinger 2001-2019
</metadata>
<g transform="translate(0.000000,964.000000) scale(0.100000,-0.100000)"
fill="#000000" stroke="none">
<path d="M4075 9470 c10 -140 44 -270 105 -397 27 -58 50 -113 50 -122 0 -12
2 -13 8 -3 12 17 135 -205 174 -313 25 -68 29 -88 18 -95 -9 -5 3 -18 41 -42
60 -39 110 -90 154 -160 16 -25 45 -56 65 -67 29 -17 31 -21 13 -21 -15 0 -49
28 -103 84 -48 49 -104 97 -138 115 -31 17 -66 38 -77 46 -20 16 -20 16 3 34
23 17 23 17 8 79 -20 77 -42 126 -100 227 -53 92 -62 75 -20 -40 45 -127 64
-188 60 -193 -8 -7 -157 77 -206 117 -25 20 -78 66 -119 104 -41 37 -78 67
-82 67 -11 0 120 -226 179 -310 25 -36 71 -90 102 -121 l56 -57 -86 5 c-47 2
-152 11 -234 19 -82 8 -151 12 -154 9 -3 -3 0 -5 6 -5 6 0 55 -30 108 -66 196
-134 277 -174 378 -189 l49 -8 -38 -20 c-22 -11 -68 -42 -104 -69 -36 -28 -75
-55 -86 -60 -12 -5 -27 -19 -34 -30 -13 -21 -12 -21 70 -14 46 3 118 15 159
26 87 23 130 25 130 8 -1 -28 -39 -95 -68 -120 -44 -37 -134 -64 -303 -93
-250 -42 -355 -85 -451 -183 -43 -43 -60 -70 -72 -111 -9 -29 -13 -57 -11 -61
3 -5 -8 -18 -25 -30 -16 -12 -30 -29 -30 -38 0 -10 54 -71 119 -136 l120 -119
28 18 c25 17 133 99 318 244 76 59 105 88 105 103 0 5 -45 56 -100 112 -55 56
-106 110 -114 121 -7 10 -20 16 -28 13 -8 -4 -96 -70 -196 -147 -99 -78 -184
-141 -189 -141 -4 1 1 8 12 18 11 9 33 37 49 61 49 76 124 133 211 161 22 7
57 24 78 38 29 19 42 23 59 15 26 -11 163 8 263 38 39 12 123 48 188 81 135
70 130 70 179 -26 72 -143 163 -250 230 -272 48 -15 163 104 243 249 42 76 55
93 77 95 17 2 72 -19 151 -58 112 -55 141 -65 274 -91 243 -47 250 -49 312
-80 132 -66 211 -176 211 -293 -1 -133 -82 -216 -210 -216 -64 0 -109 18 -142
58 -38 45 -43 82 -20 136 21 46 57 72 117 86 l30 7 -27 8 c-35 9 -113 -28
-142 -68 -32 -44 -29 -131 6 -184 40 -61 120 -97 197 -90 133 12 228 108 239
242 9 122 -46 234 -157 316 -73 54 -164 88 -309 115 -241 45 -276 54 -348 90
-73 36 -76 38 -70 67 3 16 6 36 6 45 0 12 11 14 68 8 37 -4 104 -14 150 -22
46 -8 88 -14 94 -12 6 2 -8 16 -30 31 -22 14 -55 44 -72 66 -18 22 -68 61
-111 87 -43 26 -77 50 -74 52 2 2 14 -3 27 -12 51 -36 148 -14 244 54 79 56
242 163 279 184 29 17 28 17 -68 11 -54 -3 -126 -12 -160 -20 -69 -16 -173
-20 -181 -6 -6 9 0 19 151 236 91 132 160 245 148 245 -3 0 -43 -31 -88 -68
-124 -104 -291 -222 -311 -222 -14 0 -4 85 14 128 11 26 35 90 54 142 18 52
59 165 90 250 32 85 64 182 71 216 18 77 31 234 19 234 -5 0 -27 -42 -48 -93
-52 -124 -100 -205 -204 -344 -49 -65 -116 -159 -150 -209 -33 -51 -73 -101
-88 -113 l-28 -22 -12 23 c-9 15 -11 43 -7 82 7 69 -5 70 -39 3 -11 -23 -29
-52 -38 -65 l-18 -22 -20 32 c-11 18 -35 78 -52 132 l-32 99 -34 -96 c-36
-107 -63 -159 -79 -154 -5 2 -23 24 -40 49 -59 90 -56 89 -49 18 5 -52 3 -69
-9 -78 -13 -11 -13 -17 -2 -40 20 -42 27 -72 17 -72 -9 0 -88 119 -161 241
-19 31 -67 101 -109 155 -112 149 -161 227 -218 352 -29 63 -56 117 -59 120
-4 4 -4 -40 0 -98z m130 -260 c21 -41 78 -136 126 -211 82 -125 105 -170 79
-154 -19 12 -182 269 -226 355 -41 83 -84 213 -84 255 0 11 15 -23 34 -75 18
-52 50 -129 71 -170z m1310 193 c-18 -101 -116 -294 -243 -480 -23 -34 -42
-67 -42 -72 0 -13 -20 -14 -38 -2 -10 6 -9 11 4 22 26 21 175 251 226 350 25
48 56 116 69 153 13 36 25 66 28 66 2 0 0 -17 -4 -37z m-695 -465 c0 -12 19
-50 41 -85 23 -35 39 -66 37 -69 -3 -3 -24 22 -46 55 -22 33 -43 57 -46 53 -4
-3 -16 -27 -28 -52 -11 -25 -22 -40 -25 -33 -2 6 7 34 21 62 14 28 26 59 26
71 0 11 5 20 10 20 6 0 10 -10 10 -22z m543 -49 c-9 -24 -32 -70 -50 -101 -19
-32 -52 -97 -74 -144 -21 -48 -42 -84 -45 -81 -10 10 64 178 123 277 32 54 59
96 61 95 2 -1 -5 -22 -15 -46z m-621 -178 c31 -46 19 -43 -42 10 -59 51 -77
79 -65 99 7 11 72 -56 107 -109z m248 73 c0 -13 -6 -24 -13 -24 -7 0 -30 -12
-52 -26 l-40 -27 31 34 c18 19 37 44 43 57 14 27 31 20 31 -14z m632 -6 c-22
-36 -110 -115 -247 -223 -89 -70 -135 -128 -135 -172 0 -25 26 -31 58 -14 9 5
40 12 67 16 73 11 45 -9 -40 -28 -38 -9 -79 -19 -89 -23 -17 -7 -19 -3 -14 37
8 71 50 120 205 245 79 64 158 133 175 155 38 47 47 50 20 7z m-1464 -171 c35
-47 84 -109 109 -137 70 -78 39 -59 -43 28 -62 64 -147 175 -213 276 -33 51
90 -88 147 -167z m905 148 c-9 -19 -21 -35 -26 -35 -5 0 -7 3 -5 8 24 48 32
62 39 62 5 0 1 -16 -8 -35z m-843 -151 c0 -3 -13 4 -30 16 -16 12 -30 24 -30
26 0 3 14 -4 30 -16 17 -12 30 -24 30 -26z m446 -87 c19 -38 33 -74 31 -80 -2
-7 -25 31 -52 83 -26 52 -40 88 -30 80 9 -7 32 -45 51 -83z m335 32 c-22 -56
-50 -103 -57 -96 -6 5 63 147 71 147 3 0 -4 -23 -14 -51z m-710 4 c13 -16 12
-17 -3 -4 -17 13 -22 21 -14 21 2 0 10 -8 17 -17z m947 -25 c23 -23 12 -37
-50 -67 -35 -17 -98 -62 -140 -100 -96 -87 -141 -113 -77 -45 25 27 62 70 83
97 35 44 138 125 162 126 5 1 15 -4 22 -11z m-837 -118 c10 -25 4 -90 -9 -90
-4 0 -14 5 -22 10 -13 9 -13 12 3 21 20 12 22 35 4 69 -7 14 -16 34 -20 45
-10 29 31 -22 44 -55z m1329 -14 c0 -6 -144 -52 -236 -75 -71 -18 -178 -52
-239 -76 -20 -8 -20 -8 -1 13 22 25 114 56 296 100 185 45 180 44 180 38z
m-1612 -51 c180 -49 266 -85 284 -118 10 -21 10 -21 -8 -6 -38 33 -109 61
-237 94 -127 32 -248 73 -217 74 8 1 88 -19 178 -44z m168 35 c43 -17 24 -19
-36 -5 -44 11 -49 13 -23 14 17 1 44 -4 59 -9z m851 -31 c-6 -47 -29 -75 -69
-84 -21 -5 -29 -3 -34 10 -5 11 8 31 42 66 26 27 52 49 57 49 5 0 7 -19 4 -41z
m-579 -14 c39 -37 44 -47 32 -55 -17 -12 -60 -4 -76 13 -17 17 -28 87 -14 87
6 0 32 -20 58 -45z m59 -121 c-3 -3 -12 -4 -19 -1 -8 3 -5 6 6 6 11 1 17 -2
13 -5z m521 -76 c-17 -29 -37 -71 -44 -93 -11 -36 -13 -37 -13 -12 -1 31 19
75 56 125 36 48 37 39 1 -20z m-747 15 c13 -16 12 -17 -3 -4 -10 7 -18 15 -18
17 0 8 8 3 21 -13z m602 0 c-10 -32 -134 -143 -157 -142 -20 2 -20 2 -1 6 11
2 52 37 90 78 39 41 71 75 72 75 1 0 0 -8 -4 -17z m-471 -71 c32 -71 15 -57
-20 16 -18 37 -25 58 -16 47 9 -11 25 -39 36 -63z m740 48 l22 -20 -34 0 c-28
0 -43 -9 -82 -51 -48 -51 -57 -72 -38 -84 6 -3 10 3 10 14 0 29 24 26 38 -4 7
-14 12 -30 12 -35 0 -13 -37 -13 -45 0 -3 6 -17 10 -31 10 -13 0 -24 3 -24 6
0 19 127 181 143 183 4 1 17 -8 29 -19z m-574 -21 c45 -33 49 -39 29 -39 -16
0 -97 69 -81 70 5 0 29 -14 52 -31z m-305 11 c-23 -5 -51 -14 -62 -19 -11 -6
-23 -11 -28 -11 -26 2 68 39 97 38 35 0 35 0 -7 -8z m32 -30 c3 -5 -1 -10 -9
-10 -9 0 -16 5 -16 10 0 6 4 10 9 10 6 0 13 -4 16 -10z m1000 -45 l30 -25 -37
21 c-21 11 -38 23 -38 25 0 10 17 2 45 -21z m-905 -62 c0 -19 -52 -63 -74 -63
-3 0 5 22 19 49 14 28 22 58 19 68 -4 12 0 10 15 -7 11 -14 21 -35 21 -47z
m279 36 c17 -5 20 -8 8 -8 -18 -1 -77 25 -77 35 0 2 10 -1 22 -7 12 -6 33 -15
47 -20z m207 -26 c8 -54 -9 -96 -41 -101 -16 -2 -15 2 9 21 21 19 27 30 21 46
-9 30 -26 22 -52 -25 -17 -30 -23 -34 -23 -18 0 29 20 86 38 107 26 29 40 20
48 -30z m237 40 c-7 -2 -21 -2 -30 0 -10 3 -4 5 12 5 17 0 24 -2 18 -5z m-551
-33 c23 -17 44 -60 31 -60 -3 0 -16 11 -29 25 -29 32 -54 33 -54 2 0 -17 11
-28 45 -45 44 -21 59 -42 30 -42 -8 0 -31 12 -52 26 l-38 26 -3 -46 c-4 -58
16 -97 95 -180 54 -56 68 -66 97 -66 47 0 145 74 192 145 38 57 48 67 37 38
-33 -91 -169 -203 -246 -203 -30 0 -134 106 -168 170 -43 82 -26 230 26 230 7
0 24 -9 37 -20z m-655 -405 c54 -58 98 -112 98 -119 0 -14 -395 -326 -413
-326 -12 0 -212 205 -212 217 0 10 146 130 307 252 46 34 85 67 88 72 14 22
39 3 132 -96z"/>
<path d="M3906 7682 c-3 -6 -73 -63 -154 -126 -82 -63 -164 -129 -183 -147
-19 -18 -37 -32 -41 -31 -15 4 6 -34 35 -65 35 -37 57 -42 57 -14 0 40 52 54
73 19 17 -25 -10 -51 -45 -44 -40 8 -36 -15 8 -53 26 -23 42 -30 57 -26 17 5
19 4 7 -4 -8 -5 -11 -13 -7 -17 6 -6 46 22 242 175 44 34 97 74 117 89 21 15
37 32 38 38 0 20 -196 219 -204 206z m8 -67 c-6 -16 -24 -21 -24 -7 0 11 11
22 21 22 5 0 6 -7 3 -15z m93 -51 c9 -24 -10 -49 -38 -49 -24 0 -36 23 -25 51
7 19 55 18 63 -2z m-119 -29 c44 -18 72 -59 72 -107 0 -87 -97 -153 -188 -128
-85 22 -125 113 -80 180 43 64 119 86 196 55z m162 -65 c0 -5 -4 -10 -10 -10
-5 0 -10 5 -10 10 0 6 5 10 10 10 6 0 10 -4 10 -10z m-440 -90 c0 -5 -4 -10
-10 -10 -5 0 -10 5 -10 10 0 6 5 10 10 10 6 0 10 -4 10 -10z m134 -151 c-3 -5
-10 -7 -15 -3 -5 3 -7 10 -3 15 3 5 10 7 15 3 5 -3 7 -10 3 -15z"/>
<path d="M3961 7560 c-16 -9 -6 -30 15 -30 15 0 20 25 6 34 -4 2 -14 1 -21 -4z"/>
<path d="M3748 7514 c-31 -16 -58 -61 -58 -96 0 -41 36 -86 79 -99 87 -26 171
23 171 101 0 23 -5 50 -10 61 -25 45 -126 64 -182 33z m145 -28 c4 -10 0 -12
-14 -9 -22 6 -26 23 -5 23 8 0 16 -6 19 -14z m-113 -17 c0 -7 10 -9 25 -7 35
7 59 -13 50 -41 -5 -18 -13 -22 -38 -19 -25 2 -33 8 -35 28 -2 14 -9 31 -14
38 -7 8 -7 12 1 12 6 0 11 -5 11 -11z m137 -51 c-3 -7 -5 -2 -5 12 0 14 2 19
5 13 2 -7 2 -19 0 -25z m-174 -36 c5 -7 7 -15 3 -19 -9 -10 -15 0 -20 33 -2
16 -1 22 1 14 3 -8 10 -21 16 -28z m152 -11 c-3 -6 -11 -11 -17 -11 -6 0 -6 6
2 15 14 17 26 13 15 -4z m-49 -18 c-2 -9 -9 -19 -16 -21 -9 -3 -11 1 -7 12 4
10 7 22 7 27 0 6 4 8 9 5 5 -4 8 -14 7 -23z"/>
<path d="M3800 7436 c0 -8 4 -17 9 -20 11 -7 33 18 24 27 -12 12 -33 7 -33 -7z"/>
<path d="M3644 7309 c-7 -12 15 -31 28 -23 4 3 8 12 8 20 0 17 -26 19 -36 3z"/>
<path d="M3534 9082 c-28 -10 -82 -36 -120 -59 -38 -23 -96 -53 -129 -66 -205
-85 -617 -295 -735 -374 l-35 -23 71 0 c69 0 77 3 205 69 134 69 362 173 409
186 14 3 -40 -27 -120 -67 -80 -41 -188 -98 -240 -128 -92 -52 -94 -55 -68
-64 18 -6 29 -19 33 -38 4 -15 8 -28 11 -28 2 0 31 21 64 47 33 25 62 44 64
42 2 -2 -26 -29 -62 -59 l-67 -56 -2 -124 c-2 -121 -2 -124 15 -100 105 154
397 499 410 486 2 -3 -55 -80 -127 -171 -148 -188 -301 -433 -301 -483 0 -45
-19 -79 -49 -92 -19 -8 -38 -33 -64 -86 -20 -41 -37 -78 -37 -83 0 -5 28 -11
61 -13 45 -3 65 -10 75 -23 21 -28 20 -501 0 -550 l-15 -35 -151 0 c-147 0
-151 -1 -159 -22 -11 -32 -34 -216 -27 -226 9 -15 91 -333 131 -506 2 -11 -8
-44 -22 -74 -23 -48 -28 -53 -38 -39 -15 21 -29 22 -21 2 3 -8 1 -15 -5 -15
-6 0 -7 -5 -3 -12 5 -8 2 -9 -9 -5 -12 4 -17 1 -17 -9 0 -12 5 -14 18 -9 72
31 94 35 138 25 26 -6 55 -15 65 -21 30 -16 22 0 -18 37 -25 23 -40 31 -47 24
-18 -18 -24 -11 -24 28 -2 95 63 206 228 392 l76 85 -12 75 c-7 41 -13 91 -13
111 -1 30 -6 38 -36 52 -19 9 -35 23 -35 30 0 8 13 38 29 68 21 39 30 75 35
129 16 177 29 272 52 378 13 63 24 117 24 122 0 4 -29 21 -65 36 -35 16 -67
35 -71 44 -3 9 45 116 118 260 138 274 132 268 220 230 27 -12 55 -19 62 -17
7 3 18 24 25 47 17 57 25 45 9 -14 -11 -40 -10 -48 2 -56 26 -17 38 -11 45 23
27 123 119 340 191 448 92 139 210 203 275 150 19 -16 24 -28 22 -64 -1 -25
-9 -60 -18 -78 l-18 -34 28 25 c37 34 55 79 55 141 0 63 -26 110 -74 133 -45
21 -147 20 -212 -2z"/>
<path d="M5894 9086 c-90 -41 -101 -201 -19 -276 l28 -25 -16 30 c-54 109 -11
184 91 156 93 -25 172 -113 256 -286 82 -170 122 -295 155 -485 47 -268 50
-467 12 -687 -42 -236 -151 -459 -305 -622 -96 -101 -354 -257 -506 -306 -30
-10 -68 -24 -83 -32 l-28 -14 30 -34 c39 -45 55 -118 49 -236 -5 -116 -37
-193 -128 -304 -33 -40 -63 -87 -66 -102 -6 -28 -4 -30 113 -82 65 -29 145
-70 179 -92 33 -21 64 -39 68 -39 4 0 50 20 101 45 180 88 358 111 613 81
l144 -18 36 43 c68 79 123 154 154 207 16 29 32 51 35 49 7 -7 -38 -90 -105
-197 -52 -81 -58 -96 -44 -102 27 -11 227 -65 230 -63 2 2 19 38 37 81 41 93
45 85 11 -21 l-24 -76 39 -31 c21 -17 41 -38 44 -47 15 -49 -61 -335 -122
-454 -19 -38 -32 -71 -30 -73 7 -7 105 122 160 210 89 142 165 259 207 319 53
73 102 193 156 382 44 154 55 167 30 35 -31 -158 -64 -282 -100 -371 -6 -14 5
-17 71 -22 70 -6 149 -23 194 -41 13 -6 20 12 42 102 68 278 75 564 22 872
-16 92 -18 106 -10 98 11 -11 47 -216 66 -378 24 -198 21 -441 -6 -585 -31
-165 -33 -147 22 -173 26 -13 71 -41 99 -63 28 -21 53 -39 56 -39 7 0 33 117
49 223 6 43 14 76 16 73 2 -2 -1 -78 -7 -168 l-12 -164 47 -77 48 -77 -6 -93
c-6 -101 -38 -267 -68 -354 -38 -113 6 -70 76 72 75 153 82 195 90 560 11 487
-16 806 -99 1149 -55 228 -158 500 -281 746 -142 283 -276 488 -462 707 -129
151 -418 450 -496 513 -93 74 -54 58 47 -19 169 -129 287 -233 429 -375 314
-315 526 -642 722 -1111 160 -386 222 -693 232 -1151 6 -266 -1 -398 -30 -568
l-12 -70 50 -26 c28 -15 64 -45 83 -70 19 -25 38 -46 43 -48 11 -5 45 111 74
253 38 182 51 386 37 547 -10 115 -58 398 -91 538 -6 25 -10 50 -10 55 1 41
88 -289 120 -460 27 -139 37 -438 19 -586 -13 -121 -49 -281 -80 -358 l-21
-54 26 -36 c59 -80 95 -141 125 -214 18 -42 36 -75 39 -72 8 4 102 223 156
360 31 78 35 84 30 45 -8 -61 -101 -342 -137 -414 l-29 -58 19 -47 c43 -98 92
-339 92 -446 0 -204 -182 -672 -319 -819 -33 -36 -34 -38 -11 -31 135 40 354
380 475 735 117 345 153 519 176 840 32 458 -58 1009 -240 1470 -33 84 -94
211 -98 206 -2 -2 17 -66 42 -142 62 -187 97 -315 139 -524 38 -184 48 -266
68 -548 13 -198 2 -465 -31 -712 -20 -147 -51 -304 -58 -296 -2 2 5 66 16 143
36 247 43 375 38 673 -4 265 -11 351 -47 600 -32 223 -103 482 -227 825 -170
473 -532 1039 -857 1343 -104 97 -396 337 -546 448 -206 154 -450 302 -685
416 -125 61 -87 52 65 -14 376 -165 700 -364 1060 -652 169 -135 360 -322 399
-390 16 -28 64 -98 106 -156 236 -320 407 -613 580 -995 137 -301 210 -540
298 -980 l14 -70 16 55 c9 30 24 84 32 120 17 69 73 200 86 200 36 0 180 -314
243 -531 37 -130 76 -354 76 -441 0 -43 4 -78 9 -78 11 0 21 126 21 266 0 307
-157 916 -325 1259 -169 345 -465 783 -741 1095 -488 554 -1266 1124 -1951
1430 -98 44 -200 92 -228 106 -176 95 -182 97 -268 101 -56 2 -92 -1 -113 -11z
m764 -640 c41 -50 111 -147 156 -216 231 -351 331 -568 411 -894 59 -238 69
-335 69 -661 0 -267 -2 -303 -28 -460 -15 -93 -47 -252 -71 -353 -43 -175
-115 -384 -137 -398 -14 -9 -15 -22 61 431 33 198 66 412 72 475 16 157 16
564 1 670 -28 188 -76 401 -123 546 -94 284 -319 688 -539 968 -71 91 -130
168 -130 173 0 12 176 -179 258 -281z m-223 -108 c82 -259 120 -546 97 -744
-24 -210 -159 -668 -236 -797 -21 -37 -43 -56 -102 -90 -42 -23 -125 -75 -186
-114 -112 -74 -276 -168 -282 -162 -3 4 132 116 237 197 23 18 93 64 155 103
61 39 123 85 137 103 75 98 189 460 221 701 12 90 15 166 11 305 -6 201 -20
301 -67 485 -34 134 -32 125 -25 125 2 0 20 -51 40 -112z m140 -306 c15 -104
19 -308 6 -397 -4 -33 -9 36 -14 200 -4 138 -10 264 -13 280 -4 17 -4 28 -1
24 4 -3 13 -51 22 -107z m149 -339 c38 -183 50 -303 49 -493 0 -188 -11 -280
-49 -432 -48 -193 -89 -275 -197 -394 -94 -103 -287 -215 -547 -317 -142 -55
-345 -120 -361 -115 -10 3 122 57 356 144 138 50 346 156 428 216 97 72 158
146 216 261 56 112 103 276 121 417 23 194 8 486 -40 744 -34 185 -17 162 24
-31z m1335 83 c66 -49 349 -340 462 -476 222 -267 440 -596 588 -890 80 -158
97 -199 181 -446 62 -181 75 -257 17 -99 -149 403 -368 800 -655 1185 -47 63
-103 139 -125 168 -65 88 -232 279 -367 417 -138 143 -167 175 -155 175 4 0
28 -15 54 -34z m-1148 -1397 c-23 -68 -49 -138 -60 -155 -32 -53 -206 -159
-433 -266 -193 -90 -428 -183 -403 -159 6 5 91 46 190 90 429 194 574 278 631
363 18 26 49 101 70 167 22 66 40 112 42 102 2 -10 -15 -74 -37 -142z m506
-231 c-3 -8 -6 -5 -6 6 -1 11 2 17 5 13 3 -3 4 -12 1 -19z"/>
<path d="M2436 8537 c-14 -11 -16 -43 -14 -267 l3 -255 174 -3 c119 -2 178 1
187 9 22 18 20 491 -1 513 -13 13 -44 15 -175 15 -104 0 -164 -5 -174 -12z
m332 -259 l-3 -243 -149 -3 c-101 -2 -153 1 -162 9 -11 9 -14 57 -14 239 0
124 3 230 7 233 3 4 78 7 165 7 l158 0 -2 -242z"/>
<path d="M2460 8398 l0 -118 55 0 c30 0 55 3 55 6 0 4 -23 33 -51 66 -66 76
-56 88 12 14 28 -31 55 -56 60 -56 5 0 9 43 9 95 0 57 4 95 10 95 6 0 10 -38
10 -95 0 -52 4 -95 8 -95 5 0 36 29 70 65 47 50 62 73 62 95 0 16 -4 32 -10
35 -5 3 -10 -1 -10 -9 0 -8 -5 -18 -11 -22 -8 -4 -9 0 -4 15 6 21 4 21 -114
21 -67 0 -121 -3 -121 -8 0 -4 11 -24 25 -44 27 -40 30 -48 16 -48 -5 0 -14
12 -20 28 -6 15 -20 38 -31 52 l-20 25 0 -117z m236 30 c-11 -15 -16 -18 -16
-7 0 16 21 42 28 34 2 -2 -3 -14 -12 -27z"/>
<path d="M2703 8358 c-29 -30 -53 -59 -53 -66 0 -18 99 -16 106 2 3 7 4 37 2
65 l-3 52 -52 -53z"/>
<path d="M2594 8279 c-10 -17 13 -36 27 -22 12 12 4 33 -11 33 -5 0 -12 -5
-16 -11z"/>
<path d="M2461 8153 c0 -60 3 -102 6 -95 7 17 23 15 23 -3 0 -12 20 -15 120
-15 104 0 120 2 120 16 0 14 3 14 15 4 13 -11 15 -8 15 18 0 25 -13 46 -62 96
-33 36 -65 63 -70 60 -4 -3 -8 -46 -8 -95 0 -58 -4 -88 -10 -84 -5 3 -10 46
-10 96 0 49 -4 89 -9 89 -4 0 -32 -25 -61 -56 -29 -30 -54 -53 -56 -51 -6 5
64 89 82 100 29 16 12 27 -41 27 l-55 0 1 -107z m63 -47 c-9 -15 -19 -24 -22
-22 -2 3 3 17 12 32 10 14 20 23 23 21 2 -3 -3 -17 -13 -31z m185 -11 c0 -5
-6 -1 -14 9 -8 11 -15 24 -15 30 0 5 7 1 15 -10 8 -10 14 -23 14 -29z"/>
<path d="M2650 8254 c0 -9 94 -114 103 -114 4 0 7 27 7 60 l0 60 -55 0 c-30 0
-55 -3 -55 -6z"/>
<path d="M2294 8417 l-91 -62 14 -32 c7 -18 15 -33 17 -33 3 0 41 25 85 56 78
53 81 57 81 95 0 21 -3 39 -7 38 -5 0 -49 -28 -99 -62z"/>
<path d="M2055 8365 c-193 -71 -230 -90 -228 -114 2 -12 52 -119 112 -239 101
-203 110 -217 137 -219 35 -3 293 96 307 118 7 11 -18 73 -98 245 -97 206
-118 245 -135 243 -3 0 -45 -15 -95 -34z m180 -157 c78 -163 125 -270 125
-286 0 -12 -235 -103 -269 -105 -24 -2 -33 13 -129 200 -56 111 -103 212 -105
225 -2 17 7 25 43 39 181 71 227 88 241 89 11 0 41 -51 94 -162z"/>
<path d="M2130 8350 c0 -5 5 -10 10 -10 6 0 10 5 10 10 0 6 -4 10 -10 10 -5 0
-10 -4 -10 -10z"/>
<path d="M2005 8311 c-54 -21 -101 -44 -103 -50 -3 -8 4 -8 24 -1 15 6 29 9
31 6 2 -2 -9 -8 -24 -14 -59 -22 -60 -17 36 -215 65 -135 94 -187 107 -187 16
0 15 2 -2 21 l-19 21 32 -18 c20 -12 28 -21 20 -26 -6 -4 -9 -10 -6 -13 4 -3
52 11 108 32 76 28 101 42 101 55 0 10 5 18 10 18 23 0 15 20 -104 273 -25 55
-46 103 -46 108 0 16 -37 10 -116 -21 -43 -16 -79 -28 -81 -26 -2 2 28 16 66
31 39 15 71 31 71 36 0 11 12 15 -105 -30z m125 -57 c0 -8 -4 -12 -10 -9 -5 3
-10 10 -10 16 0 5 5 9 10 9 6 0 10 -7 10 -16z m-70 -14 c0 -5 -4 -10 -10 -10
-5 0 -10 5 -10 10 0 6 5 10 10 10 6 0 10 -4 10 -10z m-90 -30 c0 -5 -4 -10
-10 -10 -5 0 -10 5 -10 10 0 6 5 10 10 10 6 0 10 -4 10 -10z m230 -35 c52 -47
45 -140 -14 -176 -62 -38 -166 -16 -196 42 -7 12 -10 40 -7 63 6 46 52 93 96
98 42 5 100 -8 121 -27z m70 -205 c0 -5 -4 -10 -10 -10 -5 0 -10 5 -10 10 0 6
5 10 10 10 6 0 10 -4 10 -10z m-90 -30 c0 -5 -7 -10 -16 -10 -8 0 -12 5 -9 10
3 6 10 10 16 10 5 0 9 -4 9 -10z m101 -20 c-13 -11 -28 -20 -35 -20 -6 0 3 9
19 19 39 25 46 25 16 1z m-171 -4 c0 -3 -4 -8 -10 -11 -5 -3 -10 -1 -10 4 0 6
5 11 10 11 6 0 10 -2 10 -4z m110 -25 c-8 -5 -26 -11 -40 -15 -21 -5 -20 -3 5
9 32 15 60 20 35 6z"/>
<path d="M2039 8151 c-17 -18 -29 -40 -29 -56 0 -42 50 -85 98 -85 91 0 129
115 51 155 -45 24 -87 19 -120 -14z m80 -40 c8 -5 11 -16 6 -29 -5 -18 -9 -20
-25 -10 -13 8 -16 16 -10 24 6 6 7 14 3 17 -9 10 10 8 26 -2z"/>
<path d="M2070 7830 c0 -5 5 -10 10 -10 6 0 10 5 10 10 0 6 -4 10 -10 10 -5 0
-10 -4 -10 -10z"/>
<path d="M2935 8154 c-94 -192 -114 -239 -103 -249 15 -14 240 -110 280 -120
23 -6 30 -2 48 27 50 82 221 431 218 446 -3 18 -238 121 -294 129 l-32 5 -117
-238z m280 163 c87 -36 131 -59 133 -70 3 -15 -196 -417 -218 -440 -7 -8 -245
87 -268 108 -10 9 11 57 97 233 61 122 114 222 118 222 4 0 66 -24 138 -53z"/>
<path d="M3072 8310 c0 -19 5 -50 12 -69 l12 -34 21 62 c14 40 17 61 10 58 -7
-2 -17 -23 -23 -48 l-11 -44 -10 55 c-9 44 -11 48 -11 20z"/>
<path d="M3151 8302 c-18 -34 -53 -133 -48 -138 2 -2 19 30 37 71 18 41 30 78
27 81 -3 3 -10 -3 -16 -14z"/>
<path d="M3151 8218 c-23 -50 -39 -93 -37 -96 3 -2 25 37 50 86 25 50 42 93
37 96 -4 3 -27 -36 -50 -86z"/>
<path d="M3040 8276 c0 -7 7 -33 15 -56 8 -23 15 -52 14 -64 0 -13 -7 -2 -17
26 -18 50 -32 71 -32 47 0 -19 48 -118 49 -101 1 7 5 11 10 8 9 -6 1 43 -18
112 -12 42 -21 54 -21 28z"/>
<path d="M3182 8209 c-45 -86 -48 -94 -32 -84 15 9 92 165 82 165 -4 0 -27
-36 -50 -81z"/>
<path d="M3227 8224 c-36 -73 -27 -83 10 -12 37 70 36 68 26 68 -5 0 -21 -25
-36 -56z"/>
<path d="M3279 8248 c-7 -13 -19 -34 -27 -48 -8 -14 1 -8 22 15 20 22 36 43
36 48 0 16 -20 6 -31 -15z"/>
<path d="M3304 8217 c-13 -19 -49 -48 -92 -71 -40 -22 -72 -43 -72 -47 0 -5 7
-5 17 -2 11 4 14 3 9 -5 -4 -7 -5 -12 -3 -12 13 0 116 51 122 59 9 16 -1 14
-56 -15 -75 -37 -70 -23 7 22 37 22 74 53 86 72 26 42 9 42 -18 -1z"/>
<path d="M2996 8185 c-5 -14 -1 -24 16 -36 27 -21 37 -16 16 8 -9 10 -17 25
-20 32 -3 12 -6 10 -12 -4z"/>
<path d="M2970 8135 c0 -7 72 -36 77 -31 3 3 -9 12 -26 20 -30 16 -51 20 -51
11z"/>
<path d="M2963 8088 c-13 -6 -23 -14 -23 -18 0 -8 65 12 76 23 11 11 -28 7
-53 -5z"/>
<path d="M3080 8084 c0 -9 7 -14 17 -12 25 5 28 28 4 28 -12 0 -21 -6 -21 -16z"/>
<path d="M3215 8085 l-30 -14 26 -1 c15 0 32 7 39 15 15 18 5 18 -35 0z"/>
<path d="M2976 8057 c-33 -18 -61 -38 -64 -45 -2 -7 19 2 47 19 28 18 53 30
56 27 3 -3 -22 -22 -55 -42 -64 -40 -89 -64 -40 -40 16 9 32 19 35 25 4 5 10
9 16 9 5 0 -5 -25 -22 -55 -17 -30 -27 -55 -22 -55 12 0 65 99 58 110 -3 5 8
16 25 25 l31 16 -14 -23 c-42 -69 -76 -138 -67 -138 5 0 27 33 47 73 56 108
57 110 30 101 -19 -6 -20 -5 -8 10 17 21 17 21 -53 -17z"/>
<path d="M3140 8066 c0 -2 20 -11 45 -19 51 -18 62 -7 12 11 -34 12 -57 15
-57 8z"/>
<path d="M3026 7961 c-26 -50 -43 -91 -38 -91 10 0 95 171 88 177 -3 3 -25
-36 -50 -86z"/>
<path d="M3057 7953 c-21 -47 -36 -88 -33 -90 7 -7 77 149 74 163 -2 7 -20
-26 -41 -73z"/>
<path d="M3185 8010 c10 -11 22 -17 28 -13 6 4 3 12 -8 20 -28 20 -41 16 -20
-7z"/>
<path d="M3145 7981 c6 -45 24 -91 25 -61 0 8 -7 35 -15 60 l-15 45 5 -44z"/>
<path d="M3082 7928 c-18 -44 -30 -83 -28 -86 3 -3 9 4 12 14 4 10 17 43 29
72 l22 53 13 -58 c7 -32 15 -53 17 -47 3 9 -22 123 -29 130 -2 1 -18 -34 -36
-78z"/>
<path d="M3170 7988 c0 -9 5 -20 10 -23 13 -8 13 5 0 25 -8 13 -10 13 -10 -2z"/>
<path d="M2904 7946 c-9 -15 -14 -29 -12 -32 3 -2 13 7 22 22 10 14 15 28 13
31 -3 2 -13 -7 -23 -21z"/>
<path d="M3098 7880 c-7 -46 -5 -55 9 -49 4 2 6 24 3 49 l-5 45 -7 -45z"/>
<path d="M2331 8275 c-34 -25 -61 -49 -61 -54 0 -6 16 -45 36 -88 l35 -78 29
35 c28 33 29 40 30 133 0 53 -2 97 -4 97 -2 0 -31 -20 -65 -45z"/>
<path d="M1517 8025 c-78 -59 -127 -102 -127 -113 1 -17 309 -379 337 -395 10
-6 32 2 68 25 82 50 225 157 225 167 0 5 -24 35 -52 68 -29 33 -109 123 -178
201 -68 78 -129 142 -135 142 -6 0 -68 -43 -138 -95z m255 -63 c219 -247 224
-254 205 -266 -10 -6 -63 -44 -119 -83 -55 -40 -106 -73 -112 -73 -11 0 -308
332 -328 366 -5 8 30 40 109 98 65 47 121 86 125 86 4 0 58 -57 120 -128z"/>
<path d="M1555 8008 c-49 -35 -90 -71 -93 -80 -2 -9 -9 -15 -15 -14 -7 2 -9 1
-4 -1 4 -3 7 -9 7 -15 0 -12 65 -90 187 -224 108 -118 119 -121 210 -53 38 28
73 53 80 56 6 2 14 16 18 30 5 20 -3 36 -40 81 -83 102 -246 282 -254 282 -5
0 -48 -28 -96 -62z m44 -44 c5 4 9 -2 8 -13 -2 -29 -42 -25 -43 6 -2 19 1 21
12 13 7 -7 18 -9 23 -6z m163 -67 c9 -6 25 -25 34 -43 43 -80 -51 -167 -140
-130 -70 29 -89 110 -38 158 15 14 36 28 47 31 25 6 74 -2 97 -16z m76 -213
c0 -17 -6 -21 -24 -20 -34 2 -34 41 0 41 17 0 24 -6 24 -21z"/>
<path d="M1637 7880 c-37 -29 -37 -77 0 -115 24 -23 34 -26 68 -22 70 10 97
71 53 122 -32 36 -85 43 -121 15z m76 -66 c-6 -16 -13 -17 -32 -5 -19 12 -5
30 18 24 12 -3 17 -11 14 -19z"/>
<path d="M1960 7709 c0 -5 5 -7 10 -4 6 3 10 8 10 11 0 2 -4 4 -10 4 -5 0 -10
-5 -10 -11z"/>
<path d="M1735 7560 c3 -5 8 -10 11 -10 2 0 4 5 4 10 0 6 -5 10 -11 10 -5 0
-7 -4 -4 -10z"/>
<path d="M3478 8052 c-32 -37 -109 -125 -172 -197 -64 -71 -116 -137 -116
-146 0 -14 222 -176 263 -192 11 -4 27 3 46 21 46 43 331 372 331 381 0 5 -54
48 -120 95 -66 48 -122 91 -125 96 -16 26 -52 7 -107 -58z m216 -52 c58 -41
105 -79 106 -84 0 -5 -28 -39 -62 -75 -35 -37 -107 -118 -162 -181 -54 -63
-103 -117 -108 -118 -15 -6 -248 154 -248 170 0 10 63 84 234 275 88 100 102
111 118 100 9 -6 64 -46 122 -87z"/>
<path d="M3395 7899 c-88 -100 -161 -185 -163 -190 -2 -5 1 -9 8 -9 6 0 8 5 5
10 -3 6 -2 10 2 10 5 0 13 -10 18 -22 6 -12 46 -46 90 -75 44 -29 85 -57 92
-63 18 -15 26 -12 19 6 -4 10 -1 14 6 12 6 -2 57 48 111 111 55 64 117 134
138 156 57 60 51 81 -42 148 -41 30 -86 61 -100 70 l-25 17 -159 -181z m146
68 c-8 -8 -11 -7 -11 4 0 20 13 34 18 19 3 -7 -1 -17 -7 -23z m109 -8 c0 -5
-7 -9 -15 -9 -15 0 -20 12 -9 23 8 8 24 -1 24 -14z m-68 -91 c-16 -46 -16 -47
6 -71 31 -33 28 -40 -18 -33 -37 6 -40 4 -40 -16 0 -13 -4 -29 -9 -37 -7 -11
-13 -7 -25 18 -9 17 -20 31 -23 31 -4 0 -17 -12 -29 -27 -12 -16 -25 -25 -29
-21 -4 3 3 16 14 27 12 12 21 23 21 26 0 2 -17 7 -37 11 l-37 7 23 18 c13 11
29 19 37 19 18 0 18 21 -1 46 -23 30 -18 33 28 16 42 -15 44 -15 87 11 24 14
45 25 47 24 1 -2 -5 -24 -15 -49z m98 7 c0 -8 -4 -15 -10 -15 -5 0 -10 7 -10
15 0 8 5 15 10 15 6 0 10 -7 10 -15z m-330 -124 c0 -5 -7 -12 -16 -15 -14 -5
-15 -4 -4 9 14 17 20 19 20 6z m58 -70 c3 -8 -1 -12 -9 -9 -7 2 -15 10 -17 17
-3 8 1 12 9 9 7 -2 15 -10 17 -17z m74 -43 c-15 -15 -26 -4 -18 18 5 13 9 15
18 6 9 -9 9 -15 0 -24z m-112 12 c0 -5 -4 -10 -10 -10 -5 0 -10 5 -10 10 0 6
5 10 10 10 6 0 10 -4 10 -10z"/>
<path d="M3535 7865 c-17 -14 -18 -17 -3 -31 14 -14 16 -13 26 15 12 34 7 38
-23 16z"/>
<path d="M3457 7854 c3 -7 9 -14 14 -14 14 0 10 17 -5 23 -10 4 -13 1 -9 -9z"/>
<path d="M3484 7825 c-8 -20 4 -35 27 -35 21 0 25 20 7 38 -16 16 -27 15 -34
-3z"/>
<path d="M3434 7805 c-18 -14 -18 -14 3 -15 23 0 39 15 25 24 -5 3 -18 -1 -28
-9z"/>
<path d="M3540 7790 c0 -5 9 -10 21 -10 11 0 17 5 14 10 -3 6 -13 10 -21 10
-8 0 -14 -4 -14 -10z"/>
<path d="M3490 7773 c1 -18 18 -35 24 -24 4 6 4 16 1 21 -7 12 -25 13 -25 3z"/>
<path d="M3770 7914 c0 -8 5 -12 10 -9 6 4 8 11 5 16 -9 14 -15 11 -15 -7z"/>
<path d="M1809 8052 l-40 -37 29 -29 30 -28 37 34 37 34 -16 32 c-9 18 -21 32
-27 32 -5 0 -28 -17 -50 -38z"/>
<path d="M2384 7995 c-4 -10 -2 -26 4 -36 31 -49 7 -83 -84 -118 -64 -25 -72
-31 -117 -96 -87 -127 -140 -218 -120 -210 29 12 67 16 78 8 6 -4 28 -37 49
-73 22 -36 70 -112 108 -169 38 -56 67 -105 65 -107 -4 -4 -148 215 -214 324
-7 12 -21 22 -31 22 -9 0 -78 -31 -152 -68 -101 -50 -135 -72 -135 -86 0 -21
233 -381 252 -390 13 -5 283 121 295 138 4 5 2 18 -3 28 -7 12 -6 25 3 41 9
16 14 92 16 277 1 140 5 265 7 277 6 26 51 43 119 43 l52 0 42 85 c23 47 42
87 42 90 0 3 -53 5 -117 5 -94 0 -120 3 -135 16 -16 16 -18 15 -24 -1z m-252
-492 c8 -10 48 -71 89 -135 139 -220 139 -220 128 -235 -6 -7 -15 -13 -20 -13
-5 0 -55 -22 -113 -50 -58 -27 -109 -50 -114 -50 -11 0 -242 345 -242 363 0
10 228 134 251 136 3 1 13 -7 21 -16z"/>
<path d="M1995 7443 c-49 -23 -89 -48 -87 -54 1 -6 -2 -16 -7 -23 -16 -19 172
-299 207 -308 34 -10 192 58 192 83 0 8 5 20 11 26 17 17 -161 293 -199 308
-24 10 -38 6 -117 -32z m115 -13 c0 -5 -2 -10 -4 -10 -3 0 -8 5 -11 10 -3 6
-1 10 4 10 6 0 11 -4 11 -10z m-78 -15 c0 -5 -5 -11 -11 -13 -6 -2 -11 4 -11
13 0 9 5 15 11 13 6 -2 11 -8 11 -13z m-62 -55 c0 -5 -4 -10 -10 -10 -5 0 -10
5 -10 10 0 6 5 10 10 10 6 0 10 -4 10 -10z m184 -4 c109 -45 75 -196 -44 -196
-99 0 -156 115 -87 177 39 36 78 41 131 19z m106 -186 c0 -5 -4 -10 -10 -10
-5 0 -10 5 -10 10 0 6 5 10 10 10 6 0 10 -4 10 -10z m-56 -62 c-3 -5 -12 -4
-20 3 -7 6 -11 15 -8 21 3 5 12 4 20 -3 7 -6 11 -15 8 -21z m-94 -8 c0 -5 -4
-10 -10 -10 -5 0 -10 5 -10 10 0 6 5 10 10 10 6 0 10 -4 10 -10z"/>
<path d="M2059 7338 c-9 -7 -22 -30 -29 -52 -11 -34 -10 -41 7 -64 28 -38 68
-48 109 -28 59 27 69 99 20 131 -34 23 -88 29 -107 13z m69 -71 c4 -20 -25
-34 -40 -19 -15 15 -1 44 19 40 10 -2 19 -11 21 -21z"/>
<path d="M1870 7380 c0 -5 5 -10 10 -10 6 0 10 5 10 10 0 6 -4 10 -10 10 -5 0
-10 -4 -10 -10z"/>
<path d="M2320 7150 c0 -5 5 -10 11 -10 5 0 7 5 4 10 -3 6 -8 10 -11 10 -2 0
-4 -4 -4 -10z"/>
<path d="M1907 7922 l-26 -27 74 -88 c41 -49 75 -91 75 -95 -2 -25 -40 -61
-145 -135 -66 -46 -131 -88 -144 -92 -19 -6 -31 2 -76 51 l-54 58 -20 -25
c-11 -13 -20 -29 -21 -35 0 -6 50 -55 110 -109 66 -58 110 -104 110 -116 0
-10 -14 -34 -31 -53 -51 -58 -214 -186 -238 -186 -12 0 -55 28 -98 65 -69 59
-77 63 -88 48 -25 -37 -166 -301 -204 -384 -125 -267 -282 -782 -321 -1059
-36 -250 -43 -336 -47 -593 -5 -294 3 -441 38 -680 11 -77 18 -141 16 -143 -7
-8 -38 149 -58 296 -33 247 -44 514 -31 712 20 282 30 364 68 548 42 208 77
337 138 522 25 75 46 140 46 145 -1 12 -49 -81 -83 -162 -103 -245 -195 -598
-237 -905 -52 -383 -30 -807 60 -1140 92 -341 199 -601 334 -809 73 -113 179
-219 236 -236 23 -7 22 -5 -11 31 -98 106 -225 381 -290 632 -27 104 -30 128
-26 217 5 110 52 331 87 413 l21 50 -29 58 c-36 72 -129 353 -137 414 -5 39
-1 33 30 -45 59 -150 147 -355 155 -360 4 -3 22 30 40 72 30 73 66 134 125
214 l26 36 -21 54 c-58 145 -90 362 -90 600 0 212 34 420 117 717 27 97 42
120 23 36 -80 -348 -109 -615 -92 -826 17 -204 85 -518 112 -518 5 0 21 18 35
40 24 38 105 100 130 100 8 0 8 20 -1 73 -29 169 -37 303 -31 571 7 350 43
590 127 866 39 127 144 389 204 509 28 55 32 71 23 94 -12 38 4 69 48 90 22
10 44 35 66 74 18 32 61 100 96 152 35 51 63 95 63 97 0 2 -13 4 -30 4 -27 0
-33 7 -76 93 -25 50 -47 93 -48 94 -1 2 -14 -10 -29 -25z"/>
<path d="M3178 7816 c-30 -60 -34 -101 -21 -229 6 -67 7 -69 44 -88 44 -22 44
-24 28 70 -7 48 -16 68 -34 83 -30 24 -31 41 -4 84 15 25 19 46 17 85 l-3 51
-27 -56z"/>
<path d="M4423 7801 c-27 -17 -36 -34 -66 -128 -19 -59 -37 -120 -41 -135 l-6
-28 36 25 c45 30 185 85 219 85 44 0 27 -15 -42 -38 -116 -37 -167 -73 -197
-136 -30 -64 -34 -85 -11 -66 15 12 77 10 148 -6 26 -6 27 -5 27 35 0 48 17
60 58 42 60 -28 282 -70 354 -68 70 2 79 -1 196 -55 79 -36 147 -76 192 -113
39 -31 70 -50 70 -43 0 7 -11 37 -25 66 -21 46 -31 56 -79 77 -30 13 -94 35
-142 49 -48 14 -90 29 -93 32 -3 4 23 4 59 1 64 -6 136 -29 212 -68 22 -11 43
-19 48 -17 9 4 -25 139 -46 179 -17 33 -82 69 -169 94 -68 20 -101 41 -45 30
54 -11 119 -34 183 -64 31 -15 57 -23 57 -17 0 6 -16 65 -35 131 -19 66 -35
120 -35 121 0 1 -18 9 -39 19 -50 22 -65 16 -92 -37 -30 -59 -71 -118 -129
-184 -130 -149 -207 -154 -332 -21 -68 72 -138 166 -164 220 -20 42 -27 44
-71 18z m793 -32 c19 -22 19 -22 -1 -11 -11 6 -27 16 -35 22 -13 8 -13 10 1
10 9 0 24 -10 35 -21z"/>
<path d="M2930 7673 c-12 -76 -25 -167 -27 -203 -3 -36 -7 -92 -9 -125 l-5
-60 43 65 c24 36 62 96 85 133 35 56 47 67 69 67 l27 0 -7 61 c-3 34 -6 82 -6
105 0 32 -4 44 -14 44 -12 0 -15 -17 -15 -81 0 -45 -2 -84 -5 -86 -2 -3 -8 36
-12 87 -6 85 -8 92 -33 104 -69 36 -66 40 -91 -111z"/>
<path d="M2443 7779 l-23 -8 0 -264 c0 -191 3 -266 12 -275 8 -8 63 -12 180
-12 155 0 168 1 178 19 13 25 13 510 0 531 -7 12 -39 15 -167 17 -87 1 -168
-3 -180 -8z m318 -26 c5 -5 8 -116 7 -259 l-3 -249 -154 -3 c-117 -2 -156 1
-163 10 -4 7 -8 122 -8 255 0 200 3 243 14 250 20 11 296 7 307 -4z"/>
<path d="M2460 7506 c0 -151 4 -247 10 -251 6 -4 7 1 4 12 -5 17 -5 17 9 1 12
-15 31 -18 122 -18 97 0 109 2 131 23 23 22 24 23 24 244 0 157 -3 224 -12
229 -7 4 -8 3 -4 -4 4 -7 3 -12 -3 -12 -5 0 -13 5 -16 10 -4 6 -55 10 -121 10
-95 0 -114 -3 -114 -15 0 -8 -5 -15 -11 -15 -6 0 -9 7 -5 15 3 8 1 15 -4 15
-6 0 -10 -93 -10 -244z m157 198 c-9 -9 -28 6 -21 18 4 6 10 6 17 -1 6 -6 8
-13 4 -17z m-87 -18 c0 -3 -4 -8 -10 -11 -5 -3 -10 -1 -10 4 0 6 5 11 10 11 6
0 10 -2 10 -4z m90 -21 c0 -8 -4 -15 -9 -15 -13 0 -22 16 -14 24 11 11 23 6
23 -9z m95 5 c4 -6 1 -17 -5 -25 -9 -11 -15 -12 -25 -2 -9 8 -10 16 -3 25 13
15 25 15 33 2z m-185 -20 c0 -5 -4 -10 -10 -10 -5 0 -10 5 -10 10 0 6 5 10 10
10 6 0 10 -4 10 -10z m115 -52 c14 -14 16 -22 8 -25 -7 -3 -13 -15 -13 -27 0
-22 -17 -46 -32 -46 -5 0 -1 11 7 24 14 22 14 25 0 40 -21 21 -32 20 -45 -3
-8 -16 -1 -30 47 -86 31 -36 62 -65 70 -63 8 2 14 5 13 8 -1 3 3 17 9 32 8 22
7 31 -8 49 -10 13 -23 19 -29 15 -18 -11 -14 -34 6 -40 10 -3 6 -4 -8 -3 -30
2 -34 34 -7 51 37 24 80 -39 61 -91 -5 -16 -21 -32 -37 -37 -26 -9 -32 -6 -87
54 -60 66 -74 102 -48 128 7 7 10 12 7 12 -3 0 -16 -12 -30 -27 -13 -14 -18
-23 -11 -19 15 9 17 -59 2 -69 -5 -3 -10 1 -10 9 0 9 -3 16 -7 16 -5 0 -6 -28
-3 -62 4 -52 5 -56 8 -23 4 43 17 65 37 65 11 0 10 -6 -1 -30 -26 -51 14 -92
69 -71 13 5 34 7 46 4 17 -4 19 -8 10 -20 -7 -8 -19 -11 -28 -8 -8 3 -12 3 -9
-1 4 -3 1 -13 -7 -20 -12 -13 -19 -13 -47 -1 -18 8 -39 21 -47 30 -7 9 -17 14
-22 12 -15 -10 -30 35 -23 72 5 26 4 34 -5 29 -14 -9 -14 5 1 41 6 15 12 30
12 33 2 11 47 50 58 50 6 0 3 6 -8 14 -17 13 -14 14 31 10 32 -4 57 -13 70
-26z m-113 -263 c0 -5 -5 -11 -11 -13 -6 -2 -11 4 -11 13 0 9 5 15 11 13 6 -2
11 -8 11 -13z m176 -16 c-17 -10 -28 -2 -21 17 4 11 8 12 20 3 11 -10 11 -14
1 -20z m-93 -28 c3 -5 1 -12 -5 -16 -5 -3 -10 1 -10 9 0 18 6 21 15 7z"/>
<path d="M2740 7259 c0 -5 5 -7 10 -4 6 3 10 8 10 11 0 2 -4 4 -10 4 -5 0 -10
-5 -10 -11z"/>
<path d="M1431 7716 c-29 -30 -32 -38 -21 -51 18 -22 33 -19 65 15 23 24 27
34 19 47 -17 27 -28 25 -63 -11z"/>
<path d="M1305 7664 c-144 -124 -205 -181 -205 -191 0 -18 409 -373 430 -373
29 0 250 187 250 212 0 8 -27 33 -249 232 -90 80 -171 146 -180 146 -9 0 -29
-12 -46 -26z m249 -170 c108 -97 196 -180 196 -184 0 -14 -204 -180 -221 -180
-9 0 -59 37 -111 82 -220 194 -283 251 -286 258 -2 4 27 34 64 66 36 33 85 76
108 96 22 21 44 38 47 38 3 0 94 -79 203 -176z"/>
<path d="M1340 7635 c-7 -8 -18 -15 -24 -15 -7 0 -24 -13 -39 -28 l-27 -28 26
-23 c14 -12 23 -26 19 -29 -4 -4 -17 6 -30 23 l-24 29 -26 -24 c-29 -27 -27
-31 38 -55 26 -10 46 -20 44 -22 -3 -2 -30 6 -62 18 -49 18 -59 19 -71 7 -25
-25 12 -44 111 -56 97 -13 114 -7 94 29 -11 23 -11 23 7 7 28 -25 43 -10 39
40 -4 52 6 48 14 -5 7 -44 26 -54 35 -18 4 14 11 25 16 25 12 0 12 -11 1 -30
-15 -23 -1 -33 20 -14 21 19 40 11 21 -8 -19 -19 -14 -30 9 -18 11 6 25 9 32
7 7 -3 0 -10 -15 -16 -40 -15 -34 -30 10 -26 l37 5 -37 -11 c-51 -15 -48 -29
6 -29 24 0 59 -3 77 -6 l34 -6 -45 44 c-70 65 -224 206 -253 228 -22 17 -26
18 -37 5z m18 -70 c-3 -3 -9 2 -12 12 -6 14 -5 15 5 6 7 -7 10 -15 7 -18z m7
-126 c5 -5 -5 -4 -23 2 -17 6 -32 13 -32 16 0 7 43 -8 55 -18z"/>
<path d="M1403 7426 c-24 -21 -26 -27 -18 -52 13 -36 59 -50 92 -28 31 20 31
67 1 88 -30 21 -42 20 -75 -8z m63 -27 c10 -17 -23 -46 -37 -32 -7 7 -9 19 -6
27 7 18 33 21 43 5z"/>
<path d="M1200 7426 c0 -3 15 -16 33 -30 30 -23 35 -24 79 -12 26 6 50 14 53
18 3 3 -28 11 -70 17 -84 12 -95 13 -95 7z"/>
<path d="M1318 7372 c-41 -3 -47 -12 -23 -32 12 -10 19 -10 27 -2 7 7 20 12
30 12 18 0 25 16 11 22 -5 2 -25 2 -45 0z"/>
<path d="M1530 7343 c0 -11 25 -41 56 -68 l57 -49 27 30 c15 17 34 33 43 37
51 19 -7 53 -105 62 -72 6 -78 5 -78 -12z m65 -17 c19 -8 35 -18 35 -21 0 -5
-70 21 -79 30 -8 9 10 5 44 -9z"/>
<path d="M1337 7333 c-25 -6 -20 -14 35 -59 26 -22 72 -61 103 -88 30 -27 59
-45 63 -41 4 4 1 10 -5 12 -7 3 -13 9 -13 14 0 5 9 4 19 -3 16 -10 24 -7 52
17 19 15 34 31 34 34 0 11 -115 114 -121 108 -3 -3 7 -25 23 -49 41 -60 48
-72 37 -65 -6 3 -26 28 -44 56 -30 44 -40 51 -67 51 -26 0 -33 -4 -33 -19 0
-11 -5 -23 -12 -27 -8 -5 -9 0 -5 16 10 41 -14 56 -66 43z m43 -13 c0 -5 -5
-10 -11 -10 -5 0 -7 5 -4 10 3 6 8 10 11 10 2 0 4 -4 4 -10z m90 -41 c0 -6 -4
-7 -10 -4 -5 3 -10 11 -10 16 0 6 5 7 10 4 6 -3 10 -11 10 -16z"/>
<path d="M1495 7650 l-29 -30 21 -21 20 -21 28 36 c22 30 25 39 15 51 -17 21
-22 19 -55 -15z"/>
<path d="M2946 7350 c-65 -104 -119 -197 -120 -207 -1 -13 33 -35 129 -85 72
-37 138 -67 147 -68 11 0 62 66 144 186 69 103 128 194 131 203 3 13 -28 33
-136 89 -76 40 -147 72 -158 72 -13 0 -53 -56 -137 -190z m275 103 c71 -36
129 -69 129 -73 0 -7 -225 -346 -241 -364 -8 -9 -219 93 -248 119 -11 11 -1
32 57 126 128 206 162 259 168 259 3 0 64 -30 135 -67z"/>
<path d="M3105 7480 c-4 -6 -13 -9 -19 -7 -12 5 -36 -28 -95 -125 -19 -32 -20
-38 -7 -38 9 0 16 5 16 10 0 18 64 50 100 50 64 0 109 -44 110 -107 0 -24 4
-43 9 -43 5 0 27 28 49 63 56 89 52 101 -56 157 -47 25 -89 46 -93 48 -4 2
-10 -2 -14 -8z m5 -50 c0 -5 -4 -10 -9 -10 -6 0 -13 5 -16 10 -3 6 1 10 9 10
9 0 16 -4 16 -10z m90 -14 c0 -18 -17 -29 -30 -21 -8 5 -7 11 1 21 15 18 29
18 29 0z m60 -62 c0 -8 -4 -12 -10 -9 -5 3 -10 10 -10 16 0 5 5 9 10 9 6 0 10
-7 10 -16z"/>
<path d="M3038 7334 c-32 -17 -35 -29 -12 -38 32 -12 46 -7 39 17 -6 20 -5 21
8 5 8 -10 18 -18 22 -18 9 0 34 31 35 43 0 13 -64 7 -92 -9z"/>
<path d="M3132 7320 c-19 -30 -15 -42 10 -34 20 6 21 5 9 -9 -12 -15 -10 -18
10 -26 22 -8 24 -5 27 21 2 18 -3 37 -14 49 -21 24 -26 24 -42 -1z"/>
<path d="M2926 7241 c-47 -77 -43 -109 20 -139 33 -16 46 -19 48 -10 12 40 16
48 26 48 16 0 12 -37 -5 -44 -8 -3 -15 -9 -15 -14 0 -14 68 -43 75 -32 3 6 15
10 26 10 12 0 35 24 65 70 51 77 52 97 4 56 -25 -20 -42 -26 -82 -26 -41 0
-54 5 -79 29 -21 21 -29 39 -29 65 0 55 -15 51 -54 -13z m24 -81 c0 -5 -4 -10
-10 -10 -5 0 -10 5 -10 10 0 6 5 10 10 10 6 0 10 -4 10 -10z"/>
<path d="M2993 7274 c-7 -20 16 -73 38 -85 14 -7 21 -5 29 10 16 31 12 44 -11
38 -16 -4 -18 -3 -9 8 14 17 7 31 -20 38 -13 3 -23 0 -27 -9z"/>
<path d="M3077 7274 c-9 -10 2 -24 19 -24 8 0 14 7 14 15 0 15 -21 21 -33 9z"/>
<path d="M3097 7226 c-34 -32 -35 -56 -3 -56 29 0 43 17 27 33 -6 6 -11 16
-11 22 0 5 9 -1 19 -15 19 -24 20 -24 41 -5 22 20 18 26 -26 39 -14 4 -29 -1
-47 -18z"/>
<path d="M3085 7040 c-3 -5 -2 -10 4 -10 5 0 13 5 16 10 3 6 2 10 -4 10 -5 0
-13 -4 -16 -10z"/>
<path d="M1053 7303 c-203 -258 -296 -392 -461 -668 -119 -199 -202 -374 -270
-570 -115 -328 -202 -743 -202 -960 0 -139 10 -265 21 -265 5 0 9 35 9 78 0
87 39 311 76 441 63 215 207 531 243 531 13 0 69 -131 86 -200 8 -36 23 -90
32 -120 l17 -55 8 45 c73 363 124 559 195 750 96 256 325 716 447 898 l29 43
-33 34 c-19 19 -40 35 -47 35 -12 0 -43 -39 -205 -255 -294 -394 -518 -799
-665 -1200 -58 -159 -45 -81 17 99 82 241 100 287 172 430 140 281 375 639
571 875 55 65 68 87 60 99 -5 9 -14 17 -20 19 -6 2 -42 -36 -80 -84z"/>
<path d="M4601 7321 c20 -27 21 -33 9 -42 -21 -14 -114 -3 -187 23 -35 12 -66
18 -70 15 -4 -4 8 -28 25 -52 18 -25 32 -48 32 -52 0 -3 -24 -2 -52 1 -61 8
-159 49 -184 77 -9 11 -20 19 -24 19 -15 0 18 -185 41 -232 11 -21 19 -42 19
-47 0 -12 -73 12 -107 34 -12 8 -24 15 -27 15 -9 0 26 -104 51 -154 14 -27 26
-68 28 -90 1 -23 14 -111 29 -196 14 -85 26 -161 26 -167 0 -7 -11 -13 -25
-13 -14 0 -37 -11 -50 -25 -22 -21 -25 -33 -25 -91 0 -143 77 -301 171 -349
23 -13 30 -27 48 -106 12 -50 21 -105 21 -123 0 -31 -2 -33 -52 -45 -121 -27
-357 -162 -448 -256 -43 -44 -45 -48 -45 -107 l0 -61 -63 -35 c-72 -39 -92
-68 -74 -107 7 -14 12 -30 12 -34 0 -4 -44 -27 -97 -51 -54 -23 -139 -62 -189
-86 -50 -24 -96 -44 -102 -44 -8 0 -12 20 -12 55 0 93 -35 140 -188 257 -56
43 -62 51 -62 84 0 21 16 83 36 140 19 57 34 116 32 131 -3 27 -5 28 -70 31
l-67 3 -36 -62 c-20 -34 -49 -91 -65 -126 -16 -34 -31 -63 -33 -63 -3 0 -33
13 -68 29 -35 16 -71 31 -80 34 -18 6 -44 123 -33 150 3 8 23 29 44 46 l38 31
-26 82 c-15 46 -27 84 -28 86 -1 2 -20 -2 -42 -9 -29 -8 -48 -9 -71 -1 -17 6
-31 8 -31 4 0 -11 50 -305 57 -332 6 -25 6 -25 -15 -6 -27 24 -68 128 -106
272 l-31 115 -70 29 c-48 19 -71 24 -73 16 -1 -7 11 -52 27 -100 30 -87 30
-87 8 -84 -19 3 -25 17 -47 108 l-26 105 -134 52 c-74 29 -137 53 -139 53 -10
0 28 -289 44 -331 3 -8 -4 -18 -17 -24 -39 -17 -33 -42 29 -118 100 -125 191
-214 281 -275 48 -33 105 -79 127 -102 22 -23 60 -56 85 -73 77 -53 231 -189
271 -240 49 -61 57 -91 34 -117 -16 -18 -17 -27 -7 -92 23 -146 33 -275 30
-367 l-3 -95 -33 -8 c-23 -6 -32 -14 -28 -23 3 -8 11 -61 17 -118 l12 -105
-27 -52 c-37 -70 -37 -160 -1 -285 32 -112 121 -296 171 -354 48 -55 140 -116
210 -138 51 -16 56 -16 136 6 45 12 102 33 127 48 104 61 190 194 227 350 10
46 21 83 25 83 3 0 15 -30 27 -67 77 -242 91 -575 46 -1079 l-6 -71 51 1 c44
1 51 4 51 21 0 11 12 107 27 214 22 155 29 188 35 163 5 -18 13 -32 18 -32 5
0 2 19 -6 42 -16 46 -44 162 -44 181 0 7 16 -17 35 -53 20 -36 46 -76 60 -89
l24 -25 11 29 c6 16 14 89 17 162 6 123 5 135 -13 156 -11 12 -33 40 -49 62
l-29 39 64 -47 c36 -26 112 -80 170 -120 173 -120 298 -212 294 -216 -2 -2
-80 34 -173 80 l-170 84 -6 -35 c-14 -92 -45 -360 -45 -397 0 -24 -4 -43 -8
-43 -4 0 -22 18 -39 41 l-32 41 -6 -34 c-3 -18 -5 -59 -3 -91 l3 -57 105 65
c58 37 159 101 225 145 66 43 193 124 281 180 l161 102 6 66 c4 36 5 67 4 68
-1 2 -25 6 -52 9 -300 38 -583 193 -775 426 -48 57 -41 54 59 -26 198 -158
361 -252 546 -314 82 -27 205 -54 213 -46 2 2 5 183 5 402 l2 398 -28 48 c-38
64 -71 95 -229 215 -136 103 -158 125 -173 171 -6 20 5 14 61 -32 84 -67 190
-136 222 -144 14 -3 27 -1 32 7 8 13 55 -41 109 -128 32 -51 34 -52 52 -36 11
10 44 57 75 106 31 48 60 88 65 88 11 0 11 -3 -1 -34 -7 -18 -6 -26 1 -26 20
0 131 72 217 142 46 37 88 68 93 68 5 0 9 -11 9 -24 0 -31 -54 -80 -195 -178
-114 -78 -146 -108 -208 -192 l-37 -49 0 -405 0 -404 48 6 c186 27 408 113
569 222 68 45 123 81 123 79 0 -8 -114 -111 -164 -149 -56 -42 -157 -95 -239
-126 -65 -24 -229 -60 -279 -60 -65 0 -68 -4 -68 -86 0 -41 3 -74 8 -74 8 0
114 -66 556 -347 98 -63 180 -113 181 -111 2 2 -5 39 -16 83 -20 86 -44 256
-54 397 -6 82 -18 114 -34 91 -14 -20 -318 -169 -327 -160 -2 1 76 59 173 127
97 69 196 140 220 158 24 17 45 32 47 32 3 0 1 -13 -4 -30 -23 -80 41 -619 89
-742 17 -45 120 -84 107 -40 -2 9 -8 70 -12 134 l-6 117 33 5 c19 3 79 12 134
21 55 8 118 20 140 25 59 14 102 12 109 -5 7 -20 39 -19 84 4 20 10 95 42 166
71 191 76 205 84 227 136 27 60 42 206 35 334 -3 58 -7 145 -9 194 l-2 90 -35
23 c-65 42 -63 39 -57 132 4 47 10 112 13 143 7 57 7 57 -26 75 -69 38 -72 43
-64 151 12 168 15 154 -36 167 -57 14 -70 38 -70 130 0 39 -9 147 -20 240 -11
94 -20 198 -20 232 l0 63 -47 24 c-44 22 -191 87 -323 142 l-55 23 3 50 c4 48
2 51 -36 78 -22 15 -55 36 -72 46 -32 17 -33 19 -27 70 6 61 -8 100 -49 138
-84 78 -327 210 -451 246 -35 10 -65 23 -67 29 -2 6 7 57 22 114 24 96 28 104
63 125 47 30 107 113 125 172 8 26 14 89 14 145 0 85 -3 101 -20 118 -11 11
-31 20 -44 20 l-24 0 6 242 c5 220 4 242 -11 230 -19 -16 -22 -11 -37 62 -10
51 -20 68 -67 118 -31 32 -59 55 -63 53 -4 -3 -1 -31 6 -62 8 -32 13 -71 13
-88 0 -21 -5 -13 -15 29 -17 69 -42 113 -89 154 -39 35 -155 105 -162 98 -3
-2 1 -14 7 -26 17 -32 5 -36 -48 -16 -26 10 -74 25 -107 34 -130 33 -191 50
-209 57 -17 7 -16 4 5 -24z m160 -113 c69 -23 116 -65 149 -131 17 -34 33 -80
36 -102 l6 -40 -27 45 c-59 101 -125 143 -300 192 l-120 33 100 6 c55 3 105 6
111 7 6 1 26 -3 45 -10z m311 -76 c44 -49 62 -100 56 -164 -7 -72 -24 -79 -20
-7 3 50 0 66 -23 104 -14 25 -40 61 -56 79 -16 19 -29 37 -29 40 0 13 38 -14
72 -52z m-682 -22 c19 -11 62 -44 95 -75 33 -31 51 -51 40 -46 -29 15 -227
101 -232 101 -13 0 59 -108 94 -141 24 -21 37 -39 29 -39 -27 0 -113 98 -149
172 -20 41 -37 79 -37 86 0 11 91 -22 160 -58z m252 5 c86 -43 122 -73 166
-133 43 -61 41 -72 -5 -21 -20 22 -55 51 -78 64 -57 34 -248 95 -295 95 -21 0
-42 5 -45 10 -4 6 14 10 47 10 29 0 60 5 68 10 22 15 62 5 142 -35z m299 28
c13 -17 13 -17 -6 -3 -11 8 -22 16 -24 17 -2 2 0 3 6 3 6 0 17 -8 24 -17z m75
-69 c29 -49 42 -141 26 -170 -9 -15 -11 -8 -12 37 0 43 -7 71 -28 110 -15 30
-31 63 -35 73 -13 32 21 -1 49 -50z m-766 -155 c39 -20 52 -39 28 -39 -12 0
-88 49 -88 56 0 9 22 3 60 -17z m931 -142 c30 -23 41 -59 41 -134 -1 -52 5
-86 18 -116 11 -23 20 -46 20 -52 0 -6 -56 -10 -148 -11 -124 -1 -156 -4 -206
-22 -75 -28 -140 -28 -219 -1 -48 17 -96 22 -214 27 l-151 5 10 23 c6 13 17
24 25 24 11 0 12 21 8 108 -6 110 3 155 25 122 8 -12 11 -11 17 9 6 23 7 24
97 18 99 -6 215 -34 263 -62 29 -17 31 -17 79 5 122 57 297 86 335 57z m-524
-393 c24 -18 28 -29 31 -80 3 -76 -27 -141 -78 -167 -49 -25 -168 -20 -207 9
-33 25 -61 95 -70 174 -5 52 -4 59 18 74 20 14 44 17 151 14 110 -3 130 -6
155 -24z m578 13 c16 -12 17 -23 11 -83 -13 -136 -66 -194 -177 -194 -95 0
-158 65 -174 180 -8 58 7 78 71 95 67 18 244 19 269 2z m159 -33 c30 -78 -39
-294 -94 -294 -29 0 -25 24 14 94 37 67 49 106 40 130 -3 8 -12 12 -20 9 -21
-8 -17 20 7 51 23 29 44 34 53 10z m-1172 -11 c10 -9 18 -27 18 -41 0 -24 -1
-24 -18 -9 -10 10 -22 17 -26 17 -16 0 8 -69 55 -157 51 -97 51 -118 1 -57
-38 46 -71 132 -79 206 -5 52 -4 58 12 58 10 0 27 -7 37 -17z m627 -104 c40
-125 122 -186 234 -177 73 6 126 35 167 90 19 26 35 46 37 45 9 -9 -113 -349
-140 -391 -125 -196 -280 -298 -405 -266 -72 18 -113 44 -183 116 -77 80 -106
125 -142 214 -20 50 -67 216 -67 236 0 2 21 -8 48 -22 42 -23 56 -25 124 -22
59 4 85 10 110 27 48 34 93 98 114 164 17 53 20 57 49 57 30 0 32 -3 54 -71z
m311 -606 c0 -38 14 -135 30 -218 17 -82 30 -166 30 -186 0 -72 -97 -181 -213
-239 -81 -40 -103 -40 -101 3 1 17 7 45 13 60 21 54 10 41 -26 -28 -19 -38
-41 -73 -47 -77 -13 -9 -122 -10 -152 -2 -12 3 -27 18 -34 32 -11 23 -14 24
-18 9 -12 -55 -182 70 -229 168 -16 34 -16 36 10 63 36 37 64 106 71 172 3 30
5 56 6 57 0 0 21 -6 48 -14 137 -44 204 -38 261 22 20 22 73 54 135 84 85 40
110 57 151 104 27 32 52 57 57 57 4 0 8 -30 8 -67z m-2923 35 c28 -31 56 -89
83 -173 27 -84 63 -141 103 -161 16 -9 27 -18 24 -20 -9 -10 -85 45 -110 78
-13 18 -43 69 -66 112 -24 43 -58 100 -77 126 -19 26 -34 50 -34 54 0 16 59 4
77 -16z m148 -9 c14 -18 40 -59 57 -92 18 -37 61 -92 107 -139 74 -76 77 -78
116 -74 33 4 52 -1 95 -26 30 -17 49 -33 42 -36 -7 -2 -34 10 -60 27 -54 35
-67 33 -29 -5 48 -47 44 -119 -6 -112 -14 2 -25 17 -34 45 -9 27 -22 44 -36
49 -12 3 -32 15 -44 27 l-22 20 9 -34 c6 -19 10 -37 10 -42 0 -4 -39 32 -87
81 -82 82 -91 95 -130 193 -24 58 -43 115 -43 127 0 31 24 27 55 -9z m-264
-36 c20 -27 52 -72 73 -102 l38 -53 -37 28 c-20 15 -64 61 -97 101 -54 66 -57
73 -36 73 17 0 34 -14 59 -47z m3201 21 c110 -39 229 -108 342 -198 42 -34 66
-73 66 -107 0 -39 -62 -138 -159 -253 -320 -380 -409 -496 -381 -496 6 0 103
91 215 203 167 167 215 220 271 307 37 58 69 107 70 108 4 6 107 -53 111 -64
8 -25 -64 -109 -168 -196 -63 -53 -149 -126 -191 -164 -251 -226 -498 -437
-504 -431 -13 13 164 306 317 527 84 121 192 302 225 376 14 32 28 79 31 104
5 44 3 50 -32 89 -21 22 -40 41 -44 41 -4 0 -5 -16 -3 -36 5 -43 -12 -129 -38
-188 l-18 -41 5 95 c6 108 -12 193 -48 226 -11 10 -50 37 -87 59 -61 37 -88
65 -63 65 5 0 43 -12 83 -26z m-972 7 c0 -5 -21 -20 -46 -33 -26 -13 -66 -40
-89 -60 -38 -34 -44 -45 -54 -103 -8 -46 -9 -83 -1 -131 6 -37 9 -69 6 -71 -2
-2 -14 26 -26 63 -17 50 -21 80 -17 121 l6 54 -40 -32 c-43 -34 -54 -62 -46
-117 10 -58 87 -204 194 -367 111 -168 126 -192 177 -288 20 -37 74 -125 121
-195 47 -71 85 -134 85 -142 0 -8 -28 13 -62 46 -76 73 -206 187 -352 309
-307 255 -456 396 -456 429 0 25 91 83 111 70 5 -3 34 -43 63 -87 29 -45 82
-113 118 -152 103 -112 341 -341 368 -355 l24 -13 -18 29 c-45 70 -109 154
-164 216 -62 69 -233 270 -291 341 -45 57 -81 130 -81 166 0 22 11 39 48 71
81 72 193 142 307 192 125 54 115 51 115 39z m-1300 -65 c0 -7 -12 -41 -26
-76 -24 -60 -63 -214 -64 -252 0 -10 25 -31 60 -53 86 -52 165 -128 185 -177
11 -29 14 -56 10 -87 -5 -35 -1 -57 15 -94 12 -26 22 -66 23 -89 2 -36 -2 -44
-25 -57 -39 -22 -48 -8 -55 84 -6 75 -7 78 -52 124 -32 31 -66 85 -109 171
-34 69 -62 131 -62 139 0 11 -5 10 -20 -4 -24 -22 -25 -46 -5 -85 9 -17 13
-30 9 -30 -13 0 -64 42 -74 61 -12 22 0 110 27 194 20 65 89 204 115 232 20
22 48 21 48 -1z m-739 -183 c13 -16 12 -17 -3 -4 -10 7 -18 15 -18 17 0 8 8 3
21 -13z m304 -207 c23 -17 63 -46 89 -64 71 -49 49 -49 -30 -1 -84 52 -154
107 -154 121 0 11 27 -5 95 -56z m2651 -85 c-26 -165 -229 -291 -470 -291
-154 0 -273 40 -361 121 -40 37 -85 103 -85 124 0 4 22 -13 49 -37 62 -53 156
-102 241 -124 92 -23 262 -15 345 16 110 42 224 130 261 202 20 39 28 35 20
-11z m-1434 -193 c198 -207 368 -420 368 -461 0 -12 -71 48 -188 158 l-93 88
19 -50 c10 -27 40 -83 67 -124 l48 -74 -49 45 c-27 25 -94 86 -148 135 -54 50
-115 112 -137 139 -41 51 -48 53 -25 8 7 -15 43 -115 79 -222 36 -107 83 -241
105 -297 22 -57 39 -103 37 -103 -2 0 -18 26 -35 58 -18 31 -71 113 -118 182
-47 69 -123 181 -170 250 -106 157 -109 160 -78 77 32 -84 162 -624 153 -633
-1 -2 -22 41 -46 94 -53 120 -124 243 -163 282 -34 34 -48 99 -48 226 0 88
-12 110 -74 134 l-30 11 80 41 c89 46 311 138 334 138 8 0 59 -46 112 -102z
m2218 37 c63 -29 138 -63 166 -76 l52 -24 4 -65 c3 -36 17 -164 31 -285 15
-121 30 -246 33 -279 l6 -58 45 6 45 6 -4 -152 -3 -152 44 -8 c25 -4 48 -11
53 -16 5 -5 1 -37 -8 -72 -30 -120 -8 -260 42 -260 29 0 44 -31 44 -90 0 -51
-2 -58 -22 -63 l-22 -6 26 -28 26 -28 -5 -146 -6 -146 -61 61 c-34 34 -98 83
-142 109 -68 40 -98 51 -185 68 -194 36 -194 36 -99 38 146 1 257 -31 371
-109 32 -22 61 -40 64 -40 13 0 3 65 -15 100 -25 49 -93 86 -189 104 -64 12
-65 13 -41 26 15 9 66 16 127 18 109 5 122 14 59 45 -61 29 -145 38 -247 27
-52 -5 -98 -10 -104 -10 -5 0 15 14 45 32 82 46 129 86 149 127 11 20 38 58
61 84 23 26 40 50 37 53 -3 3 -47 -13 -99 -37 -51 -23 -119 -52 -151 -65 l-58
-23 43 51 c24 27 56 66 72 86 41 53 138 255 134 280 -3 19 -10 16 -72 -30 -78
-57 -234 -154 -271 -168 l-25 -9 27 42 c15 23 39 56 53 72 40 45 89 120 112
171 37 85 11 56 -52 -56 -61 -110 -88 -139 -57 -61 27 66 56 192 78 337 32
213 32 220 23 211 -14 -13 -117 -190 -195 -335 -39 -73 -73 -132 -74 -130 -6
6 134 547 159 612 26 69 29 99 5 54 -7 -12 -69 -106 -139 -208 -70 -102 -153
-229 -186 -282 -32 -53 -60 -95 -62 -94 -1 2 14 45 34 97 20 52 58 158 84 235
27 78 65 174 85 214 20 40 34 74 32 76 -2 2 -24 -15 -48 -38 -25 -24 -89 -81
-144 -128 -55 -46 -122 -107 -149 -135 l-50 -50 24 40 c13 22 33 51 45 65 41
48 108 141 104 144 -2 2 -71 -50 -153 -116 -150 -122 -165 -127 -113 -38 26
45 62 84 275 308 147 154 178 181 196 176 11 -4 73 -30 136 -59z m-3073 -107
c31 -33 103 -145 103 -162 0 -11 -67 2 -101 19 -33 18 -68 107 -69 178 0 23
23 11 67 -35z m1513 -54 c0 -2 -9 0 -20 6 -11 6 -20 13 -20 16 0 2 9 0 20 -6
11 -6 20 -13 20 -16z m40 -14 c8 -5 11 -10 5 -10 -5 0 -17 5 -25 10 -8 5 -10
10 -5 10 6 0 17 -5 25 -10z m530 0 c-8 -5 -19 -10 -25 -10 -5 0 -3 5 5 10 8 5
20 10 25 10 6 0 3 -5 -5 -10z m-70 -25 c-19 -7 -42 -13 -50 -13 -8 0 1 6 20
13 19 7 42 13 50 13 8 0 -1 -6 -20 -13z m-297 -22 c-7 -2 -19 -2 -25 0 -7 3
-2 5 12 5 14 0 19 -2 13 -5z m210 0 c-7 -2 -21 -2 -30 0 -10 3 -4 5 12 5 17 0
24 -2 18 -5z m-1558 -194 c6 -54 5 -70 -10 -92 -9 -15 -21 -27 -25 -27 -4 0
-15 31 -25 69 -25 104 -23 103 -130 86 -49 -8 -91 -14 -92 -15 0 0 1 -36 4
-80 l6 -80 -27 0 c-39 0 -92 25 -109 52 -9 13 -17 62 -21 116 l-6 92 52 -26
c48 -24 59 -26 163 -23 104 4 114 6 148 32 19 15 39 37 44 49 8 24 8 23 28
-153z m935 3 c3 -2 7 -223 10 -490 3 -268 10 -497 14 -509 8 -22 6 -23 -40
-23 -72 0 -84 11 -59 52 19 31 20 55 21 498 0 256 5 473 9 483 6 14 10 15 24
5 9 -7 18 -14 21 -16z m1104 -28 c3 -26 6 -240 6 -477 0 -314 3 -440 12 -464
15 -41 3 -53 -56 -53 l-38 0 8 33 c5 17 9 242 9 498 0 445 1 468 19 488 27 30
32 27 40 -25z m-1931 -81 c3 -16 3 -30 1 -33 -7 -7 -24 23 -24 43 0 27 17 20
23 -10z m-57 -123 c9 -30 31 -102 49 -160 69 -214 84 -333 53 -410 -14 -35
-15 -34 -21 65 -5 84 -35 227 -53 257 -3 5 -14 -2 -25 -14 l-20 -23 8 25 c4
14 7 36 6 50 0 26 -60 251 -69 259 -2 2 4 13 13 23 17 18 18 19 30 2 7 -10 20
-43 29 -74z m-290 -176 c6 -104 10 -191 8 -193 -2 -2 -27 14 -56 35 l-53 38
78 -84 c42 -46 75 -85 73 -88 -6 -5 -106 46 -130 66 -18 16 -19 16 -12 -3 26
-70 67 -227 70 -265 3 -41 8 -47 51 -74 36 -23 63 -31 118 -36 l72 -6 -47 -8
c-58 -10 -97 -3 -166 29 -65 30 -124 77 -164 130 -24 32 -29 35 -23 15 22 -78
96 -168 205 -252 l35 -27 -49 15 c-27 8 -65 23 -83 34 -19 11 -31 14 -26 8
104 -170 182 -225 298 -213 73 7 58 -6 -33 -29 l-63 -17 -64 32 c-38 19 -84
52 -111 81 -82 87 -194 362 -194 475 0 44 0 45 30 38 l30 -7 0 54 c0 29 -5 93
-11 141 -6 49 -8 91 -4 95 3 3 15 1 25 -6 11 -7 22 -12 25 -12 3 0 5 60 5 134
l0 134 78 -23 77 -22 11 -189z m2809 -581 c3 -21 15 -47 26 -59 18 -19 18 -22
4 -34 -10 -8 -15 -30 -15 -61 0 -44 -4 -53 -48 -99 -49 -51 -78 -65 -68 -32 3
9 14 55 25 102 37 165 55 229 62 225 4 -3 10 -22 14 -42z m253 -396 c40 -38
85 -112 80 -129 -2 -6 -19 7 -37 30 -18 22 -60 62 -92 88 -70 56 -80 83 -21
59 20 -9 52 -30 70 -48z m-159 28 c28 -14 104 -93 122 -127 13 -24 -60 -55
-251 -108 -85 -23 -163 -47 -173 -52 -17 -8 -18 -3 -15 82 l3 92 115 64 c120
66 152 74 199 49z"/>
<path d="M4390 6059 c7 -11 14 -18 17 -15 8 8 -5 36 -17 36 -7 0 -7 -6 0 -21z"/>
<path d="M4672 5995 c2 -22 12 -31 48 -45 37 -15 48 -16 65 -6 11 7 37 18 58
25 20 7 37 16 37 21 0 10 -69 -7 -86 -21 -7 -6 -18 -2 -29 11 -12 13 -25 18
-40 14 -14 -3 -29 1 -39 12 -17 16 -17 16 -14 -11z"/>
<path d="M4635 5831 c-20 -6 12 -9 100 -10 72 -1 155 -4 185 -7 47 -4 52 -3
35 7 -24 15 -274 22 -320 10z"/>
<path d="M4715 5750 c3 -5 31 -10 61 -10 30 0 54 5 54 10 0 6 -27 10 -61 10
-37 0 -58 -4 -54 -10z"/>
<path d="M4620 5053 c0 -12 5 -25 10 -28 13 -8 13 15 0 35 -8 12 -10 11 -10
-7z"/>
<path d="M3977 7293 c-4 -3 -7 -14 -7 -24 0 -29 -49 -78 -89 -90 -31 -9 -37
-15 -34 -30 4 -14 11 -18 27 -13 29 8 66 35 89 65 30 41 42 121 14 92z"/>
<path d="M3281 7201 l-31 -48 31 -89 c44 -125 92 -225 121 -252 14 -12 71 -51
126 -85 94 -57 394 -287 386 -296 -4 -4 -160 81 -225 124 -29 19 -56 32 -61
29 -5 -3 -7 0 -6 7 2 6 -1 13 -7 15 -5 2 -30 -31 -54 -74 -71 -121 -171 -306
-171 -314 0 -12 166 -92 275 -132 232 -86 366 -141 356 -144 -13 -4 -241 67
-351 110 -41 16 -124 52 -183 81 -91 42 -111 49 -125 39 -9 -7 -71 -39 -137
-72 l-120 -59 95 -44 c52 -24 168 -77 258 -118 89 -40 158 -75 154 -77 -18 -6
-183 60 -361 143 l-183 85 -77 -34 c-41 -19 -77 -39 -79 -45 -2 -6 23 -43 55
-82 32 -39 65 -81 74 -91 15 -19 18 -20 160 -3 257 31 433 8 614 -80 51 -25
97 -45 101 -45 4 0 35 18 68 39 34 22 114 63 179 92 118 53 119 53 113 83 -4
16 -33 62 -66 102 -34 40 -75 104 -92 141 -58 122 -51 325 13 398 l30 34 -28
14 c-15 8 -53 22 -83 32 -152 49 -410 205 -506 307 -71 73 -183 240 -209 311
-10 26 -19 47 -20 47 -2 0 -17 -22 -34 -49z"/>
<path d="M1876 7193 c-46 -90 -167 -419 -201 -548 -22 -82 -23 -88 -6 -67 11
12 21 22 24 22 6 0 53 39 74 62 14 14 20 15 55 2 34 -12 40 -12 45 2 4 11 14
13 33 9 22 -5 28 -2 33 15 3 12 -1 23 -10 29 -10 5 -13 15 -8 30 8 26 18 26
74 1 24 -11 47 -20 52 -20 14 0 10 26 -6 40 -17 14 -18 20 -7 38 9 14 42 6 42
-10 0 -6 -8 -5 -17 3 -16 11 -16 11 -5 -1 7 -8 18 -15 24 -15 6 0 13 -6 16
-14 3 -10 0 -11 -9 -5 -8 4 -2 -7 14 -25 52 -62 31 -66 -77 -15 -42 20 -79 34
-82 31 -3 -3 61 -38 143 -77 160 -79 242 -132 343 -225 37 -35 52 -45 34 -23
-36 41 -92 92 -252 226 -90 75 -109 96 -99 106 12 14 41 10 32 -3 -2 -4 54
-58 124 -120 144 -126 251 -233 251 -252 0 -7 2 -10 5 -7 3 2 -3 29 -14 59
-25 72 -90 217 -91 202 0 -7 -5 -13 -10 -13 -12 0 -23 11 -124 120 -86 93 -76
72 14 -30 98 -111 144 -169 175 -223 40 -69 24 -69 -23 0 -22 32 -88 112 -147
178 -59 66 -114 135 -122 154 -8 18 -17 31 -20 28 -3 -3 7 -31 23 -61 15 -31
25 -58 22 -62 -9 -9 -49 6 -43 16 3 4 -2 24 -10 44 -12 27 -13 42 -5 56 15 28
36 15 128 -73 65 -64 72 -68 72 -45 0 14 -5 39 -11 56 -8 23 -7 37 4 59 8 15
17 75 21 135 l7 107 -34 -14 c-18 -7 -78 -36 -134 -64 -55 -28 -107 -49 -115
-46 -8 3 -50 59 -93 123 -43 64 -82 121 -86 126 -4 4 -14 -5 -23 -21z"/>
<path d="M3575 7190 c10 -11 20 -20 23 -20 3 0 -3 9 -13 20 -10 11 -20 20 -23
20 -3 0 3 -9 13 -20z"/>
<path d="M3180 7053 c-45 -66 -71 -93 -88 -93 -9 0 -55 21 -105 46 -49 25 -90
44 -92 42 -5 -7 17 -164 25 -172 5 -5 22 3 41 18 17 15 35 23 39 19 5 -4 5
-30 0 -57 -12 -78 3 -83 77 -25 78 61 102 64 73 8 -13 -23 -2 -24 35 -5 36 19
58 11 44 -15 -5 -10 -8 -19 -5 -19 2 0 -2 -23 -10 -52 -7 -29 -12 -54 -10 -56
4 -3 145 55 155 64 2 2 -7 25 -21 51 -14 27 -45 100 -68 163 -24 63 -46 119
-50 123 -4 5 -22 -13 -40 -40z"/>
<path d="M2406 6965 c-9 -25 -7 -145 4 -195 13 -57 122 -361 128 -356 2 3 -10
49 -26 103 -43 136 -102 369 -102 399 0 47 16 23 33 -51 33 -142 116 -440 116
-420 1 11 -17 90 -38 175 -81 318 -101 380 -115 345z"/>
<path d="M2896 6818 c-54 -50 -117 -117 -142 -150 -51 -66 -134 -197 -134
-212 0 -5 15 15 33 45 57 94 142 201 226 283 44 44 84 77 87 73 4 -4 -22 -36
-58 -71 -99 -96 -211 -242 -258 -337 -46 -92 -44 -93 20 -4 82 113 182 226
248 281 61 50 67 58 69 97 1 23 5 52 8 65 3 12 4 22 1 22 -2 0 -47 -41 -100
-92z"/>
<path d="M3014 6768 c-130 -103 -240 -206 -230 -216 3 -2 -21 -33 -54 -68 -52
-57 -88 -104 -77 -104 2 0 48 34 103 75 89 68 377 225 411 225 7 0 15 5 19 11
10 17 33 109 27 109 -17 0 -259 -138 -326 -185 -82 -58 -102 -68 -72 -35 47
52 173 138 305 207 14 7 19 13 12 13 -9 0 -9 8 2 35 8 19 13 35 12 35 -2 0
-62 -46 -132 -102z"/>
<path d="M3180 6820 c-19 -11 -31 -19 -27 -20 11 0 67 29 67 35 0 7 -1 7 -40
-15z"/>
<path d="M2351 6804 c0 -11 3 -14 6 -6 3 7 2 16 -1 19 -3 4 -6 -2 -5 -13z"/>
<path d="M3250 6696 c-169 -73 -370 -174 -419 -211 -47 -34 -33 -32 31 6 80
47 289 151 423 209 66 28 122 54 124 56 13 12 -29 -3 -159 -60z"/>
<path d="M2371 6748 c-1 -12 31 -89 35 -85 3 2 -4 24 -15 48 -11 24 -20 41
-20 37z"/>
<path d="M3295 6683 c-186 -86 -425 -205 -431 -215 -7 -11 40 10 99 44 26 16
50 28 52 28 3 0 42 18 87 39 46 22 144 67 218 101 74 34 137 64 139 66 17 16
-45 -7 -164 -63z"/>
<path d="M2055 6720 c3 -5 11 -10 16 -10 6 0 7 5 4 10 -3 6 -11 10 -16 10 -6
0 -7 -4 -4 -10z"/>
<path d="M3340 6666 c-216 -100 -453 -216 -449 -220 2 -2 94 40 204 93 110 54
232 110 270 126 69 29 118 55 100 55 -6 -1 -62 -25 -125 -54z"/>
<path d="M1950 6687 c0 -18 11 -26 63 -46 104 -40 281 -126 297 -145 9 -12
-15 -4 -67 23 -66 32 -275 121 -353 149 -13 4 -13 3 0 -10 8 -8 76 -39 150
-68 171 -67 333 -148 389 -194 72 -60 61 -40 -21 38 -111 106 -187 153 -405
252 l-53 24 0 -23z"/>
<path d="M3340 6628 c-91 -44 -208 -100 -260 -124 -203 -96 -370 -178 -366
-181 2 -3 139 61 541 251 61 29 144 68 185 86 80 36 103 50 80 49 -8 0 -89
-36 -180 -81z"/>
<path d="M3430 6626 c-63 -29 -249 -115 -412 -191 -164 -76 -296 -141 -293
-143 6 -6 386 164 708 317 59 28 112 51 117 51 6 0 10 5 10 10 0 16 -9 13
-130 -44z"/>
<path d="M1780 6662 c0 -4 87 -41 193 -82 105 -41 248 -103 317 -137 131 -65
130 -54 0 16 -106 56 -510 217 -510 203z"/>
<path d="M3475 6602 c-113 -58 -213 -105 -460 -212 -245 -107 -271 -121 -305
-168 -62 -87 -202 -95 -277 -15 -37 39 -56 40 -40 3 6 -14 18 -45 27 -69 33
-91 160 -120 256 -60 56 36 64 45 64 77 0 23 -14 30 -25 12 -10 -16 -76 -47
-118 -54 -46 -9 -136 15 -161 43 -14 16 -10 15 31 -6 40 -20 59 -24 113 -21
54 3 73 9 113 37 28 19 53 45 59 62 18 53 24 21 12 -63 -7 -46 -16 -123 -20
-171 l-7 -88 34 14 c118 51 418 185 494 221 l90 43 64 119 c36 65 93 168 128
227 35 60 63 112 63 118 0 17 -24 8 -135 -49z m72 -15 c-25 -39 -113 -199
-161 -295 -25 -50 -51 -94 -57 -98 -8 -5 -9 -3 -4 6 5 8 3 11 -6 8 -8 -3 -13
-10 -12 -15 1 -6 -28 -24 -65 -41 -37 -16 -153 -69 -259 -117 -106 -48 -196
-85 -201 -83 -5 1 -1 50 9 108 10 58 19 124 20 147 1 25 8 48 17 55 13 11 14
10 3 -9 -6 -13 -9 -23 -5 -23 13 0 44 33 44 46 0 15 114 71 335 165 77 33 187
84 245 113 58 30 107 55 109 55 2 1 -3 -9 -12 -22z m-827 -448 c0 -33 -169
-68 -212 -44 -11 7 8 10 65 10 69 0 87 3 112 22 35 26 35 26 35 12z m-202 -59
c22 -7 23 -8 6 -9 -11 -1 -29 6 -40 15 -10 8 -13 12 -6 9 8 -4 26 -11 40 -15z
m75 -17 c-7 -2 -21 -2 -30 0 -10 3 -4 5 12 5 17 0 24 -2 18 -5z"/>
<path d="M3483 6553 c-13 -8 -23 -19 -23 -24 0 -16 32 -10 46 9 26 34 14 42
-23 15z"/>
<path d="M3380 6506 c-25 -13 -126 -59 -225 -101 -215 -93 -275 -122 -275
-136 0 -5 -11 -21 -25 -35 -21 -20 -29 -45 -42 -124 -10 -55 -15 -102 -11
-105 3 -4 21 -7 39 -7 45 -2 417 165 442 198 10 13 26 24 35 24 12 0 40 46 89
140 66 127 70 140 52 145 -10 4 -19 11 -19 16 0 13 -10 11 -60 -15z m-72 -178
c3 -34 -2 -43 -45 -86 -116 -116 -363 -187 -363 -104 0 54 99 149 211 202 54
26 74 30 129 28 l65 -3 3 -37z"/>
<path d="M3165 6346 c-10 -7 -20 -27 -21 -45 -2 -37 12 -40 93 -14 38 12 53
22 53 34 0 31 -18 31 -61 -1 -23 -16 -47 -30 -52 -30 -6 0 9 14 31 30 23 17
42 32 42 35 0 11 -67 4 -85 -9z"/>
<path d="M3075 6307 l-40 -22 39 -3 c43 -4 41 -5 50 26 9 27 2 27 -49 -1z"/>
<path d="M3217 6266 c-31 -13 -54 -19 -51 -14 4 6 -2 8 -12 6 -11 -2 -20 -13
-22 -24 -2 -17 4 -23 28 -28 18 -3 39 -2 48 3 23 12 77 70 71 75 -2 3 -30 -6
-62 -18z"/>
<path d="M2971 6230 c-22 -22 -41 -45 -41 -50 0 -13 64 13 111 45 19 14 44 25
55 26 15 1 14 3 -6 9 -53 17 -77 11 -119 -30z"/>
<path d="M3055 6222 c-25 -13 -27 -17 -11 -20 10 -2 25 3 34 12 23 23 12 27
-23 8z"/>
<path d="M3100 6185 c-16 -43 -12 -47 30 -23 41 24 51 38 26 38 -8 0 -21 3
-30 6 -11 4 -19 -2 -26 -21z"/>
<path d="M2970 6172 c-49 -19 -60 -46 -20 -49 17 -2 39 9 65 32 32 28 36 35
20 34 -11 0 -40 -8 -65 -17z"/>
<path d="M3026 6153 c-34 -24 -36 -28 -18 -31 28 -4 58 13 65 38 7 27 -1 25
-47 -7z"/>
<path d="M2797 5983 c-13 -13 -7 -21 13 -16 11 3 20 9 20 14 0 10 -24 12 -33
2z"/>
<path d="M1755 6630 c3 -5 11 -10 17 -10 18 0 414 -159 526 -211 56 -26 102
-46 102 -43 0 8 -149 79 -275 129 -71 29 -180 74 -242 99 -114 47 -139 54
-128 36z"/>
<path d="M1726 6611 c5 -6 45 -23 89 -39 44 -17 170 -66 279 -111 110 -44 201
-79 203 -78 3 4 -143 67 -267 116 -41 16 -126 50 -187 75 -116 47 -134 53
-117 37z"/>
<path d="M1705 6580 c74 -33 298 -120 302 -117 5 5 -294 127 -309 126 -7 0 -4
-4 7 -9z"/>
<path d="M1675 6553 c6 -6 36 -20 68 -32 52 -19 522 -205 622 -246 22 -9 35
-12 30 -6 -10 10 -666 277 -710 288 -13 4 -17 2 -10 -4z"/>
<path d="M1600 6531 c0 -9 200 -265 283 -363 29 -34 61 -49 312 -147 154 -61
281 -106 283 -102 1 4 -26 82 -62 172 l-65 164 -353 142 c-333 134 -398 156
-398 134z m90 -36 c33 -19 21 -19 -21 0 -19 8 -27 14 -19 14 8 0 26 -6 40 -14z
m352 -159 c281 -114 298 -122 298 -153 0 -7 23 -63 50 -125 28 -61 49 -112 48
-114 -2 -1 -24 7 -50 18 -50 21 -55 38 -12 38 14 0 24 4 22 8 -1 5 -20 47 -40
93 -20 46 -39 92 -42 103 -5 13 -12 17 -28 13 -14 -4 -29 1 -43 15 -28 27
-448 193 -453 179 -2 -6 -12 -11 -23 -11 -10 0 -19 -2 -19 -5 0 -2 28 -39 63
-82 34 -43 71 -90 82 -104 11 -15 33 -30 48 -33 26 -6 27 -5 17 14 -12 23 -5
56 17 81 20 23 78 5 104 -33 11 -15 25 -28 31 -28 6 0 26 -10 46 -22 33 -20
34 -22 13 -29 -11 -5 -21 -12 -21 -17 0 -15 -58 -42 -77 -35 -10 3 -16 4 -13
1 3 -3 65 -29 138 -58 73 -29 130 -55 128 -57 -2 -3 -93 30 -202 74 l-198 78
-40 54 c-23 29 -80 102 -128 162 -49 60 -88 111 -88 113 0 5 217 -75 372 -138z
m263 -136 c3 -5 2 -10 -4 -10 -5 0 -13 5 -16 10 -3 6 -2 10 4 10 5 0 13 -4 16
-10z"/>
<path d="M1712 6438 c7 -20 36 -34 48 -22 6 6 0 13 -21 21 -22 9 -29 9 -27 1z"/>
<path d="M1983 6224 c1 -31 4 -38 13 -30 7 6 9 18 4 26 -4 8 -10 22 -13 30 -3
8 -4 -3 -4 -26z"/>
<path d="M2016 6241 c-3 -5 1 -12 10 -15 27 -11 37 -7 24 9 -14 17 -26 19 -34
6z"/>
<path d="M2016 6193 c-13 -13 -5 -43 13 -53 11 -5 32 -10 47 -10 23 0 25 2 14
15 -21 25 -67 55 -74 48z"/>
<path d="M2085 6170 c10 -11 20 -20 23 -20 3 0 -3 9 -13 20 -10 11 -20 20 -23
20 -3 0 3 -9 13 -20z"/>
<path d="M2120 6171 c0 -6 5 -13 10 -16 6 -3 10 1 10 9 0 9 -4 16 -10 16 -5 0
-10 -4 -10 -9z"/>
<path d="M1942 6154 c10 -10 20 -15 24 -12 3 4 -5 12 -18 18 -22 12 -22 12 -6
-6z"/>
<path d="M1980 6145 c0 -6 56 -35 67 -35 4 0 -5 9 -22 20 -29 19 -45 25 -45
15z"/>
<path d="M2384 5975 c25 -19 37 -19 30 0 -4 8 -16 15 -28 15 -21 -1 -21 -1 -2
-15z"/>
<path d="M2020 6457 c8 -8 162 -68 166 -64 2 2 -26 16 -63 30 -91 35 -109 41
-103 34z"/>
<path d="M2748 6413 c-27 -14 -46 -28 -45 -30 5 -4 97 47 97 53 0 6 -1 5 -52
-23z"/>
<path d="M2855 6430 c-3 -6 1 -7 9 -4 18 7 21 14 7 14 -6 0 -13 -4 -16 -10z"/>
<path d="M1620 6426 c0 -2 -11 -75 -24 -163 -38 -244 -49 -491 -41 -853 8
-359 15 -402 90 -555 70 -142 114 -185 76 -72 -30 87 -62 253 -68 354 l-6 93
48 77 47 77 -12 164 c-6 90 -9 166 -7 168 2 3 10 -30 16 -73 16 -106 42 -223
49 -223 3 0 28 18 56 39 28 22 72 49 99 62 26 13 47 28 47 33 0 6 -9 56 -20
111 -12 58 -23 167 -26 262 l-7 162 -26 11 c-14 6 -81 82 -151 170 -109 139
-140 173 -140 156z"/>
<path d="M2780 6395 c-14 -8 -20 -14 -15 -14 6 0 21 6 35 14 14 8 21 14 15 14
-5 0 -21 -6 -35 -14z"/>
<path d="M2206 6382 c13 -12 116 -53 121 -49 4 4 -113 57 -125 57 -3 0 -2 -4
4 -8z"/>
<path d="M2350 6355 c25 -13 50 -24 55 -24 6 0 -10 11 -35 24 -25 13 -49 24
-55 24 -5 0 10 -11 35 -24z"/>
<path d="M2435 6360 c10 -11 20 -20 23 -20 3 0 -3 9 -13 20 -10 11 -20 20 -23
20 -3 0 3 -9 13 -20z"/>
<path d="M2730 6370 c-9 -6 -10 -10 -3 -10 6 0 15 5 18 10 8 12 4 12 -15 0z"/>
<path d="M2350 6320 c8 -5 20 -10 25 -10 6 0 3 5 -5 10 -8 5 -19 10 -25 10 -5
0 -3 -5 5 -10z"/>
<path d="M2544 6290 c-17 -4 -49 -17 -72 -30 l-42 -24 21 -23 c12 -12 38 -28
57 -34 98 -32 245 43 172 89 -29 18 -99 29 -136 22z"/>
<path d="M2690 6075 c-67 -50 -138 -54 -208 -14 -18 10 -35 19 -37 19 -2 0 5
-22 16 -49 26 -61 74 -91 147 -91 81 0 133 59 120 139 l-3 22 -35 -26z"/>
<path d="M2685 5948 c-49 -30 -88 -32 -140 -9 -58 26 -54 26 -48 -1 9 -35 33
-57 75 -68 72 -20 155 25 146 78 -3 18 -4 18 -33 0z m-46 -44 c10 -9 -65 -3
-78 5 -10 6 1 8 30 4 24 -3 46 -7 48 -9z m61 11 c0 -13 -63 -35 -97 -34 l-38
2 45 6 c25 4 54 12 65 19 23 13 25 14 25 7z"/>
<path d="M2800 5909 c-36 -15 -73 -29 -82 -29 -33 0 -31 -44 4 -118 l33 -69
105 29 c58 16 113 32 122 36 15 6 9 19 -39 95 -31 48 -61 87 -67 86 -6 -1 -40
-14 -76 -30z"/>
<path d="M3725 5575 c-27 -7 -75 -23 -105 -35 -97 -39 -333 -118 -388 -130
-38 -9 -57 -20 -73 -41 l-20 -29 28 -25 c15 -13 31 -25 35 -25 17 0 81 -81
113 -142 l36 -67 98 49 c54 28 103 50 108 50 6 0 14 20 17 44 9 55 36 91 82
108 36 13 38 17 49 98 3 27 20 66 41 98 20 30 34 55 32 57 -2 1 -25 -3 -53
-10z"/>
<path d="M2335 5075 c-33 -14 -61 -25 -62 -25 -2 0 -3 -4 -3 -8 0 -5 25 -14
56 -21 31 -7 74 -21 97 -31 39 -18 42 -18 66 -1 15 10 33 20 41 23 11 4 4 15
-26 46 -50 50 -80 53 -169 17z"/>
<path d="M7414 4961 c18 -27 47 -82 64 -122 52 -128 52 -131 -15 -66 -119 116
-196 150 -338 151 -95 1 -104 -1 -177 -36 -106 -50 -159 -103 -210 -205 -39
-79 -42 -89 -46 -191 -4 -104 -3 -110 27 -177 68 -149 189 -224 291 -181 l32
13 -52 7 c-41 6 -60 15 -96 48 -142 131 -51 337 181 408 90 27 171 30 206 7
37 -25 103 -123 122 -182 30 -91 39 -194 34 -360 -6 -210 -22 -279 -102 -444
-36 -73 -68 -132 -70 -129 -2 2 6 38 19 80 37 118 49 212 42 313 -9 133 -52
285 -77 270 -5 -4 -9 -18 -9 -33 0 -15 -16 -91 -35 -168 -19 -77 -41 -198 -50
-269 -27 -227 -66 -346 -147 -455 -23 -30 -60 -79 -81 -107 -22 -29 -43 -53
-48 -53 -4 0 8 24 28 53 101 149 131 292 105 492 l-7 50 -41 -125 c-23 -69
-56 -163 -73 -210 -16 -47 -38 -130 -47 -185 -14 -81 -21 -104 -41 -121 -16
-14 -31 -45 -43 -90 -10 -38 -17 -70 -16 -72 5 -4 162 95 226 142 81 60 213
170 309 256 147 132 263 292 388 535 40 77 73 132 73 123 1 -54 -121 -319
-205 -448 -27 -41 -97 -124 -155 -184 -92 -94 -152 -146 -404 -340 -77 -60
-224 -141 -287 -159 -30 -9 -100 -37 -155 -63 -54 -25 -144 -64 -199 -87 -95
-38 -107 -40 -240 -47 -77 -4 -155 -13 -174 -20 l-34 -13 6 -62 c2 -35 8 -69
12 -75 13 -21 284 -4 359 22 64 22 322 153 332 169 3 5 -3 9 -13 10 -10 0 43
13 118 28 75 16 165 38 201 50 63 21 184 89 174 98 -2 3 -14 -1 -26 -7 -29
-16 -154 -23 -209 -13 l-44 8 40 28 c64 44 180 84 329 112 227 43 362 106 514
238 76 66 170 167 156 167 -3 0 -34 -21 -68 -46 -77 -57 -103 -70 -192 -101
-60 -20 -185 -53 -203 -53 -2 0 7 15 22 32 15 18 85 67 154 108 155 92 273
182 330 252 126 153 177 395 154 728 l-8 115 -24 -95 c-26 -102 -80 -230 -133
-312 l-33 -51 -3 54 c-2 30 1 95 7 145 31 259 -96 571 -331 818 -56 58 -79 76
-100 76 l-27 0 33 -49z m485 -1028 c-48 -106 -99 -205 -127 -245 -36 -51 -102
-117 -102 -101 0 7 4 14 9 17 14 9 107 167 135 229 23 53 96 160 104 153 2 -2
-7 -26 -19 -53z"/>
<path d="M2422 4943 c-12 -9 -80 -24 -154 -35 -136 -20 -259 -61 -292 -97 -15
-17 -11 -19 94 -41 l110 -22 43 27 c64 43 190 140 211 164 22 25 19 26 -12 4z"/>
<path d="M2525 4894 c-189 -117 -355 -265 -490 -439 -227 -292 -327 -643 -271
-955 15 -82 68 -219 123 -318 33 -58 175 -226 254 -298 133 -121 421 -267 682
-344 214 -64 375 -90 612 -99 121 -5 221 -8 221 -8 1 1 4 41 8 89 l7 86 -53
11 c-29 6 -125 22 -213 37 -326 53 -677 198 -890 368 -123 98 -194 174 -265
285 l-36 55 -59 -1 -60 -2 50 15 c28 8 56 17 62 19 7 3 21 18 32 35 17 29 17
34 3 86 -9 31 -21 58 -26 59 -6 2 -51 7 -99 10 -49 4 -86 9 -83 12 3 3 46 5
96 4 105 -2 108 0 94 88 l-9 56 -95 47 c-116 57 -92 64 27 8 47 -22 87 -40 88
-40 1 0 12 34 25 76 l22 77 -88 83 c-111 104 -94 111 21 9 l85 -75 15 36 c8
20 15 40 15 44 0 5 12 22 26 40 24 28 25 32 11 48 -28 32 -107 189 -107 213 0
17 12 4 44 -51 24 -41 60 -93 80 -115 l35 -40 26 30 c14 17 38 46 55 66 l29
35 -49 105 c-62 131 -65 172 -4 60 24 -46 57 -102 73 -123 l28 -38 39 29 c21
17 49 38 61 48 l21 18 -44 130 c-24 72 -43 148 -43 170 0 38 1 36 20 -27 22
-77 91 -232 108 -243 7 -4 15 -4 19 0 11 11 3 161 -13 255 -8 47 -15 116 -15
153 0 64 -2 71 -41 122 -23 30 -49 55 -58 55 -9 -1 -56 -26 -106 -56z"/>
<path d="M2050 4679 c-106 -27 -193 -71 -272 -135 -64 -53 -87 -83 -52 -70 9
3 64 6 122 6 l107 0 68 73 c93 98 132 147 115 146 -7 0 -47 -9 -88 -20z"/>
<path d="M1835 4391 c-104 -50 -181 -114 -245 -206 -28 -41 -48 -75 -45 -75 3
0 24 9 45 20 22 11 70 27 107 36 38 8 77 21 88 28 11 8 42 51 69 97 27 46 57
96 68 112 25 37 11 35 -87 -12z"/>
<path d="M1730 4103 c-110 -85 -181 -180 -215 -291 -6 -21 -2 -20 52 16 32 22
77 50 100 63 46 26 61 53 83 149 7 30 17 63 22 73 15 29 7 27 -42 -10z"/>
<path d="M1684 3837 c-28 -31 -66 -85 -92 -130 -24 -41 -84 -208 -77 -215 2
-2 32 23 67 55 35 32 74 66 87 75 22 15 25 27 32 124 5 59 7 109 6 111 -2 1
-12 -7 -23 -20z"/>
<path d="M1672 3557 c-43 -92 -57 -158 -55 -267 0 -58 6 -118 11 -135 9 -29
11 -28 61 77 28 58 56 108 62 110 7 2 4 30 -10 88 -11 47 -23 102 -27 123 -9
52 -19 53 -42 4z"/>
<path d="M2241 3406 c-8 -10 -9 -21 -1 -42 13 -34 80 -124 93 -124 4 0 5 5 2
10 -10 17 15 40 44 40 24 0 21 5 -40 65 -70 69 -80 73 -98 51z"/>
<path d="M1773 3278 c-13 -21 -6 -154 12 -231 10 -40 31 -101 47 -137 26 -58
30 -63 40 -45 6 10 13 63 16 117 l5 98 -49 105 c-26 58 -51 105 -55 105 -4 0
-11 -6 -16 -12z"/>
<path d="M2350 3220 c0 -13 112 -125 139 -140 17 -9 21 -8 21 5 0 11 12 15 50
15 28 0 50 4 50 10 0 13 -79 66 -142 95 -54 25 -118 33 -118 15z"/>
<path d="M2567 3033 c-6 -10 65 -60 136 -94 43 -21 50 -22 104 -10 32 7 64 15
71 17 27 8 4 28 -64 58 -53 23 -89 30 -155 34 -48 2 -89 0 -92 -5z"/>
<path d="M1940 2999 c0 -43 32 -126 72 -189 41 -64 114 -147 121 -140 3 3 -1
32 -8 65 -7 33 -16 76 -19 96 -4 24 -27 60 -72 112 -77 89 -94 99 -94 56z"/>
<path d="M2915 2891 c-22 -5 -56 -7 -75 -4 -30 4 -27 1 25 -23 33 -14 91 -38
130 -51 l70 -25 75 23 c41 12 79 26 83 30 5 4 -17 17 -50 29 -64 25 -189 35
-258 21z"/>
<path d="M4270 2590 c-410 -263 -471 -305 -445 -308 35 -4 917 17 922 22 2 1
2 135 1 297 l-3 295 -475 -306z m304 -23 c25 -40 -59 -111 -147 -123 -38 -6
-56 -2 -92 17 -52 27 -65 20 -65 -38 0 -22 -6 -36 -19 -43 -37 -20 -42 -13
-39 58 l3 67 47 9 c38 8 59 5 113 -13 64 -22 66 -22 103 -4 47 23 49 47 5 51
-35 3 -41 13 -20 30 30 25 93 19 111 -11z"/>
<path d="M4840 2596 l0 -293 178 -7 c417 -14 787 -18 777 -8 -16 16 -937 602
-947 602 -4 0 -8 -132 -8 -294z m310 7 c16 -9 33 -27 39 -39 9 -20 13 -21 39
-12 97 37 196 -73 143 -158 -29 -47 -80 -61 -137 -39 -27 10 -50 27 -58 43
-13 24 -20 27 -64 27 -57 0 -98 24 -120 69 -17 33 -1 88 31 111 28 20 92 19
127 -2z"/>
<path d="M5055 2554 c-21 -22 -16 -42 17 -67 57 -42 117 14 64 60 -32 27 -58
29 -81 7z"/>
<path d="M5212 2498 c-33 -33 5 -98 56 -98 30 0 62 26 62 52 0 42 -88 76 -118
46z"/>
<path d="M2197 2748 c34 -68 63 -109 116 -162 41 -41 72 -66 74 -59 3 7 -7 49
-22 93 -28 84 -50 109 -166 188 l-47 31 45 -91z"/>
<path d="M3265 2779 c-44 -12 -84 -25 -88 -29 -9 -8 82 -27 181 -37 52 -5 69
-3 100 14 20 11 55 26 76 33 34 11 37 14 20 23 -36 20 -203 18 -289 -4z"/>
<path d="M3600 2715 c-36 -13 -74 -25 -85 -25 l-20 -1 20 -8 c11 -5 53 -11 93
-15 l72 -7 0 40 c0 23 -3 41 -7 40 -5 0 -37 -11 -73 -24z"/>
<path d="M2448 2608 c60 -88 103 -128 204 -185 120 -69 132 -67 79 10 -15 23
-36 57 -45 75 -13 26 -38 43 -118 82 -55 28 -116 60 -136 72 l-35 21 51 -75z"/>
<path d="M2760 2520 c0 -5 32 -36 72 -70 61 -51 87 -65 165 -90 51 -17 105
-30 119 -30 l26 0 -36 42 c-20 23 -36 47 -36 54 0 7 -30 19 -71 29 -39 8 -109
29 -155 45 -46 16 -84 25 -84 20z"/>
<path d="M3137 2419 c6 -6 36 -13 65 -15 53 -3 53 -3 13 6 -90 22 -91 22 -78
9z"/>
<path d="M4128 2197 c-312 -7 -438 -13 -438 -21 0 -13 380 -1038 389 -1048 5
-5 610 1022 626 1065 6 15 0 17 -66 15 -41 -1 -271 -6 -511 -11z m128 -206
c63 -38 66 -119 9 -231 -49 -96 -123 -132 -195 -95 -36 19 -50 43 -50 88 0 42
6 48 36 35 17 -8 24 -19 24 -39 0 -29 23 -49 55 -49 17 0 75 55 75 70 0 5 -15
6 -33 3 -26 -4 -40 1 -65 22 -44 37 -52 86 -23 140 38 72 105 94 167 56z"/>
<path d="M4151 1924 c-26 -33 -27 -66 -3 -87 35 -32 83 -16 100 32 24 68 -53
111 -97 55z"/>
<path d="M4881 2203 c9 -22 633 -1082 636 -1079 3 2 393 1057 393 1061 0 1
-172 5 -382 9 -211 3 -443 9 -517 13 -85 4 -132 3 -130 -4z m621 -250 c45
-100 53 -111 69 -102 16 8 21 5 31 -16 10 -21 9 -27 -6 -38 -17 -13 -17 -15
-1 -46 9 -18 15 -34 13 -36 -31 -26 -68 -27 -68 -1 0 7 -6 20 -13 30 -13 17
-18 16 -93 -18 -73 -34 -80 -36 -91 -20 -7 10 -13 25 -13 33 1 24 47 302 51
305 16 13 46 25 57 23 7 -1 36 -52 64 -114z"/>
<path d="M5416 1944 c-16 -79 -28 -166 -23 -170 6 -6 97 38 97 47 0 3 -15 39
-34 79 -32 69 -34 72 -40 44z"/>
<path d="M4473 1610 l-322 -550 645 0 c354 0 644 2 644 4 0 7 -623 1071 -634
1083 -9 10 -85 -112 -333 -537z m233 166 c16 -8 57 -16 92 -18 52 -2 69 -8 95
-30 18 -15 38 -27 45 -28 16 0 16 -40 -1 -40 -21 0 -56 30 -51 43 3 9 -11 13
-47 15 -75 3 -122 18 -149 47 -27 29 -24 31 16 11z m74 -2 c0 -2 -7 -4 -15 -4
-8 0 -15 4 -15 10 0 5 7 7 15 4 8 -4 15 -8 15 -10z m-35 -54 c11 -5 14 -9 7
-9 -30 -2 -133 -117 -132 -148 1 -4 10 10 22 31 17 34 22 37 30 22 5 -10 7
-28 4 -40 -3 -13 -2 -36 3 -52 7 -25 4 -32 -15 -47 -23 -17 -24 -17 -24 0 0
10 6 43 14 73 19 71 12 78 -8 9 -19 -69 -30 -187 -22 -234 4 -21 23 -54 44
-77 26 -29 31 -38 15 -29 -25 13 -73 79 -91 126 -7 17 -14 53 -17 80 -2 28 -8
49 -14 48 -14 -3 3 49 33 103 25 44 23 55 -4 32 -8 -7 1 4 20 25 19 21 55 50
80 63 25 14 36 22 25 18 -11 -3 -29 -8 -40 -11 -16 -3 -15 -1 5 11 28 17 37
18 65 6z m114 -25 c33 -17 56 -65 47 -99 -9 -34 -50 -81 -64 -72 -8 5 -6 15 9
35 27 37 22 78 -14 105 -26 19 -30 19 -55 5 -21 -11 -28 -24 -30 -52 -3 -35 1
-42 54 -90 31 -29 76 -78 101 -109 77 -101 149 -87 172 33 9 44 9 44 10 9 2
-53 -37 -122 -81 -143 -33 -16 -40 -16 -70 -4 -20 8 -50 36 -72 66 -21 28 -61
72 -90 98 -59 53 -77 81 -78 121 -1 45 12 72 45 93 38 23 78 24 116 4z m193
-145 c22 -24 26 -36 22 -67 -8 -55 -24 -92 -45 -104 -24 -13 -24 -3 1 28 22
28 26 82 10 113 -24 44 -79 49 -101 9 -21 -39 38 -70 60 -31 14 23 14 6 1 -19
-6 -11 -21 -19 -35 -19 -57 0 -75 73 -28 110 36 28 78 21 115 -20z m-333 -100
c-16 -20 -24 -45 -24 -72 0 -81 100 -128 174 -81 21 13 27 13 61 -2 21 -10 44
-14 50 -10 8 5 11 3 8 -6 -3 -8 -15 -16 -27 -17 -17 -3 -21 0 -15 9 4 7 -6 3
-22 -8 -16 -12 -45 -26 -64 -32 l-35 -10 37 2 c21 0 40 -2 44 -5 11 -12 -45
-20 -105 -16 -101 7 -161 70 -161 169 0 47 4 55 40 92 29 28 44 37 51 30 8 -8
4 -20 -12 -43z m226 -210 c-3 -5 -16 -10 -28 -10 -18 0 -19 2 -7 10 20 13 43
13 35 0z"/>
<path d="M4606 1535 c-3 -9 -6 -24 -5 -33 0 -9 5 -4 10 12 9 32 6 48 -5 21z"/>
<path d="M4592 1450 c0 -19 2 -27 5 -17 2 9 2 25 0 35 -3 9 -5 1 -5 -18z"/>
<path d="M3667 1803 c1 -107 5 -159 13 -167 9 -8 14 -8 17 2 3 6 9 10 14 6 5
-3 9 -82 9 -175 0 -111 -3 -168 -10 -164 -6 4 -10 58 -10 128 0 105 -3 125
-20 147 -19 25 -19 24 -19 -262 0 -158 3 -290 8 -292 5 -3 78 1 162 9 85 8
157 15 162 15 4 0 7 5 7 11 0 13 -321 881 -329 891 -3 4 -5 -63 -4 -149z m166
-325 c23 -46 35 -114 19 -104 -6 4 -17 25 -23 46 -14 46 -26 51 -35 15 -4 -18
-1 -30 14 -43 30 -27 52 -96 52 -167 0 -67 -10 -85 -37 -63 -45 37 -73 183
-59 302 7 51 10 57 29 54 14 -2 29 -17 40 -40z"/>
<path d="M3797 1344 c-10 -11 -9 -69 3 -98 15 -40 30 -31 30 17 -1 43 -21 93
-33 81z"/>
<path d="M5883 1850 c-22 -63 -98 -268 -167 -454 -69 -187 -124 -341 -123
-342 4 -5 330 -35 333 -31 2 2 3 215 2 473 l-3 469 -42 -115z m35 -310 c3
-106 -7 -168 -35 -227 -15 -33 -36 -42 -48 -22 -12 18 4 56 25 62 22 6 40 44
40 85 l0 27 -16 -32 c-19 -38 -42 -49 -52 -25 -13 31 -6 118 12 168 23 61 35
76 55 72 13 -3 17 -22 19 -108z m-140 -363 c-11 -19 -13 -6 -16 91 -2 100 -5
112 -18 102 -8 -7 -17 -11 -19 -8 -7 7 22 88 43 118 16 24 17 20 20 -128 2
-110 -1 -159 -10 -175z"/>
<path d="M5866 1573 c-13 -48 -15 -79 -6 -93 9 -13 11 -13 20 0 13 20 23 87
15 100 -10 15 -23 12 -29 -7z"/>
<path d="M2320 1658 c-36 -14 -304 -21 -377 -10 -35 5 -63 6 -63 3 0 -3 14
-19 31 -37 l31 -32 -9 -193 -8 -194 -29 -14 -29 -13 32 -30 31 -29 0 -219 0
-220 -34 -37 -34 -38 222 0 c121 0 228 -2 236 -5 12 -4 16 8 21 60 3 36 11 82
18 103 19 56 5 58 -42 5 -59 -66 -74 -71 -173 -63 l-84 7 0 162 c0 88 3 178 6
199 l7 37 63 0 c63 0 64 -1 92 -39 l28 -39 13 91 c6 51 14 104 16 120 7 41
-28 36 -55 -8 l-22 -36 -67 3 -66 3 -3 176 -2 176 70 6 c40 3 82 2 95 -3 13
-5 38 -33 54 -62 l31 -53 0 83 c0 56 5 93 16 113 18 37 17 40 -16 27z"/>
<path d="M2880 1658 c-31 -12 -348 -16 -410 -5 l-45 9 43 -40 c23 -22 42 -46
42 -53 0 -8 -9 -52 -20 -99 -12 -52 -20 -122 -20 -180 l0 -96 -32 -9 c-42 -13
-42 -34 -2 -54 30 -15 32 -20 38 -86 3 -38 8 -138 12 -221 l6 -151 -36 -40
c-20 -22 -36 -43 -36 -45 0 -3 23 -1 52 4 59 11 384 6 411 -6 14 -7 17 -3 17
26 0 19 9 70 20 113 11 43 17 81 14 84 -3 3 -16 -7 -27 -22 -12 -16 -36 -44
-53 -63 l-32 -34 -95 0 -94 0 -6 83 c-4 45 -7 137 -7 205 l0 122 43 1 c23 0
50 2 59 4 10 2 26 -12 43 -36 28 -43 45 -43 45 -1 0 15 9 60 20 101 11 41 20
78 20 83 0 19 -35 6 -71 -27 -36 -32 -45 -35 -99 -35 l-60 0 0 128 c0 70 3
150 6 178 l6 51 69 5 c98 7 116 2 152 -48 18 -24 35 -43 39 -44 4 0 7 30 6 68
0 37 5 80 11 95 19 49 16 54 -29 35z"/>
<path d="M8070 1654 c-19 -7 -66 -13 -103 -13 -127 -1 -225 -72 -292 -212 -44
-93 -59 -185 -52 -329 8 -178 52 -306 136 -402 47 -52 129 -98 178 -98 18 0
57 -11 87 -24 47 -21 59 -23 81 -13 25 11 26 15 21 67 -3 30 -8 145 -12 256
-7 224 -5 236 52 260 60 25 42 38 -43 29 -43 -4 -111 -7 -150 -6 -80 3 -89 -6
-45 -38 15 -12 32 -25 37 -29 7 -6 10 -71 9 -178 -2 -255 -1 -244 -24 -244
-44 0 -120 124 -156 255 -36 132 -27 393 17 496 27 62 77 108 128 120 58 13
85 3 104 -37 20 -41 34 -43 41 -6 14 70 27 154 24 156 -2 1 -19 -3 -38 -10z"/>
<path d="M3026 1624 l34 -32 0 -206 c0 -174 -2 -208 -15 -212 -8 -4 -15 -12
-15 -19 0 -7 7 -18 15 -25 13 -10 15 -50 15 -239 l0 -227 -30 -29 c-16 -16
-30 -31 -30 -34 0 -3 54 -5 120 -3 l121 3 -21 35 c-20 31 -22 52 -26 249 -3
118 -1 215 3 215 13 0 28 -14 44 -40 29 -46 129 -329 141 -400 14 -79 7 -75
117 -64 65 7 75 18 41 49 -11 10 -31 57 -45 104 -38 128 -81 235 -136 338 -31
57 -49 104 -49 125 0 38 31 108 84 191 21 32 50 86 65 120 19 42 41 72 67 92
l39 30 -105 6 c-58 3 -106 5 -107 4 -1 0 4 -14 12 -29 8 -16 15 -36 15 -45 0
-9 -30 -66 -66 -126 -36 -61 -77 -137 -91 -170 -14 -33 -27 -62 -30 -65 -3 -3
-2 83 2 190 5 141 11 201 21 217 8 12 14 24 14 25 0 2 -54 3 -119 3 l-119 0
34 -31z"/>
<path d="M1494 1636 c-135 -43 -232 -169 -272 -356 -16 -71 -26 -98 -44 -111
l-22 -17 22 -19 c18 -14 26 -40 42 -133 21 -130 36 -170 90 -250 50 -73 171
-157 241 -166 27 -4 53 -12 59 -19 5 -6 16 -47 23 -91 12 -68 17 -81 40 -94
25 -14 28 -13 53 12 32 31 33 51 20 374 -11 275 -6 321 38 366 l32 33 -148 0
c-81 1 -148 -3 -148 -7 0 -4 18 -20 40 -34 l40 -27 0 -213 c0 -139 -4 -215
-11 -219 -26 -17 -59 8 -107 79 -92 138 -133 314 -112 484 27 215 107 332 226
332 42 0 85 -22 101 -54 l16 -31 14 60 c8 33 16 71 19 85 l5 25 -108 2 c-67 1
-123 -3 -149 -11z"/>
<path d="M6010 1636 c0 -6 10 -20 23 -34 l22 -24 0 -453 0 -453 -22 -31 c-13
-16 -23 -34 -23 -38 0 -4 51 -5 114 -2 138 8 183 26 255 105 97 106 151 264
151 443 0 59 -7 134 -15 170 -30 126 -112 244 -204 295 -48 26 -60 28 -176 29
-72 1 -125 -2 -125 -7z m262 -103 c39 -37 85 -130 97 -197 14 -77 14 -304 0
-364 -26 -111 -141 -303 -166 -278 -9 9 -17 841 -9 863 8 19 43 8 78 -24z"/>
<path d="M6574 1615 l36 -33 3 -333 c1 -184 1 -390 0 -458 l-3 -125 -32 -33
-32 -33 122 0 c67 0 122 2 122 5 0 3 -9 18 -19 33 -16 23 -20 52 -25 183 -10
243 5 287 58 169 24 -52 89 -256 118 -367 l11 -42 81 5 c45 3 114 10 154 15
41 5 84 6 98 3 29 -8 30 -1 3 42 -20 34 -20 36 -5 177 9 78 19 171 22 207 4
36 12 68 18 72 16 11 94 10 101 -1 6 -11 55 -374 55 -413 0 -16 -9 -37 -20
-48 -11 -11 -20 -25 -20 -30 0 -6 44 -10 111 -10 l111 0 -16 22 c-26 37 -34
61 -50 159 -14 86 -46 322 -46 341 0 5 11 6 25 2 34 -8 35 23 1 36 -19 7 -27
21 -37 67 -6 32 -27 118 -45 191 -19 73 -34 153 -34 178 l0 44 -80 0 -80 0 0
-39 c0 -21 -15 -90 -34 -152 -19 -63 -43 -147 -52 -188 -14 -57 -23 -75 -41
-84 -28 -13 -29 -20 -2 -56 l21 -28 -17 -189 c-19 -217 -28 -259 -56 -275 -38
-20 -45 -7 -104 186 -20 66 -54 158 -76 204 -21 46 -39 88 -39 93 0 6 23 30
50 55 73 65 94 111 94 203 1 127 -55 217 -155 253 -29 10 -94 17 -187 20
l-144 5 36 -33z m246 -70 c47 -25 65 -68 64 -160 0 -93 -14 -130 -75 -193 -53
-54 -74 -56 -65 -4 3 20 6 112 6 205 0 162 1 167 20 167 12 0 34 -7 50 -15z
m549 -222 c29 -127 29 -123 -25 -123 -44 0 -45 1 -40 28 2 15 10 67 17 115 6
49 15 85 20 80 4 -4 17 -50 28 -100z"/>
<path d="M8395 1632 c-55 -27 -89 -66 -124 -143 -43 -96 -53 -169 -52 -393 1
-203 9 -265 48 -340 23 -45 104 -127 140 -142 71 -30 145 -11 207 52 71 73
110 184 127 362 25 258 -42 502 -163 588 -49 35 -129 41 -183 16z m110 -88
c51 -52 77 -178 78 -389 1 -234 -23 -395 -66 -442 -35 -39 -56 -29 -96 47 -43
81 -66 313 -52 520 10 147 27 209 68 252 31 32 45 35 68 12z"/>
<path d="M8810 1615 l32 -33 -1 -459 -1 -458 -35 -31 c-19 -17 -35 -33 -35
-35 0 -2 54 -4 120 -4 66 0 120 4 120 9 0 4 -11 21 -25 38 l-25 30 0 299 c0
180 4 298 9 295 9 -6 113 -263 146 -361 30 -89 45 -169 45 -237 l0 -68 95 0
c52 0 95 4 95 9 0 5 -10 15 -22 23 -32 21 -35 80 -30 537 l5 404 34 38 34 38
-110 -2 -110 -1 20 -32 c18 -30 19 -48 17 -270 -3 -235 -3 -238 -20 -194 -9
25 -51 135 -93 245 -49 129 -75 209 -71 225 l4 25 -115 2 -115 1 32 -33z"/>
<path d="M4182 960 c6 -18 611 -671 618 -668 14 5 610 659 610 669 0 6 -245 9
-616 9 -365 0 -614 -4 -612 -10z m508 -210 l0 -120 -40 0 -40 0 0 85 0 85 -42
-2 c-33 -2 -43 1 -43 12 0 9 11 16 30 18 16 2 40 12 53 23 14 10 38 19 53 19
l29 0 0 -120z m359 104 c2 -2 1 -10 -2 -19 -5 -12 -24 -15 -87 -15 -47 0 -80
-4 -80 -10 0 -5 0 -13 0 -16 0 -4 27 -8 60 -8 67 -2 109 -25 124 -69 19 -52
-53 -97 -154 -97 -50 0 -110 30 -110 55 0 20 63 20 80 0 16 -20 74 -19 94 1
23 22 20 41 -8 60 -21 13 -33 14 -82 4 -75 -16 -88 -5 -71 60 7 25 15 50 19
55 6 10 207 9 217 -1z"/>
<path d="M3862 947 c-57 -5 -100 -12 -95 -16 17 -15 312 -201 318 -201 17 0
-64 86 -102 109 -24 14 -43 28 -43 31 0 9 54 5 72 -5 9 -6 49 -52 90 -103 70
-87 84 -99 237 -197 89 -58 165 -105 168 -105 5 0 -72 87 -165 188 -44 47 -28
23 37 -58 l35 -42 -32 16 c-18 9 -55 46 -83 82 -29 36 -68 74 -90 85 -22 11
-39 21 -39 23 0 3 16 3 35 2 19 -2 35 -1 35 1 0 3 -41 49 -92 104 -106 113
-81 106 -286 86z"/>
<path d="M5437 847 c-59 -63 -107 -118 -107 -121 0 -4 18 8 40 25 52 42 64 29
19 -19 -20 -20 -52 -58 -73 -84 -20 -25 -49 -54 -63 -63 -30 -20 -25 -9 25 53
63 77 23 58 -59 -28 -162 -172 -161 -174 42 -44 188 120 222 144 215 151 -2 3
-24 -5 -48 -18 l-43 -21 25 27 c50 55 226 195 245 195 4 0 -8 -21 -27 -47 -43
-62 -48 -82 -16 -61 13 8 68 44 123 79 l100 64 -55 7 c-30 3 -96 10 -145 13
l-91 7 -107 -115z"/>
<path d="M5514 774 c-32 -29 -33 -32 -8 -15 29 19 62 51 52 51 -3 0 -22 -16
-44 -36z"/>
</g>
</svg>
