<?xml version="1.0" standalone="no"?>
<!DOCTYPE svg PUBLIC "-//W3C//DTD SVG 20010904//EN"
 "http://www.w3.org/TR/2001/REC-SVG-20010904/DTD/svg10.dtd">
<svg version="1.0" xmlns="http://www.w3.org/2000/svg"
 width="223.000000pt" height="246.000000pt" viewBox="0 0 223.000000 246.000000"
 preserveAspectRatio="xMidYMid meet">
<metadata>
Created by potrace 1.16, written by Peter Selinger 2001-2019
</metadata>
<g transform="translate(0.000000,246.000000) scale(0.100000,-0.100000)"
fill="#000000" stroke="none">
<path d="M490 2445 c0 -8 31 -47 69 -85 54 -55 86 -78 152 -109 129 -59 195
-72 517 -101 132 -11 152 -19 152 -61 0 -40 39 -90 101 -130 101 -64 156 -54
166 31 4 36 1 51 -17 73 -12 15 -29 27 -37 27 -21 0 -104 51 -179 111 -117 93
-176 111 -404 129 -180 14 -295 39 -411 89 -109 46 -109 46 -109 26z"/>
<path d="M814 2425 c-13 -33 37 -59 92 -49 43 8 43 19 2 44 -39 23 -86 26 -94
5z"/>
<path d="M550 2159 c-41 -22 -82 -47 -90 -55 -12 -12 -11 -14 10 -14 14 0 63
11 110 25 46 13 86 22 88 21 2 -2 -38 -27 -87 -56 -126 -72 -251 -170 -354
-280 -48 -51 -86 -95 -83 -97 2 -2 21 8 42 22 l39 27 3 -22 c2 -13 -33 -97
-87 -204 -87 -175 -122 -261 -136 -337 -6 -31 -3 -38 19 -52 31 -20 40 -54 61
-215 31 -238 80 -379 191 -549 101 -156 197 -263 265 -299 48 -24 37 6 -29 83
-138 161 -204 277 -223 394 -21 125 3 477 52 746 29 163 96 393 115 393 7 0
-3 -56 -46 -240 -61 -256 -71 -350 -39 -350 18 0 94 57 127 95 37 42 40 73 17
180 -11 52 -14 103 -9 195 5 109 3 130 -13 160 -35 68 -55 51 -163 -137 -48
-84 -69 -81 -26 4 45 89 147 216 280 349 102 102 144 137 193 160 34 16 62 32
62 35 1 4 -25 18 -58 33 -87 39 -138 35 -231 -15z m-315 -837 c-10 -34 -22
-65 -28 -69 -17 -10 -2 117 19 161 l19 39 3 -34 c2 -19 -4 -62 -13 -97z m-55
-275 c0 -34 -5 -69 -10 -77 -7 -10 -10 11 -10 68 0 53 4 81 10 77 6 -3 10 -34
10 -68z"/>
<path d="M888 2097 c-37 -13 -93 -41 -123 -62 -104 -71 -152 -157 -164 -290
-15 -155 16 -261 107 -374 25 -31 141 -150 257 -266 117 -116 255 -264 307
-330 102 -127 207 -235 273 -278 22 -14 69 -35 104 -47 78 -26 117 -21 216 25
205 94 365 366 365 621 0 46 -4 85 -8 88 -5 3 -23 -58 -40 -136 -79 -357 -230
-485 -447 -379 -83 41 -156 109 -297 279 -67 81 -224 249 -349 373 -125 124
-235 241 -245 260 -23 41 -25 169 -5 241 17 59 43 90 115 133 82 48 116 47
196 -7 100 -67 148 -147 149 -250 1 -69 -20 -130 -77 -217 -44 -67 -53 -110
-27 -131 24 -20 68 5 139 80 40 43 78 97 101 143 35 72 37 79 33 159 -4 95
-33 171 -95 246 -103 126 -313 177 -485 119z"/>
<path d="M1652 1579 c-147 -73 -211 -230 -148 -365 56 -120 198 -167 305 -102
22 14 43 41 62 82 48 100 34 131 -22 50 -32 -46 -78 -74 -121 -74 -41 1 -106
37 -122 69 -33 63 -15 133 48 188 46 41 97 57 161 50 94 -10 167 -67 214 -166
24 -51 26 -67 25 -171 -1 -134 -20 -202 -82 -284 -72 -97 -89 -136 -60 -136
30 0 100 45 127 82 67 91 131 310 131 449 0 85 -26 137 -115 226 -96 96 -171
133 -271 133 -59 0 -81 -5 -132 -31z"/>
<path d="M624 1187 c-73 -54 -193 -180 -228 -239 -49 -83 -57 -277 -19 -438
59 -252 248 -430 515 -484 218 -45 578 -21 578 38 0 24 -43 31 -181 31 l-127
0 74 21 c83 24 223 88 287 132 23 16 56 37 74 46 l32 16 -2 -28 c-2 -21 3 -28
20 -30 64 -9 163 49 163 95 0 20 -4 24 -17 18 -54 -23 -119 -13 -233 36 -36
15 -87 33 -113 40 -47 11 -48 11 -150 -40 -56 -28 -126 -56 -156 -61 -217 -40
-430 59 -514 239 -57 121 -46 293 25 406 84 134 98 161 98 190 0 68 -45 72
-126 12z"/>
<path d="M1509 183 c-61 -32 -71 -56 -22 -61 74 -7 169 42 142 74 -18 22 -60
17 -120 -13z"/>
</g>
</svg>
