<?xml version="1.0" encoding="UTF-8"?>
<svg xmlns="http://www.w3.org/2000/svg" width="48" height="36" viewBox="0 0 32 24"
     role="img" aria-label="Français — drapeau style médiéval moderne (bordure au-dessus)"
     shape-rendering="geometricPrecision">
  <title>FR — French Flag (UI medieval enamel badge, rim on top)</title>
  <desc>French tricolour with a gold enamel rim drawn on top of the flag. Subtle highlight, vignette and drop shadow. Clean SVG.</desc>

  <defs>
    <!-- Drop shadow behind the whole badge -->
    <filter id="drop" x="-20%" y="-20%" width="140%" height="160%" color-interpolation-filters="sRGB">
      <feOffset dy="0.6" />
      <feGaussianBlur stdDeviation="0.6" />
      <feColorMatrix type="matrix" values="0 0 0 0 0
                                           0 0 0 0 0
                                           0 0 0 0 0
                                           0 0 0 0.25 0"/>
      <feBlend in2="SourceGraphic" mode="normal"/>
    </filter>

    <!-- Vignette for enamel look -->
    <radialGradient id="vig" cx="30%" cy="20%" r="85%">
      <stop offset="0%" stop-color="#ffffff" stop-opacity="0.20"/>
      <stop offset="55%" stop-color="#ffffff" stop-opacity="0.06"/>
      <stop offset="100%" stop-color="#000000" stop-opacity="0.20"/>
    </radialGradient>

    <!-- Gold gradient for the rim -->
    <linearGradient id="gold" x1="0" y1="0" x2="0" y2="1">
      <stop offset="0%" stop-color="#E6C678"/>
      <stop offset="45%" stop-color="#C9A86C"/>
      <stop offset="55%" stop-color="#9E7F49"/>
      <stop offset="100%" stop-color="#8A6C3E"/>
    </linearGradient>

    <!-- Light sheen -->
    <linearGradient id="sheen" x1="0" y1="0" x2="1" y2="1">
      <stop offset="0%" stop-color="#FFFFFF" stop-opacity="0.35"/>
      <stop offset="40%" stop-color="#FFFFFF" stop-opacity="0.10"/>
      <stop offset="100%" stop-color="#FFFFFF" stop-opacity="0"/>
    </linearGradient>

    <!-- Mask keeps the flag inside rounded rectangle -->
    <mask id="clip">
      <rect x="0.5" y="0.5" width="31" height="23" rx="3" ry="3" fill="#fff"/>
    </mask>
  </defs>

  <!-- Badge group with shadow -->
  <g filter="url(#drop)">
    <!-- Flag body first (UNDER the rim) -->
    <g mask="url(#clip)">
      <!-- Base -->
      <rect x="0.5" y="0.5" width="31" height="23" rx="3" ry="3" fill="#111318"/>
      <!-- Tricolour stripes -->
      <g transform="translate(0.5,0.5)">
        <rect width="10.3333" height="23" fill="#0055A4"/>
        <rect x="10.3333" width="10.3333" height="23" fill="#FFFFFF"/>
        <rect x="20.6666" width="10.3334" height="23" fill="#EF4135"/>
      </g>
      <!-- Enamel effects -->
      <rect x="0.5" y="0.5" width="31" height="23" fill="url(#vig)"/>
      <rect x="0.5" y="0.5" width="31" height="23" fill="url(#sheen)"/>
      <!-- Subtle medieval corner hints -->
      <g opacity="0.32">
        <path d="M2.4,1.6 h2.1 v0.9 h-1.1 a1,1 0 0 1 -1.0,-0.9z" fill="#2a1f10"/>
        <path d="M29.6,1.6 h-2.1 v0.9 h1.1 a1,1 0 0 0 1.0,-0.9z" fill="#2a1f10"/>
        <path d="M2.4,22.4 h2.1 v-0.9 h-1.1 a1,1 0 0 0 -1.0,0.9z" fill="#2a1f10"/>
        <path d="M29.6,22.4 h-2.1 v-0.9 h1.1 a1,1 0 0 1 1.0,0.9z" fill="#2a1f10"/>
      </g>
    </g>

    <!-- GOLD RIM ON TOP -->
    <rect x="0.5" y="0.5" width="31" height="23" rx="3" ry="3"
          fill="none" stroke="url(#gold)" stroke-width="1.8"
          stroke-linejoin="round" stroke-linecap="round"
          vector-effect="non-scaling-stroke" pointer-events="none"/>
    <!-- Inner light bevel (very subtle) -->
    <rect x="1.2" y="1.2" width="29.6" height="21.6" rx="2.4" ry="2.4"
          fill="none" stroke="#ffffff" opacity="0.15" stroke-width="0.8"
          vector-effect="non-scaling-stroke" pointer-events="none"/>
  </g>
</svg>
