<svg xmlns="http://www.w3.org/2000/svg" viewBox="0 0 1200 600">
  <!-- Drapeau britannique (Union Jack) -->
  <!-- Fond bleu -->
  <rect width="1200" height="600" fill="#012169"/>

  <!-- Croix diagonales blanches -->
  <g fill="white">
    <!-- Diagonale haut-gauche vers bas-droite -->
    <polygon points="0,0 200,0 1200,400 1200,600 1000,600 0,200"/>
    <!-- Diagonale haut-droite vers bas-gauche -->
    <polygon points="1000,0 1200,0 1200,200 200,600 0,600 0,400"/>
  </g>

  <!-- Croix diagonales rouges -->
  <g fill="#C8102E">
    <!-- Diagonale rouge haut-gauche vers bas-droite -->
    <polygon points="0,0 100,0 1200,500 1200,600 1100,600 0,100"/>
    <!-- Diagonale rouge haut-droite vers bas-gauche -->
    <polygon points="1100,0 1200,0 1200,100 100,600 0,600 0,500"/>
  </g>

  <!-- Croix blanche de Saint George -->
  <g fill="white">
    <!-- Barre horizontale -->
    <rect x="0" y="250" width="1200" height="100"/>
    <!-- Barre verticale -->
    <rect x="550" y="0" width="100" height="600"/>
  </g>

  <!-- Croix rouge de Saint George -->
  <g fill="#C8102E">
    <!-- Barre horizontale rouge -->
    <rect x="0" y="270" width="1200" height="60"/>
    <!-- Barre verticale rouge -->
    <rect x="570" y="0" width="60" height="600"/>
  </g>
</svg>